<svg width="171" height="62" viewBox="0 0 171 62" fill="none" xmlns="http://www.w3.org/2000/svg">
<path d="M108.8 32.9582C107.893 32.9582 107.179 32.9015 106.658 32.7882C106.137 32.6635 105.768 32.4425 105.553 32.1252C105.338 31.8078 105.23 31.3432 105.23 30.7312V20.6842H107.338C107.327 20.9562 107.31 21.3415 107.287 21.8402C107.276 22.3275 107.264 22.8828 107.253 23.5062C107.253 24.1182 107.253 24.7472 107.253 25.3932C107.933 25.1778 108.653 24.9342 109.412 24.6622C110.183 24.3902 110.919 24.1125 111.622 23.8292C112.336 23.5458 112.937 23.2795 113.424 23.0302L114.546 24.9342C114.07 25.1382 113.526 25.3478 112.914 25.5632C112.313 25.7672 111.679 25.9712 111.01 26.1752C110.341 26.3792 109.684 26.5775 109.038 26.7702C108.392 26.9515 107.797 27.1215 107.253 27.2802V29.9322C107.253 30.1928 107.281 30.3912 107.338 30.5272C107.406 30.6518 107.536 30.7368 107.729 30.7822C107.922 30.8275 108.205 30.8502 108.579 30.8502C109.066 30.8502 109.616 30.8388 110.228 30.8162C110.84 30.7935 111.469 30.7652 112.115 30.7312C112.761 30.6858 113.379 30.6348 113.968 30.5782C114.557 30.5215 115.067 30.4592 115.498 30.3912C115.441 30.5952 115.39 30.8445 115.345 31.1392C115.311 31.4225 115.283 31.7058 115.26 31.9892C115.249 32.2612 115.243 32.4765 115.243 32.6352C114.642 32.6918 113.962 32.7485 113.203 32.8052C112.444 32.8505 111.679 32.8902 110.908 32.9242C110.137 32.9468 109.435 32.9582 108.8 32.9582ZM115.396 23.6082C115.192 23.2455 114.92 22.8545 114.58 22.4352C114.24 22.0158 113.934 21.6815 113.662 21.4322L114.631 20.7352C114.79 20.8825 114.982 21.0922 115.209 21.3642C115.447 21.6248 115.674 21.8968 115.889 22.1802C116.116 22.4635 116.286 22.7015 116.399 22.8942L115.396 23.6082ZM116.977 22.3842C116.841 22.1462 116.671 21.8968 116.467 21.6362C116.263 21.3642 116.048 21.1035 115.821 20.8542C115.606 20.6048 115.407 20.4008 115.226 20.2422L116.178 19.5282C116.348 19.6755 116.546 19.8852 116.773 20.1572C117.011 20.4178 117.238 20.6898 117.453 20.9732C117.68 21.2452 117.855 21.4775 117.98 21.6702L116.977 22.3842ZM123.199 33.2132C123.131 33.0658 123.023 32.8732 122.876 32.6352C122.729 32.3972 122.564 32.1592 122.383 31.9212C122.213 31.6832 122.049 31.4962 121.89 31.3602C124.043 30.6462 125.823 29.6658 127.228 28.4192C128.645 27.1725 129.665 25.5745 130.288 23.6252C129.755 23.6365 129.149 23.6535 128.469 23.6762C127.789 23.6988 127.092 23.7215 126.378 23.7442C125.675 23.7668 124.995 23.7895 124.338 23.8122C123.692 23.8348 123.125 23.8575 122.638 23.8802C122.151 23.9028 121.794 23.9198 121.567 23.9312L121.431 21.6362C121.76 21.6588 122.19 21.6758 122.723 21.6872C123.256 21.6985 123.845 21.7042 124.491 21.7042C125.148 21.7042 125.817 21.7042 126.497 21.7042C127.188 21.6928 127.857 21.6815 128.503 21.6702C129.149 21.6475 129.733 21.6248 130.254 21.6022C130.775 21.5795 131.189 21.5568 131.495 21.5342L132.872 22.2482C132.487 24.0615 131.852 25.6878 130.968 27.1272C130.084 28.5552 128.985 29.7848 127.67 30.8162C126.355 31.8362 124.865 32.6352 123.199 33.2132ZM143.463 33.8592C143.418 33.6325 143.361 33.3662 143.293 33.0602C143.225 32.7428 143.129 32.4765 143.004 32.2612C143.729 32.2725 144.211 32.2215 144.449 32.1082C144.687 31.9948 144.8 31.7738 144.789 31.4452C144.789 31.3318 144.778 31.0258 144.755 30.5272C144.744 30.0285 144.727 29.4505 144.704 28.7932C144.081 29.6205 143.327 30.3742 142.443 31.0542C141.559 31.7228 140.658 32.2782 139.74 32.7202C139.638 32.4935 139.496 32.2555 139.315 32.0062C139.134 31.7455 138.947 31.5415 138.754 31.3942C139.309 31.1675 139.893 30.8615 140.505 30.4762C141.117 30.0795 141.701 29.6432 142.256 29.1672C142.823 28.6798 143.304 28.1868 143.701 27.6882C143.044 27.6995 142.42 27.7165 141.831 27.7392C141.242 27.7618 140.743 27.7845 140.335 27.8072C139.938 27.8185 139.683 27.8355 139.57 27.8582L139.485 26.2772C139.734 26.2885 140.125 26.2942 140.658 26.2942C141.191 26.2942 141.803 26.2885 142.494 26.2772C143.185 26.2545 143.894 26.2375 144.619 26.2262L144.517 23.5402H146.183L146.268 26.1752C146.937 26.1525 147.543 26.1242 148.087 26.0902C148.631 26.0562 149.045 26.0335 149.328 26.0222V27.5862C149.192 27.5748 148.846 27.5748 148.291 27.5862C147.736 27.5862 147.078 27.5975 146.319 27.6202C146.342 28.2435 146.359 28.8555 146.37 29.4562C146.393 30.0455 146.41 30.5442 146.421 30.9522C146.444 31.3602 146.455 31.6095 146.455 31.7002C146.489 32.5275 146.257 33.0942 145.758 33.4002C145.271 33.7062 144.506 33.8592 143.463 33.8592ZM154.479 27.9092C154.49 27.7505 154.496 27.5352 154.496 27.2632C154.496 26.9912 154.496 26.7192 154.496 26.4472C154.496 26.1752 154.49 25.9598 154.479 25.8012C154.694 25.8125 155.074 25.8238 155.618 25.8352C156.173 25.8465 156.831 25.8578 157.59 25.8692C158.361 25.8805 159.182 25.8918 160.055 25.9032C160.928 25.9032 161.8 25.9032 162.673 25.9032C163.546 25.9032 164.367 25.8975 165.138 25.8862C165.92 25.8748 166.594 25.8635 167.161 25.8522C167.728 25.8408 168.13 25.8238 168.368 25.8012C168.357 25.9485 168.345 26.1582 168.334 26.4302C168.334 26.7022 168.334 26.9798 168.334 27.2632C168.345 27.5352 168.351 27.7448 168.351 27.8922C168.068 27.8808 167.648 27.8695 167.093 27.8582C166.549 27.8468 165.909 27.8355 165.172 27.8242C164.447 27.8128 163.67 27.8072 162.843 27.8072C162.027 27.8072 161.2 27.8072 160.361 27.8072C159.522 27.8072 158.723 27.8128 157.964 27.8242C157.205 27.8355 156.519 27.8468 155.907 27.8582C155.306 27.8695 154.83 27.8865 154.479 27.9092Z" fill="#0852FF"/>
<path d="M21.3535 10.1823C22.0834 8.63036 21.2465 9.04075 21.7969 7.81563C22.5327 6.14135 25.032 3.4829 26.3254 2.09236C27.011 1.43776 27.6376 1.15036 28.1665 1.18951L28.2461 1.23004C29.3427 1.349 28.9597 2.49204 27.0134 4.7002C24.7156 9.07082 24.4692 9.92797 23.9657 11.0306C28.1313 6.04251 33.5595 1.94769 38.4017 0.62776C40.0572 0.174065 41.2053 0.90457 41.2942 2.41318C41.4413 5.22658 38.5569 11.5565 28.998 18.274C35.3039 22.0471 37.597 27.7086 35.9906 33.7898C32.4804 47.0136 14.4044 60.8532 4.45662 58.0701C0.293521 55.5545 2.85528 49.1441 6.88435 44.4419C8.47373 42.8465 8.84064 42.0298 9.45398 40.3559L10.2729 37.8249L11.9007 32.967C15.2172 22.8432 19.1561 15.0012 21.3535 10.1823ZM5.26408 56.5995C15.1497 58.1594 30.3209 45.2667 33.5143 34.3276C35.2392 28.3275 33.8097 22.5411 26.7901 19.9936C26.4266 19.9132 24.9599 19.0205 26.6945 17.7918C35.8128 11.7281 37.6333 7.92986 39.4705 4.62096C39.7577 3.76368 40.9583 0.946112 37.5413 2.3432C33.5834 3.94586 25.2638 10.3741 21.112 17.5643C17.364 24.0192 14.6709 32.2652 12.4332 37.8998C12.1091 38.6757 11.8667 39.4513 12.7524 38.8776C17.6075 35.6409 23.1206 33.1363 26.52 32.9219C27.6634 32.9184 27.7276 34.1008 26.5802 34.1859C20.4393 35.3467 16.6822 37.8459 12.9291 40.2636C11.1763 41.8594 10.8583 42.5129 10.4202 46.4292C10.175 48.9176 9.73307 50.4278 9.09841 50.8784C8.71479 51.2058 8.30442 51.2478 7.86528 51.0453C7.42613 50.8427 7.21531 50.1501 7.27766 48.8857C7.34464 48.3554 7.65804 46.9679 8.173 44.8049C4.63739 48.6084 1.98993 55.1007 5.26408 56.5995ZM43.2711 24.7141C43.9814 24.3856 45.43 25.6453 44.6573 27.2382C43.9295 28.7493 41.9217 30.5499 39.6804 31.2908C39.4722 31.373 39.1395 31.4964 38.7297 32.3541C37.7756 34.3145 37.6937 36.8023 38.9844 37.1246C41.0268 37.9339 47.8249 30.8987 49.751 29.0984C50.4814 28.3621 50.9373 29.0539 50.4151 29.708C48.7172 31.0182 41.4632 39.8492 38.1502 38.3098C34.1979 36.4869 39.0722 26.2359 43.2711 24.7141ZM43.3767 26.712C42.1603 27.3682 40.9565 28.5954 40.0286 30.0255C41.484 29.4909 43.9142 27.4036 43.3767 26.712ZM53.9201 24.5588C53.0665 24.4799 51.4504 25.7899 49.3213 29.222C48.5607 30.5701 47.8289 32.1628 46.771 34.5722C46.4001 35.4705 46.3431 35.7969 47.3574 35.1005C51.8757 32.0688 56.7495 29.2807 59.0705 28.5802C60.6424 28.1676 60.576 29.5135 59.7104 29.6793C56.8645 30.259 51.3193 33.4163 46.5727 36.938C45.8135 37.4298 45.2384 38.3287 44.9083 39.2269C44.1644 41.0643 43.987 41.3503 43.3288 43.1059C42.7643 44.6166 43.0467 45.5129 43.3519 46.7761C44.5111 51.4215 40.3056 60.5286 37.4149 61.19C36.4268 61.3562 36.2174 59.8072 36.3413 58.9504C36.7044 55.7276 38.8624 50.0524 40.6636 44.9901C40.4387 44.583 39.9969 43.6056 39.4614 42.8732C38.5845 41.6117 39.6744 41.0374 40.0212 40.6285C40.7945 39.8513 41.2109 39.6869 42.272 38.868C43.1209 38.2129 44.0201 36.5381 44.387 35.7214C45.9116 32.128 46.4559 31.0252 48.018 28.3289C49.4534 25.7145 51.2953 23.1396 53.5714 22.5209C54.1532 22.3152 55.1212 22.5569 55.5951 22.8817L55.7116 23.0036C56.1266 23.6956 55.5748 25.7772 54.7702 25.535C54.3679 25.4139 54.5306 24.5977 53.9201 24.5588ZM38.0992 58.9042C39.5567 58.3287 42.701 50.0406 42.0564 48.2074C41.9742 47.3921 41.7927 47.7597 41.7438 47.9229C40.6886 51.1071 38.714 56.3739 38.0992 58.9042ZM42.6261 39.968C41.8629 40.5413 41.2201 41.155 40.6243 41.6462L41.4523 43.0709C41.8293 42.0503 42.2123 40.9072 42.6261 39.968ZM72.931 20.8299C71.6683 22.4242 66.3309 30.4745 60.8675 31.1438C60.4572 31.1859 60.2797 31.4719 60.2288 31.676C59.3651 34.2886 57.8459 36.944 56.3082 36.6633C55.9039 36.583 55.4561 35.728 55.3497 35.4021C54.7459 33.5688 56.15 29.935 57.8171 28.421C58.2616 27.6855 58.6648 26.1346 59.0872 25.8479C59.683 25.3567 60.9556 26.046 60.9836 27.9626C61.0003 28.4519 60.8985 28.86 60.7826 29.5537C60.7237 29.9209 60.9607 30.0833 61.0832 30.0829C65.2056 30.1109 71.0331 22.0592 72.0527 20.4248C71.1745 20.0197 71.1899 18.8778 71.6466 17.8977C72.1052 16.8767 73.4274 15.7308 74.3586 15.891C74.765 15.9306 75.4719 16.4993 75.2663 17.3563C75.2114 17.642 74.9851 18.0913 74.6791 18.5C74.1529 19.2357 74.0571 19.5214 75.0338 20.4156C76.3619 21.6349 76.3504 22.6952 75.7304 23.6759C71.1241 31.8055 67.3491 40.4626 70.3836 41.0242C72.7528 41.8325 83.2618 30.7485 85.0286 28.8671C85.7591 28.1308 86.2149 28.8227 85.6927 29.4768C79.7637 35.449 73.1336 43.2178 69.8293 42.3308C65.02 41.3262 70.7728 28.9927 74.0046 23.0695C74.1064 22.6614 74.7572 21.8846 73.8033 21.3573C73.5255 21.1951 73.2068 21.0329 72.931 20.8299ZM57.2991 34.7843C58.2217 34.2921 59.1979 31.8831 59.2214 30.578C59.2395 30.2109 58.8493 29.8451 58.3572 29.8874C57.3717 30.8284 56.5232 34.7867 57.2991 34.7843ZM87.3135 24.5781C88.0239 24.2497 89.4724 25.5094 88.6998 27.1022C87.972 28.6133 85.9642 30.4139 83.7228 31.1548C83.5146 31.2371 83.1819 31.3604 82.7721 32.2181C81.818 34.1785 81.7362 36.6664 83.0269 36.9886C85.0693 37.7979 91.8673 30.7627 93.7935 28.9624C94.5239 28.2261 94.9797 28.9179 94.4575 29.572C92.7597 30.8823 85.5056 39.7133 82.1926 38.1738C78.2404 36.3509 83.1147 26.0999 87.3135 24.5781ZM87.4192 26.576C86.2027 27.2323 84.999 28.4594 84.071 29.8896C85.5264 29.3549 87.9567 27.2676 87.4192 26.576Z" fill="#0852FF"/>
</svg>
