<svg width="171" height="76" viewBox="0 0 171 76" fill="none" xmlns="http://www.w3.org/2000/svg">
<path d="M113.083 34.6125C112.981 34.4765 112.834 34.3235 112.641 34.1535C112.46 33.9835 112.267 33.8191 112.063 33.6605C111.859 33.5018 111.672 33.3771 111.502 33.2865C111.808 33.0485 112.143 32.7595 112.505 32.4195C112.868 32.0795 113.231 31.7111 113.593 31.3145C113.956 30.9178 114.29 30.5211 114.596 30.1245C113.973 30.1358 113.253 30.1585 112.437 30.1925C111.633 30.2151 110.8 30.2435 109.938 30.2775C109.088 30.3115 108.267 30.3455 107.473 30.3795C106.68 30.4135 105.977 30.4418 105.365 30.4645C104.753 30.4871 104.3 30.5098 104.005 30.5325L103.92 28.3905C104.294 28.4131 104.804 28.4301 105.45 28.4415C106.108 28.4415 106.839 28.4415 107.643 28.4415C108.459 28.4301 109.298 28.4188 110.159 28.4075C111.021 28.3848 111.848 28.3621 112.641 28.3395C113.446 28.3055 114.16 28.2658 114.783 28.2205C115.418 28.1751 115.9 28.1298 116.228 28.0845L117.571 29.1215C117.322 29.5748 117.016 30.0565 116.653 30.5665C116.291 31.0765 115.9 31.5865 115.48 32.0965C115.072 32.5951 114.659 33.0655 114.239 33.5075C113.831 33.9381 113.446 34.3065 113.083 34.6125ZM106.521 41.3955C106.419 41.2481 106.283 41.0725 106.113 40.8685C105.943 40.6758 105.762 40.4888 105.569 40.3075C105.377 40.1148 105.19 39.9675 105.008 39.8655C106.062 39.2761 106.901 38.5565 107.524 37.7065C108.148 36.8565 108.59 35.8931 108.85 34.8165C109.111 33.7398 109.219 32.5781 109.173 31.3315H111.298C111.298 33.6435 110.907 35.6325 110.125 37.2985C109.355 38.9531 108.153 40.3188 106.521 41.3955ZM123.691 40.5965C123.623 40.4491 123.516 40.2565 123.368 40.0185C123.221 39.7805 123.057 39.5425 122.875 39.3045C122.705 39.0665 122.541 38.8795 122.382 38.7435C124.536 38.0295 126.315 37.0491 127.72 35.8025C129.137 34.5558 130.157 32.9578 130.78 31.0085C130.248 31.0198 129.641 31.0368 128.961 31.0595C128.281 31.0821 127.584 31.1048 126.87 31.1275C126.168 31.1501 125.488 31.1728 124.83 31.1955C124.184 31.2181 123.618 31.2408 123.13 31.2635C122.643 31.2861 122.286 31.3031 122.059 31.3145L121.923 29.0195C122.252 29.0421 122.683 29.0591 123.215 29.0705C123.748 29.0818 124.337 29.0875 124.983 29.0875C125.641 29.0875 126.309 29.0875 126.989 29.0875C127.681 29.0761 128.349 29.0648 128.995 29.0535C129.641 29.0308 130.225 29.0081 130.746 28.9855C131.268 28.9628 131.681 28.9401 131.987 28.9175L133.364 29.6315C132.979 31.4448 132.344 33.0711 131.46 34.5105C130.576 35.9385 129.477 37.1681 128.162 38.1995C126.848 39.2195 125.357 40.0185 123.691 40.5965ZM139.603 41.4805C139.456 41.1631 139.275 40.8345 139.059 40.4945C138.844 40.1431 138.64 39.8768 138.447 39.6955C139.705 39.2421 140.895 38.6471 142.017 37.9105C143.151 37.1738 144.171 36.3295 145.077 35.3775C144.737 35.1508 144.403 34.9411 144.074 34.7485C143.746 34.5558 143.428 34.3915 143.122 34.2555L144.295 32.6915C144.941 32.9861 145.633 33.3658 146.369 33.8305C146.664 33.4111 146.942 32.9861 147.202 32.5555C147.463 32.1135 147.69 31.6658 147.882 31.2125C147.406 31.2351 146.891 31.2635 146.335 31.2975C145.791 31.3201 145.281 31.3428 144.805 31.3655C144.329 31.3768 143.955 31.3881 143.683 31.3995C143.185 32.1588 142.624 32.8841 142 33.5755C141.377 34.2555 140.686 34.8845 139.926 35.4625C139.745 35.2358 139.507 34.9751 139.212 34.6805C138.918 34.3858 138.657 34.1761 138.43 34.0515C139.224 33.4848 139.966 32.8105 140.657 32.0285C141.36 31.2465 141.966 30.4135 142.476 29.5295C142.998 28.6455 143.389 27.7785 143.649 26.9285L145.604 27.5405C145.48 27.8918 145.344 28.2431 145.196 28.5945C145.049 28.9345 144.89 29.2688 144.72 29.5975C145.219 29.5861 145.757 29.5748 146.335 29.5635C146.925 29.5408 147.474 29.5181 147.984 29.4955C148.494 29.4615 148.885 29.4275 149.157 29.3935L150.483 30.1075C150.189 31.0141 149.837 31.8755 149.429 32.6915C149.021 33.4961 148.568 34.2611 148.069 34.9865C148.5 35.3038 148.902 35.6268 149.276 35.9555C149.662 36.2728 149.979 36.5731 150.228 36.8565C150.07 36.9698 149.888 37.1285 149.684 37.3325C149.492 37.5365 149.305 37.7461 149.123 37.9615C148.953 38.1768 148.817 38.3638 148.715 38.5225C148.183 37.9218 147.52 37.2928 146.726 36.6355C145.774 37.6895 144.698 38.6188 143.496 39.4235C142.306 40.2281 141.009 40.9138 139.603 41.4805ZM154.971 35.2925C154.983 35.1338 154.988 34.9185 154.988 34.6465C154.988 34.3745 154.988 34.1025 154.988 33.8305C154.988 33.5585 154.983 33.3431 154.971 33.1845C155.187 33.1958 155.566 33.2071 156.11 33.2185C156.666 33.2298 157.323 33.2411 158.082 33.2525C158.853 33.2638 159.675 33.2751 160.547 33.2865C161.42 33.2865 162.293 33.2865 163.165 33.2865C164.038 33.2865 164.86 33.2808 165.63 33.2695C166.412 33.2581 167.087 33.2468 167.653 33.2355C168.22 33.2241 168.622 33.2071 168.86 33.1845C168.849 33.3318 168.838 33.5415 168.826 33.8135C168.826 34.0855 168.826 34.3631 168.826 34.6465C168.838 34.9185 168.843 35.1281 168.843 35.2755C168.56 35.2641 168.141 35.2528 167.585 35.2415C167.041 35.2301 166.401 35.2188 165.664 35.2075C164.939 35.1961 164.163 35.1905 163.335 35.1905C162.519 35.1905 161.692 35.1905 160.853 35.1905C160.015 35.1905 159.216 35.1961 158.456 35.2075C157.697 35.2188 157.011 35.2301 156.399 35.2415C155.799 35.2528 155.323 35.2698 154.971 35.2925Z" fill="#E5803C"/>
<path d="M39.2515 34.3031C38.8777 33.9628 39.234 33.6691 35.2222 33.8278C34.0013 33.8316 33.8059 33.8322 33.4552 35.0037C32.9394 37.5413 32.5261 39.9811 32.1273 42.1282C29.2456 57.9872 29.8233 73.0065 31.8737 72.0248C33.0258 71.436 33.5068 74.5558 31.1042 74.7583C27.1581 74.5754 27.296 59.8953 29.7767 43.2572C30.1652 40.3298 30.7586 37.2067 31.3985 34.1322C27.7262 34.3386 23.7536 34.6923 21.295 35.0413C20.753 35.1405 19.8227 35.1921 18.8202 36.7071L17.174 39.3945C13.4548 45.5022 11.9087 48.1405 10.4314 51.3639C8.25526 63.8069 3.04371 59.58 5.15445 54.4039C6.66304 50.5464 9.56216 48.1965 8.11267 42.9339C7.56607 40.1557 5.84258 37.4787 5.12207 37.2371C3.85233 37.241 2.85082 36.7564 2.61072 35.6842C2.11055 32.9546 4.01924 31.8758 5.2825 32.9936C5.69797 33.48 5.84521 34.455 8.03802 34.5457C10.1452 34.3929 13.041 34.0914 16.237 33.6426C19.1936 33.097 18.9662 32.7563 20.1176 31.1921C26.6784 20.9302 34.6956 8.85935 38.7694 3.48211C41.4236 0.157578 42.9503 0.884409 43.7933 1.61335C45.7977 4.53334 41.034 8.05947 38.2816 17.3342C36.9732 21.0935 35.6094 25.9747 34.5627 30.3672C34.4434 30.8065 34.2584 31.5874 35.3793 31.6327C40.1164 31.6181 42.3852 32.1475 42.289 34.0986C41.5218 36.7833 37.7302 37.429 39.2515 34.3031ZM21.842 31.8695C21.2127 32.7493 21.1566 32.8958 22.4384 32.648C24.6945 32.446 28.2692 32.2399 30.3811 31.9895C32.3002 31.691 31.8775 31.3509 32.3379 29.9351C33.8467 23.1027 36.4766 13.3407 38.6482 7.92052C34.5424 12.9565 26.3395 24.8328 21.842 31.8695ZM7.49026 36.7421C7.85689 37.2286 9.81661 39.0758 10.4775 44.4872C10.5855 45.2672 10.3548 46.9748 11.7913 44.5807L14.9836 39.2549C15.5153 38.3754 16.0445 37.5447 16.6763 36.6162C17.0422 36.1273 17.1543 35.8344 16.4169 35.9342C14.3538 36.1844 10.7279 36.4394 7.69041 36.6439C7.64158 36.644 7.53909 36.7419 7.49026 36.7421ZM49.1952 31.6388C48.1744 31.5444 46.2417 33.111 43.6955 37.2155C42.7859 38.8277 41.9107 40.7324 40.6456 43.6138C40.202 44.6881 40.1339 45.0784 41.3469 44.2456C46.7503 40.62 52.5789 37.2856 55.3546 36.448C57.2344 35.9545 57.155 37.5641 56.1199 37.7624C52.7165 38.4557 46.0849 42.2314 40.4084 46.4431C39.5005 47.0312 38.8127 48.1062 38.4179 49.1804C37.5283 51.3778 37.3161 51.7198 36.529 53.8193C35.854 55.6259 36.1917 56.6978 36.5567 58.2085C37.9429 63.764 32.9136 74.6551 29.4566 75.4461C28.2749 75.6449 28.0245 73.7924 28.1726 72.7678C28.6069 68.9136 31.1877 62.1267 33.3417 56.0726C33.0727 55.5857 32.5444 54.4169 31.904 53.541C30.8553 52.0324 32.1588 51.3456 32.5735 50.8566C33.4982 49.9271 33.9962 49.7305 35.2652 48.7512C36.2804 47.9677 37.3558 45.9649 37.7946 44.9881C39.6178 40.6908 40.2688 39.372 42.1368 36.1474C43.8535 33.0208 46.0562 29.9415 48.7783 29.2016C49.474 28.9556 50.6316 29.2446 51.1984 29.6331L51.3377 29.7789C51.834 30.6065 51.1741 33.0958 50.2119 32.8061C49.7307 32.6613 49.9253 31.6853 49.1952 31.6388ZM30.275 72.7125C32.0179 72.0243 35.7782 62.1125 35.0074 59.9202C34.909 58.9451 34.692 59.3847 34.6336 59.58C33.3716 63.3879 31.0102 69.6865 30.275 72.7125ZM35.6887 50.0667C34.7759 50.7523 34.0073 51.4862 33.2947 52.0736L34.2849 53.7775C34.7358 52.5569 35.1938 51.1899 35.6887 50.0667ZM88.5898 19.0809C89.2889 16.7866 80.0196 16.6201 66.5688 18.076C65.5848 18.2253 64.5593 18.2285 63.7618 19.5477C57.2409 30.9799 48.9069 50.4648 54.1724 51.619C57.0056 52.5856 66.7994 39.1437 69.1029 36.9908C69.9764 36.1102 70.5215 36.9376 69.897 37.7199C67.8666 39.2868 58.1887 54.3377 53.4189 53.0356C51.062 52.3114 50.557 49.6794 50.9472 45.7278C52.1526 38.116 56.206 28.2033 60.6634 19.9962C61.3609 18.726 61.0262 18.5808 59.0583 18.8795C54.5366 19.4787 50.1028 20.2727 45.3713 21.1651C43.7452 21.4628 42.5364 21.2226 42.2402 20.2969C41.8656 18.9813 42.7391 18.1008 43.3988 18.5864C43.6333 18.7808 44.6252 19.4605 45.7044 19.3596C49.2983 18.7633 54.7112 17.9175 60.6028 17.2653C62.473 16.9669 62.5435 16.5278 63.0655 15.8434C65.8823 11.2016 68.595 7.68176 70.6158 6.30997C73.3932 4.44815 75.1191 7.07638 72.5883 8.88867C72.0318 9.28055 70.6036 9.52881 68.1495 12.7552C67.4762 13.5376 67.1054 14.124 66.2591 15.4433C65.7811 16.2251 65.7522 16.8105 66.6898 16.6125C78.8076 15.4534 90.3866 15.3201 89.8715 18.8331C90.102 20.1004 88.0685 20.7407 88.5898 19.0809ZM71.9139 31.715C72.7634 31.3222 74.4958 32.8287 73.5717 34.7336C72.7014 36.5407 70.3002 38.694 67.6198 39.5801C67.3708 39.6784 66.9729 39.826 66.4829 40.8517C65.3418 43.1961 65.244 46.1714 66.7875 46.5568C69.1812 47.5248 76.9475 39.5513 82.1029 34.0245C80.3768 34.3712 79.6635 33.9832 79.5507 33.3008C79.2586 31.3021 84.2851 26.4096 86.4394 27.2808C87.8756 27.8616 85.8979 31.3304 84.8146 32.5042C86.6288 32.3523 91.0048 32.729 88.9246 36.2956C85.3488 41.4762 79.8576 51.8323 81.8798 52.4113C83.0398 52.6516 82.2056 53.7271 81.2969 53.3397C77.9873 52.1307 84.4666 40.5523 87.2906 35.7641C88.5709 33.5656 85.0939 33.7714 83.5216 33.9713C80.2813 37.2976 70.2866 49.8623 65.7898 47.9742C61.0072 45.9406 66.8925 33.5349 71.9139 31.715ZM83.147 32.6557C84.0229 31.7263 85.7059 29.2827 85.6443 28.5513C85.4851 27.8203 81.0583 31.4429 81.0494 32.6134C81.023 33.1499 82.4585 32.7553 83.147 32.6557ZM72.0403 34.1043C70.5855 34.8891 69.146 36.3566 68.0362 38.067C69.7767 37.4276 72.6831 34.9314 72.0403 34.1043Z" fill="#E5803C"/>
</svg>
