<svg width="74" height="182" viewBox="0 0 74 182" fill="none" xmlns="http://www.w3.org/2000/svg">
<path d="M49.4883 49C46.6883 51.4 43.6549 51.3333 42.4883 51V26.5C43.1549 24.5 45.2883 20 48.4883 18C53.4883 22 52.9883 46 49.4883 49Z" fill="#283156"/>
<path d="M72.7477 124.466C72.3352 123.333 71.0855 120.98 69.5316 121.334C67.8903 121.705 68.2819 124.096 68.0319 125.262C67.6362 127.099 66.8363 128.911 65.2866 130.057C60.85 133.336 61.6748 137.518 59.4961 141.709C61.679 141.367 63.8827 141.017 65.9407 140.209C72.2228 137.739 75.0514 130.786 72.7518 124.466H72.7477Z" fill="#FFE5D8"/>
<path d="M67.8847 116.047C69.5093 121.054 73.0295 129.565 66.9682 133.06C64.8353 134.289 62.2483 134.347 59.7862 134.377C53.2417 134.447 46.7013 134.518 40.1568 134.589C40.4734 130.861 40.6983 127.107 41.0608 123.387C41.344 120.488 40.5359 117.497 38.832 115.135C43.152 113.743 48.0136 115.93 52.3086 114.422C59.6113 111.86 54.983 101.712 53.3875 96.7048C52.2044 91.1893 49.3841 85.9195 47.6428 80.583C48.0469 81.8119 50.4964 83.5158 51.4004 84.4947C52.6876 85.8986 53.9416 87.3359 55.1163 88.8356C60.2403 95.3676 65.3393 108.173 67.8888 116.047H67.8847Z" fill="#E4F0FF"/>
<path d="M43.7046 69.8107L41.4134 75.5887L41.2259 75.2888C40.8968 72.5477 40.072 70.044 40.2011 67.332L43.7046 69.8107Z" fill="#E5E5E5"/>
<path d="M40.2258 70.8309C41.5213 73.4304 42.9127 75.8757 44.8332 78.0461C46.6787 80.1332 48.445 82.3661 49.4698 84.9823C50.6945 88.1066 52.0568 92.964 49.9863 95.6052C48.9449 96.9341 46.1121 96.8133 44.6791 97.7089C41.8171 99.5002 39.9716 102.337 36.414 102.891C31.3733 103.624 26.7284 104.924 21.5419 104.774C12.727 104.483 12.9311 105.445 8.08624 94.4929C6.50738 90.9311 4.84937 88.3691 5.64922 84.3157C7.06561 77.1171 10.6816 70.3351 15.8805 65.0653C17.8677 63.0491 19.659 61.9701 20.9379 59.2498C20.9295 59.0915 22.2834 56.9794 22.3584 53.0594C22.4168 51.468 21.6252 46.0566 21.217 44.4319C21.217 44.4111 21.2045 44.3819 21.2045 44.3652C21.2045 44.3861 21.217 44.4152 21.2378 44.4527C21.6127 45.2067 24.7705 48.6477 27.6032 48.4894C29.2987 48.3936 34.7685 47.7812 35.4975 47.7937C35.535 50.7223 35.0934 53.93 35.61 56.9961C36.4182 61.8118 38.0512 66.4651 40.2258 70.8309Z" fill="#FFE5D8"/>
<path d="M30.8479 69.6601L40.0628 67.4355L45.2451 76.8587C45.2451 76.8587 50.2274 85.2446 50.3066 85.482C50.3857 85.7195 51.2564 93.7096 51.2564 93.7096L50.9398 96.8756C50.9398 96.8756 39.8628 87.2233 39.4671 86.7484C39.0713 86.2735 33.7723 78.9166 33.7723 78.9166L31.5561 73.2219L30.8438 69.6601H30.8479Z" fill="white"/>
<path d="M35.467 49.4099C35.4545 51.6012 35.1338 54.1715 35.6087 56.9959C31.9552 57.9957 26.9979 58.379 23.7027 59.0955C22.7237 59.2955 21.7447 59.4788 20.7532 59.6413C20.8157 59.5121 20.8741 59.3788 20.9365 59.2497C20.9365 59.2288 20.9449 59.2205 20.9532 59.1997C21.753 57.1751 21.4739 54.3131 21.5114 52.2052C21.5698 50.593 20.47 44.4942 20.0742 42.957C20.1117 43.1112 20.5491 43.6944 21.2157 44.4317C21.224 44.4401 21.2365 44.4401 21.2365 44.4484C22.7737 46.1397 25.5273 48.5851 27.6019 48.4851C29.3266 48.5726 28.56 48.5393 30.0223 48.6059C32.0219 48.9267 33.9298 49.2308 35.4712 49.4099H35.467Z" fill="#F9CEBC"/>
<path d="M62.9079 175.852C61.6123 172.474 60.3126 169.1 59.017 165.721C59.3711 167.729 59.7252 169.766 59.5502 171.799C59.3752 173.832 58.6004 175.894 57.0424 177.21C52.6432 180.926 47.2193 177.335 42.716 176.098C38.9751 175.069 35.0384 176.369 31.3141 177.469C25.5486 179.181 19.6497 180.431 13.6926 181.222C9.98078 181.714 5.20255 181.555 5.19006 177.815C5.1484 167.529 7.60208 157.069 12.1762 147.854C10.1766 146.004 9.37256 143.221 8.72686 140.572C7.60208 135.956 6.69809 131.286 6.01489 126.579C5.68996 124.363 5.68579 121.95 5.1484 119.788C4.63183 117.739 3.73618 115.739 3.16129 113.694C0.736767 105.041 -0.317198 96.0014 0.082723 87.0199C0.278518 82.5582 0.895067 77.9258 3.38624 74.214C5.49416 71.0688 8.73103 68.9026 11.6263 66.4614C14.5257 64.0202 17.2669 60.9541 17.7293 57.1924C25.2111 60.3001 30.5309 67.2737 36.2923 74.2807C41.1622 80.1962 46.0445 86.4491 50.3728 92.5896C48.7398 87.1157 42.5161 72.8143 42.7327 72.2728C46.7444 76.6677 49.4897 83.1165 53.3014 87.5947C57.2007 92.1772 59.9376 96.8887 59.5127 103.175C58.6421 116.056 51.2352 125.192 57.9547 143.23C61.2374 152.032 66.7988 161.409 67.8194 163.351C68.7067 165.034 70.3856 167.525 70.6397 169.416C70.9855 171.982 63.5744 177.598 62.9037 175.852H62.9079Z" fill="#E4F0FF"/>
<path d="M47.0942 118.809C45.3112 119.33 43.5074 119.917 41.6953 120.517C39.5415 110.919 36.5838 101.667 33.5469 92.3145C34.53 94.1099 35.9172 96.0429 36.5088 97.2052C38.0043 100.125 39.504 103.054 40.9996 105.978C43.6157 111.098 45.4404 113.273 47.0942 118.809Z" fill="#C9D4F2"/>
<path d="M5.54688 99.4378C12.8913 104.745 28.784 118.192 31.3293 126.853C32.4333 130.615 31.7959 135.131 28.834 137.697C26.2928 139.896 21.2855 140.088 19.4108 136.968C18.7068 135.797 18.7151 134.16 18.1611 132.894C17.2446 130.794 15.7657 128.882 14.6701 126.862C10.0627 118.347 6.9466 109.019 5.54688 99.4336V99.4378Z" fill="#C9D4F2"/>
<path d="M48.4581 28.331C48.6497 30.5722 48.733 32.8176 48.708 35.063C48.6205 42.0075 48.6414 45.3818 43.5965 50.2017C41.2845 52.4596 37.7768 55.0716 34.5275 55.0841C32.3446 55.0966 30.3491 53.9135 28.4953 52.7179C26.0042 51.1182 23.4838 49.3644 21.8091 46.8399C18.7847 42.2991 19.168 36.796 19.0972 33.0384C19.068 31.4054 18.5515 29.6891 18.3682 28.0436C17.1976 17.8872 22.2799 14.5462 32.7987 13.7464C34.7941 13.5922 36.8395 13.6964 38.8266 13.7256C40.7721 13.7505 42.6467 15.3336 44.0423 16.625C48.6497 20.9033 48.1581 25.0483 48.4456 28.3352L48.4581 28.331Z" fill="#FFE5D8"/>
<path d="M48.406 48.8576C48.3233 50.1778 47.2107 50.9518 46.663 52.2335C48.6919 51.9323 50.4142 51.2529 51.9194 49.9712C54.5546 47.7335 55.7567 44.7288 56.1287 41.4055C57.2586 31.3409 55.7602 21.6546 51.1444 12.6721C47.407 5.39506 41.3687 1.1332 33.1912 0.194682C30.0601 -0.166018 26.9944 -0.113489 24.0631 1.11569C22.8368 1.63048 21.6106 2.10674 20.3498 2.53047C17.3496 3.53553 15.2484 5.71374 13.4503 8.24914C10.5844 12.2834 9.15838 16.8989 8.18011 21.7001C7.17774 26.6203 6.38548 31.5791 6.49916 36.6148C6.58527 40.3724 7.74954 43.7763 10.4053 46.5708C11.9967 48.2448 13.9257 48.9977 16.1474 49.2813C16.0992 48.7561 15.4999 48.7876 15.4 48.3778L15.4103 48.3849L14.9074 48.1362C13.6226 47.1557 12.9819 45.7339 12.3412 44.3051C11.4146 43.9899 10.7119 43.3841 10.1814 42.5611C8.29723 39.658 8.05955 36.4783 8.65891 33.1584C8.84147 32.1429 9.01026 31.1203 9.18249 30.1012C9.16182 32.1464 9.2686 34.1635 9.28927 36.1771C9.31683 38.9541 9.87485 41.5596 11.976 43.5767C12.1827 43.7728 12.3239 44.0074 12.3446 44.3016C12.7993 44.2281 12.9405 44.8899 13.5881 44.8059C12.7786 43.167 12.8475 41.4405 12.5479 39.7806C12.2447 38.0962 12.3825 36.4082 12.3239 34.7238C11.6488 32.346 11.2182 29.9857 12.8269 27.7795C12.4721 27.4152 12.5306 26.946 12.6099 26.5363C13.3401 22.8697 13.9808 19.1647 16.0475 15.9569C17.8008 13.2359 19.7987 10.753 22.9436 9.56587C22.9677 9.55536 22.9918 9.54135 23.0194 9.53085C22.9953 9.54486 22.9746 9.55886 22.9505 9.57287C22.9229 9.87054 22.7645 10.0737 22.5371 10.2558C21.273 11.2678 20.1673 12.4375 19.2028 13.7472C16.33 17.6378 14.8833 22.0573 14.4803 26.8654C14.8592 26.8795 15.2346 26.897 15.6135 26.911C15.7651 26.7289 15.8478 26.8234 15.9132 26.9915L16.7675 27.3137C17.1326 27.3032 17.4771 27.3242 17.4977 27.825L17.4839 27.811C19.623 24.9429 22.9712 23.388 25.0861 20.4779C24.8864 21.7946 24.008 22.6246 23.2398 23.5561C21.6691 25.4647 19.4026 26.953 19.3819 29.8491C19.3819 30.1713 18.9789 30.581 19.4715 30.7806C19.902 30.9557 20.0123 30.4549 20.2499 30.2133C20.9251 29.5199 21.4383 28.5884 22.5544 28.5149C22.6095 28.4343 22.668 28.3538 22.7232 28.2767C22.7438 28.0561 22.823 27.881 23.0573 27.825L23.0056 27.874C23.0917 27.7724 23.1778 27.6674 23.264 27.5658L23.2157 27.6114C23.3053 27.5133 23.3948 27.4117 23.481 27.3137L23.4327 27.3557C23.5257 27.2612 23.6187 27.1666 23.7117 27.0721C23.7772 27.0055 23.8426 26.9355 23.9046 26.8689C23.9942 26.7744 24.0838 26.6833 24.1733 26.5888C27.2321 23.6402 29.1025 20.0402 29.8672 15.8378C30.1841 14.1044 30.1876 14.1044 31.8995 14.36C32.0132 13.2849 31.4862 12.427 30.9419 11.6005C30.2186 10.5009 29.4401 9.4398 28.6788 8.3542C29.0302 8.13708 29.2369 8.31568 29.4091 8.44525C31.0694 9.66743 32.554 11.0962 33.8009 12.7386C36.4912 16.2791 38.3409 20.3658 40.8382 24.0359C41.0277 24.316 41.1103 24.6032 41.0621 24.9359L41.0415 24.9114C41.1207 25.0164 41.1999 25.118 41.2791 25.223L41.2481 25.1635C41.3894 25.244 41.5306 25.3246 41.6753 25.4051C42.9635 26.7709 44.6755 26.8304 46.3668 27.0125C45.5711 26.2386 44.7444 25.5347 44.2242 24.5507C44.0899 24.2355 43.6593 23.9939 43.9866 23.5666C43.9383 23.6191 43.8936 23.6682 43.8453 23.7172C43.8178 23.6752 43.7902 23.6297 43.7661 23.5876H43.9831C44.1347 23.8468 44.2862 24.1094 44.4378 24.3721C44.7306 24.6312 45.0199 24.8869 45.3127 25.146C45.5297 25.167 45.6985 25.2475 45.7261 25.4997L45.702 25.4297C45.8053 25.5242 45.9086 25.6153 46.012 25.7098C46.0878 25.7623 46.1601 25.8149 46.2359 25.8674C46.4598 25.8849 46.6423 25.9689 46.725 26.2036C46.8869 26.2596 47.0454 26.3156 47.2073 26.3717C48.3784 25.6328 48.0787 24.7608 47.5104 23.7767C46.8559 22.6421 46.4184 21.4059 46.0705 19.9736C48.468 21.7036 49.429 23.7312 50.2178 26.9075C51.1995 30.8401 51.7059 34.8324 51.2788 38.9471C50.9653 41.9798 50.4142 44.9179 49.4187 47.7825C49.2843 48.1712 49.1638 48.5459 48.6953 48.623C48.5989 48.7 48.499 48.7771 48.4025 48.8541V48.8471L48.406 48.8576ZM45.392 8.13358C46.2944 8.55731 46.7732 9.20167 47.2727 9.77248C48.8848 11.618 50.0077 13.7437 50.4796 16.1775C50.7276 17.4662 50.1696 17.9005 48.9812 17.4137C48.3543 17.1546 47.7515 16.99 47.0557 17.1966C46.4977 17.3647 45.9775 17.1861 45.6365 16.6293C45.3093 16.09 44.9821 15.5472 44.5997 15.0464C44.1829 14.5001 44.1657 14.1149 44.7754 13.6806C45.9741 12.8262 46.2497 11.59 45.9603 10.1997C45.826 9.55887 45.6159 8.93552 45.3954 8.13007L45.392 8.13358ZM42.4951 18.6289C42.1644 18.6884 41.8475 18.6429 41.6684 18.3312C41.2343 17.5783 40.821 16.8149 40.4076 16.048C40.2251 15.7048 40.4386 15.5542 40.7142 15.4176C42.2746 14.6297 42.8189 14.7838 43.6903 16.2826C44.7099 18.0266 44.5033 18.4293 42.4951 18.6324V18.6289ZM9.43739 29.2363L9.3616 29.2433L9.39261 29.1627L9.43739 29.2363Z" fill="#353E66"/>
<path d="M24.6333 47.1588C22.5665 45.0927 20.8821 42.7674 19.9969 39.9273C19.8384 39.4161 19.6421 39.4441 19.2563 39.6647C17.9852 40.3861 16.8347 39.9659 15.7359 39.2165C14.1066 38.1098 13.1352 36.4849 12.3292 34.7305C12.3878 36.4149 12.25 38.1028 12.5531 39.7873C12.8494 41.4472 12.7805 43.1736 13.5934 44.8125C12.9458 44.8931 12.8046 44.2347 12.3499 44.3083C12.9906 45.7371 13.6313 47.1588 14.9161 48.1394C15.0849 48.2234 15.2502 48.304 15.4156 48.388L15.4052 48.381C16.3628 48.381 17.2205 49.1725 18.3056 48.7312C17.5512 47.523 16.8072 46.3289 16.8795 44.5429C18.3917 47.1063 20.4791 48.0553 23.1762 47.8732C23.1452 47.3164 22.4046 47.2604 22.4597 46.7246C22.4356 46.7036 22.415 46.6791 22.3909 46.6581C22.4046 46.6441 22.4219 46.6266 22.4356 46.6125L22.5011 46.6826C23.2864 46.5075 23.7756 47.6806 24.6367 47.1658L24.6333 47.1588Z" fill="#283156"/>
<path d="M45.3919 8.13379C45.6158 8.93573 45.8225 9.56258 45.9568 10.2034C46.2496 11.5972 45.9706 12.8299 44.7719 13.6844C44.1622 14.1186 44.1794 14.5038 44.5962 15.0501C44.9786 15.5509 45.3058 16.0937 45.633 16.633C45.974 17.1898 46.4942 17.3684 47.0522 17.2003C47.748 16.9902 48.3508 17.1583 48.9777 17.4174C50.1661 17.9077 50.7276 17.4735 50.4761 16.1812C50.0042 13.7474 48.8813 11.6182 47.2692 9.7762C46.7697 9.20538 46.2909 8.55752 45.3885 8.13729L45.3919 8.13379Z" fill="#3F4A76"/>
<path d="M12.8256 27.7829C13.3767 27.4782 13.9279 27.1736 14.479 26.8689C14.882 22.0607 16.3287 17.6413 19.2015 13.7506C20.1694 12.4409 21.2752 11.2713 22.5359 10.2592C22.7667 10.0771 22.9251 9.874 22.9492 9.57634L22.9423 9.56934C19.7974 10.7565 17.7996 13.2394 16.0463 15.9604C13.9795 19.1681 13.3388 22.8732 12.6086 26.5397C12.5259 26.953 12.4708 27.4222 12.8256 27.7829Z" fill="#283156"/>
<path d="M17.4798 27.8139C18.3134 28.4443 18.1377 29.3723 18.1136 30.2233C18.062 32.2124 18.6544 33.8268 20.6867 34.8353C20.1701 32.3454 21.3068 30.4159 22.5503 28.5213C21.4308 28.5949 20.921 29.5264 20.2458 30.2198C20.0116 30.4614 19.9014 30.9587 19.4674 30.7871C18.9748 30.5875 19.3744 30.1742 19.3778 29.8556C19.4019 26.9595 21.665 25.4676 23.2357 23.5626C24.0039 22.6311 24.8822 21.8011 25.082 20.4844C22.9671 23.3945 19.6189 24.9493 17.4798 27.8174V27.8139Z" fill="#283156"/>
<path d="M31.9016 14.3665C32.4768 14.6151 33.0555 14.8533 33.6204 15.1159C34.7572 15.6447 35.608 16.4432 36.2142 17.5918C37.344 19.7245 38.3051 21.9622 39.8689 23.8322C40.2203 24.249 40.5062 24.7498 41.0607 24.9424C41.109 24.6097 41.0263 24.319 40.8368 24.0424C38.3395 20.3723 36.4898 16.2856 33.7996 12.7451C32.5526 11.1027 31.0646 9.67391 29.4077 8.45173C29.2355 8.32566 29.0288 8.14356 28.6775 8.36068C29.4353 9.44278 30.2172 10.5074 30.9406 11.607C31.4848 12.4334 32.0118 13.2914 31.8981 14.3665H31.9016Z" fill="#283156"/>
<path d="M12.3438 44.3049C12.3196 44.0107 12.1819 43.7761 11.9752 43.58C9.87743 41.5663 9.31941 38.9574 9.28841 36.1804C9.26774 34.1667 9.1644 32.1496 9.18162 30.1045C9.00595 31.1236 8.84061 32.1426 8.65805 33.1617C8.05869 36.4815 8.29636 39.6613 10.1806 42.5644C10.7145 43.3873 11.4137 43.9897 12.3403 44.3084L12.3438 44.3049Z" fill="#283156"/>
<path d="M42.4942 18.6293C44.5024 18.4297 44.7091 18.0234 43.6895 16.2795C42.8146 14.7806 42.2738 14.6265 40.7134 15.4145C40.4378 15.5546 40.2242 15.7051 40.4068 16.0448C40.8202 16.8118 41.2335 17.5752 41.6675 18.3281C41.8466 18.6398 42.1635 18.6853 42.4942 18.6258V18.6293Z" fill="#3F4A76"/>
<path d="M16.7658 27.3211C17.0104 27.4927 17.255 27.6608 17.4961 27.8324C17.4754 27.3316 17.131 27.3106 16.7658 27.3211Z" fill="#283156"/>
<path d="M44.4414 24.3793L43.9867 23.5913V23.5703C43.6629 24.0011 44.0935 24.2427 44.2278 24.5579C44.3002 24.4983 44.3691 24.4388 44.4414 24.3793Z" fill="#FBE7DC"/>
<path d="M9.4375 29.2362L9.39272 29.1592L9.36172 29.2432L9.4375 29.2362Z" fill="#283156"/>
<path d="M46.2374 25.874C46.3993 25.9861 46.5612 26.0981 46.7266 26.2102C46.6473 25.9756 46.4648 25.895 46.2374 25.874Z" fill="#283156"/>
<path d="M45.3171 25.1533C45.4549 25.2724 45.5927 25.388 45.7305 25.507C45.7029 25.2549 45.5341 25.1743 45.3171 25.1533Z" fill="#283156"/>
<path d="M22.7245 28.2838C22.8347 28.1332 22.9484 27.9826 23.0586 27.832C22.8209 27.8881 22.7451 28.0632 22.7245 28.2838Z" fill="#283156"/>
<path d="M48.6953 48.6303C48.4094 48.4622 48.4163 48.6758 48.4025 48.8614C48.499 48.7843 48.5989 48.7073 48.6953 48.6303Z" fill="#181925"/>
<path d="M43.9848 23.5908H43.7678C43.7954 23.6363 43.8229 23.6783 43.8471 23.7238C43.8953 23.6748 43.9401 23.6223 43.9883 23.5732V23.5943L43.9848 23.5908Z" fill="#FBE7DC"/>
<path d="M41.0475 24.918C41.1267 25.0195 41.2059 25.1246 41.2852 25.2296C41.2059 25.1281 41.1267 25.023 41.0475 24.918Z" fill="#283156"/>
<path d="M41.256 25.167C41.3352 25.3596 41.4696 25.4507 41.6797 25.4086C41.5385 25.3246 41.3972 25.2475 41.256 25.167Z" fill="#283156"/>
<path d="M15.6144 26.9177C15.7143 26.9457 15.8142 26.9702 15.9141 26.9982C15.8521 26.8301 15.7659 26.7391 15.6144 26.9177Z" fill="#283156"/>
<path d="M23.2152 27.618C23.3048 27.5199 23.3944 27.4184 23.4805 27.3203C23.3909 27.4184 23.3014 27.5199 23.2152 27.618Z" fill="#283156"/>
<path d="M22.9506 9.5762C22.9748 9.5622 22.9954 9.54819 23.0195 9.53418C22.9954 9.54469 22.9713 9.55869 22.9437 9.5692L22.9506 9.5762Z" fill="#283156"/>
<path d="M22.4961 46.6755L22.4306 46.6055C22.4306 46.6055 22.3996 46.637 22.3859 46.651C22.41 46.672 22.4306 46.6965 22.4548 46.7175L22.4961 46.6755Z" fill="#181925"/>
<path d="M46.9336 29.4051C45.8921 28.5025 43.226 27.2388 40.8931 29.4051C43.1843 29.4051 41.7263 27.947 46.9336 29.4051Z" fill="#444B68"/>
<path d="M26.5711 29.6131C27.5476 28.6406 30.1198 27.1953 32.5971 29.1947C30.3114 29.3534 31.6649 27.7979 26.5711 29.6131Z" fill="#444B68"/>
<path d="M38.348 35.2373C38.9729 35.4456 42.9304 41.0695 38.1397 42.9441C39.1117 41.9027 40.5142 38.9033 38.348 35.2373Z" fill="#444B68"/>
<path d="M31.7266 45.3817L40.8914 45.2354C40.8914 45.2354 40.4864 48.7999 36.3345 48.5561C32.1827 48.3117 31.7266 45.3821 31.7266 45.3821V45.3817Z" fill="white"/>
<path d="M42.9763 35.6541C43.6665 35.6541 44.2261 34.7216 44.2261 33.5712C44.2261 32.4208 43.6665 31.4883 42.9763 31.4883C42.2861 31.4883 41.7266 32.4208 41.7266 33.5712C41.7266 34.7216 42.2861 35.6541 42.9763 35.6541Z" fill="#444B68"/>
<path d="M29.2302 35.6541C29.9204 35.6541 30.48 34.7216 30.48 33.5712C30.48 32.4208 29.9204 31.4883 29.2302 31.4883C28.54 31.4883 27.9805 32.4208 27.9805 33.5712C27.9805 34.7216 28.54 35.6541 29.2302 35.6541Z" fill="#444B68"/>
<path d="M15.2103 26.2398C14.19 26.3645 12.6949 27.4925 11.6089 28.2212C11.2099 28.4907 11.0179 28.8999 11.0886 29.3142C11.417 31.1359 11.6746 33.1023 12.4019 34.8392C12.9272 36.0919 12.5131 37.8387 13.2808 38.9916C13.8314 39.8201 14.6093 40.3642 15.5841 40.9231C16.2004 41.2775 17.0136 41.3224 17.6955 41.0529C19.5291 40.3242 21.2515 39.6804 21.0595 37.7339C20.8171 35.3233 20.2867 32.7929 19.817 30.3972C19.6705 29.6486 19.7665 28.3809 19.1351 27.787C18.5542 27.238 16.1347 26.12 15.2103 26.2348V26.2398Z" fill="#FFE5D8"/>
<path d="M18.0582 36.0528C18.1476 36.873 17.8545 37.6987 17.3925 38.4041C15.8326 40.7882 13.5474 37.4089 14.1833 35.6099C14.9334 33.4883 17.8197 33.9421 18.0582 36.0528Z" fill="#F9CEBC"/>
<path d="M15.9203 38.1945C14.2452 37.8629 13.8842 33.1538 14.156 30.7205C14.5697 27.0623 16.9992 28.13 16.7356 29.518C16.695 29.7315 16.4638 29.6416 16.5044 29.4337C16.5896 28.9954 16.184 28.5795 15.8108 28.557C15.4174 28.5346 15.0077 28.8212 14.7603 29.2932C14.5453 29.6978 14.4561 30.1811 14.3872 30.7767C14.1438 32.9402 14.4602 37.5707 15.9528 37.8741C16.2813 37.936 16.6342 37.8236 16.8816 37.5707C17.0073 37.4414 17.1533 37.7056 17.0236 37.8404C16.7072 38.1607 16.2894 38.2787 15.9163 38.2057L15.9203 38.1945Z" fill="#F9CEC0"/>
<path d="M13.4154 167.291C13.5154 166.621 11.8574 159.122 16.4399 156.094C17.3438 155.494 18.402 155.165 19.4601 154.806C25.738 152.682 31.666 150.678 38.2897 149.291C38.5314 149.241 38.6105 149.607 38.3647 149.657C31.6494 151.061 25.6505 153.107 19.1935 155.29C18.3228 155.585 17.4188 155.89 16.644 156.402C15.2193 157.348 14.1778 159.089 13.7904 161.184C13.4529 163.009 13.5904 164.892 13.7446 166.721C20.2224 163.692 27.4127 161.892 34.5488 161.518C34.6529 161.518 34.7404 161.593 34.7446 161.697C34.7488 161.801 34.6696 161.888 34.5655 161.892C27.3877 162.267 20.1558 164.096 13.6571 167.171L13.4113 167.287L13.4154 167.291Z" fill="#C9D4F2"/>
<path d="M57.157 110.944C54.8117 104.795 52.3871 98.438 48.4379 93.0224C42.8515 85.3572 34.8281 80.4915 31.5621 77.7337C31.4079 77.6046 26.4214 73.7595 26.8422 72.7805C27.2046 71.9265 27.2421 70.8934 27.6545 70.0186C27.0046 70.2769 25.13 71.0934 24.98 71.16L14.6821 63.2324C14.5987 63.1699 14.5863 63.0533 14.6487 62.97C14.7112 62.8866 14.8279 62.87 14.9112 62.9366L25.0342 70.7309C26.059 70.2894 27.0296 69.8395 28.0253 69.477L28.6168 69.2604L28.2377 69.7645C27.6254 70.5851 27.6129 71.9099 27.1838 72.9263C27.1504 74.3052 37.1943 81.5247 37.7775 81.9787C49.2711 90.9103 52.3247 97.2382 57.5028 110.815C57.5903 111.044 57.2404 111.181 57.1529 110.948L57.157 110.944Z" fill="#C9D4F2"/>
<path d="M30.0884 133.053C24.7311 132.536 18.9489 133.09 11.0755 136.027C10.4381 136.264 9.62994 136.427 9.08421 136.818C7.25124 138.139 7.44704 140.543 9.6466 140.693C10.4256 140.743 10.7547 140.609 17.4159 139.151L30.0884 133.057V133.053Z" fill="#FFE5D8"/>
<path d="M6.96257 152.182C7.44164 152.036 7.85823 151.724 8.23732 151.395C9.44958 150.353 10.4286 149.041 11.0784 147.579C10.7577 148.579 11.3742 149.774 12.3782 150.082C13.7029 150.495 14.4069 149.466 15.061 148.545C14.3278 150.066 14.5486 151.911 16.569 151.965C17.8604 151.999 19.0477 151.286 19.9559 150.437C19.9933 151.028 20.4016 151.524 20.9806 151.67C21.5764 151.82 22.2096 151.628 22.772 151.361C25.8255 149.953 26.7545 146.579 29.4582 144.783C32.3618 142.846 37.0358 142.538 40.1102 141.917C41.0934 141.722 40.8559 140.605 40.4852 139.68C39.4062 136.918 37.7982 134.369 35.7694 132.203C34.4447 130.807 34.0947 131.469 33.1449 131.619C28.0001 132.494 22.772 132.103 17.7563 135.598C12.9531 139.21 8.22899 143.58 5.49203 148.995C5.25041 149.483 5.01295 149.991 4.96713 150.528C4.85048 151.736 5.75864 152.557 6.96257 152.174V152.182Z" fill="#FFE5D8"/>
<path d="M36.5539 141.347C36.7913 141.697 36.958 142.043 37.0829 142.438C37.3495 142.388 37.6162 142.347 37.8828 142.305C37.9494 140.697 37.6953 139.047 37.2204 137.585C36.2956 134.681 34.6792 134.344 31.6382 134.486C31.3924 134.498 31.1174 134.527 30.9758 134.723C30.3176 135.623 33.1046 136.339 36.5539 141.347Z" fill="#F9CEBC"/>
<path d="M19.4049 151.095C19.3091 151.053 19.2674 150.945 19.3091 150.849C20.4005 148.358 20.2047 149.099 21.7378 146.891C21.8794 146.687 22.1877 146.9 22.046 147.104C20.513 149.308 20.7213 148.558 19.6507 150.999C19.6215 151.07 19.5007 151.136 19.4049 151.095Z" fill="#F9CEC0"/>
<path d="M14.6183 149.119C15.314 147.941 16.4054 146.741 17.0886 145.583C17.2136 145.366 17.5385 145.562 17.4094 145.774C16.7137 146.957 15.6181 148.161 14.939 149.311C14.8849 149.403 14.4891 149.336 14.6141 149.119H14.6183Z" fill="#F9CEC0"/>
<path d="M11.3381 147.174C11.7964 145.708 13.3502 144.25 14.35 143.075C14.5167 142.887 14.7958 143.133 14.6375 143.317C13.671 144.454 12.1296 145.904 11.7006 147.282C11.6256 147.52 11.2673 147.407 11.3423 147.17L11.3381 147.174Z" fill="#F9CEC0"/>
<path d="M15.7773 138.501C18.4435 136.602 21.5595 135.281 24.7756 134.681C25.013 134.631 25.0922 135.006 24.8464 135.052C21.6803 135.639 18.6184 136.939 15.994 138.81C15.7898 138.955 15.5732 138.647 15.7773 138.501Z" fill="#F9CEC0"/>
<path d="M8.16688 74.4432C15.2822 70.9063 23.9638 73.1351 28.4921 79.6796C30.2667 82.2458 31.254 85.2619 32.2163 88.2321C36.1905 100.505 39.0816 112.377 39.8773 125.321C56.4824 125.937 51.75 126.191 53.7871 126.204C54.6661 126.208 55.5992 125.804 56.4491 125.608C58.3779 125.167 60.3608 124.862 62.3437 125.017C63.5393 125.108 65.7806 125.258 66.6637 126.208C67.5635 127.179 67.2719 129.486 67.2303 130.774C67.1053 134.665 66.0472 138.526 64.135 141.922C63.4935 143.063 62.7353 144.171 61.673 144.938C59.5318 146.479 55.4784 146.516 52.9539 146.75C49.2921 147.083 45.6095 147.166 41.9353 146.996C39.2733 146.875 34.545 147.291 32.4621 145.3C31.5914 144.471 31.3373 143.138 30.7791 142.117C29.8626 140.443 28.4837 139.443 27.1631 138.11C25.126 136.056 23.893 133.223 23.7722 130.332C14.8364 122.913 10.0915 112.307 5.35494 101.704C3.90939 98.4676 2.44717 95.1766 1.93061 91.6689C1.06828 85.7868 2.83877 77.0926 8.16272 74.4473L8.16688 74.4432Z" fill="#E4F0FF"/>
<path d="M41.2639 75.6008C39.3851 75.1717 37.5563 74.5218 35.815 73.6928C31.0576 67.8981 26.6959 62.4492 21.7969 59.0957C27.9748 61.4327 34.1486 63.7614 40.3266 66.0943C40.3099 66.236 40.2891 66.3776 40.2724 66.5192C40.2349 66.7942 40.2183 67.065 40.2016 67.3316C40.0683 70.0602 40.8848 72.4139 41.2597 75.6008H41.2639Z" fill="#E5E5E5"/>
<path d="M56.0917 146.162C49.3264 146.337 42.4944 145.567 36.4706 144.887C35.2292 144.742 34.5126 144.658 33.6378 144.779C33.2379 144.837 32.8255 144.892 32.4464 144.808C31.3466 144.571 31.2591 143.046 30.8634 142.292C30.1468 140.917 27.4015 138.859 26.0685 137.126C24.5896 135.189 23.7148 132.811 23.5981 130.415C14.6624 122.967 9.85081 112.19 5.19339 101.767C3.82699 98.7215 2.28146 95.2681 1.75657 91.6854C1.71907 91.4396 2.08983 91.3813 2.12733 91.6313C2.64389 95.1639 4.11444 98.4424 5.53916 101.617C10.1882 112.023 14.9956 122.788 23.9064 130.182L23.9689 130.236C24.0022 130.394 23.9689 133.748 26.3726 136.902C27.7098 138.639 30.4259 140.622 31.205 142.121C31.6049 142.888 31.6965 144.263 32.5338 144.442C32.9921 144.542 33.6836 144.354 34.3585 144.338C36.9247 144.358 46.5436 146.041 56.0917 145.787C59.3036 145.7 61.9989 146.983 64.7025 140.738C66.1064 137.472 66.9313 134.015 67.152 130.453C67.2104 129.582 67.227 128.662 66.9521 127.816C66.2481 125.65 63.986 124.796 60.2409 125.287C57.5748 125.629 54.8045 126.666 52.0592 126.274C49.5305 125.92 47.0685 125.533 44.5523 125.287C42.886 125.129 42.4027 124.671 42.0653 123.05C39.6158 111.294 35.7457 99.6755 32.0465 88.2903C31.1508 85.5158 30.1343 82.3706 28.3472 79.7878C26.2143 76.7009 22.9066 74.393 19.2698 73.4557C19.0323 73.3973 19.1157 73.0349 19.3656 73.0932C23.0899 74.0556 26.4767 76.4176 28.6596 79.5753C30.8467 82.7288 31.8757 86.5489 33.7378 92.2561C36.9663 102.2 39.8074 111.186 41.8904 120.476C42.7027 124 42.3903 124.708 44.594 124.916C47.1143 125.162 49.5972 125.554 52.1175 125.904C54.7628 126.283 57.5248 125.258 60.1992 124.916C64.1568 124.404 66.548 125.341 67.3145 127.703C67.6103 128.607 67.5936 129.574 67.5311 130.478C67.3062 134.077 66.473 137.581 65.0483 140.884C64.4109 142.35 63.5736 144 62.1489 145.137C60.2367 146.658 58.2496 146.1 56.1042 146.158L56.0917 146.162Z" fill="#C9D4F2"/>
<path d="M57.0572 117.747C56.9906 117.747 56.9323 117.713 56.8989 117.663L56.8698 117.605C56.0449 114.864 57.3489 111.606 58.1862 108.894C58.8652 106.532 59.8692 103.441 59.5817 100.671C59.1777 96.7592 57.1531 93.7806 55.1035 90.4271C53.9745 88.5858 52.4707 86.8069 51.2167 85.0198C49.3588 82.3537 48.0882 80.5248 46.7551 78.6211C46.6135 78.4169 46.9217 78.2045 47.0634 78.4044C48.1007 79.8875 48.7755 80.8581 51.525 84.8073C53.3746 87.4485 53.8329 87.6568 55.9741 91.1311C60.7357 98.8587 60.994 101.454 58.1945 110.111C57.4238 112.494 56.5532 115.197 57.2155 117.459L57.2364 117.48V117.568C57.2405 117.672 57.1572 117.755 57.0531 117.755L57.0572 117.747Z" fill="#C9D4F2"/>
<path d="M52.6931 99.1634C52.389 99.1634 52.6515 99.4217 50.3728 87.2199C50.0853 85.641 49.0397 81.9501 48.194 80.6629C48.0566 80.4546 48.3732 80.2504 48.5065 80.4546C49.3813 81.7835 50.4478 85.5452 50.7394 87.1491L52.8764 98.9384C52.8931 99.0384 52.8264 99.1384 52.7265 99.1551C52.714 99.1551 52.7056 99.1551 52.6931 99.1551V99.1634Z" fill="#C9D4F2"/>
<path d="M23.8578 131.061C23.7578 131.061 23.6745 130.982 23.6703 130.882C23.5745 129.045 24.5868 127.204 26.1865 126.296C26.2781 126.246 26.3906 126.275 26.4406 126.367C26.4906 126.458 26.4614 126.571 26.3698 126.621C24.8909 127.458 23.9536 129.162 24.0411 130.861C24.0453 130.966 23.9661 131.053 23.862 131.057H23.8536L23.8578 131.061Z" fill="#C9D4F2"/>
<path d="M41.6834 120.204C44.5454 119.25 48.2488 118.105 51.494 117.705C55.3641 117.23 59.2633 117.23 63.1875 117.705C63.4291 117.734 63.3958 118.105 63.1417 118.076C59.3174 117.622 55.5432 117.588 51.5398 118.076C48.328 118.471 44.6495 119.609 41.8042 120.558C41.5709 120.638 41.4501 120.283 41.6876 120.2L41.6834 120.204Z" fill="#C9D4F2"/>
<path d="M58.1902 165.55C52.7371 146.02 52.6663 146.749 53.0204 146.649C53.1203 146.62 53.2245 146.678 53.2536 146.778C58.7067 166.308 58.7776 165.579 58.4235 165.679C58.3276 165.708 58.2193 165.654 58.1902 165.55Z" fill="#C9D4F2"/>
</svg>
