<svg width="137" height="140" viewBox="0 0 137 140" fill="none" xmlns="http://www.w3.org/2000/svg">
<g opacity="0.7">
<path d="M57.5503 0.0802219C54.591 0.181717 51.6403 0.377149 48.7135 0.668678C45.2862 1.00988 41.8902 1.48064 38.5494 2.08313C33.3561 3.01819 28.2978 4.2696 23.4644 5.83522C17.2032 7.86296 11.317 10.4198 6.00261 13.5057C5.77887 13.6352 5.55731 13.7659 5.33682 13.8965C5.14551 14.0099 5.02986 14.2151 5.02986 14.4375L4.95313 41.3715C4.95205 41.8596 5.48165 42.1608 5.90425 41.9157C5.91074 41.9125 5.91614 41.9081 5.92262 41.9049C11.237 38.819 17.1232 36.2622 23.3844 34.2345C28.2189 32.6688 33.2772 31.4185 38.4694 30.4824C41.8092 29.881 45.2051 29.4091 48.6335 29.0679C51.5604 28.7764 54.511 28.5809 57.4703 28.4795C59.9746 28.3942 62.4853 28.3769 64.9928 28.4276C65.3441 28.4352 65.6327 28.1545 65.6337 27.8035L65.7105 0.66328C65.7105 0.318844 65.4359 0.0359527 65.0912 0.0283945C62.5772 -0.0223531 60.061 -0.00507734 57.5503 0.0802219Z" fill="url(#paint0_linear_431_891)" style="mix-blend-mode:multiply"/>
<g style="mix-blend-mode:screen" opacity="0.8">
<path d="M27.9605 13.9961V30.3055C26.7835 30.623 25.6194 30.9544 24.4727 31.3032V14.8674L27.9605 13.9961Z" fill="white"/>
<path d="M34.1363 10.9473V28.8201C32.9636 29.0685 31.7995 29.3341 30.6484 29.617V11.8186L34.1363 10.9473Z" fill="white"/>
<path d="M40.3188 15.7388V27.6623C39.5514 27.7886 38.7883 27.9193 38.0307 28.0542C37.6297 28.1287 37.2287 28.2022 36.832 28.281V16.6101L40.3198 15.7388H40.3188Z" fill="white"/>
<path d="M46.4956 22.7056V26.8161C45.3273 26.9468 44.1632 27.0947 43.0078 27.2556V23.1407L46.4956 22.7056Z" fill="white"/>
<path d="M52.6753 10.5122V26.2548C51.5069 26.3336 50.3429 26.4243 49.1875 26.5377V10.9473L52.6753 10.5122Z" fill="white"/>
</g>
<g opacity="0.5" style="mix-blend-mode:soft-light">
<path d="M63.2278 3.41833L63.1673 24.985C62.7955 25.3543 62.5869 25.5605 62.2151 25.9287H62.1881C60.5928 25.9287 58.9748 25.9589 57.3838 26.0118C55.8145 26.068 54.2408 26.1468 52.6714 26.2558C51.5031 26.3347 50.339 26.4254 49.1836 26.5387C48.9177 26.5603 48.6518 26.5862 48.386 26.6132C47.7537 26.6737 47.1257 26.7439 46.4945 26.8184C45.3262 26.949 44.1621 27.0969 43.0067 27.2578C42.1042 27.3842 41.2104 27.5191 40.3165 27.6627C39.5492 27.7891 38.7861 27.9197 38.0284 28.0547C37.6275 28.1292 37.2265 28.2026 36.8298 28.2814C35.923 28.4466 35.0248 28.6302 34.1353 28.8213C32.9626 29.0696 31.7986 29.3352 30.6475 29.6181C29.7407 29.8362 28.8469 30.0662 27.9573 30.3059C26.7803 30.6234 25.6163 30.9548 24.4695 31.3036C23.8459 31.4947 23.232 31.6869 22.617 31.8867C17.709 33.476 13.0852 35.3666 8.81705 37.5261C8.20962 37.1558 8.04102 37.0532 7.43359 36.6828L7.49304 16.0469C7.66489 15.7522 7.80107 15.5168 7.97292 15.222C12.8485 12.4644 18.3078 10.0976 24.2209 8.1832C28.8944 6.67157 33.8597 5.43527 38.986 4.5121C42.2382 3.92904 45.5899 3.45828 48.9556 3.1268C51.8111 2.83959 54.7315 2.64739 57.6302 2.54806C59.1693 2.49623 60.73 2.46924 62.268 2.46924H62.2778C62.6474 2.84067 62.8549 3.04798 63.2246 3.41833H63.2278Z" fill="white"/>
</g>
<path d="M19.7488 22.8791L11.207 21.1612L11.2719 20.8406L19.6839 22.5336L26.0867 18.4155L30.5786 7.74658L36.3718 11.7708L43.0275 19.1065L51.6471 12.1681L56.8653 7.83296H62.077V8.15904H56.9842L51.8535 12.4208L42.9919 19.5546L36.1567 12.0137L30.7234 8.24542L26.3494 18.6357L19.7488 22.8791Z" fill="white"/>
</g>
<g opacity="0.7">
<path opacity="0.8" d="M5.5738 39.3127C4.63241 40.5069 3.81206 41.7259 3.11277 42.9633C2.46536 44.1089 1.9217 45.2696 1.48181 46.4422C1.0538 47.5824 0.72307 48.7334 0.491774 49.8887C0.257236 51.0559 0.123214 52.2296 0.0897083 53.4033C0.0843042 53.5825 0.0821425 53.7617 0.0810617 53.941L0 82.3413C0 82.162 0.00324247 81.9828 0.00864658 81.8036C0.0421521 80.6299 0.176174 79.4562 0.410713 78.289C0.64309 77.1326 0.97274 75.9827 1.40075 74.8425C1.84064 73.671 2.38429 72.5092 3.03279 71.3636C3.73208 70.1262 4.55243 68.9072 5.49382 67.713C6.59194 66.3191 7.85542 64.9597 9.28319 63.6424L9.36425 35.2432C7.93648 36.5604 6.673 37.9198 5.57488 39.3138L5.5738 39.3127Z" fill="#00009A"/>
<path opacity="0.8" d="M18.1028 79.1374C6.06674 72.1947 0.0552055 63.0612 0.0811453 53.9429L8.35868e-05 82.3421C-0.0258562 91.4616 5.98568 100.595 18.0228 107.538C20.7713 109.123 23.7155 110.525 26.811 111.747L26.892 83.3473C23.7966 82.1262 20.8513 80.7236 18.1039 79.1385L18.1028 79.1374Z" fill="#00009A"/>
<g style="mix-blend-mode:screen" opacity="0.3">
<path d="M24.9961 109.038C24.9788 108.976 24.9345 108.922 24.8707 108.895C19.3845 106.576 14.5997 103.272 11.0319 99.3413C10.9508 99.2517 10.8135 99.2452 10.7238 99.3262C10.6352 99.4072 10.6276 99.5443 10.7087 99.6339C14.3176 103.611 19.1564 106.952 24.6999 109.296C24.8102 109.343 24.9388 109.291 24.9853 109.181C25.0047 109.135 25.0069 109.085 24.995 109.04L24.9961 109.038Z" fill="white"/>
<path d="M24.995 106.363C24.9777 106.3 24.9334 106.246 24.8696 106.219C19.3833 103.9 14.5985 100.596 11.0318 96.6655C10.9507 96.5759 10.8135 96.5694 10.7238 96.6504C10.6341 96.7314 10.6287 96.8696 10.7086 96.9581C14.3175 100.935 19.1553 104.276 24.6999 106.62C24.8101 106.666 24.9388 106.614 24.9852 106.504C25.0047 106.458 25.0068 106.408 24.995 106.363Z" fill="white"/>
<path d="M24.9957 103.22C24.9784 103.157 24.9341 103.103 24.8703 103.076C19.384 100.757 14.5981 97.4532 11.0314 93.523C10.9504 93.4333 10.8131 93.4269 10.7234 93.5078C10.6348 93.5888 10.6283 93.726 10.7083 93.8156C14.3171 97.7922 19.1549 101.134 24.6995 103.478C24.8098 103.525 24.9384 103.473 24.9849 103.363C25.0043 103.316 25.0065 103.267 24.9946 103.221L24.9957 103.22Z" fill="white"/>
<path d="M24.9946 100.56C24.9773 100.497 24.933 100.443 24.8692 100.416C19.3829 98.097 14.5981 94.793 11.0314 90.8628C10.9504 90.7732 10.8131 90.7667 10.7234 90.8477C10.6348 90.9287 10.6283 91.0658 10.7083 91.1554C14.3171 95.1321 19.1549 98.4739 24.6995 100.817C24.8098 100.863 24.9384 100.811 24.9848 100.701C25.0043 100.655 25.0065 100.605 24.9946 100.56Z" fill="white"/>
<path d="M24.9983 97.7054C24.9853 97.659 24.9518 97.618 24.9042 97.5975C19.4115 95.2749 14.6191 91.9666 11.047 88.0299C10.9865 87.963 10.8827 87.9586 10.8157 88.0191C10.7487 88.0796 10.7433 88.1832 10.8038 88.2502C14.4084 92.2214 19.2396 95.5578 24.7756 97.8987C24.8588 97.9343 24.955 97.8955 24.9896 97.8123C25.0047 97.7778 25.0058 97.74 24.9972 97.7065L24.9983 97.7054Z" fill="white"/>
<path d="M24.9983 95.1722C24.9853 95.1258 24.9518 95.0848 24.9042 95.0643C19.4115 92.7417 14.6191 89.4334 11.047 85.4967C10.9865 85.4298 10.8827 85.4254 10.8157 85.4859C10.7487 85.5464 10.7433 85.65 10.8038 85.717C14.4084 89.6882 19.2396 93.0246 24.7756 95.3655C24.8588 95.4011 24.955 95.3623 24.9896 95.2791C25.0047 95.2446 25.0058 95.2068 24.9972 95.1733L24.9983 95.1722Z" fill="white"/>
<path d="M24.9983 92.2479C24.9853 92.2015 24.9518 92.1604 24.9042 92.1399C19.4115 89.8174 14.6191 86.5091 11.047 82.5724C10.9865 82.5054 10.8827 82.5011 10.8157 82.5616C10.7487 82.6221 10.7433 82.7257 10.8038 82.7927C14.4084 86.7639 19.2396 90.1003 24.7756 92.4412C24.8588 92.4768 24.955 92.4379 24.9896 92.3548C25.0047 92.3202 25.0058 92.2825 24.9972 92.249L24.9983 92.2479Z" fill="white"/>
</g>
</g>
<g opacity="0.7">
<path d="M76.9751 23.0842C75.0058 22.8056 73.0171 22.5832 71.0165 22.4191C69.0116 22.2539 66.9958 22.147 64.9769 22.0962C62.8833 22.0444 60.7876 22.0541 58.6962 22.1254C56.4189 22.2031 54.1492 22.3543 51.8967 22.5778C49.6108 22.8056 47.3443 23.1079 45.107 23.4858C44.5147 23.5862 44.0835 24.1024 44.0813 24.7016L44.0078 50.5948C44.0057 51.3614 44.6952 51.9391 45.4529 51.8138C47.5508 51.4683 49.6746 51.1897 51.8157 50.977C54.0681 50.7524 56.3389 50.6023 58.6151 50.5246C60.7065 50.4533 62.8022 50.4436 64.8958 50.4954C66.9148 50.5462 68.9305 50.6531 70.9354 50.8183C72.935 50.9824 74.9237 51.2048 76.894 51.4834C78.4396 51.7026 79.9733 51.9563 81.4918 52.2457C82.256 52.3915 82.9661 51.816 82.9682 51.0386L83.0417 25.1551C83.0439 24.5645 82.6278 24.0516 82.0485 23.9382C80.3753 23.6111 78.6828 23.326 76.9751 23.0842Z" fill="#00009A"/>
<g opacity="0.3" style="mix-blend-mode:screen">
<path d="M80.51 46.67C79.3654 47.6504 78.8163 48.1211 77.6718 49.1015C77.528 49.081 77.3843 49.0594 77.2405 49.04C75.2345 48.756 73.182 48.5271 71.1393 48.3587C69.0976 48.1902 67.0192 48.0801 64.958 48.0283C64.0599 48.0056 63.1487 47.9948 62.2506 47.9948C61.0163 47.9948 59.7647 48.0164 58.5315 48.0585C56.2077 48.1373 53.8656 48.2939 51.571 48.5217C50.8025 48.5984 50.034 48.6837 49.2677 48.7765C48.1523 47.7907 47.6065 47.3081 46.4922 46.3223L46.5451 27.8825C47.3579 26.9551 47.8702 26.3688 48.683 25.4402C49.8298 25.2858 50.9852 25.1497 52.1416 25.0353C54.3292 24.8183 56.5633 24.6692 58.7811 24.5937C59.9582 24.5537 61.1514 24.5332 62.3295 24.5332C63.1887 24.5332 64.0588 24.544 64.9159 24.5656C66.883 24.6142 68.8674 24.7211 70.8139 24.8809C72.7659 25.0418 74.7222 25.2599 76.6288 25.5298C77.2502 25.6173 77.8706 25.7123 78.4899 25.8116C79.2746 26.7369 79.7783 27.3319 80.563 28.2572L80.5111 46.67H80.51Z" fill="white"/>
</g>
<path d="M64.4934 29.4917C64.4934 31.0163 65.7363 32.2483 67.2646 32.2969C68.7929 32.3433 70.0337 31.189 70.0337 29.6645C70.0337 28.1399 68.7929 26.8172 67.2646 26.7697C65.7374 26.7211 64.4934 27.9682 64.4934 29.4906V29.4917ZM69.6435 29.6407C69.6435 30.9504 68.5767 31.9481 67.2646 31.9071C65.9525 31.866 64.8835 30.8014 64.8835 29.4917C64.8835 28.1831 65.9514 27.1174 67.2646 27.1595C68.5767 27.1994 69.6435 28.3321 69.6435 29.6407ZM61.9956 33.0084C61.9956 30.7517 60.1528 28.9561 57.8928 29.1343C55.6328 29.3081 53.8008 31.391 53.8008 33.6476C53.8008 35.9075 55.6317 37.5001 57.8928 37.3263C60.1528 37.1481 61.9967 35.2694 61.9956 33.0095V33.0084ZM54.1888 33.599C54.1888 31.5572 55.8468 29.6817 57.8928 29.523C59.9377 29.3621 61.6054 30.9785 61.6054 33.0203C61.6054 35.0653 59.9377 36.7745 57.8928 36.9354C55.8468 37.093 54.1888 35.643 54.1888 33.5979V33.599ZM67.7672 37.837C67.23 37.8165 66.722 38.0637 66.4107 38.4935C66.2065 38.771 66.0984 39.1035 66.0984 39.4566C66.0984 39.4879 66.0984 39.516 66.1005 39.5419C66.1449 40.4284 66.8777 41.1334 67.7672 41.1669C68.0374 41.1766 68.3054 41.1226 68.541 41.0092C69.0923 40.7458 69.4349 40.2005 69.4349 39.5808C69.4349 38.663 68.6869 37.8715 67.7661 37.8381L67.7672 37.837ZM68.3595 40.6562C68.179 40.7436 67.9747 40.7847 67.7672 40.7771C67.0852 40.7512 66.5242 40.2092 66.4896 39.5246C66.4886 39.5041 66.4886 39.4836 66.4886 39.4631C66.4886 39.1931 66.5707 38.9394 66.7274 38.7267C66.9706 38.3941 67.3489 38.2095 67.7672 38.2257C68.4719 38.2516 69.0458 38.8552 69.0458 39.5581C69.0458 40.0332 68.7831 40.4521 68.3595 40.6551V40.6562ZM59.5281 42.8524C59.5281 41.899 58.7509 41.1669 57.7977 41.2425C56.8433 41.3181 56.0694 42.1721 56.0694 43.1255C56.0694 44.0789 56.8444 44.7754 57.7977 44.6998C58.7509 44.6242 59.5281 43.8058 59.5281 42.8524ZM56.4574 43.0877C56.4574 42.3492 57.0584 41.6906 57.7966 41.6323C58.5359 41.574 59.1379 42.1376 59.1379 42.8761C59.1379 43.6147 58.5359 44.2528 57.7966 44.3111C57.0573 44.3694 56.4574 43.8263 56.4574 43.0877ZM74.1559 46.5483C74.1559 45.1403 73.0124 43.8608 71.603 43.7464C70.1936 43.6298 69.0458 44.7214 69.0458 46.1294C69.0458 47.5384 70.1947 48.7391 71.603 48.8546C73.0124 48.9691 74.1559 47.9574 74.1559 46.5483ZM69.4349 46.151C69.4349 44.9578 70.4076 44.0379 71.6019 44.1362C72.7962 44.2333 73.7657 45.3131 73.7657 46.5062C73.7657 47.6993 72.7962 48.5642 71.6019 48.4659C70.4076 48.3677 69.4349 47.3451 69.4349 46.151ZM68.8491 47.6961C68.8275 47.695 68.8069 47.6971 68.7864 47.6993C68.7864 47.6993 68.7864 47.6971 68.7864 47.6961C68.5151 47.2026 68.3714 46.6498 68.3714 46.0959C68.3714 44.3176 69.8229 42.9258 71.603 43.0726C71.7976 43.0888 71.991 43.1245 72.1813 43.1763C72.1813 43.1795 72.1813 43.1817 72.1813 43.1849C72.1813 43.4354 72.3855 43.6578 72.6352 43.6805C72.8859 43.7043 73.0891 43.5207 73.0891 43.2702C73.0891 43.0197 72.8859 42.7951 72.6352 42.7714C72.4385 42.753 72.272 42.8642 72.2093 43.0348C72.0105 42.9808 71.8073 42.9431 71.6041 42.9258C70.8983 42.8675 70.2423 43.0424 69.6986 43.3825C69.4478 42.8318 69.196 42.2833 68.9453 41.7359C69.6013 41.4152 70.065 40.8171 70.2066 40.1012C70.4314 40.0893 70.6076 39.9112 70.6076 39.679C70.6076 39.4285 70.4033 39.2093 70.1525 39.1931C69.9018 39.1769 69.6975 39.3691 69.6975 39.6196C69.6975 39.8377 69.8521 40.0299 70.0585 40.0861C69.9148 40.7717 69.4597 41.3429 68.8177 41.6344C68.4956 41.7813 68.1336 41.8514 67.7683 41.8374C67.0355 41.8104 66.334 41.4444 65.8919 40.8494C65.6596 40.5374 65.5072 40.1725 65.4499 39.7924C65.4337 39.6758 65.425 39.5592 65.425 39.4447C65.425 39.0161 65.5428 38.5982 65.7676 38.2354C66.134 37.6394 66.7436 37.2496 67.4397 37.174C67.5424 37.1621 67.6537 37.1578 67.7683 37.1621C68.0763 37.174 68.3746 37.2464 68.6578 37.377C68.6416 37.4224 68.6318 37.471 68.6318 37.5217C68.6318 37.7722 68.8361 37.986 69.0869 37.9989C69.3376 38.0119 69.5419 37.8197 69.5419 37.5692C69.5419 37.3187 69.3376 37.1028 69.0869 37.0898C68.9399 37.0822 68.8112 37.146 68.728 37.2507C68.4232 37.1082 68.1011 37.0293 67.7693 37.0164C67.6731 37.0131 67.5813 37.0164 67.4937 37.0229C67.3348 35.7121 67.176 34.4023 67.0182 33.0915C67.1014 33.0991 67.1835 33.1088 67.2678 33.1121C67.9877 33.1347 68.6794 32.9533 69.2738 32.5841C69.3571 32.692 69.4835 32.7655 69.6262 32.7741C69.8769 32.7892 70.0812 32.5981 70.0812 32.3476C70.0812 32.0971 69.8769 31.8801 69.6262 31.865C69.3754 31.8498 69.1712 32.0431 69.1712 32.2936C69.1712 32.3487 69.183 32.4027 69.2014 32.4523C68.6297 32.8097 67.9617 32.9857 67.2689 32.9641C65.3688 32.9037 63.8232 31.3856 63.8232 29.4895C63.8232 28.8028 64.0264 28.1366 64.4123 27.5665C65.0565 26.6153 66.1243 26.056 67.2689 26.0916C67.2808 26.0916 67.2916 26.0884 67.3024 26.084C67.3338 26.3054 67.5229 26.4814 67.752 26.49C68.0028 26.4997 68.2081 26.3043 68.2081 26.0538C68.2081 25.8033 68.0039 25.5906 67.752 25.5809C67.5229 25.5723 67.3348 25.7364 67.3024 25.9556C67.2927 25.9502 67.2819 25.9458 67.2689 25.9458C66.0757 25.9081 64.9624 26.4922 64.2912 27.4845C63.8892 28.0783 63.6773 28.7737 63.6773 29.4895C63.6773 29.7325 63.7022 29.97 63.7487 30.1989C63.2418 30.3479 62.7359 30.5013 62.229 30.66C61.5276 29.3783 60.2544 28.4659 58.7012 28.3159C58.4602 28.2921 58.2127 28.291 57.9641 28.3061C57.9414 28.0783 57.749 27.912 57.5134 27.9315C57.2627 27.952 57.0584 28.1744 57.0584 28.4249C57.0584 28.6754 57.2627 28.8611 57.5134 28.8406C57.7296 28.8223 57.9101 28.6571 57.9555 28.4519C58.1976 28.4368 58.4397 28.4379 58.6764 28.4605C60.1971 28.6063 61.4411 29.5068 62.1188 30.7679C62.1188 30.7679 62.1188 30.7679 62.1199 30.7701C62.4722 31.4277 62.6733 32.1802 62.6733 32.9825C62.6733 34.2242 62.1945 35.3644 61.413 36.2422C61.4098 36.2455 61.4065 36.2487 61.4033 36.2519C60.5289 37.2269 59.2795 37.8813 57.896 37.9892C57.361 38.0313 56.8357 37.9871 56.3353 37.8607C56.3364 37.8456 56.3396 37.8305 56.3396 37.8154C56.3396 37.5649 56.1354 37.3803 55.8857 37.4062C55.6349 37.4321 55.4317 37.6577 55.4317 37.9082C55.4317 38.1587 55.6349 38.3412 55.8857 38.3153C56.0694 38.2969 56.2283 38.1706 56.2996 38.0054C56.812 38.1328 57.3491 38.1771 57.8971 38.135C59.3054 38.0249 60.5786 37.3673 61.4779 36.3837C62.8538 36.9635 64.2296 37.5768 65.6066 38.2224C65.3958 38.5906 65.2834 39.0085 65.2834 39.4372C65.2834 39.5376 65.291 39.6401 65.3029 39.7427C63.5271 40.2729 61.7524 40.857 59.9788 41.4962C59.6837 41.0298 59.2319 40.6713 58.6796 40.5072C58.4191 40.4294 58.1468 40.3992 57.869 40.4143C57.8355 40.1994 57.6485 40.0472 57.4215 40.0656C57.1708 40.0861 56.9665 40.3085 56.9665 40.559C56.9665 40.8095 57.1708 40.9952 57.4215 40.9747C57.6464 40.9563 57.8322 40.7771 57.869 40.5601C58.1306 40.546 58.3856 40.5752 58.6299 40.6475C59.5735 40.9283 60.2079 41.8061 60.2079 42.807C60.2079 43.7734 59.6307 44.6685 58.738 45.1069C58.4613 45.2429 58.1695 45.325 57.869 45.3563C57.8322 45.1446 57.6464 44.9956 57.4215 45.014C57.1708 45.0345 56.9665 45.2569 56.9665 45.5074C56.9665 45.7579 57.1708 45.9436 57.4215 45.9231C57.6485 45.9037 57.8355 45.7223 57.869 45.502C58.1889 45.4686 58.5002 45.3822 58.7942 45.2375C59.714 44.7862 60.3171 43.8792 60.3506 42.8869C63.0483 43.4333 65.7514 44.1059 68.4503 44.906C68.3108 45.2688 68.2308 45.664 68.2308 46.0819C68.2308 46.6509 68.3768 47.2188 68.6513 47.7285C68.5021 47.7965 68.3994 47.9444 68.3994 48.1215C68.3994 48.372 68.6037 48.5847 68.8545 48.5976C69.1052 48.6106 69.3095 48.4173 69.3095 48.1668C69.3095 47.9163 69.1052 47.7015 68.8545 47.6885L68.8491 47.6961ZM72.6341 42.9193C72.8038 42.9355 72.9421 43.0877 72.9421 43.2573C72.9421 43.4268 72.8038 43.552 72.6341 43.5358C72.4644 43.5196 72.3261 43.3685 72.3261 43.199C72.3261 43.0294 72.4644 42.9031 72.6341 42.9193ZM69.8424 39.6304C69.8424 39.4598 69.9807 39.3303 70.1515 39.3411C70.3222 39.3519 70.4606 39.4998 70.4606 39.6704C70.4606 39.8237 70.3471 39.9425 70.2001 39.9565C70.1893 39.9468 70.1774 39.9381 70.1634 39.9349C70.1396 39.9295 70.118 39.9371 70.1028 39.95C69.9558 39.9166 69.8434 39.7837 69.8434 39.6304H69.8424ZM69.0858 37.2388C69.2565 37.2474 69.3949 37.3943 69.3949 37.5638C69.3949 37.7333 69.2565 37.864 69.0858 37.8553C68.915 37.8467 68.7767 37.7009 68.7767 37.5314C68.7767 37.3619 68.915 37.2291 69.0858 37.2388ZM69.6229 32.015C69.7937 32.0248 69.9321 32.1727 69.9321 32.3422C69.9321 32.5128 69.7937 32.6424 69.6229 32.6316C69.4522 32.6219 69.3138 32.4761 69.3138 32.3055C69.3138 32.1349 69.4522 32.0042 69.6229 32.014V32.015ZM67.7466 25.7321C67.9174 25.7385 68.0557 25.8821 68.0557 26.0527C68.0557 26.2233 67.9174 26.3551 67.7466 26.3497C67.5759 26.3432 67.4375 26.2007 67.4375 26.0301C67.4375 25.8605 67.5759 25.7256 67.7466 25.7321ZM57.5102 28.7024C57.3405 28.7164 57.201 28.5901 57.2021 28.4195C57.2021 28.25 57.3405 28.0988 57.5102 28.0848C57.6799 28.0708 57.8193 28.1982 57.8193 28.3688C57.8193 28.5394 57.6809 28.6884 57.5102 28.7024ZM55.8814 38.1782C55.7117 38.1955 55.5733 38.0713 55.5733 37.9018C55.5733 37.7312 55.7117 37.5789 55.8814 37.5617C56.0511 37.5444 56.1894 37.6696 56.1894 37.8391C56.1894 38.0097 56.0511 38.1609 55.8814 38.1782ZM62.8159 32.9879C62.8159 32.1975 62.6279 31.4525 62.2939 30.796C62.7889 30.6416 63.2839 30.4926 63.7789 30.3468C64.1334 31.7829 65.3591 32.8724 66.8658 33.0807C67.0257 34.4013 67.1857 35.7218 67.3456 37.0434C66.6582 37.1384 66.0573 37.5249 65.6769 38.1069C64.3096 37.4645 62.9413 36.8533 61.5751 36.2757C62.3458 35.3817 62.8148 34.235 62.8148 32.9868L62.8159 32.9879ZM57.415 40.8376C57.2454 40.8516 57.1059 40.7253 57.1059 40.5558C57.1059 40.3852 57.2443 40.2351 57.415 40.221C57.5847 40.207 57.7242 40.3344 57.7242 40.505C57.7242 40.6756 57.5858 40.8246 57.415 40.8387V40.8376ZM57.415 45.786C57.2454 45.8 57.1059 45.6737 57.1059 45.5031C57.1059 45.3325 57.2443 45.1824 57.415 45.1684C57.5847 45.1544 57.7242 45.2818 57.7242 45.4513C57.7242 45.6208 57.5858 45.7709 57.415 45.7849V45.786ZM60.3452 42.7455C60.3354 42.3438 60.2295 41.9648 60.0469 41.6312C61.8043 40.9995 63.5628 40.4208 65.3223 39.8971C65.3915 40.2707 65.5439 40.6292 65.7741 40.9369C66.2443 41.5675 66.989 41.9551 67.7672 41.9853C68.1292 41.9983 68.4881 41.9313 68.8134 41.7964C69.0685 42.3524 69.3225 42.9085 69.5775 43.4667C69.1074 43.7928 68.7313 44.2441 68.4967 44.7808C65.7806 43.9742 63.0613 43.2961 60.3462 42.7465L60.3452 42.7455ZM68.8491 48.4594C68.6783 48.4508 68.54 48.3061 68.54 48.1355C68.54 47.9649 68.6783 47.8332 68.8491 47.8418C69.0198 47.8505 69.1582 47.9962 69.1582 48.1657C69.1582 48.3353 69.0198 48.467 68.8491 48.4584V48.4594ZM75.3524 46.2373C75.3524 45.9868 75.1492 45.7569 74.8995 45.7266C74.6498 45.6964 74.4456 45.8767 74.4456 46.1272C74.4456 46.3529 74.612 46.5591 74.8271 46.6196C74.8271 46.6217 74.826 46.6228 74.826 46.625C74.826 48.4054 73.382 49.6709 71.6019 49.5262C71.5619 49.523 71.5284 49.5532 71.5284 49.5932C71.5284 49.6331 71.5609 49.6687 71.6019 49.672C73.4631 49.8231 74.9719 48.5026 74.9719 46.6422C74.9719 46.6401 74.9719 46.639 74.9709 46.6368C75.187 46.6282 75.3524 46.463 75.3524 46.2373ZM74.8995 46.49C74.7298 46.4695 74.5915 46.3151 74.5915 46.1445C74.5915 45.9739 74.7298 45.8519 74.8995 45.8724C75.0692 45.8929 75.2076 46.0484 75.2076 46.219C75.2076 46.3896 75.0692 46.5105 74.8995 46.49ZM71.0669 49.104C70.8162 49.0846 70.6119 49.2746 70.6119 49.5251C70.6119 49.7756 70.8162 49.9937 71.0669 50.0132C71.3177 50.0315 71.5219 49.8447 71.5219 49.5942C71.5219 49.3437 71.3177 49.1235 71.0669 49.104ZM71.0669 49.8663C70.8962 49.8534 70.7578 49.7054 70.7578 49.5348C70.7578 49.3643 70.8962 49.2358 71.0669 49.2487C71.2377 49.2617 71.376 49.4107 71.376 49.5813C71.376 49.7519 71.2377 49.8793 71.0669 49.8663Z" fill="white"/>
</g>
<g style="mix-blend-mode:multiply">
<path d="M67.6856 139.308C77.1963 139.308 84.9063 136.087 84.9063 132.113C84.9063 128.139 77.1963 124.917 67.6856 124.917C58.1748 124.917 50.4648 128.139 50.4648 132.113C50.4648 136.087 58.1748 139.308 67.6856 139.308Z" fill="url(#paint1_linear_431_891)"/>
</g>
<path d="M72.7826 131.143C72.3254 130.72 71.8649 130.284 71.4024 129.836C70.7571 129.212 70.1367 128.591 69.5401 127.978C68.9835 126.999 67.8616 126.547 66.9245 126.839C65.781 127.194 65.0709 128.605 65.5832 129.922C66.0112 130.446 66.6511 131.149 67.5287 131.865C68.7176 132.834 69.8535 133.76 71.4758 133.902C72.0055 133.948 72.9079 133.938 74.019 133.466C74.0482 133.393 74.3541 132.596 73.8742 131.869C73.5002 131.303 72.9069 131.169 72.7847 131.144L72.7826 131.143Z" fill="#5470F3"/>
<path d="M72.9543 132.537C73.5763 132.537 74.0806 132.05 74.0806 131.449C74.0806 130.848 73.5763 130.36 72.9543 130.36C72.3323 130.36 71.8281 130.848 71.8281 131.449C71.8281 132.05 72.3323 132.537 72.9543 132.537Z" fill="#5470F3"/>
<path d="M72.2038 108.207C73.2328 107.906 75.014 109.822 75.59 111.825C76.084 113.54 75.6181 115.052 75.4733 115.538C73.3354 122.686 73.6932 131.033 72.6394 130.997C71.3932 130.955 71.163 119.271 71.1133 116.772C70.962 109.097 71.725 108.348 72.2027 108.207H72.2038Z" fill="#80DDF7"/>
<g opacity="0.5" style="mix-blend-mode:screen">
<path d="M73.2579 108.788C73.8361 108.621 74.9612 110.193 75.4011 111.763C75.8216 113.263 75.5351 114.471 75.1828 116.118C74.7256 118.262 74.3841 120.429 73.9474 122.578C72.9639 127.417 73.0093 130.462 72.8579 130.454C72.6375 130.441 73.5897 124.063 73.0763 114.994C72.8871 111.665 72.5596 108.989 73.2579 108.789V108.788Z" fill="#D0F5FF"/>
</g>
<path d="M72.5754 108.886C73.1974 108.886 73.7017 108.399 73.7017 107.798C73.7017 107.197 73.1974 106.709 72.5754 106.709C71.9534 106.709 71.4492 107.197 71.4492 107.798C71.4492 108.399 71.9534 108.886 72.5754 108.886Z" fill="#5470F3"/>
<path d="M73.7267 90.1345C77.755 95.152 73.7862 107.348 71.9834 107.191C71.109 107.115 70.2303 104.09 69.8769 92.7474C69.8088 90.4487 70.3492 88.7805 71.2571 88.5375C72.2352 88.2762 73.4036 89.7317 73.7278 90.1345H73.7267Z" fill="#80DDF7"/>
<path d="M73.1518 90.1756C73.1312 90.2868 72.9778 90.3192 71.9899 90.5449C70.6075 90.8601 70.467 90.8969 70.4054 90.8083C70.2368 90.5675 70.7869 89.5882 71.6203 89.436C72.3887 89.2956 73.2037 89.897 73.1518 90.1745V90.1756Z" fill="#5470F3"/>
<g opacity="0.5" style="mix-blend-mode:screen">
<path d="M73.4009 90.3885C74.6027 90.6044 75.262 93.9397 75.3258 96.4491C75.4588 101.627 73.1372 106.252 72.5286 106.102C72.0639 105.987 72.7837 94.3047 72.3838 92.3482C72.319 92.0318 72.092 90.9996 72.6021 90.5699C72.868 90.3464 73.2463 90.3604 73.4009 90.3885Z" fill="#D0F5FF"/>
</g>
<path d="M63.4091 132.812C62.2278 132.149 61.0183 131.441 59.7862 130.689C58.6124 129.972 57.4862 129.254 56.4064 128.54C56.2584 128.502 54.8155 128.159 53.9638 128.966C53.0364 129.845 53.0494 131.863 54.5453 133.32C55.3991 134.101 57.4581 135.751 60.2844 135.861C60.974 135.888 62.8168 135.959 64.063 134.772C64.2856 134.56 65.0217 133.86 64.7893 133.321C64.6326 132.956 64.0716 132.76 63.4091 132.813V132.812Z" fill="#5470F3"/>
<path d="M63.8684 134.491C64.4904 134.491 64.9946 134.004 64.9946 133.403C64.9946 132.802 64.4904 132.314 63.8684 132.314C63.2464 132.314 62.7422 132.802 62.7422 133.403C62.7422 134.004 63.2464 134.491 63.8684 134.491Z" fill="#5470F3"/>
<path d="M63.8452 110.602C64.9034 110.226 67.0477 112.435 67.7686 114.884C68.242 116.492 68.0042 117.873 67.9135 118.369C66.9029 123.881 65.1476 133.449 63.7717 133.247C63.1092 133.15 63.5556 130.94 63.1178 116.698C63.0108 113.216 62.9103 110.933 63.8442 110.601L63.8452 110.602Z" fill="#80DDF7"/>
<g opacity="0.5" style="mix-blend-mode:screen">
<path d="M65.2643 111.726C65.9906 111.534 67.3319 113.293 67.7708 114.993C68.0237 115.974 67.935 116.778 67.8799 117.243C67.3503 121.661 66.6445 123.884 66.6445 123.884C64.7034 130 64.3348 132.941 64.0289 132.884C63.6755 132.818 64.5434 128.954 64.7553 122.395C64.9757 115.585 64.2916 111.982 65.2643 111.725V111.726Z" fill="#D0F5FF"/>
</g>
<path d="M64.2473 111.546C64.8693 111.546 65.3735 111.059 65.3735 110.458C65.3735 109.856 64.8693 109.369 64.2473 109.369C63.6253 109.369 63.1211 109.856 63.1211 110.458C63.1211 111.059 63.6253 111.546 64.2473 111.546Z" fill="#5470F3"/>
<path d="M62.3963 91.0052C63.1583 89.6231 64.6509 88.8446 66.1013 89.0455C67.8587 89.2895 69.2595 90.9285 69.226 92.8926C66.2245 106.508 64.5839 110.058 63.6317 109.949C62.2006 109.786 61.3684 101.244 62.0331 93.9809C62.1412 92.8008 62.2763 91.7902 62.3963 91.0052Z" fill="#80DDF7"/>
<path d="M68.2904 91.2842C68.1575 91.7485 66.7622 91.7215 65.9667 91.7064C65.7581 91.7021 62.9544 91.6341 62.8507 90.915C62.775 90.3891 64.1444 89.5156 65.4922 89.5426C67.0237 89.5728 68.4396 90.7649 68.2915 91.2842H68.2904Z" fill="#5470F3"/>
<g opacity="0.5" style="mix-blend-mode:screen">
<path d="M68.6778 91.5493C69.015 91.748 68.8496 92.6161 68.7869 92.9281C68.3071 95.3252 67.5505 98.5795 67.37 99.3515C65.2862 107.57 64.3934 109.546 63.9913 109.476C63.1807 109.335 65.3986 101.037 65.2267 95.6491C65.2159 95.3144 65.1294 92.9282 66.2438 92.3462C66.4783 92.2231 66.675 92.2285 67.5516 91.8743C68.2541 91.5904 68.493 91.4392 68.6778 91.5482V91.5493Z" fill="#D0F5FF"/>
</g>
<path d="M63.1935 84.472C64.3186 84.8294 66.0933 85.2408 68.2798 85.1253C70.0524 85.0324 71.4942 84.6243 72.494 84.2539C72.762 84.6113 73.1176 85.1706 73.3662 85.9232C73.6299 86.7243 73.6677 87.424 73.6569 87.8829C73.3078 88.3547 71.7558 90.3458 68.9348 90.8587C65.3724 91.5065 62.7806 89.2531 62.4682 88.9713C62.3548 88.8104 61.5593 87.6486 61.9592 86.2136C62.2424 85.1998 62.9568 84.6415 63.1946 84.472H63.1935Z" fill="#80DDF7"/>
<g opacity="0.5" style="mix-blend-mode:screen">
<path d="M72.2381 84.5815C72.3246 84.6485 72.41 84.7208 72.4921 84.7997C73.4735 85.7336 73.6388 87.0855 73.6551 87.8845C73.2757 88.4448 72.6121 89.2449 71.5485 89.8075C70.9444 90.1271 69.8635 90.5536 69.6236 90.2426C69.4193 89.9791 70.1013 89.5494 70.3499 88.4276C70.6244 87.1934 70.084 86.4247 70.6406 85.8513C70.7963 85.6904 70.8525 85.7369 71.3313 85.3795C71.7442 85.0717 72.0479 84.7791 72.2392 84.5815H72.2381Z" fill="#D0F5FF"/>
</g>
<path d="M65.1543 51.1214C65.2472 50.2144 65.5358 49.3776 66.0265 47.9091C66.4804 46.5487 66.7215 45.7745 67.3883 45.0241C68.1471 44.17 68.9933 43.736 69.551 43.5157C68.7296 43.4304 67.6985 43.4703 66.6112 43.8904C64.9489 44.5328 63.9881 45.8382 63.4336 46.5724C63.2401 46.8283 63.1288 47.0119 63.0423 47.176C62.5516 48.11 62.6122 48.9047 62.5408 49.722C62.436 50.9216 62.0945 51.1527 61.9237 52.2151C61.7951 53.0141 61.7248 54.1619 62.0177 55.6271C62.1409 56.2447 62.6759 56.7112 63.3061 56.7122C63.8151 56.7122 64.2388 56.8537 64.5339 56.8353C65.0829 56.7997 65.3099 56.6647 66.0459 56.6021C66.3442 56.5762 66.5907 56.5751 66.755 56.5773C65.9076 55.3161 64.924 53.3467 65.1532 51.1203L65.1543 51.1214Z" fill="#D0F5FF"/>
<path d="M73.9376 46.9178C73.1756 45.1276 71.7521 44.2119 71.1566 43.8751C70.8799 43.7768 70.3028 43.5943 69.5516 43.5166C68.9939 43.7369 68.1476 44.1709 67.3889 45.025C66.722 45.7754 66.481 46.5496 66.027 47.9101C65.5363 49.3774 65.2488 50.2142 65.1548 51.1223C64.9257 53.3487 65.9092 55.3181 66.7566 56.5793C66.9284 56.4357 67.1046 56.2726 67.3164 56.0772C68.0709 55.3851 68.6534 54.8959 69.2857 54.5202C70.3255 53.9026 70.6281 54.1693 71.7489 53.5981C72.1661 53.3854 73.1205 52.8995 73.7506 52.0228C75.2043 50.0026 74.0424 47.1629 73.9386 46.9178H73.9376Z" fill="#80DDF7"/>
<g opacity="0.3" style="mix-blend-mode:screen">
<path d="M71.8131 44.9668C72.1103 44.7962 72.9166 45.5326 73.4019 46.229C74.5346 47.854 74.1649 49.6809 74.1433 50.1344C74.1314 50.3785 74.0612 51.2552 73.3684 51.8512C72.962 52.201 72.2411 52.5412 71.919 52.2885C71.6596 52.0844 71.826 51.6223 71.9525 50.7056C71.9525 50.7056 72.1989 48.9273 71.986 46.946C71.8487 45.673 71.5829 45.0985 71.8131 44.9647V44.9668Z" fill="#D0F5FF"/>
</g>
<path d="M65.5898 55.9476C65.7639 56.0545 66.6599 56.63 66.8976 57.7626C67.1116 58.7797 66.7128 59.8562 65.873 60.5602C67.8855 60.4987 69.898 60.4371 71.9105 60.3756C71.4598 60.0797 70.6384 59.4438 70.1671 58.3435C69.0982 55.8504 70.8675 53.4156 70.9702 53.2785C70.6935 53.1575 69.4484 52.6457 68.0314 53.1694C66.1486 53.8659 65.6342 55.7727 65.5898 55.9476Z" fill="#5470F3"/>
<path d="M81.3413 75.7481C81.2559 75.8269 81.123 75.964 80.9997 76.18C80.0281 77.4023 78.9116 78.6958 77.6373 80.0195C76.2971 81.4113 74.9817 82.6271 73.7398 83.6831C73.1886 83.5665 72.6525 83.7803 72.4331 84.1787C72.1121 84.7607 72.5769 85.5402 73.154 85.7778C73.7128 86.0078 74.5072 85.7853 74.5948 85.3783C74.6629 85.0608 74.2803 84.7304 74.1949 84.6581C76.5208 83.2328 78.3506 82.0041 79.653 81.096C80.4496 80.5411 81.0592 80.0984 81.7671 79.4181C83.0619 78.1743 83.878 76.911 84.3654 76.0342C84.3189 75.8291 84.2303 75.7189 84.0887 75.5948C83.8942 75.4598 82.3162 74.8498 81.3413 75.7481Z" fill="#5470F3"/>
<path d="M82.4465 76.6341C83.4093 76.6341 84.1899 75.9356 84.1899 75.0739C84.1899 74.2122 83.4093 73.5137 82.4465 73.5137C81.4837 73.5137 80.7031 74.2122 80.7031 75.0739C80.7031 75.9356 81.4837 76.6341 82.4465 76.6341Z" fill="#5470F3"/>
<path d="M78.5238 62.1171C82.5801 70.0834 84.251 74.2933 83.5366 74.7468C82.8514 75.1808 79.9688 72.1565 74.8911 65.6737C74.1951 62.3276 74.3377 59.8453 75.2543 59.5041C76.3167 59.1089 78.2027 61.6733 78.5238 62.1171Z" fill="#80DDF7"/>
<path d="M75.7398 59.9128C76.1375 59.6839 77.5653 61.3564 78.4418 62.6121C79.4621 64.073 79.9907 65.3342 80.3927 66.3113C81.9848 70.1779 83.7606 74.4892 83.3952 74.6588C83.2774 74.7138 82.9856 74.3133 82.6949 73.9094C80.1225 70.3355 77.0033 65.8049 75.7906 61.1135C75.6706 60.6503 75.5312 60.0348 75.7409 59.9139L75.7398 59.9128Z" fill="#D0F5FF"/>
<path d="M61.0599 61.1604C62.8141 59.0021 66.13 58.9211 69.0072 58.8509C71.9535 58.7785 74.8328 58.7084 76.4184 60.5202C78.4298 62.82 77.6581 66.7632 76.6367 68.9399C76.2098 69.8491 76.1417 69.591 75.3289 71.0444C74.3551 72.7838 73.0019 75.2035 72.8582 78.1577C72.7306 80.7782 73.6774 81.3224 73.003 82.9485C72.1351 85.0442 69.8826 85.7828 69.6611 85.8519C67.0855 86.6541 64.0138 85.4502 63.1221 83.5293C62.5449 82.2844 63.3599 81.7661 63.4128 78.3034C63.4312 77.1136 63.455 75.5566 62.9773 73.8031C62.2856 71.2646 61.2847 71.0379 60.5065 68.9399C60.4082 68.6743 58.7253 64.0325 61.0599 61.1604Z" fill="#D0F5FF"/>
<path d="M61.6148 60.9193C62.125 60.6774 63.1723 60.2574 63.7397 60.7012C64.0272 60.9268 64.2985 61.4581 63.6306 64.2395C63.0761 66.5458 62.4308 69.2322 61.6689 69.1933C61.2203 69.1706 60.8972 67.9257 60.2519 65.4369C59.838 63.8389 59.8174 63.2807 60.0185 62.7052C60.3611 61.7237 61.1782 61.1676 61.6138 60.9193H61.6148Z" fill="#5470F3"/>
<g opacity="0.5" style="mix-blend-mode:screen">
<path d="M75.1951 59.7966C76.4619 60.4034 76.9439 61.6148 77.1201 61.9852C77.922 63.6696 77.5805 65.2654 77.4519 65.7653C77.3751 66.0623 77.3027 66.3786 76.3235 68.4183C75.2351 70.6835 74.9649 71.0831 74.4634 72.2146C74.0495 73.1497 73.495 74.3989 73.1567 75.8404C72.8746 77.0432 72.5947 79.0062 73.0475 81.5694C73.0627 82.091 73.0075 83.012 72.4304 83.8542C72.1375 84.2818 71.395 85.1499 70.9788 85.0149C69.6646 84.5884 73.6431 74.8459 71.5236 63.405C71.1701 61.4993 70.7248 59.9596 70.3984 58.9457C71.5992 58.8561 72.5806 58.9878 73.2702 59.1347C73.963 59.2815 74.5077 59.4683 75.1951 59.7976V59.7966Z" fill="#D0F5FF"/>
</g>
<path d="M53.9657 78.3034C54.8486 78.3034 55.5643 77.7185 55.5643 76.9969C55.5643 76.2754 54.8486 75.6904 53.9657 75.6904C53.0829 75.6904 52.3672 76.2754 52.3672 76.9969C52.3672 77.7185 53.0829 78.3034 53.9657 78.3034Z" fill="#5470F3"/>
<path d="M59.1798 59.2366C58.6664 59.065 52.3047 76.1561 53.5628 76.2015C54.4166 76.2328 55.2218 75.7717 55.639 75.0138C56.1978 73.6177 56.8852 71.7357 57.5272 69.4682C58.6718 65.4235 59.8618 59.4645 59.1787 59.2366H59.1798Z" fill="#5470F3"/>
<path d="M58.5267 56.9092C58.9807 57.0657 59.7275 57.3897 60.4452 58.0613C60.9769 58.559 61.3077 59.0741 61.5066 59.4476C61.4676 59.8644 61.3628 60.4788 61.058 61.1601C60.7338 61.8846 60.3155 62.3942 60.0172 62.7052C59.9567 62.7948 59.7708 63.0486 59.4249 63.1587C58.8737 63.3347 58.4089 62.9903 58.3635 62.9546C58.0339 62.4925 57.6404 61.8382 57.3432 60.9971C56.926 59.8191 56.8731 58.7771 56.8947 58.1023C57.0568 57.8712 57.3421 57.5289 57.7928 57.2461C58.0641 57.0755 58.3214 56.9729 58.5278 56.9092H58.5267Z" fill="#80DDF7"/>
<path d="M60.9776 57.5841L62.2605 60.087C61.3872 60.5826 60.5139 61.0771 59.6406 61.5727C59.646 61.1538 59.7736 60.8935 59.873 60.7445C60.0038 60.548 60.1378 60.466 60.5399 60.1464C60.822 59.9218 61.0425 59.7339 61.1776 59.6162C60.9387 59.0353 60.635 58.7136 60.3886 58.5235C60.2264 58.3994 60.0081 58.2698 59.9865 58.0549C59.9681 57.8649 60.1108 57.6921 60.2416 57.5723C60.4869 57.5766 60.7323 57.5798 60.9776 57.5841Z" fill="#5470F3"/>
<path d="M59.8926 56.4316L62.2424 57.9811C61.7257 58.8416 61.2091 59.7011 60.6914 60.5616C60.4903 60.1934 60.473 59.9051 60.486 59.727C60.5033 59.4916 60.5801 59.3545 60.7724 58.8794C60.9075 58.5458 61.007 58.2737 61.0675 58.1042C59.8375 57.7327 59.2366 57.4736 59.2625 57.3289C59.2733 57.2684 59.3955 57.2274 59.63 57.2069C59.7176 56.9488 59.8051 56.6908 59.8926 56.4316Z" fill="#5470F3"/>
<path d="M57.1367 57.7035L61.3325 54.7202L62.6197 59.1007C62.3679 58.9765 62.0804 58.8016 61.7951 58.5522C60.9326 57.7985 60.6364 56.8462 60.5294 56.3906C60.337 56.6389 60.0463 56.9456 59.6313 57.2058C58.5958 57.8558 57.5139 57.7554 57.1367 57.7035Z" fill="#80DDF7"/>
<path d="M57.1367 59.1007C57.3734 58.7163 57.7355 58.2531 58.1613 58.2672C58.8001 58.2887 58.9828 59.362 59.5491 59.3685C60.2225 59.375 60.3813 57.8644 61.5497 57.4519C61.9734 57.3019 62.3787 57.3494 62.6522 57.4109C62.343 57.6701 61.848 58.1095 61.3055 58.7163C59.4767 60.7603 59.16 62.4101 58.5245 62.3809C58.1721 62.3647 57.6663 61.8292 57.1367 59.1018V59.1007Z" fill="#D0F5FF"/>
<path d="M58.2226 63.8561C58.8375 63.8561 59.3359 63.4486 59.3359 62.9459C59.3359 62.4432 58.8375 62.0356 58.2226 62.0356C57.6078 62.0356 57.1094 62.4432 57.1094 62.9459C57.1094 63.4486 57.6078 63.8561 58.2226 63.8561Z" fill="#5470F3"/>
<path d="M61.3059 60.5937C61.9371 60.6261 62.6991 61.0623 63.0493 61.6821C63.5897 62.6377 63.0644 63.8686 61.7415 66.3271C58.5963 72.1707 56.4714 74.6735 55.7116 75.5448C54.3973 77.0511 53.7413 77.8037 53.5229 77.7011C52.1957 77.0748 57.188 60.3853 61.307 60.5937H61.3059Z" fill="#80DDF7"/>
<path d="M62.2813 61.5135C62.6152 61.6279 62.6758 62.2477 62.732 62.8135C62.9287 64.8132 61.6857 65.9318 59.1296 70.011C58.0542 71.7256 58.2077 71.6349 57.4781 72.7103C56.5205 74.1216 54.1935 77.3219 53.826 77.1092C53.0532 76.6622 60.4363 60.8829 62.2813 61.5146V61.5135Z" fill="#D0F5FF"/>
<g opacity="0.6">
<path d="M86.5126 90.1334C83.1729 90.7348 79.777 91.2067 76.3486 91.5479C73.4217 91.8394 70.4711 92.0348 67.5118 92.1363C64.7946 92.2292 62.0698 92.2422 59.3505 92.1741C56.7263 92.1093 54.1074 91.969 51.5016 91.7552C48.9011 91.5414 46.3158 91.2531 43.7542 90.8903C41.09 90.5135 38.4528 90.0557 35.8545 89.518L35.7734 117.917C38.3728 118.455 41.01 118.913 43.6732 119.29C46.2347 119.652 48.82 119.941 51.4205 120.154C54.0253 120.369 56.6452 120.509 59.2694 120.573C61.9888 120.641 64.7135 120.628 67.4307 120.536C70.39 120.434 73.3407 120.239 76.2675 119.947C79.6948 119.606 83.0908 119.135 86.4316 118.533C91.6249 117.598 96.6832 116.346 101.517 114.781L101.598 86.3813C96.7632 87.947 91.7049 89.1973 86.5126 90.1334Z" fill="url(#paint2_linear_431_891)"/>
<g opacity="0.5">
<path d="M58.3295 117.088C65.3322 118.066 72.431 118.12 79.4445 117.251C80.0162 117.18 80.481 116.649 80.481 116.076V95.4327C80.481 95.3225 80.5696 95.2221 80.6788 95.207C80.7879 95.1919 80.8766 95.2675 80.8766 95.3776V116.021C80.8766 116.813 80.2346 117.55 79.4456 117.647C72.4321 118.516 65.3332 118.462 58.3306 117.484C58.2214 117.469 58.1328 117.368 58.1328 117.257C58.1328 117.147 58.2214 117.072 58.3306 117.087L58.3295 117.088ZM78.275 111.292C78.0275 111.319 77.78 111.345 77.5325 111.37C77.4428 111.771 77.0915 112.102 76.6711 112.138C76.1825 112.182 75.7848 111.816 75.7848 111.327C75.7848 111.188 75.8205 111.055 75.8778 110.933C74.811 110.157 73.742 109.359 72.6731 108.54C72.5218 108.664 72.3348 108.744 72.1284 108.75C71.9792 108.754 71.8409 108.719 71.7177 108.657C70.5893 109.996 69.4609 111.312 68.3336 112.604C68.4428 112.753 68.5087 112.933 68.5087 113.128C68.5087 113.617 68.1099 114.01 67.6203 113.998C67.1307 113.987 66.7318 113.574 66.7318 113.087C66.7318 112.821 66.8529 112.589 67.041 112.432C65.8045 110.068 64.5691 107.677 63.3359 105.257C63.2635 105.271 63.1878 105.279 63.1089 105.272C62.6885 105.239 62.3383 104.914 62.2475 104.513C61.3883 104.436 60.529 104.345 59.6708 104.239C59.5617 104.226 59.473 104.126 59.473 104.015C59.473 103.905 59.5617 103.829 59.6708 103.842C60.5279 103.946 61.3872 104.038 62.2464 104.116C62.3372 103.732 62.6874 103.468 63.1078 103.502C63.5964 103.54 63.9941 103.964 63.9941 104.453C63.9941 104.719 63.8731 104.948 63.685 105.097C64.9193 107.512 66.1547 109.898 67.3901 112.256C67.4636 112.239 67.5381 112.227 67.617 112.229C67.7662 112.232 67.9034 112.275 68.0277 112.342C69.1561 111.054 70.2845 109.743 71.4129 108.408C71.3048 108.263 71.2378 108.085 71.2378 107.89C71.2378 107.402 71.6366 106.997 72.1262 106.98C72.6158 106.964 73.0136 107.343 73.0136 107.832C73.0136 107.972 72.979 108.102 72.9217 108.222C73.9906 109.038 75.0596 109.832 76.1263 110.606C76.2766 110.476 76.4636 110.387 76.6689 110.369C77.0883 110.331 77.4385 110.59 77.5293 110.973C77.7768 110.948 78.0243 110.923 78.2729 110.896C78.382 110.884 78.4707 110.963 78.4707 111.072C78.4707 111.181 78.382 111.28 78.2729 111.292H78.275ZM63.1089 103.9C62.8398 103.878 62.6204 104.079 62.6204 104.348C62.6204 104.617 62.8398 104.856 63.1089 104.877C63.378 104.899 63.5975 104.696 63.5975 104.426C63.5975 104.157 63.378 103.922 63.1089 103.9ZM67.1296 113.101C67.1296 113.37 67.349 113.596 67.6192 113.602C67.8894 113.609 68.1088 113.393 68.1088 113.124C68.1088 112.855 67.8894 112.632 67.6192 112.625C67.349 112.619 67.1296 112.832 67.1296 113.1V113.101ZM72.1284 107.378C71.8582 107.386 71.6388 107.611 71.6388 107.881C71.6388 108.151 71.8582 108.364 72.1284 108.355C72.3986 108.346 72.618 108.118 72.618 107.849C72.618 107.58 72.3986 107.369 72.1284 107.378ZM76.6711 110.765C76.402 110.789 76.1826 111.026 76.1826 111.295C76.1826 111.564 76.402 111.766 76.6711 111.741C76.9402 111.717 77.1596 111.476 77.1596 111.208C77.1596 110.939 76.9402 110.74 76.6711 110.764V110.765Z" fill="white"/>
</g>
<g style="mix-blend-mode:soft-light" opacity="0.7">
<path d="M77.1711 110.804C77.1105 110.804 77.0511 110.78 77.0079 110.731C76.9279 110.64 76.9365 110.503 77.0273 110.423C77.4629 110.039 77.892 109.651 78.3157 109.26C82.5395 105.114 86.2554 100.571 89.353 95.7572C89.3833 95.7097 89.4308 95.6762 89.486 95.6633C92.5717 94.9312 95.6186 93.9767 98.5422 92.8268C98.6535 92.7814 98.781 92.8376 98.8254 92.9488C98.8697 93.0611 98.8145 93.1874 98.7032 93.2317C95.7872 94.3795 92.75 95.3329 89.674 96.0671C86.5688 100.881 82.8486 105.424 78.6183 109.576C78.187 109.974 77.7558 110.363 77.3181 110.749C77.277 110.786 77.2251 110.803 77.1732 110.803L77.1711 110.804Z" fill="white"/>
<path d="M91.4757 97.2703C91.3677 97.2703 91.2736 97.1904 91.2596 97.0802C91.2444 96.9615 91.3287 96.8524 91.4476 96.8362C93.9281 96.5188 96.3113 95.8407 98.5313 94.8182C98.6394 94.7685 98.7702 94.815 98.8199 94.9251C98.8707 95.0341 98.8221 95.1637 98.7129 95.2134C96.4529 96.2532 94.0276 96.9442 91.5028 97.267C91.493 97.2681 91.4844 97.2692 91.4747 97.2692L91.4757 97.2703Z" fill="white"/>
<path d="M91.4757 98.5037C91.3677 98.5037 91.2736 98.4238 91.2596 98.3136C91.2444 98.1949 91.3287 98.0858 91.4476 98.0696C93.9281 97.7522 96.3113 97.0741 98.5313 96.0516C98.6394 96.0019 98.7702 96.0484 98.8199 96.1585C98.8707 96.2675 98.8221 96.3971 98.7129 96.4468C96.4529 97.4866 94.0276 98.1776 91.5028 98.5004C91.493 98.5015 91.4844 98.5026 91.4747 98.5026L91.4757 98.5037Z" fill="white"/>
<path d="M91.4757 99.739C91.3677 99.739 91.2736 99.6591 91.2596 99.549C91.2444 99.4302 91.3287 99.3201 91.4476 99.305C93.9281 98.9875 96.3113 98.3084 98.5313 97.2869C98.6394 97.2373 98.7702 97.2837 98.8199 97.3938C98.8707 97.5029 98.8221 97.6325 98.7129 97.6821C96.454 98.7219 94.0276 99.4129 91.5028 99.7369C91.493 99.7379 91.4844 99.739 91.4747 99.739H91.4757Z" fill="white"/>
<path d="M91.4757 100.974C91.3677 100.974 91.2736 100.894 91.2596 100.784C91.2444 100.665 91.3287 100.555 91.4476 100.54C93.9281 100.222 96.3113 99.5443 98.5313 98.5218C98.6394 98.4721 98.7702 98.5186 98.8199 98.6287C98.8707 98.7378 98.8221 98.8673 98.7129 98.917C96.4529 99.9568 94.0276 100.648 91.5028 100.971C91.493 100.972 91.4844 100.973 91.4747 100.973L91.4757 100.974Z" fill="white"/>
<path d="M91.4757 102.208C91.3677 102.208 91.2736 102.128 91.2596 102.018C91.2444 101.899 91.3287 101.789 91.4476 101.774C93.9281 101.456 96.3113 100.778 98.5313 99.7557C98.6394 99.706 98.7702 99.7525 98.8199 99.8626C98.8707 99.9716 98.8221 100.101 98.7129 100.151C96.4529 101.191 94.0276 101.882 91.5028 102.205C91.493 102.206 91.4844 102.207 91.4747 102.207L91.4757 102.208Z" fill="white"/>
</g>
<g style="mix-blend-mode:soft-light" opacity="0.7">
<path d="M47.3522 104.05C47.4603 104.05 47.5543 103.97 47.5683 103.86C47.5835 103.741 47.4992 103.631 47.3803 103.616C44.8998 103.299 42.5166 102.62 40.2966 101.598C40.1885 101.548 40.0577 101.595 40.008 101.705C39.9583 101.814 40.0058 101.943 40.115 101.993C42.375 103.033 44.8003 103.724 47.3251 104.047C47.3349 104.048 47.3435 104.049 47.3533 104.049L47.3522 104.05Z" fill="white"/>
<path d="M47.3522 105.285C47.4603 105.285 47.5543 105.206 47.5683 105.095C47.5835 104.977 47.4992 104.866 47.3803 104.851C44.8998 104.534 42.5166 103.856 40.2966 102.833C40.1885 102.784 40.0577 102.83 40.008 102.94C39.9583 103.049 40.0058 103.179 40.115 103.229C42.375 104.268 44.8003 104.959 47.3251 105.282C47.3349 105.283 47.3435 105.284 47.3533 105.284L47.3522 105.285Z" fill="white"/>
<path d="M47.3522 106.519C47.4603 106.519 47.5543 106.439 47.5683 106.329C47.5835 106.21 47.4992 106.1 47.3803 106.085C44.8987 105.768 42.5166 105.089 40.2966 104.067C40.1885 104.018 40.0577 104.064 40.008 104.174C39.9583 104.283 40.0058 104.413 40.115 104.462C42.3739 105.502 44.8003 106.193 47.3251 106.517C47.3349 106.518 47.3435 106.519 47.3533 106.519H47.3522Z" fill="white"/>
<path d="M47.3522 107.754C47.4603 107.754 47.5543 107.674 47.5683 107.564C47.5835 107.445 47.4992 107.336 47.3803 107.32C44.8998 107.003 42.5166 106.325 40.2966 105.302C40.1885 105.252 40.0577 105.299 40.008 105.409C39.9583 105.518 40.0058 105.648 40.115 105.697C42.375 106.737 44.8003 107.428 47.3251 107.751C47.3349 107.752 47.3435 107.753 47.3533 107.753L47.3522 107.754Z" fill="white"/>
<path d="M47.3522 108.989C47.4603 108.989 47.5543 108.909 47.5683 108.799C47.5835 108.68 47.4992 108.57 47.3803 108.554C44.8998 108.237 42.5166 107.559 40.2966 106.536C40.1885 106.487 40.0577 106.533 40.008 106.643C39.9583 106.752 40.0058 106.882 40.115 106.932C42.375 107.971 44.8003 108.662 47.3251 108.985C47.3349 108.986 47.3435 108.987 47.3533 108.987L47.3522 108.989Z" fill="white"/>
<path d="M48.869 110.909C48.8549 110.909 48.8409 110.908 48.8268 110.904C45.6784 110.291 42.5364 109.492 39.4885 108.531C39.3739 108.495 39.3102 108.372 39.3458 108.258C39.3815 108.143 39.5058 108.08 39.6193 108.115C42.6359 109.067 45.7443 109.857 48.8603 110.466C53.7608 109.104 58.5218 107.291 63.0137 105.078C63.1218 105.025 63.2525 105.069 63.3055 105.176C63.3585 105.284 63.3142 105.415 63.2072 105.468C58.6763 107.701 53.8721 109.529 48.9284 110.899C48.909 110.904 48.8895 110.906 48.87 110.906L48.869 110.909Z" fill="white"/>
</g>
</g>
<path opacity="0.7" d="M113.022 13.5032C109.427 11.429 105.574 9.59345 101.527 7.9976C98.9047 6.96321 96.2005 6.02924 93.4303 5.19568C92.6424 4.95814 91.8491 5.55523 91.8469 6.37691L91.7734 32.2053C91.7724 32.7549 92.1355 33.2354 92.663 33.3908C95.6741 34.2751 98.6086 35.2771 101.447 36.3968C105.494 37.9927 109.345 39.8282 112.942 41.9024C128.652 50.9636 136.499 62.8579 136.465 74.734L136.547 46.3347C136.58 34.4587 128.734 22.5643 113.023 13.5032H113.022Z" fill="url(#paint3_linear_431_891)"/>
<path opacity="0.7" d="M136.545 46.3356L136.493 65.2266V65.9403L136.485 68.6407V68.6451L136.48 69.5812V69.5855L136.476 72.1596V72.1639L136.472 73.1044V73.1087L136.467 74.7326C136.463 74.968 136.463 75.1991 136.454 75.4334C136.45 75.5338 136.45 75.6342 136.441 75.7335V75.7379C136.428 76.0866 136.411 76.43 136.381 76.7787C136.298 77.8541 136.145 78.9252 135.932 79.9974C135.911 80.1065 135.889 80.2155 135.862 80.3235V80.3278C135.757 80.8331 135.635 81.3341 135.5 81.8351C135.26 82.7238 134.977 83.6037 134.645 84.4826C134.074 86.0072 133.363 87.5135 132.522 89.0078C131.611 90.6188 130.543 92.2038 129.314 93.763C127.884 95.5791 126.236 97.3509 124.375 99.072L124.454 70.6739C126.315 68.9539 127.963 67.1809 129.398 65.3648C130.622 63.8057 131.695 62.2163 132.601 60.6054C133.446 59.1164 134.153 57.6048 134.724 56.0802C135.282 54.5999 135.714 53.1012 136.014 51.5993C136.319 50.0833 136.49 48.5598 136.537 47.0309C136.542 46.7998 136.546 46.5645 136.546 46.3345L136.545 46.3356Z" fill="url(#paint4_linear_431_891)"/>
<g style="mix-blend-mode:screen">
<path d="M127.163 32.4242C127.098 32.4242 127.034 32.3951 126.991 32.3411C123.317 27.6561 118.876 23.904 114.146 21.4897C114.039 21.4347 113.996 21.304 114.051 21.1971C114.106 21.0902 114.237 21.0481 114.344 21.1021C119.13 23.5445 123.621 27.3376 127.334 32.0722C127.408 32.1672 127.391 32.3033 127.297 32.3778C127.257 32.4091 127.209 32.4242 127.163 32.4242Z" fill="white"/>
<path d="M126.952 36.1209C126.887 36.1209 126.823 36.0917 126.78 36.0378C123.106 31.3528 118.665 27.6007 113.936 25.1875C113.829 25.1324 113.785 25.0018 113.84 24.8949C113.896 24.788 114.027 24.7459 114.133 24.7999C118.918 27.2411 123.41 31.0353 127.123 35.77C127.197 35.865 127.18 36.001 127.086 36.0756C127.046 36.1069 126.998 36.122 126.952 36.122V36.1209Z" fill="white"/>
<path d="M126.745 39.8192C126.68 39.8192 126.616 39.7901 126.573 39.7361C122.899 35.0511 118.458 31.299 113.728 28.8848C113.621 28.8297 113.578 28.699 113.633 28.5921C113.688 28.4852 113.819 28.4431 113.926 28.4971C118.711 30.9395 123.203 34.7326 126.916 39.4673C126.99 39.5623 126.973 39.6983 126.879 39.7728C126.839 39.8041 126.791 39.8192 126.745 39.8192Z" fill="white"/>
<path d="M126.538 43.516C126.473 43.516 126.409 43.4869 126.366 43.4329C122.692 38.7479 118.251 34.9958 113.521 32.5815C113.414 32.5265 113.371 32.3958 113.426 32.2889C113.481 32.182 113.613 32.1399 113.719 32.1939C118.504 34.6363 122.996 38.4294 126.709 43.164C126.783 43.259 126.766 43.3951 126.672 43.4696C126.632 43.5009 126.584 43.516 126.538 43.516Z" fill="white"/>
<path d="M126.327 47.1588C126.278 47.1588 126.231 47.1372 126.198 47.0962C122.52 42.4048 118.073 38.6473 113.335 36.2308C113.255 36.1898 113.223 36.0915 113.264 36.0116C113.305 35.9307 113.403 35.8993 113.484 35.9404C118.263 38.3795 122.748 42.1672 126.455 46.8954C126.512 46.9666 126.499 47.0692 126.427 47.1243C126.397 47.148 126.361 47.1588 126.327 47.1588Z" fill="white"/>
</g>
<g style="mix-blend-mode:soft-light" opacity="0.7">
<path d="M135.858 80.3286C135.753 80.8339 135.631 81.3349 135.496 81.8359C133.586 85.0363 131.32 87.8673 128.783 90.1974C128.74 90.2363 128.687 90.2579 128.635 90.2579C128.579 90.2579 128.517 90.232 128.474 90.1877C128.395 90.0959 128.399 89.9609 128.487 89.8789C131.325 87.2702 133.827 84.0213 135.858 80.3286Z" fill="white"/>
<path d="M136.438 75.7393C136.425 76.088 136.407 76.4314 136.377 76.7801C134.302 80.6164 131.721 83.9917 128.783 86.6921C128.74 86.731 128.687 86.7526 128.635 86.7526C128.579 86.7526 128.517 86.7267 128.474 86.6781C128.395 86.5906 128.399 86.4513 128.487 86.3736C131.604 83.5123 134.311 79.8757 136.439 75.7393H136.438Z" fill="white"/>
<path d="M136.473 72.1647L136.469 73.1051V73.1094C134.376 77.0159 131.765 80.4473 128.783 83.1866C128.74 83.2255 128.687 83.2428 128.635 83.2428C128.579 83.2428 128.517 83.2212 128.474 83.1726C128.395 83.0851 128.399 82.9458 128.487 82.8681C131.621 79.9895 134.342 76.3314 136.473 72.1636V72.1647Z" fill="white"/>
<path d="M136.482 68.6451L136.478 69.5813V69.5856C134.385 73.4964 131.769 76.9364 128.783 79.68C128.74 79.7189 128.687 79.7362 128.635 79.7362C128.579 79.7362 128.517 79.7146 128.474 79.666C128.395 79.5785 128.399 79.4393 128.487 79.3615C131.621 76.4786 134.346 72.8161 136.482 68.644V68.6451Z" fill="white"/>
<path d="M136.493 65.2262V65.9399C134.391 69.8939 131.759 73.3696 128.751 76.1348C128.716 76.165 128.676 76.1779 128.637 76.1779C128.594 76.1779 128.55 76.1607 128.519 76.1261C128.459 76.0613 128.463 75.9566 128.528 75.8951C131.649 73.0251 134.366 69.3799 136.493 65.2251V65.2262Z" fill="white"/>
</g>
<defs>
<linearGradient id="paint0_linear_431_891" x1="4.95205" y1="21.0012" x2="65.7094" y2="21.0012" gradientUnits="userSpaceOnUse">
<stop stop-color="#4689C8"/>
<stop offset="1" stop-color="#0852FF"/>
</linearGradient>
<linearGradient id="paint1_linear_431_891" x1="88.0753" y1="133.072" x2="47.9521" y2="131.182" gradientUnits="userSpaceOnUse">
<stop stop-color="white"/>
<stop offset="0.85" stop-color="#BFBCBB"/>
</linearGradient>
<linearGradient id="paint2_linear_431_891" x1="35.7734" y1="103.499" x2="101.598" y2="103.499" gradientUnits="userSpaceOnUse">
<stop stop-color="#B2D0DF"/>
<stop offset="1" stop-color="#0852FF"/>
</linearGradient>
<linearGradient id="paint3_linear_431_891" x1="91.7724" y1="39.9394" x2="136.544" y2="39.9394" gradientUnits="userSpaceOnUse">
<stop stop-color="#BFCCFF" stop-opacity="0.7"/>
<stop offset="1" stop-color="#92B3FF" stop-opacity="0.1"/>
</linearGradient>
<linearGradient id="paint4_linear_431_891" x1="118.941" y1="84.0367" x2="151.087" y2="52.394" gradientUnits="userSpaceOnUse">
<stop stop-color="#4689C8"/>
<stop offset="1" stop-color="#0852FF"/>
</linearGradient>
</defs>
</svg>
