<svg width="852" height="396" viewBox="0 0 852 396" fill="none" xmlns="http://www.w3.org/2000/svg">
<rect x="483" width="369" height="310" fill="url(#paint0_linear_2866_309)"/>
<rect x="482.973" y="29.75" width="369" height="366" rx="9.40568" fill="#FFD92D"/>
<rect width="369" height="310" fill="url(#paint1_linear_2866_309)"/>
<rect x="0.132812" y="283.695" width="368.786" height="112.056" rx="9.40568" fill="#DBE2EB"/>
<path d="M183.21 326.384V300.408H194.439V306.037C194.439 307.308 194.146 308.236 193.559 308.823C192.973 309.389 192.103 309.673 190.95 309.673H188.78C188.741 309.165 188.653 308.598 188.516 307.972C188.38 307.347 188.233 306.848 188.077 306.477H190.1C190.471 306.477 190.745 306.418 190.92 306.301C191.096 306.184 191.184 305.94 191.184 305.568V303.399H186.493V310.552H195.172C195.113 312.37 194.859 314.129 194.409 315.83C193.979 317.53 193.364 319.123 192.562 320.609C193.09 321.215 193.676 321.781 194.321 322.309C194.986 322.817 195.699 323.306 196.462 323.775C196.149 324.029 195.797 324.4 195.406 324.889C195.015 325.397 194.683 325.866 194.409 326.296C193.041 325.456 191.829 324.449 190.774 323.277C190.344 323.804 189.894 324.303 189.425 324.772C188.956 325.241 188.458 325.671 187.93 326.062C187.578 325.612 187.099 325.133 186.493 324.625V326.384H183.21ZM174.297 326.384V321.312H169.665V318.468H174.297V316.445H169.283V313.601H171.981C171.805 313.113 171.609 312.624 171.394 312.136C171.199 311.647 171.013 311.246 170.837 310.934L173.681 310.142C173.896 310.572 174.131 311.129 174.385 311.813C174.639 312.497 174.834 313.093 174.971 313.601H176.789C177.004 313.054 177.209 312.458 177.405 311.813C177.6 311.168 177.747 310.611 177.844 310.142L180.747 310.816C180.63 311.227 180.483 311.686 180.307 312.194C180.131 312.683 179.946 313.152 179.75 313.601H182.184V316.445H177.493V318.468H181.832V321.312H177.493V326.384H174.297ZM168.814 309.995V307.151H174.297V305.246H170.104V302.519H174.297V299.705H177.493V302.519H181.597V305.246H177.493V307.151H182.682V309.995H168.814ZM186.493 323.101C186.923 322.729 187.334 322.338 187.725 321.928C188.116 321.517 188.477 321.078 188.81 320.609C188.282 319.71 187.832 318.752 187.461 317.735C187.09 316.719 186.796 315.644 186.581 314.51L189.425 313.953C189.679 315.322 190.06 316.533 190.569 317.589C191.155 316.299 191.536 314.94 191.712 313.514H186.493V323.101ZM212.147 326.414C211.815 326.199 211.424 325.974 210.974 325.739C210.525 325.524 210.105 325.358 209.714 325.241V325.505H198.602V306.477H201.974V303.457H198.162V300.789H210.388V303.457H206.225V306.477H209.714V312.077C210.007 311.158 210.261 310.21 210.476 309.233C210.691 308.256 210.847 307.318 210.945 306.418L212.558 306.741V300.144H215.196V306.976L216.164 306.594C216.379 307.063 216.603 307.63 216.838 308.295C217.073 308.94 217.307 309.604 217.542 310.289V300.995H220.034V306.888L220.972 306.506C221.167 306.956 221.382 307.503 221.617 308.148C221.852 308.793 222.086 309.458 222.321 310.142V300.086H224.93V326.414H222.321V314.364C222.125 314.442 221.939 314.54 221.764 314.657C221.588 314.755 221.431 314.852 221.294 314.95C221.158 314.442 220.982 313.797 220.767 313.015C220.552 312.233 220.307 311.442 220.034 310.64V324.977H217.542V314.334C217.346 314.432 217.161 314.54 216.985 314.657C216.809 314.755 216.643 314.852 216.486 314.95C216.349 314.442 216.164 313.787 215.929 312.986C215.714 312.165 215.47 311.354 215.196 310.552V313.015C215.196 315.146 215.098 317.002 214.903 318.586C214.727 320.149 214.414 321.557 213.965 322.808C213.535 324.058 212.929 325.26 212.147 326.414ZM209.714 324.977C210.456 323.843 211.033 322.71 211.443 321.576C211.854 320.423 212.137 319.162 212.294 317.794C212.47 316.406 212.558 314.813 212.558 313.015V310.083C212.343 311.158 212.079 312.204 211.766 313.22C211.453 314.217 211.092 315.107 210.681 315.888C210.427 315.712 210.105 315.546 209.714 315.39V324.977ZM201.035 318.234H207.28V316.152H206.371C205.707 316.152 205.228 316.054 204.935 315.859C204.642 315.644 204.495 315.263 204.495 314.716V309.145H203.703C203.703 310.552 203.654 311.696 203.557 312.575C203.459 313.435 203.303 314.168 203.088 314.774C202.892 315.361 202.609 315.976 202.237 316.621C201.905 316.445 201.504 316.26 201.035 316.064V318.234ZM201.035 322.866H207.28V320.609H201.035V322.866ZM206.899 313.66H207.28V309.145H206.225V313.074C206.225 313.328 206.274 313.494 206.371 313.572C206.469 313.631 206.645 313.66 206.899 313.66ZM201.035 314.833C201.368 314.168 201.602 313.426 201.739 312.605C201.895 311.784 201.974 310.631 201.974 309.145H201.035V314.833ZM203.703 306.477H204.495V303.457H203.703V306.477ZM227.627 316.885V314.305H234.077V312.927H229.416V310.464H234.077V309.116H229.357V308.178H227.539V302.079H234.019V299.617H237.39V302.079H243.723V308.178H241.993V309.116H237.302V310.464H241.847V312.927H237.302V314.305H243.752V316.885H227.627ZM229.592 326.091V318.146H242.052V326.091H229.592ZM247.593 326.502C247.574 326.208 247.525 325.837 247.447 325.388C247.368 324.958 247.28 324.528 247.183 324.098C247.105 323.668 247.007 323.335 246.89 323.101H249.323C249.694 323.101 249.958 323.042 250.115 322.925C250.271 322.808 250.349 322.573 250.349 322.221V299.792H253.574V323.716C253.574 324.694 253.291 325.397 252.724 325.827C252.177 326.277 251.336 326.502 250.203 326.502H247.593ZM245.042 319.319V301.786H248.267V319.319H245.042ZM232.993 323.394H238.68V320.843H232.993V323.394ZM230.471 306.536H234.077V305.216H237.302V306.536H240.791V304.747H230.471V306.536ZM258.148 313.396C257.894 312.888 257.571 312.37 257.18 311.842C256.789 311.295 256.398 310.855 256.008 310.523C257.278 309.995 258.549 309.331 259.819 308.529C261.109 307.708 262.331 306.809 263.484 305.832C264.657 304.835 265.702 303.799 266.621 302.724C267.559 301.63 268.321 300.545 268.908 299.47L272.162 299.91C272.788 300.907 273.569 301.894 274.508 302.871C275.446 303.848 276.482 304.777 277.615 305.656C278.749 306.536 279.931 307.337 281.163 308.06C282.394 308.764 283.616 309.35 284.828 309.819C284.652 310.054 284.427 310.376 284.153 310.787C283.899 311.178 283.645 311.579 283.391 311.989C283.137 312.399 282.932 312.771 282.775 313.103C281.974 312.712 281.153 312.272 280.313 311.784C279.472 311.276 278.641 310.738 277.821 310.171V312.517H262.985V310.376C262.184 310.963 261.373 311.52 260.552 312.048C259.731 312.556 258.93 313.005 258.148 313.396ZM261.783 326.208V314.979H279.081V326.208H261.783ZM265.389 323.101H275.416V318.117H265.389V323.101ZM264.363 309.321H276.677C275.426 308.383 274.253 307.376 273.159 306.301C272.084 305.207 271.175 304.093 270.432 302.959C269.768 304.014 268.898 305.089 267.823 306.184C266.767 307.278 265.614 308.324 264.363 309.321Z" fill="#1C59A9"/>
<path d="M132.937 375.523V342.631L125.822 347.296L122.498 341.989L134.395 334.641H139.177V375.523H132.937ZM160.941 376.107C157.831 376.107 155.401 375.329 153.651 373.774C151.902 372.219 150.657 369.886 149.919 366.775C149.219 363.665 148.869 359.777 148.869 355.111C148.869 350.446 149.219 346.558 149.919 343.447C150.657 340.298 151.902 337.946 153.651 336.39C155.401 334.835 157.831 334.058 160.941 334.058C164.052 334.058 166.462 334.835 168.173 336.39C169.923 337.946 171.147 340.298 171.847 343.447C172.586 346.558 172.955 350.446 172.955 355.111C172.955 359.777 172.586 363.665 171.847 366.775C171.147 369.886 169.923 372.219 168.173 373.774C166.462 375.329 164.052 376.107 160.941 376.107ZM160.941 370.158C162.38 370.158 163.507 369.711 164.324 368.817C165.179 367.883 165.801 366.328 166.19 364.151C166.579 361.974 166.773 358.96 166.773 355.111C166.773 351.223 166.579 348.191 166.19 346.013C165.801 343.836 165.179 342.3 164.324 341.406C163.507 340.473 162.38 340.006 160.941 340.006C159.503 340.006 158.356 340.473 157.5 341.406C156.645 342.3 156.023 343.836 155.634 346.013C155.284 348.191 155.109 351.223 155.109 355.111C155.109 358.96 155.284 361.974 155.634 364.151C156.023 366.328 156.645 367.883 157.5 368.817C158.356 369.711 159.503 370.158 160.941 370.158ZM215.118 360.243C212.863 360.243 210.822 359.874 208.995 359.135C207.206 358.358 205.515 357.502 203.921 356.569C202.249 355.558 200.635 354.625 199.08 353.77C197.564 352.915 195.95 352.487 194.24 352.487C192.918 352.487 191.673 352.837 190.507 353.537C189.38 354.198 188.369 355.072 187.474 356.161C186.58 357.211 185.803 358.338 185.142 359.544L180.068 356.044C181.934 353.128 183.995 350.815 186.25 349.104C188.505 347.355 191.168 346.48 194.24 346.48C196.339 346.48 198.283 346.869 200.072 347.646C201.899 348.424 203.629 349.299 205.262 350.271C206.973 351.243 208.625 352.156 210.219 353.012C211.813 353.828 213.446 354.236 215.118 354.236C216.479 354.236 217.723 353.906 218.851 353.245C219.978 352.545 220.989 351.67 221.883 350.621C222.817 349.532 223.594 348.385 224.216 347.18L229.29 350.679C227.424 353.595 225.363 355.928 223.108 357.677C220.853 359.388 218.19 360.243 215.118 360.243ZM235.472 375.523V373.599C235.472 370.799 236.191 368.078 237.63 365.434C239.107 362.79 241.557 359.835 244.978 356.569C246.184 355.403 247.331 354.236 248.419 353.07C249.508 351.865 250.402 350.698 251.102 349.571C251.802 348.404 252.171 347.296 252.21 346.247C252.249 344.225 251.782 342.728 250.81 341.756C249.877 340.784 248.536 340.298 246.786 340.298C245.114 340.298 243.87 340.901 243.054 342.106C242.237 343.311 241.829 345.002 241.829 347.18H235.647C235.647 343.136 236.677 339.987 238.738 337.732C240.799 335.477 243.481 334.349 246.786 334.349C249.041 334.349 251.044 334.816 252.793 335.749C254.582 336.682 255.981 338.043 256.992 339.831C258.003 341.62 258.47 343.817 258.392 346.422C258.353 348.249 257.925 349.94 257.109 351.495C256.292 353.051 255.204 354.567 253.843 356.044C252.521 357.483 251.005 359.019 249.294 360.652C247.506 362.401 245.911 364.073 244.512 365.667C243.151 367.261 242.354 368.642 242.121 369.808H257.692V375.523H235.472ZM274.734 376.107C271.624 376.107 269.194 375.329 267.444 373.774C265.695 372.219 264.451 369.886 263.712 366.775C263.012 363.665 262.662 359.777 262.662 355.111C262.662 350.446 263.012 346.558 263.712 343.447C264.451 340.298 265.695 337.946 267.444 336.39C269.194 334.835 271.624 334.058 274.734 334.058C277.845 334.058 280.256 334.835 281.966 336.39C283.716 337.946 284.941 340.298 285.64 343.447C286.379 346.558 286.749 350.446 286.749 355.111C286.749 359.777 286.379 363.665 285.64 366.775C284.941 369.886 283.716 372.219 281.966 373.774C280.256 375.329 277.845 376.107 274.734 376.107ZM274.734 370.158C276.173 370.158 277.301 369.711 278.117 368.817C278.972 367.883 279.595 366.328 279.983 364.151C280.372 361.974 280.567 358.96 280.567 355.111C280.567 351.223 280.372 348.191 279.983 346.013C279.595 343.836 278.972 342.3 278.117 341.406C277.301 340.473 276.173 340.006 274.734 340.006C273.296 340.006 272.149 340.473 271.294 341.406C270.438 342.3 269.816 343.836 269.427 346.013C269.077 348.191 268.902 351.223 268.902 355.111C268.902 358.96 269.077 361.974 269.427 364.151C269.816 366.328 270.438 367.883 271.294 368.817C272.149 369.711 273.296 370.158 274.734 370.158ZM301.093 355.17C298.332 355.17 296.116 354.217 294.444 352.312C292.772 350.407 291.936 347.802 291.936 344.497C291.936 341.27 292.772 338.723 294.444 336.857C296.116 334.952 298.332 333.999 301.093 333.999C303.814 333.999 306.011 334.952 307.683 336.857C309.355 338.723 310.191 341.27 310.191 344.497C310.191 347.802 309.355 350.407 307.683 352.312C306.011 354.217 303.814 355.17 301.093 355.17ZM322.788 376.165C320.066 376.165 317.85 375.232 316.139 373.366C314.467 371.46 313.631 368.894 313.631 365.667C313.631 362.401 314.467 359.816 316.139 357.911C317.85 356.006 320.066 355.053 322.788 355.053C325.548 355.053 327.764 356.006 329.436 357.911C331.108 359.816 331.944 362.401 331.944 365.667C331.944 368.894 331.108 371.46 329.436 373.366C327.764 375.232 325.548 376.165 322.788 376.165ZM298.585 376.806L295.552 374.649L325.296 333.299L328.27 335.457L298.585 376.806ZM322.788 371.324C325.665 371.324 327.104 369.439 327.104 365.667C327.104 361.857 325.665 359.952 322.788 359.952C321.427 359.952 320.358 360.438 319.58 361.41C318.841 362.343 318.472 363.762 318.472 365.667C318.472 367.534 318.841 368.953 319.58 369.925C320.358 370.858 321.427 371.324 322.788 371.324ZM301.093 350.271C303.931 350.271 305.35 348.346 305.35 344.497C305.35 340.764 303.931 338.898 301.093 338.898C298.215 338.898 296.777 340.764 296.777 344.497C296.777 348.346 298.215 350.271 301.093 350.271Z" fill="#1C59A9"/>
<path d="M851.477 29.9297L480.452 31.9297L368.921 283.438H0.398438" stroke="#696969" stroke-width="1.57826" stroke-dasharray="6.31 6.31"/>
<circle cx="62.2124" cy="339.986" r="48.3999" fill="white"/>
<path d="M53.5954 350.789C53.5492 350.282 53.4685 349.682 53.3532 348.99C53.2379 348.298 53.111 347.756 52.9726 347.364H54.5641C55.0023 347.364 55.3021 347.295 55.4636 347.157C55.6481 347.018 55.7403 346.73 55.7403 346.292V345.115H51.8655V350.201H48.0945V345.115H44.2889V350.72H40.5179V332.868H47.6102C46.9413 332.384 46.2725 331.934 45.6036 331.519C44.9578 331.081 44.3697 330.735 43.8392 330.481L45.5344 328.405H40.3449V325.395H57.055L58.4389 326.987C57.9314 327.448 57.3087 327.979 56.5707 328.578C55.8326 329.178 55.0599 329.789 54.2527 330.412C53.4685 331.035 52.7305 331.623 52.0385 332.176C52.2 332.292 52.3499 332.407 52.4883 332.522C52.6497 332.638 52.8112 332.753 52.9726 332.868H59.5459V347.468C59.5459 348.644 59.2115 349.498 58.5426 350.028C57.8738 350.536 56.859 350.789 55.4982 350.789H53.5954ZM49.2016 355.771C46.7568 355.771 44.7041 355.644 43.0435 355.391C41.3828 355.16 40.0105 354.791 38.9265 354.283C37.8425 353.799 36.9314 353.188 36.1934 352.45C35.7551 352.773 35.2247 353.142 34.6019 353.557C34.0023 353.949 33.3795 354.341 32.7337 354.733C32.111 355.125 31.5574 355.46 31.0731 355.737L29.4817 351.827C29.8738 351.689 30.3581 351.493 30.9347 351.239C31.5344 350.985 32.1225 350.72 32.6991 350.443C33.2757 350.143 33.737 349.878 34.083 349.648V340.895H30.2428V337.297H37.854V349.129C38.2691 350.259 39.3878 351.054 41.2098 351.516C43.055 351.954 45.7189 352.173 49.2016 352.173C52.1538 352.173 54.6909 352.127 56.8128 352.035C58.9347 351.942 60.653 351.804 61.9677 351.62C61.8524 351.873 61.7255 352.265 61.5871 352.796C61.4487 353.303 61.3334 353.822 61.2412 354.353C61.1489 354.906 61.0913 355.356 61.0682 355.702C60.4224 355.702 59.5805 355.702 58.5426 355.702C57.5048 355.725 56.3977 355.737 55.2214 355.737C54.0682 355.76 52.9611 355.771 51.9001 355.771C50.8392 355.771 49.9397 355.771 49.2016 355.771ZM36.228 333.456C35.8359 332.88 35.3169 332.234 34.6711 331.519C34.0253 330.804 33.3449 330.112 32.6299 329.443C31.9149 328.751 31.2576 328.198 30.6579 327.783L33.3911 325.222C33.9677 325.591 34.625 326.11 35.363 326.779C36.1242 327.448 36.8507 328.152 37.5426 328.89C38.2346 329.605 38.7766 330.216 39.1687 330.723C38.938 330.885 38.6266 331.138 38.2346 331.484C37.8425 331.83 37.4619 332.188 37.0929 332.557C36.7238 332.926 36.4355 333.226 36.228 333.456ZM51.8655 342.313H55.7403V340.479H51.8655V342.313ZM51.8655 337.677H55.7403V335.844H51.8655V337.677ZM44.2889 342.313H48.0945V340.479H44.2889V342.313ZM44.2889 337.677H48.0945V335.844H44.2889V337.677ZM49.4784 330.412C49.9397 330.043 50.401 329.674 50.8622 329.305C51.3235 328.936 51.7041 328.636 52.0039 328.405H46.2263C46.6876 328.659 47.195 328.959 47.7486 329.305C48.3252 329.651 48.9018 330.02 49.4784 330.412ZM78.2972 356.359V347.191H72.8656V354.837H68.7486V343.939H78.2972V342.417H71.7931V334.736H88.9875V342.417H82.4834V343.939H92.3088V351.377C92.3088 352.646 91.9859 353.568 91.3401 354.145C90.6943 354.722 89.6333 355.01 88.1572 355.01H85.4587C85.4125 354.433 85.2972 353.765 85.1127 353.003C84.9512 352.219 84.7667 351.596 84.5592 351.135H86.9117C87.373 351.135 87.6959 351.066 87.8804 350.928C88.0649 350.766 88.1572 350.455 88.1572 349.993V347.191H82.4834V356.359H78.2972ZM65.2198 338.127V329.997H71.9661C71.597 329.397 71.1819 328.763 70.7206 328.094C70.2824 327.402 69.9133 326.883 69.6135 326.537L73.1423 324.669C73.4422 324.992 73.7997 325.465 74.2148 326.087C74.653 326.687 75.0567 327.287 75.4257 327.886C75.8178 328.486 76.083 328.936 76.2214 329.236C76.0138 329.328 75.7717 329.443 75.4949 329.582C75.2412 329.697 74.9644 329.835 74.6646 329.997H78.2972V324.634H82.4834V329.997H86.3236C85.6316 329.697 85.055 329.455 84.5938 329.27C85.055 328.601 85.5163 327.84 85.9776 326.987C86.4389 326.11 86.8079 325.326 87.0847 324.634L90.8211 326.226C90.5905 326.71 90.2791 327.31 89.887 328.025C89.4949 328.74 89.1028 329.397 88.7107 329.997H95.63V338.127H91.686V333.318H69.1983V338.127H65.2198ZM75.6333 339.58H85.1473V337.573H75.6333V339.58Z" fill="#1C59A9"/>
<path d="M87.2244 110.15V107.63H104.784V110.15H87.2244ZM111.324 117.89C111.164 117.596 110.951 117.25 110.684 116.85C110.418 116.45 110.158 116.136 109.904 115.91C111.251 115.416 112.411 114.756 113.384 113.93C114.358 113.103 115.104 112.17 115.624 111.13C116.158 110.076 116.424 108.963 116.424 107.79V105.89H118.804V107.79C118.804 108.963 119.064 110.07 119.584 111.11C120.118 112.15 120.871 113.076 121.844 113.89C122.831 114.69 123.998 115.336 125.344 115.83C125.091 116.07 124.824 116.396 124.544 116.81C124.264 117.236 124.051 117.596 123.904 117.89C122.544 117.276 121.304 116.483 120.184 115.51C119.078 114.523 118.224 113.336 117.624 111.95C117.051 113.31 116.211 114.476 115.104 115.45C113.998 116.423 112.738 117.236 111.324 117.89ZM121.924 109.57C121.778 109.463 121.571 109.35 121.304 109.23C121.038 109.096 120.764 108.976 120.484 108.87C120.218 108.75 119.991 108.67 119.804 108.63C119.978 108.39 120.184 108.056 120.424 107.63C120.678 107.203 120.918 106.763 121.144 106.31C121.384 105.843 121.571 105.443 121.704 105.11H115.944C115.584 105.683 115.204 106.23 114.804 106.75C114.404 107.27 113.991 107.743 113.564 108.17C113.298 107.943 112.991 107.71 112.644 107.47C112.311 107.216 111.964 107.01 111.604 106.85C112.084 106.41 112.551 105.89 113.004 105.29C113.458 104.69 113.878 104.056 114.264 103.39C114.651 102.71 114.984 102.043 115.264 101.39C115.558 100.723 115.784 100.103 115.944 99.5297L118.224 100.19C118.078 100.643 117.911 101.096 117.724 101.55C117.551 102.003 117.351 102.456 117.124 102.91H123.724L124.824 103.65C124.638 104.21 124.378 104.856 124.044 105.59C123.724 106.323 123.378 107.043 123.004 107.75C122.631 108.456 122.271 109.063 121.924 109.57ZM107.684 114.73L106.484 112.49C106.884 112.343 107.384 112.123 107.984 111.83C108.598 111.523 109.231 111.183 109.884 110.81C110.551 110.423 111.178 110.03 111.764 109.63C112.351 109.23 112.831 108.863 113.204 108.53L113.984 110.51C113.478 110.976 112.858 111.476 112.124 112.01C111.404 112.543 110.651 113.05 109.864 113.53C109.078 114.01 108.351 114.41 107.684 114.73ZM111.104 105.83C110.824 105.51 110.451 105.143 109.984 104.73C109.518 104.316 109.038 103.93 108.544 103.57C108.051 103.196 107.618 102.91 107.244 102.71L108.744 100.97C109.038 101.13 109.364 101.336 109.724 101.59C110.098 101.843 110.471 102.116 110.844 102.41C111.231 102.69 111.584 102.97 111.904 103.25C112.238 103.516 112.504 103.75 112.704 103.95C112.438 104.163 112.144 104.463 111.824 104.85C111.518 105.223 111.278 105.55 111.104 105.83ZM142.364 117.57C141.831 117.343 141.271 116.996 140.684 116.53C140.111 116.076 139.558 115.463 139.024 114.69C138.491 113.916 138.004 112.943 137.564 111.77C137.138 110.583 136.798 109.163 136.544 107.51L133.064 107.87L132.804 105.55L136.284 105.21C136.231 104.636 136.191 104.043 136.164 103.43C136.138 102.816 136.124 102.176 136.124 101.51V99.7497H138.504V101.49C138.504 102.13 138.518 102.736 138.544 103.31C138.571 103.883 138.604 104.436 138.644 104.97L144.404 104.39L144.664 106.69L138.924 107.27C139.164 108.723 139.484 109.956 139.884 110.97C140.284 111.97 140.738 112.79 141.244 113.43C141.764 114.056 142.311 114.536 142.884 114.87C143.031 114.443 143.158 113.99 143.264 113.51C143.371 113.016 143.444 112.61 143.484 112.29C143.631 112.383 143.838 112.496 144.104 112.63C144.371 112.75 144.644 112.863 144.924 112.97C145.204 113.076 145.438 113.156 145.624 113.21C145.558 113.65 145.458 114.116 145.324 114.61C145.204 115.103 145.064 115.57 144.904 116.01C144.758 116.436 144.611 116.79 144.464 117.07C144.251 117.456 143.964 117.683 143.604 117.75C143.244 117.83 142.831 117.77 142.364 117.57ZM129.944 117.89V107.69C129.598 108.143 129.244 108.576 128.884 108.99C128.538 109.403 128.191 109.763 127.844 110.07C127.644 109.83 127.384 109.576 127.064 109.31C126.758 109.03 126.451 108.803 126.144 108.63C126.544 108.296 126.964 107.856 127.404 107.31C127.858 106.763 128.304 106.156 128.744 105.49C129.198 104.823 129.611 104.15 129.984 103.47C130.371 102.776 130.704 102.123 130.984 101.51C131.264 100.883 131.458 100.35 131.564 99.9097L133.764 100.67C133.591 101.19 133.384 101.73 133.144 102.29C132.904 102.836 132.631 103.396 132.324 103.97V117.89H129.944ZM142.344 104.25C141.971 103.783 141.524 103.303 141.004 102.81C140.498 102.316 140.031 101.93 139.604 101.65L141.104 100.09C141.411 100.276 141.751 100.536 142.124 100.87C142.511 101.19 142.878 101.516 143.224 101.85C143.571 102.183 143.838 102.47 144.024 102.71C143.864 102.816 143.671 102.97 143.444 103.17C143.218 103.356 143.004 103.55 142.804 103.75C142.604 103.95 142.451 104.116 142.344 104.25ZM152.704 117.29V115.31H158.204V113.37H154.724V111.39H158.204V109.57H154.324V100.49H164.304V109.57H160.424V111.39H164.124V113.37H160.424V115.31H165.084V117.29H152.704ZM147.084 115.65L146.464 113.47C146.811 113.403 147.218 113.316 147.684 113.21C148.164 113.103 148.664 112.983 149.184 112.85V108.59H147.064V106.55H149.184V102.91H146.944V100.85H153.724V102.91H151.464V106.55H153.444V108.59H151.464V112.27C151.971 112.136 152.431 112.01 152.844 111.89C153.271 111.77 153.631 111.663 153.924 111.57V113.61C153.551 113.743 153.071 113.903 152.484 114.09C151.898 114.276 151.271 114.47 150.604 114.67C149.951 114.87 149.311 115.056 148.684 115.23C148.058 115.403 147.524 115.543 147.084 115.65ZM156.484 107.73H158.204V105.87H156.484V107.73ZM160.424 107.73H162.144V105.87H160.424V107.73ZM156.484 104.15H158.204V102.35H156.484V104.15ZM160.424 104.15H162.144V102.35H160.424V104.15ZM171.764 117.87V110.45H175.584V104.07H170.584V108.23C170.584 110.216 170.411 111.99 170.064 113.55C169.731 115.11 169.218 116.49 168.524 117.69C168.258 117.543 167.911 117.376 167.484 117.19C167.058 117.016 166.684 116.89 166.364 116.81C166.991 115.65 167.458 114.383 167.764 113.01C168.084 111.636 168.244 110.036 168.244 108.21V101.91H175.084V99.6497H177.644V101.91H184.824V104.07H178.124V106.29H184.124V108.33H178.124V110.45H183.084V117.87H171.764ZM174.104 115.83H180.744V112.47H174.104V115.83ZM197.924 115.31C197.591 114.843 197.191 114.35 196.724 113.83C196.258 113.296 195.758 112.776 195.224 112.27C194.691 111.763 194.151 111.296 193.604 110.87C193.058 110.443 192.544 110.083 192.064 109.79L193.764 108.17C194.151 108.41 194.558 108.683 194.984 108.99C195.411 109.283 195.831 109.596 196.244 109.93C196.644 109.583 197.078 109.19 197.544 108.75C198.024 108.31 198.498 107.856 198.964 107.39C199.431 106.923 199.864 106.476 200.264 106.05C199.504 106.076 198.651 106.11 197.704 106.15C196.771 106.176 195.811 106.21 194.824 106.25C193.851 106.276 192.918 106.31 192.024 106.35C191.144 106.39 190.364 106.43 189.684 106.47C189.018 106.496 188.531 106.523 188.224 106.55L188.044 104.03C188.498 104.056 189.111 104.07 189.884 104.07C190.671 104.07 191.544 104.07 192.504 104.07C193.478 104.056 194.471 104.036 195.484 104.01C196.511 103.983 197.491 103.956 198.424 103.93C199.371 103.903 200.211 103.87 200.944 103.83C201.691 103.79 202.258 103.75 202.644 103.71L204.104 105.05C203.784 105.49 203.384 105.983 202.904 106.53C202.438 107.076 201.924 107.643 201.364 108.23C200.818 108.816 200.251 109.39 199.664 109.95C199.091 110.51 198.544 111.016 198.024 111.47C198.384 111.816 198.724 112.163 199.044 112.51C199.378 112.856 199.671 113.196 199.924 113.53C199.751 113.65 199.538 113.816 199.284 114.03C199.031 114.243 198.778 114.463 198.524 114.69C198.284 114.916 198.084 115.123 197.924 115.31ZM207.824 110.13C207.838 109.943 207.844 109.69 207.844 109.37C207.844 109.05 207.844 108.73 207.844 108.41C207.844 108.09 207.838 107.836 207.824 107.65C208.078 107.663 208.524 107.676 209.164 107.69C209.818 107.703 210.591 107.716 211.484 107.73C212.391 107.743 213.358 107.756 214.384 107.77C215.411 107.77 216.438 107.77 217.464 107.77C218.491 107.77 219.458 107.763 220.364 107.75C221.284 107.736 222.078 107.723 222.744 107.71C223.411 107.696 223.884 107.676 224.164 107.65C224.151 107.823 224.138 108.07 224.124 108.39C224.124 108.71 224.124 109.036 224.124 109.37C224.138 109.69 224.144 109.936 224.144 110.11C223.811 110.096 223.318 110.083 222.664 110.07C222.024 110.056 221.271 110.043 220.404 110.03C219.551 110.016 218.638 110.01 217.664 110.01C216.704 110.01 215.731 110.01 214.744 110.01C213.758 110.01 212.818 110.016 211.924 110.03C211.031 110.043 210.224 110.056 209.504 110.07C208.798 110.083 208.238 110.103 207.824 110.13ZM231.084 116.47L229.724 114.01C230.684 113.796 231.684 113.463 232.724 113.01C233.778 112.543 234.824 112.003 235.864 111.39C236.904 110.763 237.898 110.096 238.844 109.39C239.791 108.67 240.644 107.95 241.404 107.23C242.164 106.496 242.784 105.796 243.264 105.13C243.318 105.37 243.404 105.656 243.524 105.99C243.658 106.323 243.798 106.643 243.944 106.95C244.091 107.256 244.218 107.496 244.324 107.67C243.658 108.51 242.831 109.356 241.844 110.21C240.871 111.063 239.798 111.89 238.624 112.69C237.451 113.476 236.218 114.196 234.924 114.85C233.644 115.503 232.364 116.043 231.084 116.47ZM234.804 105.85C234.644 105.69 234.398 105.496 234.064 105.27C233.744 105.043 233.384 104.81 232.984 104.57C232.598 104.316 232.224 104.09 231.864 103.89C231.518 103.69 231.231 103.543 231.004 103.45L232.364 101.37C232.631 101.503 232.944 101.683 233.304 101.91C233.678 102.136 234.051 102.376 234.424 102.63C234.811 102.87 235.164 103.103 235.484 103.33C235.818 103.556 236.078 103.743 236.264 103.89L234.804 105.85ZM232.044 109.99C231.791 109.776 231.418 109.536 230.924 109.27C230.444 109.003 229.944 108.75 229.424 108.51C228.918 108.256 228.484 108.07 228.124 107.95L229.364 105.79C229.751 105.936 230.198 106.136 230.704 106.39C231.224 106.643 231.724 106.903 232.204 107.17C232.684 107.436 233.064 107.67 233.344 107.87L232.044 109.99ZM243.104 102.99C242.824 102.603 242.458 102.183 242.004 101.73C241.564 101.276 241.171 100.923 240.824 100.67L241.844 99.7097C242.058 99.8564 242.311 100.076 242.604 100.37C242.911 100.65 243.211 100.943 243.504 101.25C243.798 101.543 244.024 101.796 244.184 102.01L243.104 102.99ZM241.404 104.61C241.124 104.21 240.764 103.783 240.324 103.33C239.884 102.876 239.491 102.516 239.144 102.25L240.164 101.29C240.364 101.45 240.611 101.676 240.904 101.97C241.211 102.263 241.511 102.563 241.804 102.87C242.098 103.163 242.324 103.416 242.484 103.63L241.404 104.61ZM250.544 115.87L249.184 113.41C250.131 113.21 251.124 112.883 252.164 112.43C253.218 111.963 254.271 111.423 255.324 110.81C256.378 110.183 257.378 109.516 258.324 108.81C259.271 108.09 260.124 107.363 260.884 106.63C261.658 105.896 262.284 105.196 262.764 104.53C262.818 104.756 262.904 105.036 263.024 105.37C263.158 105.703 263.298 106.03 263.444 106.35C263.591 106.656 263.718 106.896 263.824 107.07C263.171 107.91 262.351 108.763 261.364 109.63C260.391 110.483 259.311 111.31 258.124 112.11C256.938 112.896 255.698 113.616 254.404 114.27C253.111 114.923 251.824 115.456 250.544 115.87ZM252.684 107.05C252.511 106.863 252.264 106.643 251.944 106.39C251.638 106.136 251.291 105.87 250.904 105.59C250.531 105.31 250.164 105.056 249.804 104.83C249.444 104.59 249.131 104.41 248.864 104.29L250.464 102.27C250.731 102.416 251.044 102.603 251.404 102.83C251.764 103.056 252.131 103.303 252.504 103.57C252.891 103.836 253.251 104.103 253.584 104.37C253.918 104.623 254.184 104.85 254.384 105.05L252.684 107.05Z" fill="#979797"/>
<path d="M87.1844 233.59V231.11H104.764V233.59H87.1844ZM89.1044 222.87V220.41H102.844V222.87H89.1044ZM111.324 235.89C111.164 235.596 110.951 235.25 110.684 234.85C110.418 234.45 110.158 234.136 109.904 233.91C111.251 233.416 112.411 232.756 113.384 231.93C114.358 231.103 115.104 230.17 115.624 229.13C116.158 228.076 116.424 226.963 116.424 225.79V223.89H118.804V225.79C118.804 226.963 119.064 228.07 119.584 229.11C120.118 230.15 120.871 231.076 121.844 231.89C122.831 232.69 123.998 233.336 125.344 233.83C125.091 234.07 124.824 234.396 124.544 234.81C124.264 235.236 124.051 235.596 123.904 235.89C122.544 235.276 121.304 234.483 120.184 233.51C119.078 232.523 118.224 231.336 117.624 229.95C117.051 231.31 116.211 232.476 115.104 233.45C113.998 234.423 112.738 235.236 111.324 235.89ZM121.924 227.57C121.778 227.463 121.571 227.35 121.304 227.23C121.038 227.096 120.764 226.976 120.484 226.87C120.218 226.75 119.991 226.67 119.804 226.63C119.978 226.39 120.184 226.056 120.424 225.63C120.678 225.203 120.918 224.763 121.144 224.31C121.384 223.843 121.571 223.443 121.704 223.11H115.944C115.584 223.683 115.204 224.23 114.804 224.75C114.404 225.27 113.991 225.743 113.564 226.17C113.298 225.943 112.991 225.71 112.644 225.47C112.311 225.216 111.964 225.01 111.604 224.85C112.084 224.41 112.551 223.89 113.004 223.29C113.458 222.69 113.878 222.056 114.264 221.39C114.651 220.71 114.984 220.043 115.264 219.39C115.558 218.723 115.784 218.103 115.944 217.53L118.224 218.19C118.078 218.643 117.911 219.096 117.724 219.55C117.551 220.003 117.351 220.456 117.124 220.91H123.724L124.824 221.65C124.638 222.21 124.378 222.856 124.044 223.59C123.724 224.323 123.378 225.043 123.004 225.75C122.631 226.456 122.271 227.063 121.924 227.57ZM107.684 232.73L106.484 230.49C106.884 230.343 107.384 230.123 107.984 229.83C108.598 229.523 109.231 229.183 109.884 228.81C110.551 228.423 111.178 228.03 111.764 227.63C112.351 227.23 112.831 226.863 113.204 226.53L113.984 228.51C113.478 228.976 112.858 229.476 112.124 230.01C111.404 230.543 110.651 231.05 109.864 231.53C109.078 232.01 108.351 232.41 107.684 232.73ZM111.104 223.83C110.824 223.51 110.451 223.143 109.984 222.73C109.518 222.316 109.038 221.93 108.544 221.57C108.051 221.196 107.618 220.91 107.244 220.71L108.744 218.97C109.038 219.13 109.364 219.336 109.724 219.59C110.098 219.843 110.471 220.116 110.844 220.41C111.231 220.69 111.584 220.97 111.904 221.25C112.238 221.516 112.504 221.75 112.704 221.95C112.438 222.163 112.144 222.463 111.824 222.85C111.518 223.223 111.278 223.55 111.104 223.83ZM142.364 235.57C141.831 235.343 141.271 234.996 140.684 234.53C140.111 234.076 139.558 233.463 139.024 232.69C138.491 231.916 138.004 230.943 137.564 229.77C137.138 228.583 136.798 227.163 136.544 225.51L133.064 225.87L132.804 223.55L136.284 223.21C136.231 222.636 136.191 222.043 136.164 221.43C136.138 220.816 136.124 220.176 136.124 219.51V217.75H138.504V219.49C138.504 220.13 138.518 220.736 138.544 221.31C138.571 221.883 138.604 222.436 138.644 222.97L144.404 222.39L144.664 224.69L138.924 225.27C139.164 226.723 139.484 227.956 139.884 228.97C140.284 229.97 140.738 230.79 141.244 231.43C141.764 232.056 142.311 232.536 142.884 232.87C143.031 232.443 143.158 231.99 143.264 231.51C143.371 231.016 143.444 230.61 143.484 230.29C143.631 230.383 143.838 230.496 144.104 230.63C144.371 230.75 144.644 230.863 144.924 230.97C145.204 231.076 145.438 231.156 145.624 231.21C145.558 231.65 145.458 232.116 145.324 232.61C145.204 233.103 145.064 233.57 144.904 234.01C144.758 234.436 144.611 234.79 144.464 235.07C144.251 235.456 143.964 235.683 143.604 235.75C143.244 235.83 142.831 235.77 142.364 235.57ZM129.944 235.89V225.69C129.598 226.143 129.244 226.576 128.884 226.99C128.538 227.403 128.191 227.763 127.844 228.07C127.644 227.83 127.384 227.576 127.064 227.31C126.758 227.03 126.451 226.803 126.144 226.63C126.544 226.296 126.964 225.856 127.404 225.31C127.858 224.763 128.304 224.156 128.744 223.49C129.198 222.823 129.611 222.15 129.984 221.47C130.371 220.776 130.704 220.123 130.984 219.51C131.264 218.883 131.458 218.35 131.564 217.91L133.764 218.67C133.591 219.19 133.384 219.73 133.144 220.29C132.904 220.836 132.631 221.396 132.324 221.97V235.89H129.944ZM142.344 222.25C141.971 221.783 141.524 221.303 141.004 220.81C140.498 220.316 140.031 219.93 139.604 219.65L141.104 218.09C141.411 218.276 141.751 218.536 142.124 218.87C142.511 219.19 142.878 219.516 143.224 219.85C143.571 220.183 143.838 220.47 144.024 220.71C143.864 220.816 143.671 220.97 143.444 221.17C143.218 221.356 143.004 221.55 142.804 221.75C142.604 221.95 142.451 222.116 142.344 222.25ZM152.704 235.29V233.31H158.204V231.37H154.724V229.39H158.204V227.57H154.324V218.49H164.304V227.57H160.424V229.39H164.124V231.37H160.424V233.31H165.084V235.29H152.704ZM147.084 233.65L146.464 231.47C146.811 231.403 147.218 231.316 147.684 231.21C148.164 231.103 148.664 230.983 149.184 230.85V226.59H147.064V224.55H149.184V220.91H146.944V218.85H153.724V220.91H151.464V224.55H153.444V226.59H151.464V230.27C151.971 230.136 152.431 230.01 152.844 229.89C153.271 229.77 153.631 229.663 153.924 229.57V231.61C153.551 231.743 153.071 231.903 152.484 232.09C151.898 232.276 151.271 232.47 150.604 232.67C149.951 232.87 149.311 233.056 148.684 233.23C148.058 233.403 147.524 233.543 147.084 233.65ZM156.484 225.73H158.204V223.87H156.484V225.73ZM160.424 225.73H162.144V223.87H160.424V225.73ZM156.484 222.15H158.204V220.35H156.484V222.15ZM160.424 222.15H162.144V220.35H160.424V222.15ZM171.764 235.87V228.45H175.584V222.07H170.584V226.23C170.584 228.216 170.411 229.99 170.064 231.55C169.731 233.11 169.218 234.49 168.524 235.69C168.258 235.543 167.911 235.376 167.484 235.19C167.058 235.016 166.684 234.89 166.364 234.81C166.991 233.65 167.458 232.383 167.764 231.01C168.084 229.636 168.244 228.036 168.244 226.21V219.91H175.084V217.65H177.644V219.91H184.824V222.07H178.124V224.29H184.124V226.33H178.124V228.45H183.084V235.87H171.764ZM174.104 233.83H180.744V230.47H174.104V233.83ZM197.924 233.31C197.591 232.843 197.191 232.35 196.724 231.83C196.258 231.296 195.758 230.776 195.224 230.27C194.691 229.763 194.151 229.296 193.604 228.87C193.058 228.443 192.544 228.083 192.064 227.79L193.764 226.17C194.151 226.41 194.558 226.683 194.984 226.99C195.411 227.283 195.831 227.596 196.244 227.93C196.644 227.583 197.078 227.19 197.544 226.75C198.024 226.31 198.498 225.856 198.964 225.39C199.431 224.923 199.864 224.476 200.264 224.05C199.504 224.076 198.651 224.11 197.704 224.15C196.771 224.176 195.811 224.21 194.824 224.25C193.851 224.276 192.918 224.31 192.024 224.35C191.144 224.39 190.364 224.43 189.684 224.47C189.018 224.496 188.531 224.523 188.224 224.55L188.044 222.03C188.498 222.056 189.111 222.07 189.884 222.07C190.671 222.07 191.544 222.07 192.504 222.07C193.478 222.056 194.471 222.036 195.484 222.01C196.511 221.983 197.491 221.956 198.424 221.93C199.371 221.903 200.211 221.87 200.944 221.83C201.691 221.79 202.258 221.75 202.644 221.71L204.104 223.05C203.784 223.49 203.384 223.983 202.904 224.53C202.438 225.076 201.924 225.643 201.364 226.23C200.818 226.816 200.251 227.39 199.664 227.95C199.091 228.51 198.544 229.016 198.024 229.47C198.384 229.816 198.724 230.163 199.044 230.51C199.378 230.856 199.671 231.196 199.924 231.53C199.751 231.65 199.538 231.816 199.284 232.03C199.031 232.243 198.778 232.463 198.524 232.69C198.284 232.916 198.084 233.123 197.924 233.31ZM207.824 228.13C207.838 227.943 207.844 227.69 207.844 227.37C207.844 227.05 207.844 226.73 207.844 226.41C207.844 226.09 207.838 225.836 207.824 225.65C208.078 225.663 208.524 225.676 209.164 225.69C209.818 225.703 210.591 225.716 211.484 225.73C212.391 225.743 213.358 225.756 214.384 225.77C215.411 225.77 216.438 225.77 217.464 225.77C218.491 225.77 219.458 225.763 220.364 225.75C221.284 225.736 222.078 225.723 222.744 225.71C223.411 225.696 223.884 225.676 224.164 225.65C224.151 225.823 224.138 226.07 224.124 226.39C224.124 226.71 224.124 227.036 224.124 227.37C224.138 227.69 224.144 227.936 224.144 228.11C223.811 228.096 223.318 228.083 222.664 228.07C222.024 228.056 221.271 228.043 220.404 228.03C219.551 228.016 218.638 228.01 217.664 228.01C216.704 228.01 215.731 228.01 214.744 228.01C213.758 228.01 212.818 228.016 211.924 228.03C211.031 228.043 210.224 228.056 209.504 228.07C208.798 228.083 208.238 228.103 207.824 228.13ZM231.084 234.47L229.724 232.01C230.684 231.796 231.684 231.463 232.724 231.01C233.778 230.543 234.824 230.003 235.864 229.39C236.904 228.763 237.898 228.096 238.844 227.39C239.791 226.67 240.644 225.95 241.404 225.23C242.164 224.496 242.784 223.796 243.264 223.13C243.318 223.37 243.404 223.656 243.524 223.99C243.658 224.323 243.798 224.643 243.944 224.95C244.091 225.256 244.218 225.496 244.324 225.67C243.658 226.51 242.831 227.356 241.844 228.21C240.871 229.063 239.798 229.89 238.624 230.69C237.451 231.476 236.218 232.196 234.924 232.85C233.644 233.503 232.364 234.043 231.084 234.47ZM234.804 223.85C234.644 223.69 234.398 223.496 234.064 223.27C233.744 223.043 233.384 222.81 232.984 222.57C232.598 222.316 232.224 222.09 231.864 221.89C231.518 221.69 231.231 221.543 231.004 221.45L232.364 219.37C232.631 219.503 232.944 219.683 233.304 219.91C233.678 220.136 234.051 220.376 234.424 220.63C234.811 220.87 235.164 221.103 235.484 221.33C235.818 221.556 236.078 221.743 236.264 221.89L234.804 223.85ZM232.044 227.99C231.791 227.776 231.418 227.536 230.924 227.27C230.444 227.003 229.944 226.75 229.424 226.51C228.918 226.256 228.484 226.07 228.124 225.95L229.364 223.79C229.751 223.936 230.198 224.136 230.704 224.39C231.224 224.643 231.724 224.903 232.204 225.17C232.684 225.436 233.064 225.67 233.344 225.87L232.044 227.99ZM243.104 220.99C242.824 220.603 242.458 220.183 242.004 219.73C241.564 219.276 241.171 218.923 240.824 218.67L241.844 217.71C242.058 217.856 242.311 218.076 242.604 218.37C242.911 218.65 243.211 218.943 243.504 219.25C243.798 219.543 244.024 219.796 244.184 220.01L243.104 220.99ZM241.404 222.61C241.124 222.21 240.764 221.783 240.324 221.33C239.884 220.876 239.491 220.516 239.144 220.25L240.164 219.29C240.364 219.45 240.611 219.676 240.904 219.97C241.211 220.263 241.511 220.563 241.804 220.87C242.098 221.163 242.324 221.416 242.484 221.63L241.404 222.61ZM250.544 233.87L249.184 231.41C250.131 231.21 251.124 230.883 252.164 230.43C253.218 229.963 254.271 229.423 255.324 228.81C256.378 228.183 257.378 227.516 258.324 226.81C259.271 226.09 260.124 225.363 260.884 224.63C261.658 223.896 262.284 223.196 262.764 222.53C262.818 222.756 262.904 223.036 263.024 223.37C263.158 223.703 263.298 224.03 263.444 224.35C263.591 224.656 263.718 224.896 263.824 225.07C263.171 225.91 262.351 226.763 261.364 227.63C260.391 228.483 259.311 229.31 258.124 230.11C256.938 230.896 255.698 231.616 254.404 232.27C253.111 232.923 251.824 233.456 250.544 233.87ZM252.684 225.05C252.511 224.863 252.264 224.643 251.944 224.39C251.638 224.136 251.291 223.87 250.904 223.59C250.531 223.31 250.164 223.056 249.804 222.83C249.444 222.59 249.131 222.41 248.864 222.29L250.464 220.27C250.731 220.416 251.044 220.603 251.404 220.83C251.764 221.056 252.131 221.303 252.504 221.57C252.891 221.836 253.251 222.103 253.584 222.37C253.918 222.623 254.184 222.85 254.384 223.05L252.684 225.05Z" fill="#6F6F6F"/>
<path d="M674.776 191.971V183.307C672.865 184.595 670.767 185.821 668.481 186.984C666.238 188.148 664.098 189.104 662.062 189.851C661.771 189.02 661.335 188.086 660.753 187.047C660.171 186.008 659.548 185.156 658.883 184.491C661.418 183.785 663.973 182.809 666.549 181.562C669.167 180.316 671.452 179.09 673.405 177.885H664.056V166.168H694.409V177.823L697.775 179.879C697.234 180.419 696.57 181.063 695.78 181.811C694.991 182.518 694.18 183.224 693.349 183.93C694.388 184.346 695.406 184.741 696.403 185.115C697.442 185.447 698.419 185.738 699.333 185.987C698.793 186.652 698.232 187.525 697.65 188.605C697.068 189.644 696.653 190.537 696.403 191.285C693.993 190.579 691.438 189.54 688.737 188.169C686.078 186.756 683.627 185.281 681.383 183.743V191.971H674.776ZM645.67 199.387L642.803 192.344C643.509 192.054 644.382 191.68 645.421 191.223C646.46 190.766 647.478 190.288 648.475 189.789C649.514 189.29 650.324 188.833 650.905 188.418V173.397H644.05V166.915H657.761V187.795C658.509 189.831 660.545 191.264 663.869 192.095C667.235 192.885 672.055 193.279 678.329 193.279C683.647 193.279 688.218 193.196 692.041 193.03C695.863 192.822 698.959 192.552 701.327 192.22C701.119 192.677 700.891 193.342 700.642 194.214C700.392 195.087 700.185 195.98 700.018 196.894C699.852 197.85 699.748 198.66 699.707 199.325C698.543 199.325 697.027 199.325 695.157 199.325C693.287 199.367 691.293 199.387 689.174 199.387C687.096 199.387 685.102 199.387 683.19 199.387C681.279 199.387 679.659 199.387 678.329 199.387C673.925 199.387 670.206 199.159 667.173 198.702C664.181 198.286 661.688 197.642 659.693 196.77C657.699 195.897 656.037 194.796 654.707 193.466C653.959 194.048 653.045 194.692 651.965 195.398C650.885 196.146 649.784 196.873 648.662 197.58C647.54 198.286 646.543 198.889 645.67 199.387ZM661.75 157.255V144.354H696.964V157.255H661.75ZM658.509 164.111V159.312H699.769V164.111H658.509ZM654.209 157.629C653.544 156.798 652.692 155.863 651.653 154.824C650.615 153.744 649.493 152.684 648.288 151.646C647.124 150.607 645.961 149.714 644.798 148.966L649.721 144.042C650.802 144.748 651.944 145.6 653.149 146.597C654.396 147.594 655.58 148.612 656.702 149.651C657.824 150.69 658.759 151.666 659.506 152.581C659.049 152.954 658.468 153.453 657.761 154.076C657.055 154.658 656.369 155.281 655.705 155.946C655.081 156.569 654.583 157.13 654.209 157.629ZM670.974 173.522H687.491V170.468H670.974V173.522ZM687.989 181.437C688.571 180.897 689.174 180.316 689.797 179.692C690.42 179.027 691.002 178.425 691.542 177.885H681.881C682.712 178.425 683.647 179.007 684.686 179.63C685.725 180.212 686.826 180.814 687.989 181.437ZM668.107 152.83H672.283V148.779H668.107V152.83ZM686.431 152.83H690.607V148.779H686.431V152.83ZM677.332 152.83H681.383V148.779H677.332V152.83ZM709.554 199.699C709.222 198.743 708.682 197.642 707.934 196.396C707.186 195.149 706.376 194.131 705.503 193.342C709.367 192.635 712.587 191.43 715.164 189.727C717.74 187.982 719.693 185.53 721.022 182.372C722.393 179.214 723.141 175.143 723.266 170.156H707.56V162.989H761.409V170.156H745.018V189.104C745.018 189.893 745.184 190.475 745.516 190.849C745.89 191.181 746.555 191.347 747.511 191.347H752.06C753.058 191.347 753.868 191.181 754.491 190.849C755.114 190.475 755.613 189.727 755.987 188.605C756.361 187.483 756.673 185.8 756.922 183.557C757.379 183.889 758.044 184.263 758.916 184.678C759.789 185.094 760.682 185.468 761.596 185.8C762.552 186.133 763.341 186.382 763.965 186.548C763.425 189.706 762.739 192.157 761.908 193.903C761.118 195.648 760.142 196.873 758.979 197.58C757.815 198.286 756.402 198.639 754.74 198.639H744.02C741.777 198.639 740.073 198.203 738.91 197.331C737.746 196.5 737.165 195.024 737.165 192.905V170.156H731.119C730.87 178.716 728.896 185.343 725.198 190.038C721.542 194.734 716.327 197.954 709.554 199.699ZM713.481 152.954V146.099H755.551V152.954H713.481ZM793.009 200.135V189.29H768.141V182.684H793.009V179.505C790.89 179.63 788.916 179.755 787.088 179.879C785.259 179.962 783.867 180.025 782.912 180.066L782.226 174.706C780.73 175.911 779.089 177.178 777.302 178.508C775.516 179.796 774.02 180.793 772.815 181.5L768.888 176.077C769.636 175.662 770.592 175.101 771.755 174.395C772.96 173.647 774.207 172.836 775.495 171.964C776.825 171.091 778.071 170.24 779.235 169.409C780.44 168.578 781.416 167.85 782.164 167.227C782.289 167.726 782.496 168.349 782.787 169.097C783.078 169.845 783.369 170.572 783.66 171.278C783.992 171.943 784.241 172.462 784.408 172.836C784.034 173.21 783.597 173.584 783.099 173.958C783.597 173.958 784.158 173.958 784.782 173.958C785.446 173.917 786.153 173.875 786.901 173.834C787.399 173.377 787.96 172.857 788.583 172.276C789.207 171.652 789.872 170.987 790.578 170.281C789.373 169.242 788.002 168.12 786.464 166.915C784.927 165.711 783.597 164.713 782.476 163.924C781.852 164.464 781.187 165.129 780.481 165.918C779.775 166.708 779.193 167.373 778.736 167.913C778.03 167.082 777.136 166.188 776.056 165.233C775.017 164.235 773.978 163.301 772.94 162.428C771.901 161.514 770.987 160.787 770.197 160.247L774.373 155.821C775.079 156.279 775.911 156.881 776.866 157.629C777.822 158.377 778.798 159.166 779.795 159.997C780.793 160.828 781.665 161.576 782.413 162.241L785.592 158.626C785.924 158.834 786.257 159.062 786.589 159.312C786.963 159.561 787.358 159.831 787.773 160.122C788.438 159.416 789.165 158.564 789.955 157.567C790.744 156.569 791.471 155.593 792.136 154.637H770.073V148.529H792.822V142.982H800.862V148.529H823.673V154.637H817.253L821.492 158.315C820.785 159.062 819.892 159.956 818.812 160.995C817.773 162.033 816.713 163.051 815.633 164.049C814.553 165.046 813.576 165.877 812.704 166.542C812.122 165.877 811.332 165.129 810.335 164.298C809.38 163.425 808.549 162.76 807.842 162.303C808.59 161.763 809.463 161.036 810.46 160.122C811.499 159.166 812.496 158.19 813.451 157.193C814.449 156.195 815.259 155.344 815.882 154.637H796.686L799.179 156.071C798.68 156.694 798.036 157.484 797.247 158.439C796.457 159.395 795.647 160.35 794.816 161.306C793.985 162.22 793.237 163.031 792.572 163.737C793.029 164.069 793.445 164.402 793.819 164.734C794.234 165.066 794.608 165.357 794.941 165.607C796.395 164.028 797.725 162.511 798.93 161.057C800.176 159.603 801.069 158.481 801.61 157.691L806.658 161.182C805.91 162.179 804.913 163.384 803.666 164.796C802.42 166.168 801.069 167.622 799.615 169.159C798.161 170.655 796.748 172.068 795.377 173.397C796.623 173.314 797.828 173.231 798.992 173.148C800.155 173.065 801.236 173.003 802.233 172.961C801.9 172.379 801.568 171.839 801.236 171.341C800.903 170.8 800.592 170.364 800.301 170.032L805.91 167.414C806.492 168.162 807.198 169.242 808.029 170.655C808.902 172.026 809.753 173.439 810.584 174.893C811.416 176.306 812.039 177.532 812.454 178.57C811.997 178.737 811.374 179.007 810.584 179.381C809.795 179.713 809.006 180.066 808.216 180.44C807.468 180.814 806.886 181.147 806.471 181.437C806.305 181.063 806.097 180.606 805.848 180.066C805.64 179.526 805.391 178.965 805.1 178.383C804.518 178.425 803.833 178.487 803.043 178.57C802.295 178.654 801.506 178.737 800.675 178.82V182.684H825.605V189.29H800.675V200.135H793.009ZM820.619 181.063C820.079 180.482 819.31 179.775 818.313 178.944C817.357 178.072 816.318 177.178 815.197 176.264C814.075 175.35 812.953 174.498 811.831 173.709C810.751 172.92 809.816 172.276 809.026 171.777L813.389 167.04C814.594 167.83 815.945 168.806 817.44 169.969C818.936 171.091 820.37 172.213 821.741 173.335C823.112 174.415 824.172 175.329 824.919 176.077C824.338 176.618 823.59 177.407 822.676 178.446C821.762 179.485 821.076 180.357 820.619 181.063Z" fill="#B90000"/>
<path d="M644.722 124.785V120.787H649.765V104.864H654.268V120.787H658.771V99.389H645.839V95.3544H676.278V99.389H663.382V107.458H672.856V111.637H663.382V120.787H677.395V124.785H644.722ZM692.488 126.658C692.272 126.082 691.972 125.47 691.588 124.821C691.203 124.173 690.819 123.656 690.435 123.272C693.005 122.504 694.95 121.459 696.271 120.138C697.591 118.817 698.372 116.98 698.612 114.627H695.802V94.634H711.112V114.627H707.978V121.399C707.978 121.711 708.038 121.927 708.158 122.047C708.302 122.143 708.53 122.191 708.843 122.191H709.635C710.091 122.191 710.416 121.987 710.608 121.579C710.824 121.147 710.992 120.198 711.112 118.733C711.52 118.973 712.097 119.226 712.841 119.49C713.61 119.73 714.258 119.922 714.786 120.066C714.594 121.747 714.342 123.02 714.03 123.885C713.718 124.773 713.261 125.361 712.661 125.65C712.061 125.962 711.22 126.118 710.139 126.118H707.33C706.129 126.118 705.264 125.914 704.736 125.506C704.208 125.097 703.943 124.413 703.943 123.452V114.627H702.467C702.25 117.725 701.35 120.27 699.765 122.264C698.204 124.233 695.778 125.698 692.488 126.658ZM683.086 126.514C682.87 126.274 682.558 125.986 682.15 125.65C681.741 125.337 681.321 125.025 680.889 124.713C680.457 124.401 680.06 124.161 679.7 123.993C681.549 122.528 682.93 120.727 683.843 118.589C684.779 116.428 685.392 113.906 685.68 111.024H680.601V107.206H685.932C685.956 106.894 685.968 106.594 685.968 106.305C685.968 106.017 685.968 105.717 685.968 105.405V103.46H681.177V99.7853H685.968V93.8775H690.003V99.7853H694.289V103.46H690.003V107.206H694.83V111.024H689.75C689.726 111.192 689.702 111.373 689.678 111.565C689.678 111.757 689.666 111.949 689.642 112.141C690.075 112.741 690.639 113.426 691.335 114.194C692.056 114.963 692.836 115.707 693.677 116.428C694.517 117.124 695.322 117.713 696.09 118.193C695.634 118.649 695.154 119.178 694.65 119.778C694.145 120.378 693.749 120.919 693.461 121.399C692.74 120.847 691.96 120.15 691.119 119.31C690.279 118.469 689.498 117.593 688.778 116.68C688.249 118.553 687.517 120.306 686.58 121.939C685.668 123.548 684.503 125.073 683.086 126.514ZM699.765 111.132H707.149V108.719H699.765V111.132ZM699.765 100.506H707.149V98.0922H699.765V100.506ZM699.765 105.801H707.149V103.424H699.765V105.801ZM744.577 125.866C743.617 125.458 742.608 124.833 741.551 123.993C740.519 123.176 739.522 122.071 738.561 120.679C737.601 119.286 736.724 117.533 735.932 115.419C735.163 113.282 734.551 110.724 734.095 107.746L727.827 108.395L727.358 104.216L733.626 103.604C733.53 102.571 733.458 101.502 733.41 100.398C733.362 99.2929 733.338 98.1402 733.338 96.9394V93.7694H737.625V96.9034C737.625 98.0562 737.649 99.1489 737.697 100.182C737.745 101.214 737.805 102.211 737.877 103.171L748.252 102.127L748.72 106.269L738.381 107.314C738.814 109.932 739.39 112.153 740.11 113.978C740.831 115.779 741.647 117.256 742.56 118.409C743.497 119.538 744.481 120.402 745.514 121.003C745.778 120.234 746.006 119.418 746.198 118.553C746.39 117.665 746.522 116.932 746.595 116.356C746.859 116.524 747.231 116.728 747.711 116.968C748.192 117.184 748.684 117.388 749.188 117.581C749.692 117.773 750.113 117.917 750.449 118.013C750.329 118.805 750.149 119.646 749.909 120.534C749.692 121.423 749.44 122.264 749.152 123.056C748.888 123.825 748.624 124.461 748.36 124.965C747.975 125.662 747.459 126.07 746.811 126.19C746.162 126.334 745.418 126.226 744.577 125.866ZM722.207 126.442V108.071C721.583 108.887 720.946 109.668 720.298 110.412C719.673 111.156 719.049 111.805 718.425 112.357C718.064 111.925 717.596 111.469 717.02 110.988C716.467 110.484 715.915 110.076 715.363 109.764C716.083 109.163 716.84 108.371 717.632 107.386C718.449 106.401 719.253 105.309 720.046 104.108C720.862 102.907 721.607 101.694 722.279 100.47C722.976 99.2209 723.576 98.0442 724.08 96.9394C724.585 95.8107 724.933 94.8501 725.125 94.0576L729.087 95.4265C728.775 96.3631 728.403 97.3357 727.971 98.3443C727.538 99.329 727.046 100.338 726.494 101.37V126.442H722.207ZM744.541 101.875C743.869 101.034 743.064 100.169 742.128 99.2809C741.215 98.3924 740.375 97.6959 739.606 97.1916L742.308 94.3818C742.86 94.718 743.473 95.1863 744.145 95.7867C744.841 96.3631 745.502 96.9515 746.126 97.5518C746.751 98.1522 747.231 98.6685 747.567 99.1008C747.279 99.2929 746.931 99.5691 746.522 99.9293C746.114 100.266 745.73 100.614 745.37 100.974C745.01 101.334 744.733 101.634 744.541 101.875ZM763.201 125.361V121.795H773.107V118.301H766.839V114.735H773.107V111.457H766.119V95.1023H784.094V111.457H777.106V114.735H783.77V118.301H777.106V121.795H785.499V125.361H763.201ZM753.079 122.408L751.962 118.481C752.586 118.361 753.319 118.205 754.159 118.013C755.024 117.821 755.924 117.605 756.861 117.364V109.692H753.043V106.017H756.861V99.461H752.826V95.7507H765.038V99.461H760.968V106.017H764.534V109.692H760.968V116.32C761.88 116.08 762.709 115.851 763.453 115.635C764.222 115.419 764.87 115.227 765.398 115.059V118.733C764.726 118.973 763.861 119.262 762.805 119.598C761.748 119.934 760.619 120.282 759.419 120.642C758.242 121.003 757.089 121.339 755.96 121.651C754.832 121.963 753.871 122.215 753.079 122.408ZM770.009 108.143H773.107V104.792H770.009V108.143ZM777.106 108.143H780.204V104.792H777.106V108.143ZM770.009 101.694H773.107V98.4524H770.009V101.694ZM777.106 101.694H780.204V98.4524H777.106V101.694ZM797.531 126.406V113.042H804.411V101.55H795.405V109.043C795.405 112.621 795.093 115.815 794.469 118.625C793.868 121.435 792.944 123.921 791.695 126.082C791.215 125.818 790.59 125.518 789.822 125.181C789.053 124.869 788.381 124.641 787.805 124.497C788.933 122.408 789.774 120.126 790.326 117.653C790.903 115.179 791.191 112.297 791.191 109.007V97.6599H803.511V93.5893H808.122V97.6599H821.054V101.55H808.986V105.549H819.793V109.223H808.986V113.042H817.92V126.406H797.531ZM801.745 122.732H813.705V116.68H801.745V122.732Z" fill="#B90000"/>
<path d="M779.478 246.62C779.214 249.278 778.4 251.493 777.956 252.97C770.516 275.562 766.293 295.644 763.389 314.397H757.601C758.937 286.046 756.48 263.011 756.345 261.387C754.894 250.607 754.715 249.426 754.994 246.62C755.743 239.09 762.029 234.069 768.41 234.069C774.939 234.069 780.213 239.237 779.478 246.62ZM770.666 335.218C770.02 341.715 764.12 347.326 757.146 347.326C750.32 347.326 745.536 341.715 746.182 335.218C746.843 328.573 752.743 322.962 759.569 322.962C766.543 322.962 771.327 328.573 770.666 335.218ZM817.88 246.62C817.616 249.278 816.802 251.493 816.358 252.97C808.918 275.562 804.694 295.644 801.791 314.397H796.003C797.339 286.046 794.882 263.011 794.747 261.387C793.296 250.607 793.117 249.426 793.396 246.62C794.145 239.09 800.431 234.069 806.812 234.069C813.341 234.069 818.615 239.237 817.88 246.62ZM809.068 335.218C808.422 341.715 802.522 347.326 795.548 347.326C788.722 347.326 783.938 341.715 784.584 335.218C785.245 328.573 791.145 322.962 797.971 322.962C804.945 322.962 809.729 328.573 809.068 335.218Z" fill="#B90000"/>
<path d="M550.645 345.417C544.023 345.417 538.03 343.77 532.666 340.475C527.406 337.18 523.387 332.855 520.608 327.501L537.253 317.77C538.818 320.756 540.854 323.176 543.36 325.03C545.866 326.883 548.878 327.81 552.396 327.81C557.881 327.81 562.075 326.214 564.979 323.022C567.987 319.83 569.778 315.351 570.352 309.584C570.997 303.097 570.262 298.515 568.149 295.838C566.139 293.161 563.167 291.822 559.235 291.822C556.545 291.822 554.114 292.337 551.942 293.367C549.873 294.396 548.204 296.095 546.934 298.464H529.86L536.035 236.373H592.223L590.549 253.209H552.832L550.312 278.539C551.977 277.406 553.771 276.531 555.695 275.913C557.619 275.296 559.513 274.987 561.375 274.987C567.17 274.987 572.268 276.274 576.668 278.848C581.079 281.319 584.425 285.129 586.707 290.278C588.999 295.323 589.756 301.759 588.977 309.584C587.841 321.014 583.752 329.869 576.712 336.15C569.785 342.328 561.096 345.417 550.645 345.417ZM628.301 346.035C619.815 346.035 613.403 343.924 609.063 339.703C604.723 335.481 602.031 329.251 600.988 321.014C599.945 312.776 600.027 302.582 601.236 290.432C602.454 278.179 604.405 267.933 607.087 259.696C609.768 251.458 613.699 245.229 618.879 241.007C624.059 236.785 630.891 234.674 639.377 234.674C647.862 234.674 654.223 236.785 658.459 241.007C662.696 245.229 665.336 251.458 666.379 259.696C667.526 267.933 667.49 278.179 666.271 290.432C665.062 302.582 663.065 312.776 660.28 321.014C657.598 329.251 653.719 335.481 648.643 339.703C643.566 343.924 636.786 346.035 628.301 346.035ZM630.052 328.428C633.57 328.428 636.42 327.346 638.601 325.184C640.896 322.919 642.728 319.057 644.099 313.6C645.583 308.04 646.817 300.317 647.8 290.432C648.783 280.547 649.086 272.824 648.708 267.264C648.433 261.704 647.368 257.842 645.514 255.68C643.773 253.415 641.144 252.282 637.625 252.282C634.107 252.282 631.201 253.415 628.906 255.68C626.621 257.842 624.737 261.704 623.252 267.264C621.871 272.824 620.689 280.547 619.706 290.432C618.723 300.317 618.369 308.04 618.644 313.6C619.032 319.057 620.149 322.919 621.993 325.184C623.847 327.346 626.534 328.428 630.052 328.428ZM687.559 315.04C683.429 315.04 680.244 313.614 678.005 310.76C675.765 307.906 674.886 304.054 675.369 299.202C675.845 294.408 677.485 290.613 680.287 287.816C683.094 284.962 686.563 283.535 690.692 283.535C694.764 283.535 697.921 284.962 700.16 287.816C702.463 290.613 703.376 294.408 702.899 299.202C702.417 304.054 700.743 307.906 697.878 310.76C695.071 313.614 691.631 315.04 687.559 315.04ZM716.713 345.432C712.64 345.432 709.453 344.034 707.15 341.237C704.904 338.441 704.023 334.617 704.505 329.766C704.988 324.914 706.63 321.09 709.432 318.294C712.297 315.44 715.765 314.013 719.838 314.013C723.967 314.013 727.152 315.44 729.392 318.294C731.637 321.09 732.519 324.914 732.036 329.766C731.554 334.617 729.912 338.441 727.11 341.237C724.308 344.034 720.842 345.432 716.713 345.432ZM681.078 346.46L676.601 343.035L726.507 282.422L730.898 285.847L681.078 346.46ZM717.487 337.642C721.445 337.642 723.685 335.016 724.207 329.766C724.729 324.515 723.012 321.889 719.054 321.889C715.097 321.889 712.857 324.515 712.334 329.766C711.812 335.016 713.53 337.642 717.487 337.642ZM688.342 307.164C692.242 307.164 694.456 304.51 694.984 299.202C695.501 294.009 693.809 291.412 689.909 291.412C685.951 291.412 683.714 294.009 683.198 299.202C682.67 304.51 684.385 307.164 688.342 307.164Z" fill="#B90000"/>
<circle cx="566.574" cy="141.027" r="57.5975" fill="white"/>
<path d="M530.209 160.872V156.591H556.953V152.107H531.677V147.908H556.953V143.749H530.291V139.55H543.866V124.833H549.003V139.55H562.09V160.872H530.209ZM555.485 138.653C555.159 138.409 554.738 138.137 554.221 137.838C553.705 137.539 553.175 137.254 552.631 136.982C552.088 136.71 551.612 136.52 551.205 136.411C551.911 135.569 552.645 134.522 553.406 133.272C554.194 132.022 554.914 130.744 555.567 129.44C556.219 128.108 556.695 126.939 556.994 125.934L561.723 127.728C561.233 128.923 560.636 130.214 559.929 131.6C559.222 132.959 558.475 134.264 557.687 135.514C556.926 136.737 556.192 137.784 555.485 138.653ZM536.61 138.857C536.256 137.879 535.767 136.764 535.142 135.514C534.517 134.264 533.824 133.041 533.063 131.845C532.329 130.622 531.595 129.603 530.862 128.787L535.101 126.505C535.862 127.401 536.623 128.421 537.384 129.562C538.173 130.704 538.893 131.872 539.545 133.068C540.225 134.264 540.795 135.392 541.257 136.452C540.877 136.588 540.388 136.805 539.79 137.104C539.219 137.403 538.635 137.716 538.037 138.042C537.466 138.341 536.99 138.612 536.61 138.857ZM583.533 160.26V155.572H592.706V141.385H585.816V136.696H592.706V124.67H597.639V136.696H604.733V141.385H597.639V155.572H605.833V160.26H583.533ZM575.421 161.565V147.989C574.66 148.669 573.871 149.348 573.056 150.027C572.241 150.68 571.398 151.305 570.528 151.903C570.175 151.359 569.659 150.72 568.979 149.987C568.3 149.253 567.715 148.682 567.226 148.274C568.313 147.649 569.455 146.875 570.651 145.951C571.874 144.999 573.07 143.967 574.238 142.852C575.407 141.711 576.467 140.569 577.418 139.428C578.369 138.259 579.13 137.172 579.701 136.166H569.387V131.764H575.38V124.629H580.109V131.764H583.859L586.061 133.598C584.919 136.153 583.438 138.653 581.617 141.099C582.324 141.589 583.085 142.105 583.9 142.648C584.743 143.165 585.545 143.654 586.306 144.116C587.067 144.551 587.692 144.904 588.181 145.176C587.909 145.448 587.583 145.828 587.202 146.318C586.849 146.78 586.496 147.269 586.142 147.785C585.816 148.274 585.558 148.696 585.368 149.049C584.634 148.56 583.805 148.003 582.881 147.378C581.957 146.725 581.047 146.087 580.15 145.461V161.565H575.421Z" fill="#B90000"/>
<path d="M368.921 167.43H0.398438" stroke="#696969" stroke-opacity="0.4" stroke-width="1.57826" stroke-dasharray="6.31 6.31"/>
<path d="M368.921 49.5703H0.398438" stroke="#696969" stroke-opacity="0.3" stroke-width="1.57826" stroke-dasharray="6.31 6.31"/>
<path d="M491.663 170.978L426.512 224.336L445.765 231.604C445.34 233.099 444.879 234.715 444.388 236.439C443.887 238.214 443.355 240.098 442.794 242.086C442.125 244.01 441.427 246.038 440.694 248.147C440.324 249.21 439.947 250.295 439.563 251.407C439.184 252.519 438.802 253.665 438.32 254.742C437.4 256.955 436.447 259.243 435.472 261.603C434.543 264.028 433.367 266.306 432.206 268.691C431.625 269.889 431.032 271.097 430.438 272.317C429.838 273.541 429.258 274.806 428.563 275.951C427.213 278.322 425.842 280.737 424.453 283.178C423.783 284.442 423.005 285.58 422.231 286.742C421.462 287.915 420.687 289.087 419.906 290.27C419.124 291.459 418.337 292.653 417.549 293.847C416.72 294.988 415.856 296.081 415.001 297.208L412.424 300.59C411.552 301.705 410.724 302.918 409.778 303.91C407.928 306.009 406.072 308.108 404.229 310.196C403.319 311.297 402.319 312.19 401.347 313.152C400.371 314.103 399.394 315.053 398.418 315.998C397.442 316.955 396.465 317.905 395.501 318.846C394.482 319.692 393.474 320.535 392.467 321.366C390.444 323.01 388.468 324.77 386.444 326.28C382.322 329.071 378.381 332.144 374.38 334.218C372.401 335.34 370.476 336.488 368.589 337.511C366.662 338.391 364.798 339.242 363.009 340.065C362.106 340.479 361.226 340.878 360.364 341.272C359.93 341.469 359.502 341.667 359.085 341.859C358.66 342.007 358.241 342.155 357.828 342.297C356.157 342.878 354.573 343.431 353.081 343.952C351.577 344.472 350.165 344.965 348.862 345.416C347.513 345.741 346.272 346.034 345.156 346.304C340.682 347.369 338.121 347.984 338.121 347.984L338.259 349.962C338.259 349.962 340.865 350.106 345.432 350.344C346.574 350.401 347.838 350.473 349.213 350.547C350.61 350.483 352.12 350.411 353.73 350.335C355.358 350.255 357.092 350.165 358.921 350.078C359.382 350.05 359.847 350.029 360.319 350.003C360.777 349.936 361.246 349.865 361.716 349.793C362.666 349.651 363.633 349.505 364.622 349.361C366.612 349.061 368.688 348.746 370.837 348.419C372.963 347.951 375.154 347.353 377.421 346.795C382.009 345.844 386.638 343.896 391.574 342.188C394.006 341.217 396.406 339.987 398.895 338.858C400.135 338.273 401.386 337.684 402.638 337.089C403.853 336.386 405.08 335.677 406.307 334.969C407.54 334.25 408.779 333.531 410.024 332.807C411.264 332.072 412.544 331.396 413.729 330.505C416.153 328.807 418.589 327.092 421.025 325.389C422.277 324.576 423.406 323.531 424.583 322.578C425.757 321.603 426.931 320.634 428.099 319.658C429.268 318.677 430.458 317.72 431.601 316.709C432.715 315.629 433.83 314.554 434.938 313.479C436.047 312.399 437.156 311.324 438.253 310.253C439.356 309.183 440.469 308.125 441.475 306.931C443.544 304.597 445.594 302.289 447.602 300.017C448.635 298.908 449.55 297.662 450.484 296.457C451.412 295.246 452.34 294.045 453.251 292.855C455.077 290.469 456.91 288.162 458.476 285.661C460.101 283.21 461.682 280.823 463.212 278.515C464.001 277.377 464.684 276.165 465.359 274.979C466.04 273.794 466.708 272.63 467.363 271.488C468.669 269.198 469.944 267.011 471.114 264.884C472.2 262.678 473.233 260.591 474.202 258.622C475.171 256.642 476.075 254.786 476.918 253.07C477.745 251.342 478.379 249.662 479.02 248.183C479.551 246.908 480.028 245.753 480.463 244.717L505.285 254.088L491.663 170.978Z" fill="#B90000"/>
<defs>
<linearGradient id="paint0_linear_2866_309" x1="667.5" y1="0" x2="667.5" y2="310" gradientUnits="userSpaceOnUse">
<stop stop-color="#E2E8F0" stop-opacity="0"/>
<stop offset="1" stop-color="#BFBFBF"/>
</linearGradient>
<linearGradient id="paint1_linear_2866_309" x1="184.5" y1="0" x2="184.5" y2="310" gradientUnits="userSpaceOnUse">
<stop stop-color="#E2E8F0" stop-opacity="0"/>
<stop offset="0.870201" stop-color="#E9EAEB"/>
</linearGradient>
</defs>
</svg>
