<svg width="828" height="722" viewBox="0 0 828 722" fill="none" xmlns="http://www.w3.org/2000/svg">
<rect x="9.29785" y="592.307" width="793.264" height="128.933" fill="white"/>
<rect x="26.7803" y="60.043" width="266.593" height="74.4538" fill="#FFF12F"/>
<rect x="26.7803" y="218.557" width="266.593" height="74.4538" fill="#FFF12F"/>
<rect x="27" y="424" width="720" height="140" fill="#FFF12F"/>
<path d="M613.087 535.884C612.834 534.989 612.415 533.956 611.832 532.785C611.304 531.67 610.691 530.557 609.994 529.445C609.353 528.332 608.705 527.445 608.049 526.783C614.806 525.064 620.478 522.918 625.065 520.343C629.71 517.712 633.476 514.366 636.364 510.307C639.253 506.192 641.384 501.079 642.759 494.968C644.191 488.8 645.045 481.321 645.321 472.53L645.639 462.387L656.461 462.16L656.143 472.303C655.883 480.586 655.064 487.868 653.684 494.147C652.361 500.426 650.442 505.929 647.928 510.655C649.748 511.912 651.673 513.392 653.703 515.095C655.734 516.798 657.653 518.475 659.46 520.127C661.269 521.722 662.689 523.128 663.722 524.345C663.027 524.923 662.129 525.73 661.026 526.767C659.98 527.803 658.961 528.866 657.969 529.957C657.034 531.046 656.299 532.019 655.765 532.875C654.848 531.599 653.626 530.161 652.099 528.56C650.573 526.902 648.935 525.247 647.185 523.595C645.492 521.885 643.85 520.371 642.257 519.053C638.752 523.068 634.563 526.422 629.691 529.115C624.875 531.807 619.34 534.063 613.087 535.884ZM587.887 528.474L584.224 518.668C585.36 518.363 586.838 517.938 588.657 517.393C590.479 516.791 592.5 516.101 594.721 515.322L596.342 463.593L607.08 463.367L605.578 511.293C609.682 509.742 613.561 508.197 617.214 506.656C620.925 505.057 623.756 503.702 625.706 502.591L625.378 513.072C623.257 514.243 620.596 515.566 617.395 517.042C614.197 518.46 610.8 519.911 607.204 521.395C603.667 522.821 600.189 524.161 596.77 525.415C593.408 526.669 590.447 527.688 587.887 528.474ZM629.871 491.016C628.629 489.296 626.998 487.416 624.978 485.375C623.014 483.333 620.935 481.377 618.741 479.509C616.546 477.64 614.509 476.135 612.63 474.992L619.878 467.49C621.81 468.745 623.901 470.306 626.152 472.173C628.46 474.039 630.652 475.964 632.731 477.948C634.867 479.874 636.586 481.639 637.888 483.245C637.083 483.769 636.129 484.549 635.026 485.586C633.981 486.565 632.992 487.572 632.059 488.605C631.127 489.582 630.398 490.386 629.871 491.016ZM666.881 531.374L667.193 521.4L697.462 520.763L699.348 460.582L710.339 460.351L709.555 485.37L739.231 484.746L738.908 495.058L709.231 495.682L708.453 520.532L743.455 519.796L743.143 529.77L666.881 531.374Z" fill="#1B2024"/>
<path d="M788.998 533.212C788.801 532.316 788.411 531.254 787.83 530.027C787.249 528.801 786.553 527.633 785.743 526.523C784.991 525.357 784.232 524.415 783.466 523.699C791.225 522.354 797.166 519.723 801.288 515.807C805.468 511.833 807.753 507.224 808.142 501.979C808.499 497.804 807.854 494.101 806.209 490.869C804.564 487.638 802.252 485.04 799.272 483.075C796.348 481.109 793.089 479.967 789.494 479.649C788.878 484.899 787.865 490.27 786.454 495.762C785.043 501.254 783.191 506.417 780.899 511.252C778.663 516.086 775.972 520.197 772.824 523.585C770.435 526.113 768.135 527.598 765.925 528.038C763.77 528.478 761.497 528.216 759.105 527.253C756.77 526.288 754.735 524.726 753 522.566C751.265 520.407 749.965 517.844 749.101 514.877C748.238 511.854 747.945 508.623 748.222 505.182C748.664 500.048 750.023 495.345 752.297 491.074C754.573 486.747 757.563 482.995 761.268 479.82C764.972 476.645 769.189 474.219 773.916 472.543C778.644 470.867 783.653 470.114 788.942 470.284C793.219 470.419 797.219 471.293 800.942 472.904C804.666 474.515 807.89 476.784 810.615 479.711C813.397 482.581 815.489 485.944 816.889 489.8C818.345 493.655 818.86 497.896 818.433 502.522C817.797 510.251 814.888 516.788 809.708 522.134C804.529 527.423 797.625 531.116 788.998 533.212ZM762.055 516.716C762.661 517.154 763.302 517.366 763.978 517.352C764.655 517.338 765.342 516.985 766.039 516.295C768.132 514.223 770.082 511.311 771.89 507.556C773.753 503.8 775.322 499.572 776.596 494.871C777.926 490.169 778.837 485.391 779.327 480.538C775.409 481.522 771.892 483.229 768.774 485.659C765.712 488.089 763.255 491.013 761.401 494.43C759.55 497.792 758.449 501.475 758.098 505.481C757.902 508.132 758.168 510.435 758.895 512.391C759.681 514.289 760.734 515.731 762.055 516.716Z" fill="#1B2024"/>
<path d="M87.1632 537.412C75.885 537.649 65.4993 535.095 56.0061 529.751C46.513 524.406 39.1374 517.139 33.8795 507.949L58.5266 492.139C61.9331 497.611 65.9999 501.997 70.7268 505.296C75.6328 508.591 81.3976 510.169 88.0213 510.029C98.0464 509.819 105.658 506.707 110.855 500.696C116.238 494.502 119.097 486.035 119.434 475.297C119.798 463.664 117.824 455.3 113.511 450.204C109.383 444.925 103.38 442.368 95.5036 442.534C90.4911 442.639 85.982 443.807 81.9762 446.038C77.9705 448.268 75.0052 451.55 73.0804 455.883L46.4961 456.442L49.8697 348.791L145.466 346.78L144.642 373.089L77.7778 374.495L76.2298 423.891C79.3405 421.68 82.7056 419.91 86.3252 418.582C89.9505 417.075 93.5533 416.284 97.1337 416.208C107.159 415.997 116.04 418.046 123.776 422.355C131.692 426.66 137.84 433.148 142.219 441.82C146.778 450.487 148.85 461.443 148.435 474.687C147.823 494.195 141.889 509.433 130.633 520.401C119.376 531.369 104.886 537.039 87.1632 537.412ZM210.579 535.889C196.258 536.19 185.181 532.846 177.35 525.857C169.518 518.868 164.126 508.25 161.174 494.004C158.4 479.754 157.35 461.891 158.023 440.414C158.696 418.938 160.868 401.007 164.539 386.621C168.395 372.053 174.462 361.105 182.743 353.776C191.023 346.448 202.324 342.633 216.645 342.332C230.967 342.031 241.954 345.377 249.606 352.37C257.438 359.359 262.738 370.068 265.506 384.497C268.458 398.743 269.598 416.605 268.925 438.081C268.252 459.558 265.99 477.491 262.14 491.88C258.469 506.265 252.494 517.122 244.214 524.451C236.112 531.775 224.901 535.588 210.579 535.889ZM211.438 508.507C218.061 508.367 223.317 506.2 227.206 502.005C231.279 497.626 234.367 490.407 236.472 480.347C238.576 470.287 239.906 456.398 240.461 438.68C241.022 420.783 240.564 406.842 239.088 396.857C237.612 386.873 234.969 379.863 231.16 375.83C227.535 371.614 222.411 369.575 215.787 369.715C209.163 369.854 203.815 372.113 199.742 376.491C195.675 380.69 192.589 387.82 190.484 397.88C188.559 407.936 187.316 421.913 186.755 439.81C186.2 457.528 186.571 471.381 187.868 481.37C189.344 491.354 191.984 498.453 195.788 502.665C199.597 506.699 204.814 508.646 211.438 508.507ZM287.052 541.347C285.749 538.71 283.868 535.82 281.409 532.675C279.053 529.635 276.677 527.235 274.281 525.474C285.965 519.901 295.602 513.359 303.191 505.848C310.78 498.336 316.503 489.16 320.359 478.318C324.326 467.367 326.552 454.162 327.036 438.703L327.467 424.95L279.318 425.962L279.869 408.371L421.918 405.383L421.366 422.974L347.623 424.526L347.192 438.279C347.148 439.665 347.105 441.051 347.061 442.437C347.018 443.823 346.923 445.157 346.776 446.438L405.003 445.213C404.746 450.013 404.306 455.563 403.682 461.862C403.165 468.159 402.481 474.673 401.631 481.403C400.784 488.026 399.839 494.386 398.795 500.481C397.862 506.467 396.85 511.549 395.76 515.727C393.583 523.977 390.045 529.751 385.146 533.05C380.353 536.348 373.531 538.089 364.68 538.275L348.203 538.622C348.157 536.705 347.96 534.472 347.614 531.922C347.374 529.37 347.026 526.874 346.57 524.433C346.224 521.883 345.755 519.815 345.166 518.229L361.482 517.886C366.174 517.788 369.557 516.971 371.63 515.435C373.706 513.794 375.343 510.882 376.54 506.702C377.256 504.236 377.938 501.186 378.585 497.55C379.338 493.911 379.992 490.062 380.545 486.002C381.206 481.939 381.701 478.04 382.031 474.304C382.471 470.459 382.733 467.204 382.817 464.538L344.265 465.349C340.841 482.788 334.405 497.733 324.956 510.184C315.51 522.529 302.876 532.916 287.052 541.347ZM485.843 533.489L486.419 515.098L522.412 514.341L524.156 458.689L497.122 459.257L497.698 440.866L524.732 440.298L526.21 393.121L545.566 392.714L544.088 439.891L571.922 439.305L571.345 457.696L543.511 458.282L541.767 513.934L573.92 513.258L573.344 531.649L485.843 533.489ZM453.85 539.277L455.519 486.023C452.449 488.751 449.273 491.481 445.99 494.214C442.711 496.84 439.328 499.362 435.842 501.779C434.522 499.676 432.575 497.213 429.999 494.39C427.423 491.568 425.2 489.377 423.331 487.818C427.673 485.277 432.248 482.144 437.053 478.42C441.969 474.588 446.789 470.438 451.511 465.97C456.237 461.396 460.537 456.831 464.409 452.274C468.286 447.611 471.405 443.284 473.768 439.292L433.297 440.143L433.839 422.872L457.353 422.377L458.231 394.391L476.786 394.001L475.909 421.987L490.626 421.677L499.039 428.692C494.246 438.808 488.126 448.739 480.68 458.485C483.393 460.345 486.315 462.308 489.448 464.373C492.69 466.329 495.776 468.182 498.705 469.932C501.638 471.575 504.047 472.909 505.933 473.935C504.834 475.024 503.507 476.543 501.954 478.493C500.511 480.335 499.064 482.283 497.614 484.338C496.275 486.284 495.21 487.958 494.42 489.36C491.601 487.501 488.416 485.384 484.867 483.008C481.322 480.526 477.828 478.095 474.385 475.717L472.406 538.886L453.85 539.277Z" fill="#1B2024"/>
<path d="M34.7585 701.429C34.3482 700.536 33.7203 699.486 32.8749 698.277C32.0936 697.068 31.2161 695.86 30.2424 694.652C29.2688 693.445 28.3496 692.461 27.485 691.701C34.207 688.884 39.7982 685.533 44.2588 681.648C48.7193 677.764 52.1256 673.057 54.4776 667.528C56.8324 661.935 58.1746 655.294 58.5043 647.607L58.6938 643.187C58.7542 641.778 58.8005 639.953 58.8325 637.711C58.9286 635.469 58.9955 633.163 59.033 630.794C59.1346 628.423 59.1946 626.278 59.2129 624.357C59.2953 622.435 59.3223 621.058 59.2939 620.226L71.7002 620.108L70.5259 647.493C70.1413 656.461 68.62 664.288 65.9621 670.973C63.3069 677.593 59.4051 683.393 54.2567 688.373C49.1111 693.288 42.6117 697.64 34.7585 701.429ZM28.2018 668.258C28.2907 667.681 28.3511 666.271 28.3831 664.03C28.482 661.724 28.5694 658.938 28.6454 655.671C28.7855 652.404 28.9004 648.977 28.9901 645.391C29.0798 641.804 29.1306 638.378 29.1425 635.112C29.2185 631.845 29.2725 629.091 29.3045 626.85C29.3393 624.544 29.337 623.104 29.2976 622.528L41.223 622.414C41.1928 623.119 41.1296 624.592 41.0335 626.835C40.9373 629.077 40.8206 631.799 40.6832 635.002C40.6128 638.14 40.5354 641.439 40.4512 644.897C40.367 648.356 40.2869 651.719 40.2109 654.985C40.2018 658.187 40.1785 660.972 40.1409 663.342C40.1703 665.647 40.1992 667.215 40.2276 668.048L28.2018 668.258ZM100.888 694.941C100.115 693.54 99.066 691.853 97.7406 689.88C96.4794 687.907 95.1682 686.351 93.8071 685.211C98.7064 683.052 103.628 680.38 108.571 677.195C113.514 674.01 118.249 670.444 122.777 666.494C127.371 662.481 131.557 658.279 135.334 653.889C139.178 649.434 142.448 644.92 145.144 640.348C141.994 640.57 138.522 640.828 134.728 641.12C130.998 641.411 127.269 641.703 123.539 641.995C119.876 642.221 116.533 642.477 113.508 642.762C110.551 642.982 108.268 643.164 106.659 643.308L105.836 631.117C107.439 631.102 109.845 631.047 113.053 630.952C116.262 630.858 119.856 630.728 123.837 630.562C127.82 630.332 131.772 630.102 135.691 629.873C139.674 629.643 143.242 629.385 146.395 629.099C149.615 628.748 151.999 628.437 153.549 628.166L161.125 633.089C159.394 637.588 157.217 642.027 154.593 646.406C151.973 650.721 149.039 654.879 145.791 658.88C147.961 660.588 150.249 662.519 152.656 664.674C155.128 666.827 157.532 669.046 159.869 671.329C162.207 673.612 164.356 675.8 166.317 677.895C168.278 679.989 169.896 681.863 171.171 683.516C169.524 684.556 167.768 685.917 165.901 687.6C164.037 689.218 162.4 690.771 160.991 692.257C159.847 690.539 158.36 688.6 156.53 686.44C154.702 684.216 152.715 681.994 150.567 679.773C148.486 677.488 146.369 675.299 144.215 673.206C142.065 671.05 140.031 669.148 138.115 667.501C132.549 673.253 126.558 678.465 120.141 683.136C113.724 687.808 107.306 691.743 100.888 694.941ZM197.838 698.342L201.159 620.894L212.892 620.783L211.643 649.898L216.235 643.707C217.727 644.781 219.687 646.139 222.116 647.781C224.612 649.358 227.266 650.998 230.077 652.7C232.891 654.338 235.614 655.849 238.246 657.233C240.879 658.616 243.109 659.652 244.938 660.339C244.139 661.051 243.197 662.084 242.114 663.439C241.097 664.729 240.142 666.083 239.248 667.5C238.357 668.854 237.634 670.013 237.08 670.979C235.577 670.161 233.699 669.122 231.445 667.863C229.259 666.539 226.918 665.088 224.422 663.511C221.99 661.934 219.621 660.387 217.315 658.872C215.075 657.293 213.117 655.871 211.441 654.606L209.571 698.23L197.838 698.342ZM267.566 695.374C267.229 692.752 267.014 689.552 266.92 685.775C266.828 681.934 266.814 677.772 266.878 673.289C267.009 668.741 267.21 664.065 267.48 659.26C267.814 654.454 268.207 649.776 268.659 645.225C269.177 640.61 269.744 636.347 270.361 632.435C271.041 628.522 271.761 625.186 272.52 622.425L283.674 624.624C282.869 626.937 282.131 629.954 281.459 633.674C280.79 637.33 280.2 641.37 279.69 645.793C279.182 650.152 278.766 654.638 278.44 659.252C278.178 663.865 278.017 668.349 277.959 672.703C277.9 677.058 277.956 680.996 278.125 684.516C278.295 688.036 278.589 690.883 279.009 693.056L267.566 695.374ZM308.662 689.797C297.583 689.582 291.455 686.022 290.277 679.118C289.967 677.392 289.921 675.471 290.14 673.356C290.359 671.241 290.94 668.898 291.883 666.328L301.874 668.73C301.373 669.951 301.07 671.043 300.965 672.004C300.924 672.965 301.015 673.829 301.238 674.595C301.973 676.893 305.317 678.11 311.272 678.246C314.154 678.282 317.236 678.157 320.517 677.87C323.865 677.518 327.122 677.039 330.288 676.432C333.518 675.825 336.335 675.158 338.737 674.431C338.571 675.329 338.358 676.548 338.1 678.087C337.906 679.625 337.742 681.196 337.61 682.798C337.48 684.336 337.425 685.617 337.445 686.641C334.398 687.439 331.134 688.078 327.653 688.559C324.236 689.04 320.856 689.392 317.514 689.616C314.238 689.776 311.288 689.836 308.662 689.797ZM296.246 643.042L296.08 631.23C298.503 631.527 301.476 631.691 304.999 631.721C308.523 631.752 312.179 631.685 315.967 631.521C319.822 631.292 323.489 630.969 326.968 630.552C330.514 630.07 333.454 629.498 335.79 628.835L334.81 640.467C332.227 640.939 329.227 641.384 325.813 641.801C322.401 642.153 318.864 642.443 315.201 642.67C311.602 642.896 308.134 643.057 304.798 643.153C301.528 643.184 298.677 643.147 296.246 643.042ZM429.738 686.533C424.95 684.593 420.643 681.913 416.816 678.491C412.989 675.07 409.953 671.161 407.706 666.764C405.096 670.823 401.702 674.505 397.522 677.81C393.343 681.116 388.508 684.011 383.018 686.496C382.608 685.604 382.012 684.553 381.231 683.344C380.45 682.135 379.601 680.99 378.686 679.91C377.838 678.766 377.072 677.94 376.389 677.435C387.203 673.362 394.672 667.304 398.799 659.26L378.602 659.452L379.035 649.363L401.732 649.147C401.74 648.955 401.748 648.763 401.756 648.571C401.829 648.378 401.869 648.185 401.877 647.993L402.195 640.594L382.287 640.784L382.707 630.983L394.536 630.87C393.551 628.446 392.373 626.024 391.003 623.604C389.635 621.12 388.282 619.051 386.943 617.399L396.473 612.602C398.052 614.636 399.616 617.023 401.165 619.761C402.717 622.436 403.962 624.793 404.9 626.834C403.721 627.421 402.411 628.074 400.97 628.792C399.532 629.446 398.157 630.131 396.844 630.848L410.309 630.72C411.345 628.981 412.458 626.922 413.65 624.541C414.844 622.097 415.938 619.749 416.932 617.498C417.929 615.184 418.648 613.352 419.09 612.003L429.734 614.879C428.874 617.001 427.676 619.541 426.139 622.502C424.666 625.461 423.236 628.164 421.849 630.611L434.833 630.487L434.413 640.288L414.024 640.482L413.657 649.034L438.085 648.802L437.652 658.891L415.533 659.101C417.224 662.991 419.894 666.488 423.543 669.591C427.194 672.63 431.701 675.116 437.066 677.05C436.333 677.697 435.461 678.602 434.45 679.764C433.503 680.926 432.587 682.119 431.701 683.344C430.879 684.569 430.225 685.631 429.738 686.533ZM402.759 699.179C395.962 699.244 390.335 698.945 385.878 698.283C381.417 697.685 377.774 696.696 374.95 695.314C372.122 693.996 369.726 692.322 367.763 690.291C366.573 691.135 365.024 692.142 363.115 693.313C361.273 694.419 359.367 695.526 357.397 696.633C355.488 697.804 353.812 698.78 352.368 699.562L348.142 688.269C349.443 687.808 351.008 687.185 352.837 686.399C354.729 685.613 356.557 684.827 358.321 684.042C360.085 683.257 361.394 682.636 362.246 682.18L363.272 658.253L351.828 658.362L352.256 648.369L374.665 648.156L373.272 680.634C374.358 683.697 377.182 685.848 381.743 687.085C386.369 688.322 393.522 688.894 403.204 688.802C411.41 688.724 418.469 688.529 424.378 688.216C430.291 687.84 435.085 687.378 438.762 686.831C438.411 687.539 438.01 688.663 437.559 690.204C437.112 691.681 436.725 693.222 436.4 694.826C436.075 696.429 435.86 697.712 435.754 698.674C433.959 698.691 431.619 698.713 428.734 698.74C425.846 698.832 422.767 698.893 419.497 698.924C416.288 699.019 413.209 699.08 410.26 699.108C407.311 699.136 404.81 699.16 402.759 699.179ZM371.308 636.758C370.214 635.36 368.744 633.773 366.898 631.997C365.051 630.222 363.107 628.479 361.065 626.77C359.026 624.996 357.133 623.574 355.384 622.502L362.914 615.034C364.479 615.916 366.314 617.211 368.42 618.92C370.592 620.564 372.665 622.305 374.637 624.144C376.676 625.917 378.243 627.471 379.34 628.805C378.741 629.323 377.906 630.1 376.836 631.134C375.769 632.105 374.701 633.108 373.631 634.142C372.625 635.177 371.851 636.048 371.308 636.758ZM475.883 697.716L477.094 669.466L524.027 669.02L522.815 697.27L475.883 697.716ZM453.773 699.943L455.899 650.361C454.615 651.91 453.335 653.363 452.059 654.72C450.783 656.077 449.511 657.338 448.244 658.502C447.332 657.358 446.133 656.153 444.65 654.886C443.233 653.555 441.805 652.48 440.366 651.662C442.829 649.525 445.382 646.779 448.025 643.424C450.671 640.006 453.199 636.364 455.608 632.499C458.083 628.569 460.201 624.771 461.96 621.104C463.784 617.437 465.074 614.255 465.83 611.559L476.069 614.919C474.09 620.701 471.405 626.522 468.014 632.381L465.121 699.835L453.773 699.943ZM471.826 637.627L472.214 628.595L532.226 628.025L531.838 637.057L471.826 637.627ZM479.42 651.098L479.795 642.354L523.362 641.94L522.987 650.684L479.42 651.098ZM478.843 664.551L479.214 655.903L522.781 655.488L522.41 664.136L478.843 664.551ZM480.595 623.713L480.965 615.065L524.532 614.651L524.161 623.299L480.595 623.713ZM488.405 688.184L511.198 687.967L511.601 678.551L488.808 678.767L488.405 688.184ZM584.99 697.831C584.973 696.743 584.836 695.432 584.582 693.897C584.391 692.362 584.134 690.892 583.81 689.486C583.552 688.016 583.25 686.834 582.904 685.941L593.964 685.836C595.31 685.823 596.282 685.59 596.878 685.136C597.538 684.681 597.896 683.814 597.951 682.532L600.267 628.53L536.119 629.14L536.573 618.57L625.533 617.725L625.079 628.294L612.385 628.415L609.867 687.126C609.708 690.841 608.536 693.509 606.351 695.131C604.164 696.817 600.923 697.68 596.627 697.721L584.99 697.831ZM546.531 675.529L548.142 637.958L585.169 637.606L583.558 675.177L546.531 675.529ZM558.517 665.042L572.558 664.908L573.279 648.093L559.238 648.226L558.517 665.042ZM649.89 697.599C649.825 696.127 649.613 694.336 649.255 692.226C648.961 690.116 648.583 688.486 648.119 687.338L653.409 687.288C654.627 687.276 655.501 687.076 656.03 686.687C656.559 686.297 656.849 685.526 656.898 684.373L657.174 677.935L642.748 678.072L641.912 697.578L631.429 697.678L633.798 642.427L668.998 642.092L667.02 688.215C666.756 694.365 662.97 697.474 655.66 697.544L649.89 697.599ZM683.336 695.552C679.81 695.585 677.365 695.064 676.001 693.989C674.634 692.977 674.005 691.222 674.112 688.724L675.579 654.516L686.254 654.415L685.739 666.426C688.077 665.699 690.517 664.844 693.059 663.859C695.668 662.81 698.117 661.73 700.408 660.62C702.765 659.445 704.736 658.337 706.318 657.298L712.211 665.598C709.851 666.837 707.039 668.144 703.775 669.52C700.515 670.832 697.257 672.079 694.002 673.263C690.749 674.382 687.859 675.274 685.331 675.939L685.026 683.049C684.99 683.882 685.189 684.489 685.621 684.869C686.053 685.249 686.911 685.433 688.193 685.42L698.964 685.318C700.503 685.303 701.699 685.068 702.551 684.612C703.471 684.091 704.152 683.156 704.594 681.807C705.104 680.393 705.511 678.372 705.816 675.744C706.878 676.374 708.356 677.033 710.249 677.719C712.209 678.341 713.856 678.805 715.189 679.113C714.355 683.603 713.408 687.006 712.347 689.321C711.287 691.636 709.873 693.219 708.106 694.068C706.404 694.916 704.142 695.354 701.321 695.381L683.336 695.552ZM685.244 651.063C681.718 651.096 679.273 650.575 677.909 649.5C676.545 648.424 675.917 646.637 676.024 644.139L677.421 611.565L687.903 611.465L687.388 623.476C689.668 622.622 692.048 621.671 694.528 620.623C697.011 619.511 699.368 618.368 701.597 617.194C703.829 615.956 705.706 614.785 707.227 613.682L713.421 621.692C711.119 623.058 708.366 624.493 705.161 625.996C701.959 627.436 698.729 628.779 695.471 630.027C692.277 631.274 689.447 632.261 686.98 632.989L686.733 638.754C686.697 639.587 686.864 640.194 687.232 640.574C687.664 640.954 688.522 641.138 689.804 641.126L700.864 641.021C703.172 640.999 704.77 640.344 705.659 639.055C706.547 637.765 707.235 635.166 707.723 631.255C708.789 631.821 710.268 632.447 712.161 633.134C714.121 633.755 715.766 634.252 717.096 634.624C716.263 639.114 715.316 642.517 714.255 644.832C713.195 647.147 711.781 648.729 710.014 649.579C708.311 650.427 706.049 650.865 703.228 650.892L685.244 651.063ZM664.167 640.409C663.879 639.644 663.5 638.783 663.028 637.827C662.623 636.806 662.123 635.754 661.529 634.672C659.394 635.14 656.905 635.644 654.062 636.183C651.222 636.658 648.286 637.103 645.257 637.516C642.227 637.929 639.326 638.308 636.556 638.655C633.849 639.001 631.531 639.247 629.602 639.393L627.798 629.901C628.824 629.892 629.98 629.849 631.265 629.772C632.617 629.632 634.031 629.522 635.509 629.444C636.414 627.771 637.431 625.712 638.561 623.268C639.692 620.824 640.723 618.445 641.655 616.131C642.654 613.752 643.311 611.889 643.625 610.541L654.101 612.843C653.67 613.935 652.999 615.383 652.089 617.184C651.245 618.921 650.333 620.755 649.353 622.685C648.373 624.615 647.429 626.449 646.522 628.187C648.453 627.976 650.322 627.734 652.129 627.461C653.935 627.188 655.581 626.916 657.066 626.646C655.928 624.8 654.842 623.209 653.81 621.874L662.576 616.988C663.739 618.258 665.043 619.974 666.489 622.138C668.001 624.237 669.445 626.432 670.821 628.724C672.196 631.016 673.296 633.023 674.119 634.744C673.269 635.136 672.188 635.691 670.876 636.408C669.63 637.06 668.382 637.776 667.13 638.556C665.946 639.272 664.958 639.89 664.167 640.409ZM643.086 670.193L657.512 670.056L657.755 664.387L643.329 664.524L643.086 670.193ZM643.667 656.645L658.093 656.507L658.336 650.838L643.91 650.975L643.667 656.645ZM727.597 667.513L727.986 610.755L741.852 610.623L737.372 667.42L727.597 667.513ZM731.324 691.882C728.975 691.905 727.003 691.091 725.407 689.441C723.812 687.792 723.064 685.794 723.165 683.447C723.269 681.024 724.19 678.972 725.928 677.291C727.667 675.61 729.71 674.758 732.059 674.736C734.484 674.712 736.494 675.526 738.089 677.175C739.761 678.824 740.544 680.86 740.441 683.283C740.34 685.629 739.383 687.644 737.568 689.326C735.83 691.007 733.749 691.859 731.324 691.882ZM756.348 667.24L756.737 610.482L770.603 610.35L766.123 667.147L756.348 667.24ZM760.075 691.609C757.726 691.631 755.754 690.818 754.158 689.168C752.563 687.518 751.815 685.52 751.916 683.173C752.02 680.751 752.941 678.699 754.679 677.018C756.418 675.336 758.461 674.485 760.81 674.462C763.235 674.439 765.245 675.252 766.84 676.902C768.512 678.551 769.295 680.587 769.192 683.009C769.091 685.356 768.134 687.37 766.319 689.053C764.581 690.734 762.5 691.586 760.075 691.609Z" fill="#1B2024"/>
<path d="M53.4395 68.2927V53.1618H158.876V68.2927H53.4395ZM174.487 112.725C173.446 112.084 172.085 111.404 170.404 110.683C168.803 109.963 167.202 109.282 165.601 108.642C164.08 108.001 162.839 107.521 161.878 107.201C165 102.718 167.522 97.9542 169.443 92.9105C171.445 87.8669 172.886 82.0627 173.767 75.4979C174.727 68.8531 175.208 61.0875 175.208 52.2011V14.8541H215.917V4.64672H231.528V14.8541H275V26.6226H251.343V34.3082H272.958V45.5963H251.343V62.6487H204.989V45.5963H189.018V51.4806C189.018 64.2098 187.857 75.8182 185.535 86.3058C183.293 96.7933 179.611 105.6 174.487 112.725ZM191.299 115.367C190.899 113.766 190.098 111.644 188.897 109.002C187.697 106.44 186.456 104.279 185.175 102.517C196.783 101.477 207.431 98.9149 217.118 94.8319C212.074 90.0285 207.991 84.5045 204.869 78.2599H193.821V67.212H257.707L263.471 73.5766C260.829 77.8196 257.787 81.7825 254.345 85.4652C250.902 89.0678 247.18 92.3902 243.177 95.4324C248.14 97.3537 253.384 98.8348 258.908 99.8756C264.432 100.836 269.916 101.317 275.36 101.317C274.719 102.117 273.959 103.398 273.078 105.159C272.278 106.921 271.517 108.722 270.797 110.563C270.076 112.405 269.596 113.806 269.356 114.766C261.35 114.126 254.025 112.885 247.38 111.044C240.815 109.202 234.931 106.801 229.727 103.838C223.883 106.881 217.718 109.362 211.234 111.284C204.749 113.205 198.104 114.566 191.299 115.367ZM219.039 34.3082H237.292V26.6226H219.039V34.3082ZM229.847 88.3472C232.249 86.9062 234.53 85.3451 236.692 83.6639C238.854 81.9026 240.855 80.1013 242.696 78.2599H219.279C222.242 82.1828 225.764 85.5452 229.847 88.3472ZM219.039 52.5614H237.292V45.5963H219.039V52.5614ZM189.018 34.3082H204.989V26.6226H189.018V34.3082ZM322.926 110.799C322.84 109.891 322.689 108.788 322.472 107.491C322.299 106.195 322.04 105.179 321.694 104.444H325.585C326.406 104.444 326.925 104.357 327.141 104.184C327.358 103.968 327.466 103.471 327.466 102.693V100.034H310.93V110.669H304.186V100.034H300.36V94.8463H304.186V79.4128H315.923V76.9486H300.943V71.6312H309.698V68.7779H303.797V63.9144H309.698V61.3205H301.462V56.3273H309.698V51.6583H316.247V56.3273H322.083V51.6583H328.633V56.3273H337.387V61.3205H328.633V63.9144H335.377V68.7779H328.633V71.6312H338.101V76.9486H322.472V79.4128H334.21V94.8463H338.879V100.034H334.21V104.768C334.21 106.886 333.648 108.421 332.524 109.372C331.443 110.323 329.692 110.799 327.271 110.799H322.926ZM281.424 95.43V53.9928H299.387V95.43H281.424ZM283.889 110.799C283.11 110.366 282.094 109.848 280.841 109.242C279.63 108.68 278.614 108.291 277.793 108.075C278.614 107.081 279.436 105.849 280.257 104.379C281.078 102.909 281.835 101.396 282.527 99.8395C283.218 98.2832 283.737 96.8782 284.083 95.6245L290.114 97.6348C289.725 98.9749 289.184 100.466 288.493 102.109C287.844 103.709 287.109 105.265 286.288 106.778C285.466 108.291 284.667 109.631 283.889 110.799ZM297.831 110.28C297.052 109.242 296.253 107.989 295.431 106.519C294.61 105.092 293.832 103.601 293.097 102.044C292.405 100.445 291.821 98.9749 291.346 97.6348L297.117 95.5597C297.723 97.5051 298.609 99.4937 299.776 101.526C300.943 103.557 302.11 105.287 303.278 106.713C302.456 107.189 301.527 107.772 300.489 108.464C299.452 109.199 298.566 109.804 297.831 110.28ZM287.52 89.1398H293.226V83.1091H287.52V89.1398ZM287.52 77.4025H293.226V71.6312H287.52V77.4025ZM287.52 65.9246H293.226V60.2181H287.52V65.9246ZM316.247 71.6312H322.083V68.7779H316.247V71.6312ZM310.93 94.8463H315.923V91.7985H310.93V94.8463ZM322.472 94.8463H327.466V91.7985H322.472V94.8463ZM316.247 63.9144H322.083V61.3205H316.247V63.9144ZM310.93 87.0647H315.923V84.2114H310.93V87.0647ZM322.472 87.0647H327.466V84.2114H322.472V87.0647ZM345.169 111.058C344.607 109.934 343.85 108.767 342.899 107.556C341.991 106.346 341.04 105.33 340.046 104.509C345.363 102.044 349.795 99.0182 353.34 95.43C356.928 91.8418 359.738 87.8213 361.77 83.3684C363.845 78.9156 365.207 74.2034 365.855 69.2318L370.459 70.01C370.286 68.5401 370.135 67.0486 370.005 65.5355C369.919 64.0225 369.897 62.4661 369.94 60.8666H354.896V53.6037H377.917C377.355 61.2124 377.722 68.151 379.019 74.4196C380.316 80.6881 382.845 86.3082 386.606 91.2798C390.41 96.2514 395.728 100.639 402.558 104.444C401.607 105.179 400.57 106.195 399.446 107.491C398.322 108.788 397.392 109.977 396.657 111.058C390.908 107.34 385.871 102.779 381.548 97.3754C377.225 91.9715 374.069 85.5516 372.08 78.1158C370.827 82.828 368.924 87.2809 366.374 91.4743C363.866 95.6245 360.819 99.364 357.23 102.693C353.642 106.022 349.622 108.81 345.169 111.058ZM423.504 110.474C422.985 109.61 422.293 108.572 421.429 107.362C420.564 106.151 419.57 105.114 418.446 104.249C423.028 102.952 426.552 101.461 429.016 99.7747C431.48 98.0454 433.188 96.0136 434.139 93.6791C432.755 94.3708 431.372 94.7166 429.989 94.7166C426.703 94.7166 424.044 93.7872 422.012 91.9282C420.024 90.0693 418.965 87.5619 418.835 84.406C418.748 82.2444 419.181 80.3206 420.132 78.6346C421.083 76.9054 422.423 75.5436 424.152 74.5493C425.882 73.5549 427.849 73.0578 430.053 73.0578C430.399 73.0578 430.702 73.0794 430.961 73.1226C431.221 73.1226 431.502 73.1442 431.804 73.1875C431.718 72.4093 431.631 71.6095 431.545 70.7881C431.458 69.9667 431.415 69.1021 431.415 68.1943C427.913 68.324 424.498 68.5185 421.169 68.7779C417.841 69.0373 414.793 69.3399 412.026 69.6857C409.259 69.9884 406.968 70.3558 405.152 70.7881L404.05 63.2659C405.606 63.1362 407.789 63.0065 410.599 62.8768C413.409 62.7039 416.608 62.531 420.197 62.358C423.828 62.1851 427.568 62.0122 431.415 61.8393V52.6959H438.937V61.515C442.309 61.3853 445.53 61.2773 448.6 61.1908C451.669 61.0611 454.414 60.9746 456.835 60.9314C459.256 60.845 461.158 60.8233 462.542 60.8666L462.023 68.4537C459.515 68.151 456.187 67.9781 452.036 67.9349C447.93 67.8484 443.563 67.8484 438.937 67.9349C438.937 69.4912 438.981 71.0691 439.067 72.6687C439.197 74.2683 439.305 75.803 439.391 77.2728C441.51 79.7802 442.569 83.1091 442.569 87.2593C442.569 93.009 440.904 97.8509 437.576 101.785C434.247 105.676 429.556 108.572 423.504 110.474ZM430.053 88.232C431.264 88.1455 432.215 87.7348 432.907 86.9999C433.598 86.2649 433.944 85.3138 433.944 84.1466C433.944 83.7575 433.901 83.3468 433.815 82.9145C433.771 82.439 433.706 81.9418 433.62 81.423C432.712 80.3855 431.566 79.8667 430.183 79.8667C428.973 79.8667 427.957 80.2558 427.135 81.034C426.314 81.8121 425.925 82.8064 425.968 84.0169C425.968 85.2706 426.336 86.3082 427.07 87.1296C427.849 87.9077 428.843 88.2752 430.053 88.232ZM480.504 109.502V91.0204C478.905 92.7929 477.435 94.4789 476.095 96.0784C474.754 97.6348 473.695 98.9101 472.917 99.9044L467.211 94.976C469.026 93.4629 471.058 91.5608 473.306 89.2695C475.598 86.935 477.997 84.5141 480.504 82.0067V73.1226C478.602 73.5549 476.722 73.9656 474.863 74.3547C473.047 74.7438 471.577 75.0464 470.453 75.2626L468.897 68.0646C470.15 67.9781 471.858 67.762 474.02 67.4161C476.224 67.0703 478.386 66.6812 480.504 66.2489V53.474H487.767V64.3035L487.897 64.2386L491.852 67.1567L488.091 74.4844C490.123 72.6255 492.133 70.9395 494.122 69.4264C496.111 67.9133 498.013 66.7028 499.829 65.7949C501.644 64.8871 503.309 64.4331 504.822 64.4331C507.805 64.4331 509.966 65.3626 511.307 67.2216C512.647 69.0373 513.144 71.977 512.798 76.0407C512.755 76.7324 512.647 77.77 512.474 79.1534C512.344 80.4936 512.193 82.0067 512.02 83.6927C511.89 85.3787 511.739 87.0647 511.566 88.7507C511.436 90.3935 511.307 91.885 511.177 93.2252C511.047 94.5221 510.961 95.4732 510.917 96.0784C510.701 97.9374 511.479 98.8668 513.252 98.8668C515.024 98.8668 516.667 98.2184 518.18 96.9214C519.693 95.6245 520.99 94.0466 522.071 92.1876C522.287 92.7929 522.633 93.5494 523.109 94.4573C523.627 95.3219 524.168 96.1649 524.73 96.9863C525.335 97.7644 525.854 98.3697 526.286 98.802C525.292 100.402 524.038 101.807 522.525 103.017C521.012 104.228 519.391 105.179 517.662 105.87C515.975 106.519 514.311 106.843 512.668 106.843C505.708 106.843 502.531 103.341 503.136 96.3378C503.222 95.6461 503.33 94.6086 503.46 93.2252C503.59 91.7985 503.719 90.2422 503.849 88.5562C504.022 86.8269 504.195 85.1193 504.368 83.4333C504.541 81.704 504.692 80.1693 504.822 78.8292C504.952 77.4458 505.038 76.4514 505.081 75.8462C505.168 74.3763 505.038 73.3388 504.692 72.7336C504.346 72.1283 503.676 71.8257 502.682 71.8257C501.817 71.8257 500.607 72.3661 499.05 73.4469C497.494 74.4844 495.743 75.8894 493.798 77.6619C491.852 79.3912 489.842 81.2933 487.767 83.3684V109.502H480.504ZM558.774 107.297C555.402 107.124 552.7 106.151 550.669 104.379C548.637 102.563 547.642 100.293 547.686 97.5699C547.729 95.9271 548.269 94.414 549.307 93.0306C550.344 91.6472 551.814 90.5232 553.716 89.6586C555.619 88.794 557.888 88.3616 560.525 88.3616C561.217 88.3616 561.887 88.3833 562.536 88.4265C563.184 88.4697 563.811 88.5346 564.416 88.621C564.373 86.8053 564.308 84.7518 564.222 82.4606C564.178 80.1693 564.114 77.7051 564.027 75.068C561.347 75.1977 558.731 75.2842 556.181 75.3274C553.673 75.3707 551.533 75.349 549.761 75.2626L549.242 67.3513C550.842 67.5674 552.938 67.6971 555.532 67.7403C558.169 67.7836 560.936 67.7403 563.833 67.6106C563.789 65.7517 563.746 63.8495 563.703 61.9041C563.703 59.9587 563.703 57.9917 563.703 56.0031H571.29C571.247 57.7755 571.203 59.6129 571.16 61.515C571.16 63.374 571.182 65.2545 571.225 67.1567C573.776 66.9406 576.11 66.6812 578.229 66.3786C580.347 66.0759 581.946 65.7733 583.027 65.4707V73.2523C581.817 73.4685 580.174 73.7063 578.099 73.9656C576.024 74.1818 573.776 74.398 571.355 74.6141C571.441 77.6403 571.549 80.5152 571.679 83.2387C571.809 85.9191 571.917 88.2968 572.003 90.3719C574.424 91.1933 576.759 92.2741 579.007 93.6142C581.255 94.9544 583.459 96.4459 585.621 98.0887C585.146 98.4778 584.584 99.083 583.935 99.9044C583.33 100.726 582.768 101.569 582.249 102.433C581.73 103.255 581.341 103.947 581.082 104.509C578.229 101.915 575.246 99.7747 572.133 98.0887C571.83 101.504 570.512 103.947 568.177 105.416C565.886 106.843 562.752 107.47 558.774 107.297ZM534.716 108.14C534.414 106.454 534.176 104.271 534.003 101.59C533.83 98.9101 533.7 95.9487 533.614 92.7064C533.571 89.4208 533.571 86.0488 533.614 82.5903C533.657 79.0885 533.765 75.6733 533.938 72.3445C534.111 69.0157 534.327 65.9462 534.587 63.1362C534.889 60.3262 535.235 57.9917 535.624 56.1327L543.017 57.9485C542.541 59.4616 542.13 61.4934 541.785 64.0441C541.482 66.5947 541.244 69.4264 541.071 72.539C540.898 75.6517 540.79 78.8724 540.747 82.2012C540.704 85.53 540.725 88.7723 540.812 91.9282C540.942 95.0841 541.114 97.959 541.331 100.553C541.59 103.104 541.893 105.179 542.238 106.778L534.716 108.14ZM559.358 100.683C561.131 100.683 562.449 100.337 563.314 99.645C564.222 98.9533 564.676 97.678 564.676 95.819V95.3003C563.119 94.9544 561.584 94.7599 560.071 94.7166C558.472 94.6302 557.175 94.868 556.181 95.43C555.229 95.992 554.732 96.7485 554.689 97.6996C554.646 98.6075 555.057 99.3424 555.921 99.9044C556.786 100.423 557.931 100.683 559.358 100.683ZM586.01 60.3478C585.189 58.9644 584.151 57.5378 582.897 56.0679C581.644 54.598 580.477 53.3876 579.396 52.4365L583.027 49.7129C583.676 50.2317 584.432 50.9882 585.297 51.9825C586.161 52.9336 587.004 53.928 587.826 54.9655C588.69 55.9598 589.361 56.8244 589.836 57.5594L586.01 60.3478ZM580.044 65.0816C579.266 63.6982 578.25 62.25 576.996 60.7369C575.743 59.2238 574.575 57.9917 573.495 57.0406L577.191 54.3819C577.796 54.9007 578.531 55.6572 579.396 56.6515C580.26 57.6458 581.103 58.6618 581.925 59.6993C582.746 60.6936 583.395 61.5583 583.87 62.2932L580.044 65.0816Z" fill="#1A1E21"/>
<path d="M53.4395 231.609V216.478H158.876V231.609H53.4395ZM206.31 278.323C205.59 277.122 204.589 275.721 203.308 274.12C202.027 272.519 200.746 271.038 199.465 269.677C198.184 268.316 197.223 267.395 196.583 266.915C203.068 264.273 208.392 260.99 212.555 257.068C216.718 253.065 219.96 248.141 222.282 242.297C224.683 236.373 226.365 229.247 227.325 220.921C228.286 212.515 228.806 202.628 228.886 191.26H207.631V177.33H271.998V200.387C271.998 211.114 271.757 220.921 271.277 229.808C270.877 238.614 270.396 245.499 269.836 250.463C269.196 257.188 267.835 262.431 265.753 266.194C263.672 269.957 260.869 272.599 257.347 274.12C253.824 275.641 249.541 276.402 244.498 276.402H236.812C236.652 274.32 236.252 271.838 235.611 268.956C234.971 266.074 234.29 263.752 233.57 261.991H244.137C247.18 261.991 249.581 261.151 251.343 259.469C253.104 257.708 254.465 254.065 255.426 248.541C255.826 246.3 256.186 242.817 256.506 238.094C256.907 233.37 257.187 227.766 257.347 221.282C257.587 214.797 257.707 207.832 257.707 200.387V191.26H243.297C243.217 204.71 242.496 216.158 241.135 225.605C239.854 235.052 237.773 243.017 234.891 249.502C232.009 255.987 228.206 261.511 223.482 266.074C218.839 270.557 213.115 274.64 206.31 278.323ZM191.78 253.465C187.376 253.465 184.214 252.744 182.293 251.303C180.451 249.862 179.531 247.421 179.531 243.978V221.402C176.809 222.042 174.247 222.683 171.845 223.323C169.523 223.884 167.522 224.364 165.841 224.764L162.959 210.474C164.96 210.074 167.402 209.593 170.284 209.033C173.166 208.472 176.248 207.872 179.531 207.232V173.487H194.301V204.109C198.945 203.069 203.348 202.068 207.511 201.107C211.674 200.146 215.076 199.266 217.718 198.465L220.24 212.155C217.678 212.715 213.996 213.516 209.192 214.557C204.469 215.598 199.505 216.718 194.301 217.919V236.533C194.301 237.333 194.461 237.934 194.782 238.334C195.182 238.734 196.023 238.934 197.304 238.934H200.066C201.266 238.934 202.267 238.654 203.068 238.094C203.868 237.533 204.549 236.293 205.109 234.371C205.67 232.45 206.11 229.448 206.43 225.365C207.951 226.165 209.953 227.006 212.434 227.886C214.996 228.687 217.398 229.368 219.64 229.928C218.919 236.253 217.838 241.136 216.397 244.579C214.956 247.941 213.035 250.263 210.633 251.544C208.231 252.824 205.149 253.465 201.386 253.465H191.78ZM285.964 274.828C285.747 274.266 285.423 273.575 284.991 272.753C284.602 271.932 284.17 271.111 283.694 270.289C283.262 269.468 282.851 268.819 282.462 268.344C284.407 268.041 286.742 267.544 289.465 266.852C292.189 266.161 294.74 265.361 297.117 264.453H290.892V245.972C289.509 246.577 288.017 247.139 286.418 247.658C284.861 248.133 283.218 248.587 281.489 249.019C281.187 248.111 280.776 247.096 280.257 245.972C279.738 244.804 279.198 243.853 278.636 243.118C282.138 242.513 285.099 241.756 287.52 240.849C289.984 239.898 291.973 238.687 293.486 237.217H282.138C282.44 236.266 282.743 235.056 283.046 233.586C283.348 232.073 283.608 230.581 283.824 229.111C284.083 227.641 284.256 226.453 284.342 225.545H298.155C298.198 225.199 298.22 224.831 298.22 224.442C298.22 224.053 298.241 223.664 298.285 223.275H282.073V218.282H298.285V214.78H305.936V218.282H312.356V214.78H320.008V218.282H334.145V230.019H320.008V232.419H338.619C338.49 235.488 338.23 237.952 337.841 239.811C337.495 241.627 336.955 243.01 336.22 243.961C335.528 244.912 334.599 245.582 333.432 245.972C332.264 246.317 330.838 246.555 329.152 246.685C328.979 245.647 328.719 244.502 328.373 243.248C328.028 241.951 327.703 240.913 327.401 240.135V264.453H320.851C323.272 265.361 325.823 266.161 328.503 266.852C331.227 267.544 333.561 268.041 335.507 268.344C335.118 268.819 334.685 269.468 334.21 270.289C333.777 271.111 333.345 271.932 332.913 272.753C332.524 273.575 332.221 274.266 332.005 274.828C329.973 274.439 327.768 273.877 325.391 273.142C323.056 272.451 320.743 271.629 318.452 270.678C316.204 269.77 314.129 268.819 312.227 267.825L314.431 264.453H303.537L305.742 267.825C303.883 268.819 301.808 269.77 299.517 270.678C297.225 271.629 294.912 272.451 292.578 273.142C290.244 273.877 288.039 274.439 285.964 274.828ZM298.285 253.429H320.008V251.094H298.285V253.429ZM298.285 259.654H320.008V257.385H298.285V259.654ZM298.285 247.139H320.008V244.934H298.285V247.139ZM299.776 240.135H312.356V237.217H302.11C301.419 238.298 300.641 239.271 299.776 240.135ZM320.008 240.135H327.401C327.444 240.135 327.509 240.135 327.595 240.135C328.46 240.135 329.087 240.092 329.476 240.006C329.908 239.919 330.211 239.681 330.384 239.292C330.6 238.903 330.773 238.212 330.903 237.217H320.008V240.135ZM304.445 232.419H312.356V230.019H305.158C305.072 230.452 304.964 230.862 304.834 231.251C304.704 231.64 304.575 232.029 304.445 232.419ZM289.984 232.419H296.793C296.923 232.029 297.052 231.64 297.182 231.251C297.312 230.862 297.42 230.452 297.506 230.019H290.568C290.568 230.106 290.525 230.343 290.438 230.733C290.352 231.122 290.265 231.489 290.179 231.835C290.092 232.181 290.027 232.375 289.984 232.419ZM320.008 225.545H326.687V223.275H320.008V225.545ZM305.807 225.545H312.356V223.275H305.936C305.893 223.664 305.872 224.053 305.872 224.442C305.872 224.831 305.85 225.199 305.807 225.545ZM348.087 274.31C347.006 273.618 345.774 272.905 344.391 272.17C343.007 271.478 341.775 270.981 340.694 270.678C343.115 267.479 344.909 263.61 346.077 259.071C347.287 254.531 347.892 249.063 347.892 242.664V216.985H396.722V266.917C396.722 271.543 393.934 273.856 388.357 273.856H383.428C383.385 273.121 383.277 272.256 383.104 271.262C382.931 270.267 382.737 269.295 382.521 268.344C382.348 267.393 382.132 266.614 381.872 266.009H386.411C387.319 266.009 387.946 265.88 388.292 265.62C388.638 265.318 388.811 264.712 388.811 263.804V252.91H375.906V271.781H368.189V252.91H355.415C354.982 257.233 354.183 261.124 353.015 264.583C351.848 267.998 350.205 271.24 348.087 274.31ZM375.906 246.166H388.811V238.449H375.906V246.166ZM375.906 231.511H388.811V223.924H375.906V231.511ZM355.804 246.166H368.189V238.449H355.869V242.664C355.869 243.27 355.869 243.853 355.869 244.415C355.869 244.977 355.847 245.561 355.804 246.166ZM355.869 231.511H368.189V223.924H355.869V231.511ZM411.507 271.002C411.118 270.613 410.513 270.138 409.691 269.576C408.87 269.014 408.027 268.495 407.162 268.019C406.298 267.544 405.563 267.22 404.958 267.047C406.773 265.101 408.524 262.745 410.21 259.978C411.896 257.168 413.496 254.121 415.009 250.835C416.522 247.549 417.862 244.177 419.029 240.719C416.825 240.978 414.685 241.281 412.61 241.627C410.578 241.973 408.892 242.318 407.552 242.664C407.508 242.102 407.4 241.346 407.227 240.395C407.054 239.444 406.86 238.514 406.644 237.606C406.428 236.655 406.211 235.963 405.995 235.531C406.99 235.445 408.286 235.337 409.886 235.207C411.486 235.034 413.258 234.861 415.203 234.688C417.149 234.472 419.094 234.299 421.04 234.169C421.818 231.446 422.445 228.787 422.92 226.193C423.439 223.556 423.785 221.114 423.958 218.866L431.61 220.227C431.394 222.216 431.048 224.356 430.572 226.647C430.097 228.895 429.513 231.208 428.821 233.586C429.686 233.543 430.464 233.521 431.156 233.521C431.847 233.478 432.453 233.456 432.971 233.456C434.701 233.456 436.235 233.737 437.576 234.299C438.959 234.818 440.061 235.769 440.883 237.152C441.704 238.493 442.18 240.373 442.309 242.794C442.439 245.172 442.158 248.22 441.466 251.937C440.602 256.606 439.607 260.259 438.483 262.897C437.403 265.534 436.041 267.393 434.398 268.473C432.755 269.554 430.659 270.095 428.108 270.095C425.514 270.095 423.244 269.619 421.299 268.668C421.342 267.63 421.342 266.377 421.299 264.907C421.256 263.437 421.126 262.226 420.91 261.275C423.072 262.226 425.19 262.702 427.265 262.702C428.303 262.702 429.189 262.421 429.924 261.859C430.702 261.254 431.437 260.087 432.128 258.357C432.82 256.585 433.512 253.991 434.204 250.576C434.852 247.42 435.111 245.085 434.982 243.572C434.852 242.016 434.441 241 433.75 240.524C433.058 240.049 432.193 239.811 431.156 239.811C429.945 239.811 428.497 239.876 426.811 240.006C425.471 244.026 423.936 247.982 422.207 251.873C420.521 255.763 418.748 259.373 416.889 262.702C415.074 265.988 413.28 268.754 411.507 271.002ZM458.781 254.142C458.089 252.975 457.138 251.592 455.927 249.992C454.717 248.392 453.398 246.793 451.972 245.193C450.545 243.551 449.162 242.059 447.821 240.719C446.481 239.336 445.314 238.298 444.32 237.606L450.026 232.808C451.064 233.586 452.274 234.645 453.658 235.985C455.041 237.282 456.468 238.709 457.938 240.265C459.407 241.821 460.769 243.356 462.023 244.869C463.277 246.382 464.249 247.701 464.941 248.825L458.781 254.142ZM461.699 227.425C460.531 226.345 459.083 225.264 457.354 224.183C455.668 223.059 454.176 222.216 452.879 221.654L455.603 217.958C456.338 218.304 457.267 218.822 458.391 219.514C459.559 220.206 460.704 220.941 461.828 221.719C462.996 222.454 463.903 223.102 464.552 223.664L461.699 227.425ZM457.289 233.651C456.165 232.57 454.738 231.467 453.009 230.343C451.323 229.219 449.832 228.355 448.535 227.75L451.258 224.118C451.993 224.464 452.923 225.004 454.047 225.739C455.214 226.431 456.36 227.166 457.484 227.944C458.608 228.679 459.494 229.327 460.142 229.89L457.289 233.651ZM473.76 270.938C473.371 270.548 472.766 270.073 471.944 269.511C471.123 268.992 470.28 268.495 469.415 268.019C468.551 267.544 467.816 267.22 467.211 267.047C469.026 265.101 470.777 262.745 472.463 259.978C474.149 257.168 475.749 254.121 477.262 250.835C478.775 247.549 480.115 244.177 481.282 240.719C479.078 240.978 476.938 241.281 474.863 241.627C472.831 241.973 471.145 242.318 469.805 242.664C469.761 242.102 469.653 241.346 469.48 240.395C469.307 239.444 469.113 238.514 468.897 237.606C468.68 236.655 468.464 235.942 468.248 235.466C469.243 235.38 470.539 235.272 472.139 235.142C473.739 235.012 475.511 234.861 477.456 234.688C479.402 234.472 481.347 234.299 483.293 234.169C484.071 231.446 484.698 228.787 485.173 226.193C485.692 223.556 486.038 221.114 486.211 218.866L493.863 220.227C493.647 222.216 493.301 224.356 492.825 226.647C492.35 228.895 491.766 231.208 491.074 233.586C491.939 233.543 492.717 233.521 493.409 233.521C494.1 233.478 494.706 233.456 495.224 233.456C496.954 233.456 498.488 233.737 499.829 234.299C501.212 234.818 502.314 235.769 503.136 237.152C503.957 238.493 504.433 240.373 504.562 242.794C504.692 245.172 504.411 248.22 503.719 251.937C502.855 256.606 501.86 260.259 500.736 262.897C499.656 265.534 498.294 267.393 496.651 268.473C495.008 269.554 492.912 270.095 490.361 270.095C489.15 270.095 487.962 269.965 486.794 269.705C485.627 269.489 484.546 269.122 483.552 268.603C483.595 267.609 483.595 266.377 483.552 264.907C483.509 263.437 483.379 262.226 483.163 261.275C485.325 262.226 487.443 262.702 489.518 262.702C490.556 262.702 491.442 262.421 492.177 261.859C492.955 261.254 493.69 260.087 494.381 258.357C495.073 256.585 495.765 253.991 496.457 250.576C497.105 247.42 497.364 245.085 497.235 243.572C497.105 242.016 496.694 241 496.003 240.524C495.311 240.049 494.446 239.811 493.409 239.811C492.198 239.811 490.75 239.876 489.064 240.006C487.724 244.026 486.189 247.982 484.46 251.873C482.774 255.763 481.001 259.352 479.142 262.637C477.327 265.923 475.533 268.69 473.76 270.938ZM521.034 254.142C520.342 252.975 519.391 251.592 518.18 249.992C516.97 248.392 515.651 246.793 514.225 245.193C512.798 243.551 511.415 242.059 510.074 240.719C508.734 239.336 507.567 238.298 506.573 237.606L512.279 232.808C513.317 233.586 514.527 234.645 515.911 235.985C517.294 237.282 518.721 238.709 520.191 240.265C521.66 241.821 523.022 243.356 524.276 244.869C525.53 246.382 526.502 247.701 527.194 248.825L521.034 254.142ZM536.013 270.938C535.624 270.548 535.019 270.073 534.197 269.511C533.376 268.992 532.533 268.495 531.668 268.019C530.804 267.544 530.069 267.22 529.464 267.047C531.279 265.101 533.03 262.745 534.716 259.978C536.402 257.168 538.002 254.121 539.515 250.835C541.028 247.549 542.368 244.177 543.535 240.719C541.331 240.978 539.191 241.281 537.116 241.627C535.084 241.973 533.398 242.318 532.058 242.664C532.014 242.102 531.906 241.346 531.733 240.395C531.56 239.444 531.366 238.514 531.15 237.606C530.934 236.655 530.717 235.942 530.501 235.466C531.496 235.38 532.792 235.272 534.392 235.142C535.992 235.012 537.764 234.861 539.709 234.688C541.655 234.472 543.6 234.299 545.546 234.169C546.324 231.446 546.951 228.787 547.426 226.193C547.945 223.556 548.291 221.114 548.464 218.866L556.116 220.227C555.9 222.216 555.554 224.356 555.078 226.647C554.603 228.895 554.019 231.208 553.327 233.586C554.192 233.543 554.97 233.521 555.662 233.521C556.353 233.478 556.959 233.456 557.478 233.456C559.207 233.456 560.741 233.737 562.082 234.299C563.465 234.818 564.567 235.769 565.389 237.152C566.21 238.493 566.686 240.373 566.815 242.794C566.945 245.172 566.664 248.22 565.972 251.937C565.108 256.606 564.114 260.259 562.989 262.897C561.909 265.534 560.547 267.393 558.904 268.473C557.261 269.554 555.165 270.095 552.614 270.095C551.404 270.095 550.215 269.965 549.047 269.705C547.88 269.489 546.799 269.122 545.805 268.603C545.848 267.609 545.848 266.377 545.805 264.907C545.762 263.437 545.632 262.226 545.416 261.275C547.578 262.226 549.696 262.702 551.771 262.702C552.809 262.702 553.695 262.421 554.43 261.859C555.208 261.254 555.943 260.087 556.635 258.357C557.326 256.585 558.018 253.991 558.71 250.576C559.358 247.42 559.617 245.085 559.488 243.572C559.358 242.016 558.947 241 558.256 240.524C557.564 240.049 556.699 239.811 555.662 239.811C554.451 239.811 553.003 239.876 551.317 240.006C549.977 244.026 548.442 247.982 546.713 251.873C545.027 255.763 543.254 259.352 541.395 262.637C539.58 265.923 537.786 268.69 536.013 270.938ZM583.287 254.142C582.595 252.975 581.644 251.592 580.433 249.992C579.223 248.392 577.904 246.793 576.478 245.193C575.051 243.551 573.668 242.059 572.327 240.719C570.987 239.336 569.82 238.298 568.826 237.606L574.532 232.808C575.57 233.586 576.78 234.645 578.164 235.985C579.547 237.282 580.974 238.709 582.444 240.265C583.913 241.821 585.275 243.356 586.529 244.869C587.783 246.382 588.755 247.701 589.447 248.825L583.287 254.142ZM615.256 272.753C615.126 272.105 614.867 271.283 614.478 270.289C614.132 269.295 613.7 268.3 613.181 267.306C612.662 266.312 612.143 265.534 611.625 264.972C618.542 265.145 623.816 264.323 627.447 262.507C631.122 260.692 632.959 258.12 632.959 254.791C632.959 252.845 632.181 251.332 630.625 250.251C629.068 249.171 627.037 248.63 624.529 248.63C622.584 248.63 620.509 248.933 618.304 249.538C616.099 250.1 614.002 251.051 612.014 252.391C610.068 253.688 608.426 255.439 607.085 257.644L600.147 254.596C601.011 253.083 601.746 251.203 602.352 248.954C603 246.663 603.519 244.286 603.908 241.821C604.297 239.357 604.578 237.023 604.751 234.818C604.924 232.613 604.945 230.797 604.816 229.371L612.922 230.343C612.965 232.462 612.792 234.969 612.403 237.866C612.014 240.719 611.409 243.551 610.587 246.361C612.878 244.848 615.278 243.68 617.785 242.859C620.293 242.037 622.649 241.627 624.853 241.627C628.225 241.627 631.144 242.21 633.608 243.378C636.115 244.502 638.061 246.08 639.444 248.111C640.827 250.1 641.519 252.391 641.519 254.985C641.519 258.271 640.568 261.232 638.666 263.869C636.807 266.463 633.932 268.538 630.041 270.095C626.194 271.651 621.265 272.537 615.256 272.753ZM626.021 231.186C624.94 230.322 623.643 229.457 622.13 228.593C620.66 227.728 619.104 226.907 617.461 226.128C615.818 225.35 614.197 224.68 612.597 224.118C611.041 223.513 609.658 223.102 608.447 222.886L612.338 216.142C613.462 216.445 614.802 216.92 616.358 217.569C617.915 218.174 619.536 218.866 621.222 219.644C622.951 220.422 624.572 221.2 626.086 221.978C627.642 222.756 628.917 223.47 629.911 224.118L626.021 231.186ZM672.516 273.985C671.997 273.121 671.305 272.062 670.441 270.808C669.576 269.597 668.582 268.56 667.458 267.695C672.04 266.398 675.564 264.907 678.028 263.221C680.492 261.492 682.2 259.46 683.151 257.125C681.897 257.817 680.514 258.163 679.001 258.163C675.715 258.163 673.056 257.255 671.024 255.439C669.036 253.58 667.977 251.051 667.847 247.852C667.76 245.691 668.193 243.767 669.144 242.081C670.095 240.351 671.435 238.99 673.164 237.995C674.894 237.001 676.861 236.504 679.065 236.504C679.411 236.504 679.714 236.525 679.973 236.569C680.233 236.569 680.514 236.59 680.816 236.634C680.6 235.207 680.47 233.672 680.427 232.029C676.925 232.159 673.51 232.354 670.181 232.613C666.853 232.872 663.805 233.175 661.038 233.521C658.271 233.824 655.98 234.191 654.164 234.623L653.062 227.101C654.618 226.971 656.801 226.842 659.611 226.712C662.421 226.539 665.62 226.366 669.209 226.193C672.84 226.02 676.58 225.847 680.427 225.674V216.207H687.949V225.35C691.321 225.221 694.542 225.112 697.612 225.026C700.681 224.896 703.426 224.81 705.847 224.767C708.268 224.723 710.17 224.702 711.554 224.702L711.035 232.289C708.528 231.986 705.199 231.813 701.049 231.77C696.942 231.684 692.575 231.684 687.949 231.77C687.993 233.283 688.058 234.818 688.144 236.374C688.23 237.887 688.317 239.336 688.403 240.719C690.522 243.226 691.581 246.555 691.581 250.705C691.581 256.455 689.916 261.297 686.588 265.231C683.259 269.165 678.568 272.083 672.516 273.985ZM679.065 251.678C680.276 251.592 681.227 251.181 681.919 250.446C682.61 249.711 682.956 248.76 682.956 247.593C682.956 247.204 682.913 246.793 682.827 246.361C682.783 245.885 682.718 245.41 682.632 244.934C681.724 243.853 680.579 243.313 679.195 243.313C677.985 243.313 676.969 243.702 676.147 244.48C675.326 245.258 674.937 246.274 674.98 247.528C674.98 248.782 675.348 249.819 676.082 250.641C676.861 251.419 677.855 251.765 679.065 251.678ZM699.427 224.442C698.692 223.059 697.698 221.589 696.444 220.033C695.234 218.433 694.11 217.136 693.072 216.142L696.704 213.418C697.309 213.98 698.022 214.78 698.844 215.818C699.708 216.812 700.551 217.85 701.373 218.93C702.194 219.968 702.821 220.854 703.253 221.589L699.427 224.442ZM708.376 223.275C707.598 221.892 706.604 220.465 705.393 218.995C704.226 217.482 703.124 216.25 702.086 215.299L705.717 212.575C706.323 213.137 707.036 213.916 707.857 214.91C708.679 215.861 709.479 216.855 710.257 217.893C711.078 218.887 711.705 219.752 712.137 220.487L708.376 223.275ZM722.059 269.77C721.756 267.998 721.518 265.836 721.346 263.286C721.173 260.692 721.043 257.882 720.956 254.856C720.913 251.786 720.913 248.63 720.956 245.388C721.043 242.146 721.173 238.99 721.346 235.92C721.562 232.808 721.821 229.933 722.124 227.296C722.47 224.659 722.859 222.41 723.291 220.552L730.878 222.108C730.403 223.664 729.992 225.696 729.646 228.203C729.3 230.668 729.019 233.391 728.803 236.374C728.587 239.314 728.435 242.34 728.349 245.453C728.306 248.565 728.327 251.592 728.414 254.531C728.5 257.471 728.652 260.13 728.868 262.507C729.084 264.885 729.365 266.809 729.711 268.279L722.059 269.77ZM749.619 266.269C742.14 266.052 737.903 263.61 736.909 258.941C736.649 257.774 736.563 256.477 736.649 255.05C736.736 253.623 737.06 252.046 737.622 250.316L744.431 252.002C744.128 252.824 743.956 253.559 743.912 254.207C743.912 254.856 743.999 255.439 744.172 255.958C744.734 257.514 747.025 258.357 751.045 258.487C752.991 258.53 755.066 258.465 757.271 258.292C759.519 258.076 761.702 257.774 763.82 257.385C765.982 256.995 767.862 256.563 769.462 256.088C769.375 256.693 769.267 257.514 769.138 258.552C769.051 259.589 768.986 260.649 768.943 261.729C768.9 262.767 768.9 263.631 768.943 264.323C766.911 264.842 764.728 265.253 762.394 265.555C760.102 265.858 757.833 266.074 755.585 266.204C753.38 266.29 751.391 266.312 749.619 266.269ZM739.892 234.623L739.438 226.647C741.081 226.863 743.091 226.993 745.469 227.036C747.846 227.079 750.311 227.058 752.861 226.971C755.455 226.842 757.919 226.647 760.254 226.388C762.631 226.085 764.598 225.718 766.155 225.285L765.831 233.132C764.101 233.434 762.091 233.715 759.8 233.975C757.509 234.191 755.131 234.364 752.667 234.494C750.246 234.623 747.911 234.71 745.663 234.753C743.458 234.753 741.535 234.71 739.892 234.623Z" fill="#1A1E21"/>
</svg>
