<svg width="117" height="198" viewBox="0 0 117 198" fill="none" xmlns="http://www.w3.org/2000/svg">
<path d="M42.5787 70.368C42.5787 70.368 43.9534 68.5184 47.3111 68.2143C50.6729 67.9102 65.6866 66.2105 67.9278 69.6556C70.1691 73.1008 67.5196 79.4121 67.2155 79.9745C66.9114 80.5368 65.9949 83.3363 61.1083 83.1822C56.2218 83.028 45.5322 79.008 44.4116 77.7332C43.291 76.4585 41.9163 72.3218 42.5787 70.368Z" fill="#273454"/>
<path d="M40.8109 75.1342C40.8109 75.1342 44.0853 73.6553 46.0932 73.547C48.097 73.4387 68.2097 75.1092 69.9177 75.7383C71.6257 76.3673 72.4922 79.9666 72.4922 80.604C72.4922 81.2413 71.8965 85.0364 65.4977 85.7405C59.1032 86.4445 53.3543 87.8525 48.801 87.6901C44.2477 87.5276 38.553 87.3651 38.7988 82.7036C39.0446 78.042 40.8109 75.13 40.8109 75.13V75.1342Z" fill="#273454"/>
<path d="M59.0113 143.795C71.8338 147.062 79.9072 141.925 79.1532 128.394C78.8908 123.758 77.8618 119.113 78.4575 114.501C79.2157 108.644 82.5275 103.433 83.9814 97.7087C84.9021 94.0928 84.8604 89.727 83.0108 86.3943C80.5821 82.0201 77.2369 82.845 73.1794 81.1245C70.7465 80.0955 68.2803 77.0794 66.8889 74.8674C64.0103 70.3141 63.1314 64.032 63.6479 58.8663C63.7604 57.2708 64.0353 55.7086 64.4769 54.1881C64.1895 54.2173 63.9062 54.2506 63.6146 54.2798C56.7243 54.9796 51.6211 54.2964 50.9421 54.2714C49.3007 54.1631 49.2674 54.4047 46.8596 52.0843C46.2013 51.4511 45.5723 50.7804 44.9808 50.0764C44.5058 49.5099 43.6185 48.685 43.3936 47.9727C44.2601 50.7055 44.9266 53.5049 45.3973 56.3335C45.8931 59.3579 46.4721 62.7364 45.6639 66.0191C45.5723 66.2941 44.1268 77.8293 34.3037 85.157C28.4298 89.5478 23.8766 93.4679 23.0892 101.354C21.5562 116.734 36.2366 137.992 59.0072 143.8L59.0113 143.795Z" fill="#FFE5D8"/>
<path d="M43.3892 47.968C44.2557 50.7008 44.9222 53.5003 45.3929 56.3289C45.5596 57.3412 45.7345 58.3743 45.8637 59.4158C49.6088 65.1938 55.191 68.3474 61.7106 70.5803C62.8145 70.9552 63.9726 71.5259 65.1641 71.4009C63.731 67.6767 63.2894 62.8359 63.6185 58.8617C62.223 59.2991 60.7733 59.5907 59.3152 59.7199C58.1488 59.824 56.32 60.149 55.3285 59.4533C53.458 58.141 52.1416 56.1873 50.9335 54.2626C49.2922 54.1543 49.2589 54.3959 46.851 52.0756C46.1928 51.4424 45.5637 50.7717 44.9722 50.0676C44.4973 49.5011 43.61 48.6762 43.385 47.9639L43.3892 47.968Z" fill="#F9CEBC"/>
<path d="M88.58 179.064C88.8258 181.655 88.9966 183.18 88.9966 183.18C88.9966 192.049 19.5602 192.049 19.5602 183.18C19.5894 177.902 19.956 110.519 19.6602 105.087C19.3561 99.4879 14.3654 87.6777 14.3654 87.6777L38.2899 78.9211L42.5641 70.3686C44.2929 77.1923 51.1165 83.7077 51.1165 83.7077L56.9196 88.3901C56.9196 88.3901 58.5484 87.4736 61.1937 85.1324C63.839 82.7912 67.9132 69.6562 67.9132 69.6562L74.3286 78.4129C85.0182 79.0252 95.5078 86.253 95.5078 86.253C95.5078 86.253 91.2337 106.412 87.9718 125.758C85.8472 138.384 86.9303 158.989 87.9385 171.782C88.1634 174.669 88.3884 177.16 88.5717 179.068L88.58 179.064Z" fill="#E4F0FF"/>
<path d="M48.1333 172.064C51.8409 178.692 55.7568 185.029 61.4141 190.207C50.1579 188.295 38.6894 187.645 27.2916 188.274C34.9901 161.966 34.9484 173.256 36.5106 156.584C36.7397 154.122 37.2147 151.56 37.2147 149.09C40.3182 157.051 44.0175 164.695 48.1375 172.064H48.1333Z" fill="#C9D4F2"/>
<path d="M67.7458 84.7947L61.9178 88.8939L59.2725 88.1482L62.2927 84.8447C64.3923 84.2615 66.2045 84.3407 67.75 84.7947H67.7458Z" fill="#305FAD"/>
<path d="M55.1641 88.6603L54.0768 91.7138L44.537 87.7979C46.3491 86.0858 48.5612 84.6319 50.9066 84.5527L55.1599 88.6603H55.1641Z" fill="#305FAD"/>
<path d="M40.0188 93.8679C42.4266 89.727 47.284 84.0407 52.0081 84.8072C52.2664 84.8363 52.308 84.4697 52.0664 84.4322C47.2757 83.6782 42.5766 88.9897 40.0354 93.0889C37.1485 87.3192 38.4649 79.0333 38.4774 78.95C38.5191 78.6959 38.14 78.6459 38.1025 78.8875C38.0858 78.975 36.7027 87.6733 39.8521 93.5679L40.0146 93.8721L40.0188 93.8679Z" fill="#C9D4F2"/>
<path d="M74.8516 92.081L74.6308 78.917C74.6308 78.8128 74.5433 78.7295 74.4391 78.7295C74.335 78.7295 74.2517 78.817 74.2517 78.9211L74.4433 90.3272C71.7647 85.5906 67.1781 83.0911 61.9666 84.7408C61.7291 84.8158 61.8375 85.1782 62.0791 85.1032C62.2415 85.0782 64.766 84.1076 67.6946 84.9741C72.2937 86.3322 74.4516 91.1604 74.4725 91.2104L74.8516 92.081Z" fill="#C9D4F2"/>
<path d="M55.1612 88.6606L59.2688 88.1523L61.9141 88.898L60.5935 95.7509L55.3987 97.0423L54.0739 91.7141L55.1612 88.6606Z" fill="#426FC4"/>
<path d="M55.4009 97.0424C55.4009 97.0424 52.7556 107.124 52.9556 113.331C53.1597 119.542 50.2686 172.844 50.2686 172.844L59.2752 183.546L65.3906 171.994L63.8284 115.722C63.716 106.432 61.6039 100.688 60.5916 95.751L55.4009 97.0424Z" fill="#426FC4"/>
<path d="M64.1481 142.438C64.523 142.433 64.2606 143.567 64.019 115.718C63.9065 106.395 61.7777 100.6 60.7779 95.7051C60.7196 95.4635 60.3489 95.5468 60.4072 95.7926C61.4028 100.642 63.5274 106.44 63.6399 115.722C64.0648 143.654 63.7774 142.438 64.1481 142.438Z" fill="#305FAD"/>
<path d="M55.3555 96.6548C57.4759 96.3674 60.8086 95.9175 60.6253 95.9424C60.8669 95.9091 60.8336 95.5425 60.5753 95.5634L55.3305 96.2757C55.2264 96.2882 55.1514 96.384 55.168 96.4882C55.1805 96.584 55.2639 96.6548 55.3555 96.6548Z" fill="#305FAD"/>
<path d="M19.3605 190.845C26.2633 192.873 32.6038 194.319 38.4109 195.31C52.7873 197.731 70.4671 198.372 83.902 192.965C87.0722 191.715 88.5969 190.649 88.5969 190.649L88.7969 181.276C39.9731 192.028 19.9021 180.888 19.5771 180.863L19.3647 190.845H19.3605Z" fill="#64677A"/>
<path d="M4.74008 126.39C4.99003 130.235 4.96088 133.639 5.55243 137.567C6.67304 145.007 7.78949 152.448 8.9101 159.888C9.74743 165.462 11.8637 171.894 14.5048 176.851C23.9738 194.602 46.9318 184.333 39.7832 157.384C38.8667 153.931 38.5668 150.256 37.9002 146.707C36.413 138.779 34.0343 131.189 32.7554 123.228C30.5933 126.694 31.3557 131.797 28.223 134.005C26.7732 135.03 24.7903 135.076 23.1198 134.48C21.4451 133.885 20.0371 132.718 18.7915 131.456C17.4084 130.052 15.0256 127.74 14.4673 125.799C13.805 123.487 14.7381 119.846 14.8881 117.438C15.0297 115.151 15.1755 112.847 15.0172 110.56C14.8589 108.256 19.6205 106.294 19.6705 104.057C19.7913 98.9123 15.5296 92.8135 16.2712 87.7187C9.88074 87.0854 3.35285 91.5846 1.0783 97.5875C-2.57099 107.231 4.19018 117.884 4.73591 126.386L4.74008 126.39Z" fill="#E4F0FF"/>
<path d="M7.07212 108.311C12.2586 110.293 15.6913 115.434 14.7289 123.162C14.4582 125.345 14.0707 128.282 12.9835 130.202C11.9795 129.619 12.0086 126.511 11.8045 125.432C10.8714 120.541 9.60496 115.713 8.01777 110.998C7.88863 110.618 7.40955 108.444 7.07629 108.315L7.07212 108.311Z" fill="#C9D4F2"/>
<path d="M39.9643 157.334C39.0562 153.914 38.7479 150.219 38.0855 146.669C37.2898 142.437 36.2026 138.146 35.1486 133.764C34.4696 130.91 34.4112 126.815 32.0242 124.682C30.8494 123.636 29.1456 123.107 27.2043 123.186C25.4963 123.261 23.8508 123.774 22.2595 124.27C22.0178 124.345 22.1303 124.711 22.3719 124.632C23.9383 124.145 25.5588 123.641 27.221 123.57C29.0415 123.491 30.6703 123.986 31.7701 124.965C34.0405 126.994 34.1071 131.052 34.7778 133.851C35.7568 137.946 36.8858 142.362 37.7064 146.736C38.3688 150.26 38.6729 153.976 39.5894 157.43C40.5934 161.216 41.0433 165.141 40.885 168.786C40.4226 179.48 33.7822 185.495 27.0335 185.495C21.3346 185.466 16.9063 180.963 14.6609 176.759C12.0531 171.869 9.92021 165.395 9.08704 159.858C9.04955 159.613 8.67462 159.663 8.70795 159.917C9.54529 165.495 11.699 172.014 14.3235 176.938C23.9008 194.893 47.1504 184.479 39.9518 157.334H39.9643Z" fill="#C9D4F2"/>
<path d="M12.8267 132.594C13.9889 133.198 15.6428 133.327 16.9425 133.464C20.546 133.843 24.2119 133.627 27.7529 132.831C29.3609 132.469 31.0731 131.935 32.1229 130.644C32.7727 129.857 33.1477 128.853 32.9727 127.865C32.5311 125.37 27.7695 124.999 25.2492 124.812C22.9247 124.637 20.5626 124.887 18.3297 125.562C16.8384 126.012 14.8971 126.228 13.4432 127.057C12.5559 127.503 11.7935 128.386 11.5227 129.548C11.1436 131.152 11.7935 132.056 12.8308 132.594H12.8267Z" fill="#273454"/>
<path d="M109.945 106.453C109.945 106.453 109.887 103.649 98.8725 105.345C87.858 107.04 87.6914 106.357 87.6497 108.477C87.608 110.598 90.4867 117.796 90.4867 117.796C90.4867 117.796 97.7727 121.017 98.7017 121.183C99.6349 121.354 108.408 120.342 108.954 119.234C109.137 118.859 110.258 111.681 109.945 106.449V106.453Z" fill="#273454"/>
<path d="M107.873 99.4745C106.64 100.778 105.894 102.345 104.786 103.765C104.899 105.911 105.411 109.014 106.011 112.105C106.361 113.905 106.74 115.701 107.086 117.296C106.04 117.971 104.482 118.242 103.266 118.492C99.8831 119.171 96.3921 119.3 92.9678 118.862C91.9263 118.729 90.8724 118.537 89.9351 118.088C89.4768 106.598 90.3392 111.318 84.7444 90.5055C84.3445 89.0141 83.9779 87.2853 84.8777 86.0272C85.7151 84.8607 87.573 85.019 88.6811 85.9355C89.2185 83.9859 90.2392 82.0821 92.2013 81.6614C93.1511 81.4572 94.3384 81.8572 94.9549 82.6112C94.8841 81.8113 95.3715 81.0157 96.0797 80.6366C97.4878 79.8909 99.3291 80.7407 100.046 82.1988C100.087 81.2698 100.225 80.3075 100.741 79.5326C101.262 78.7619 102.253 78.2412 103.141 78.5245C103.807 78.7369 104.27 79.341 104.649 79.9367C105.707 81.6114 105.674 84.0776 106.986 85.5689C107.519 86.1688 108.394 86.3105 109.052 86.8062C112.801 89.639 111.264 95.8711 107.873 99.4745Z" fill="#FFE5D8"/>
<path d="M106.542 93.0807C106.592 93.0807 106.638 93.0474 106.646 92.9974C107.158 90.5104 107.292 87.9692 107.042 85.4405C107.037 85.3864 106.992 85.3447 106.938 85.3447C106.938 85.3447 106.929 85.3447 106.925 85.3447C106.867 85.3489 106.825 85.403 106.829 85.4614C107.079 87.965 106.946 90.4854 106.438 92.9516C106.425 93.0099 106.463 93.064 106.521 93.0765C106.525 93.0765 106.533 93.0765 106.542 93.0765V93.0807Z" fill="#F9CEC0"/>
<path d="M100.684 85.765C100.684 85.765 100.692 85.765 100.696 85.765C100.755 85.7567 100.796 85.7067 100.788 85.6483C100.296 81.9699 100.417 81.7366 100.213 81.7783C100.009 81.8033 100.176 81.9449 100.576 85.6733C100.584 85.7275 100.626 85.765 100.68 85.765H100.684Z" fill="#F9CEC0"/>
<path d="M95.1638 85.8821C95.0805 84.7073 94.9972 83.5325 94.9139 82.3578L94.9055 82.237C94.9014 82.1786 94.8639 82.1328 94.7931 82.137C94.7347 82.1411 94.6889 82.1911 94.6931 82.2495L94.7014 82.3703C94.7847 83.545 94.868 84.7198 94.9514 85.8946C94.9639 86.0362 95.1722 86.0196 95.1638 85.8779V85.8821Z" fill="#F9CEC0"/>
<path d="M89.7689 88.8106C88.8857 85.8654 88.994 85.7321 88.7899 85.7654C88.5983 85.8237 88.7899 85.9695 89.5647 88.8689C89.6022 89.0022 89.8064 88.9481 89.7689 88.8106Z" fill="#F9CEC0"/>
<path d="M109.954 106.411C109.895 106.561 111.412 111.977 111.612 113.273C112.324 117.959 113.357 124.72 115.948 141.729C118.102 155.868 114.815 172.744 103.676 176.493C96.019 179.072 89.0496 172.715 87.629 165.583C85.1628 153.19 86.2584 141.467 87.6457 108.473C89.7786 110.256 91.6074 111.877 94.261 112.718C96.9147 113.56 99.8558 113.668 102.447 112.664C105.042 111.66 109.304 109.111 109.954 106.407V106.411Z" fill="#E4F0FF"/>
<path d="M89.245 170.407C89.6907 170.157 88.7534 170.228 87.8203 165.55C85.8581 155.689 86.2872 145.487 86.6996 135.618C87.8036 107.157 88.0327 108.303 87.6536 108.286H87.6453C87.287 108.286 87.5953 107.12 86.3164 135.601C85.904 145.491 85.4749 155.718 87.4412 165.625C87.8078 167.462 88.2077 168.966 88.9784 170.336C89.0325 170.428 89.145 170.461 89.2408 170.407H89.245Z" fill="#C9D4F2"/>
<path d="M10.1001 155.181C10.4542 155.181 10.1418 156.23 11.5623 131.31C11.5665 131.206 11.4874 131.115 11.3832 131.11C11.2916 131.11 11.1874 131.185 11.1833 131.289C9.93767 156.143 9.71271 155.16 10.0918 155.181H10.1043H10.1001Z" fill="#C9D4F2"/>
<path d="M36.0255 142.424C36.2338 142.279 36.013 141.966 35.8089 142.112C28.9602 146.878 19.7787 148.248 11.8386 145.682C11.5887 145.611 11.4887 145.97 11.722 146.045C19.7371 148.632 29.0519 147.282 36.0255 142.424Z" fill="#C9D4F2"/>
<path d="M14.0417 136.343C14.0417 137.18 14.7166 137.855 15.5539 137.855C16.3913 137.855 17.0703 137.18 17.0703 136.343C17.0703 135.505 16.3954 134.826 15.5539 134.826C14.7124 134.826 14.0417 135.501 14.0417 136.343Z" fill="#273454"/>
<path d="M13.6199 142.266C13.6199 143.104 14.2947 143.779 15.1321 143.779C15.9694 143.779 16.6484 143.104 16.6484 142.266C16.6484 141.429 15.9736 140.75 15.1321 140.75C14.2906 140.75 13.6199 141.425 13.6199 142.266Z" fill="#273454"/>
<path d="M10.2378 114.03C11.6541 115.272 12.5915 116.834 13.8912 118.213C14.0537 122.033 13.2788 128.786 12.8248 132.593C13.987 133.197 15.6409 133.326 16.9406 133.464C20.5441 133.843 24.21 133.626 27.751 132.831C28.8258 132.589 29.9089 132.285 30.8462 131.723C30.188 119.662 29.7506 124.682 33.5457 102.362C33.8165 100.762 34.0289 98.9166 32.9625 97.6918C31.971 96.5545 30.0422 96.9045 28.9757 97.9751C28.2217 95.988 26.9636 94.1009 24.8724 93.8551C23.8601 93.7343 22.6562 94.2717 22.0896 95.1215C22.0813 93.4218 20.0317 92.3595 18.282 93.3927C17.553 93.8217 17.0198 94.4091 16.7198 95.1965C16.5824 94.2258 16.3449 93.2344 15.7283 92.4762C15.1076 91.7222 14.0162 91.2764 13.1164 91.6597C12.4415 91.9471 12.0166 92.6261 11.6791 93.2844C10.7377 95.1423 11.0209 97.7168 9.79202 99.404C9.29628 100.083 8.39228 100.32 7.75491 100.904C4.11396 104.236 6.33853 110.606 10.2419 114.034L10.2378 114.03Z" fill="#FFE5D8"/>
<path d="M10.9912 107.207C10.9912 107.207 11.012 107.207 11.0245 107.202C11.0828 107.186 11.1162 107.123 11.0953 107.065C10.3163 104.536 9.92889 101.916 9.94139 99.2707C9.94139 99.2082 9.8914 99.1582 9.82891 99.1582C9.76642 99.1582 9.7206 99.2082 9.71643 99.2665C9.70394 101.937 10.0955 104.582 10.8787 107.132C10.8954 107.177 10.937 107.211 10.9828 107.211L10.9912 107.207Z" fill="#F9CEC0"/>
<path d="M16.5045 98.8713C16.5587 94.9013 16.7128 94.7638 16.5004 94.7596C16.2879 94.7138 16.4296 95.0304 16.2838 98.863C16.2838 99.013 16.5045 99.0171 16.5087 98.8672L16.5045 98.8713Z" fill="#F9CEC0"/>
<path d="M22.3041 98.6622C22.5166 98.6581 22.3624 98.5039 22.3249 94.7089C22.3249 94.5631 22.1 94.5672 22.1 94.713L22.1875 98.5539C22.1875 98.6164 22.2416 98.6622 22.2999 98.6622H22.3041Z" fill="#F9CEC0"/>
<path d="M28.2255 101.216C28.2755 101.216 28.3255 101.179 28.3338 101.124C28.8629 98.0167 29.0462 97.8417 28.8379 97.8001C28.7629 97.7876 28.7171 97.8292 28.7088 97.8876C28.1797 100.995 27.9964 101.17 28.2047 101.212C28.213 101.212 28.2214 101.212 28.2255 101.212V101.216Z" fill="#F9CEC0"/>
<path d="M111.749 121.946C111.945 121.783 111.695 121.492 111.503 121.654C105.009 127.07 96.8312 127.945 88.4662 124.12C88.2454 124.012 88.0746 124.362 88.3079 124.466C96.4688 128.199 104.875 127.682 111.749 121.95V121.946Z" fill="#C9D4F2"/>
<path d="M107.448 112.002C107.448 112.839 108.123 113.514 108.96 113.514C109.798 113.514 110.477 112.839 110.477 112.002C110.477 111.164 109.802 110.485 108.96 110.485C108.119 110.485 107.448 111.16 107.448 112.002Z" fill="#273454"/>
<path d="M107.55 118.63C107.55 119.467 108.224 120.142 109.062 120.142C109.899 120.142 110.578 119.467 110.578 118.63C110.578 117.792 109.903 117.113 109.062 117.113C108.22 117.113 107.55 117.788 107.55 118.63Z" fill="#273454"/>
<path d="M105.918 111.023C106.038 110.952 105.922 110.769 105.809 110.844C100.798 113.947 94.3574 113.627 89.675 110.031C89.5625 109.948 89.4375 110.115 89.5458 110.198C94.1449 113.731 100.664 114.281 105.918 111.023Z" fill="#F9CEC0"/>
<path d="M30.891 131.944C31.016 131.898 30.9618 131.702 30.8202 131.744C24.8464 133.919 18.2102 134.073 12.1364 132.181C11.9989 132.144 11.9447 132.344 12.0739 132.386C18.1102 134.264 24.788 134.164 30.8952 131.944H30.891Z" fill="#F9CEC0"/>
<path d="M79.4035 178.776V194.49C81.1573 193.986 82.6487 193.469 83.8984 192.965V178.776H79.4035Z" fill="#E4F0FF"/>
<path d="M38.4113 180.088V195.314C39.9485 195.572 41.444 195.801 42.9062 196.001V180.092H38.4113V180.088Z" fill="#C9D4F2"/>
<path d="M37.5216 35.7935C36.6718 36.0207 35.5776 37.2423 34.7679 38.0458C34.4725 38.338 34.3703 38.7479 34.5016 39.1334C35.4499 41.9336 36.6171 44.6283 37.7478 47.3676C38.262 48.6095 39.017 49.0518 40.1915 49.5875C40.775 49.8554 41.4717 49.8148 42.0115 49.4861C43.4595 48.6014 44.8236 47.8141 44.3494 46.0041C43.7586 43.7598 42.8978 41.4304 42.1173 39.2268C41.8729 38.5369 41.7525 37.3356 41.1179 36.8405C40.5343 36.3819 38.2949 35.5905 37.5253 35.7975L37.5216 35.7935Z" fill="#FFE5D8"/>
<path d="M42.3396 44.031C42.5622 44.6754 42.4138 45.3651 42.0757 45.9757C40.9419 48.0372 38.1423 45.5724 38.4721 44.0687C38.8556 42.2973 41.7624 42.3727 42.3396 44.031Z" fill="#F9CEBC"/>
<path d="M41.3946 45.3156C41.5449 45.1576 41.3282 44.8995 41.1709 45.0613C40.9681 45.2771 40.65 45.4042 40.3319 45.4042C40.3214 45.4042 40.3109 45.4042 40.2969 45.4042C38.4791 45.3465 37.315 40.1446 37.9372 38.8037C38.1155 38.4145 38.4826 38.1448 38.8706 38.1178C39.2307 38.0909 39.6886 38.3567 39.6607 38.6881C39.6537 38.7845 39.7201 38.8692 39.8075 38.8769C39.811 38.8769 39.818 38.8769 39.8215 38.8769C39.9054 38.8769 39.9753 38.8076 39.9823 38.7151C40.0242 38.1333 39.388 37.721 38.8497 37.7672C38.3567 37.8057 37.8883 38.1487 37.6541 38.6457C37.4513 39.0773 37.4373 39.5589 37.4478 40.0136C37.5003 41.9865 38.5141 45.7048 40.2864 45.7626C40.664 45.778 41.101 45.6277 41.3946 45.3195V45.3156Z" fill="#F9CEC0"/>
<path d="M74.7548 32.3211C75.4963 34.9081 76.0587 37.491 76.5211 40.0946C77.296 44.4479 76.8461 48.8804 75.4588 53.1087C74.409 56.3039 72.5969 59.3325 69.8891 61.3238C63.4029 66.102 53.0674 64.3773 46.7187 55.2916C43.6026 50.8342 42.0987 45.3727 40.7198 40.1613C40.3324 39.0073 39.8242 37.8659 39.4201 36.7161L39.1701 35.9746C35.5708 24.3352 40.9281 19.7944 53.0966 17.5032C55.4253 17.0616 57.854 16.9033 60.2035 16.6825C62.5197 16.4534 65.0775 18.0281 66.9938 19.3445C69.4892 21.0442 71.6804 23.3854 72.9468 26.1682C73.7967 28.0803 74.2549 30.5215 74.7548 32.317V32.3211Z" fill="#FFE5D8"/>
<path d="M76.8104 17.9981C77.484 18.5364 77.7418 19.3419 78.0656 20.0867C79.2353 22.7581 79.4077 25.57 79.1568 28.4345C79.138 28.6552 79.0545 28.8812 78.8445 28.9211C78.5445 28.9804 78.5588 28.658 78.5218 28.4912C78.2478 27.3367 77.9172 26.2085 77.4152 25.1237C76.3947 22.9092 75.1121 20.8626 73.6806 18.9093C73.6444 18.8585 73.5606 18.8412 73.3307 18.7205C75.1329 22.607 75.8108 26.5751 75.9339 30.7642C73.4635 28.1354 71.4024 25.4061 69.9018 22.2395C68.9069 20.1435 67.4294 18.3451 65.79 16.5142C65.804 17.0653 66.1065 17.3539 66.2633 17.6966C66.4265 18.0467 66.6409 18.3711 66.8222 18.7135C68.0505 21.0238 68.8743 23.495 69.6037 25.9944C69.9689 27.2482 70.5089 28.4195 71.175 29.5115C71.6123 30.2284 71.8529 30.873 71.5517 31.6678C72.1088 32.3422 72.9972 32.3535 73.7263 32.9014C73.6914 32.2258 73.2119 31.8265 73.2249 31.1863C74.3583 32.295 74.8466 33.6192 75.0335 35.0803C75.2049 36.4163 75.2604 37.7611 75.3075 39.1042C75.3189 39.4372 75.3846 39.769 75.4232 40.1015C76.0261 39.7861 76.0316 39.1082 76.2337 38.5883C77.0546 36.4795 77.8319 34.3486 78.261 32.1088C78.312 31.8398 78.238 31.31 78.5988 31.3675C79.0012 31.4308 78.6289 31.8945 78.7146 32.1685C78.935 32.1467 79.0993 32.2424 79.2147 32.4271C80.2714 30.3554 80.4172 28.1121 80.3878 25.838C80.3833 25.4295 80.2726 25.0203 80.2544 24.6107C80.2355 24.2399 79.9552 23.6473 80.2913 23.5502C80.7065 23.4323 80.7458 24.0991 80.9566 24.4157C81.0941 24.6253 81.1541 24.8887 81.2461 25.1261C81.6779 24.9011 81.4692 24.5345 81.3998 24.239C80.6821 21.0885 79.1134 18.4252 76.8562 16.1542C76.2968 15.5935 75.7903 14.9764 75.2457 14.4027C74.9576 14.0985 74.6725 13.7746 74.0959 13.6444C74.6485 14.4354 75.1249 15.1171 75.5987 15.799C76.127 16.4604 76.6707 17.1143 76.805 17.9988L76.8104 17.9981ZM78.6976 30.7609C78.5297 30.6574 78.4782 30.5062 78.5256 30.3179C78.5722 30.3646 78.6158 30.409 78.6624 30.4557C78.7941 30.4642 78.9989 30.3614 79.0243 30.5655C79.049 30.7643 78.8228 30.7177 78.6976 30.7609ZM73.0496 31.045C73.066 31.0237 73.0827 31.005 73.0967 30.9867C73.1169 31.0173 73.1423 31.0473 73.1548 31.0817C73.1592 31.095 73.1294 31.118 73.1153 31.1364C73.0925 31.106 73.0724 31.0754 73.0492 31.0423L73.0496 31.045Z" fill="#2C3554"/>
<path d="M79.2162 32.4275C79.0981 32.2431 78.9365 32.1471 78.716 32.1689C78.8012 32.5261 78.5319 32.8996 78.7686 33.3154C78.9525 32.9995 79.2146 32.7872 79.2189 32.4272L79.2162 32.4275Z" fill="#394165"/>
<path d="M67.2152 4.15756C67.2514 4.18616 67.2878 4.21749 67.3239 4.24609C67.3343 4.21999 67.3449 4.1966 67.3556 4.17322C67.3092 4.17071 67.26 4.16854 67.2132 4.16332L67.2179 4.15723L67.2152 4.15756Z" fill="#394165"/>
<path d="M67.278 28.4254C67.2496 28.5478 67.1969 28.6704 67.1957 28.7922C67.1986 29.0351 67.2073 29.28 66.9263 29.3619C66.6642 29.4415 66.5038 29.2458 66.3442 29.0776C65.1513 27.8188 64.1702 26.4038 63.4084 24.8482C62.5919 23.1805 61.7305 21.5461 60.6883 20.0115C60.6316 19.9273 60.5823 19.8367 60.3787 19.8841C61.7249 22.7492 61.8215 26.046 63.5908 28.77C62.665 28.4566 62.0563 27.8273 61.5838 27.0236C61.9615 28.6628 62.917 29.9815 63.7858 31.3469C63.8732 31.372 64.0402 31.2711 63.9966 31.4894L63.9815 31.4774C64.0405 31.4701 64.1074 31.4397 64.1584 31.4555C64.2746 31.4935 64.1665 31.565 64.1652 31.6204L64.1535 31.6136C64.3495 31.3737 64.4999 31.6203 64.6487 31.6793C66.3507 32.3718 68.0757 32.9646 70.0986 33.0202C68.8592 31.8473 68.2289 30.4081 67.5325 29.0074C67.5124 28.9989 67.4763 28.9923 67.4746 28.9787C67.4698 28.9406 67.4758 28.9012 67.4788 28.8593C67.5024 28.6988 67.2661 28.5485 67.4575 28.381L67.4595 28.3973C67.408 28.4867 67.3491 28.494 67.2796 28.4169L67.278 28.4254ZM63.8414 29.0789C63.8696 29.1086 63.9031 29.1376 63.9266 29.1734C63.933 29.1809 63.9012 29.2318 63.8928 29.2301C63.851 29.2215 63.8131 29.2013 63.7729 29.1842C63.7956 29.1482 63.8187 29.1149 63.8414 29.0789Z" fill="#2C3554"/>
<path d="M60.288 30.2894C62.1284 29.8396 62.2097 29.7715 61.0437 28.3131C59.6231 26.5353 58.8031 24.4672 57.9412 22.4127C57.7283 21.9029 57.4542 21.5803 56.8952 21.5696C56.9587 22.0814 57.025 22.5928 57.0912 23.1043C57.5006 23.1142 57.75 23.2823 57.7846 23.7368C57.8265 24.2706 57.9081 24.7967 58.1073 25.3055C58.2189 25.5902 58.243 25.9161 57.9301 26.1346C58.504 27.6445 59.0494 29.1662 60.2903 30.2863L60.288 30.2894Z" fill="#2C3554"/>
<path d="M67.4731 28.8686C67.4698 28.9076 67.4638 28.9469 67.4689 28.9877C67.4702 28.9985 67.5066 29.0078 67.5267 29.0164C67.5099 28.9688 67.4902 28.9188 67.4734 28.8713L67.4731 28.8686Z" fill="#394165"/>
<path d="M60.2882 32.5433C60.238 32.4889 60.1875 32.4317 60.14 32.3769C60.1016 32.4396 60.0629 32.4996 60.0246 32.5623C60.0834 32.5991 60.1396 32.6362 60.1985 32.673C60.2285 32.6307 60.2582 32.5856 60.2882 32.5433Z" fill="#394165"/>
<path d="M60.1953 32.6741C60.2645 32.7069 60.3405 32.816 60.3994 32.6791C60.4101 32.6557 60.3262 32.5917 60.285 32.5444C60.255 32.5867 60.2253 32.6318 60.1953 32.6741Z" fill="#394165"/>
<path d="M65.5177 33.2903C65.5852 33.2874 65.6882 33.3077 65.7085 33.2749C65.7579 33.1915 65.6776 33.1573 65.6094 33.1327C65.5781 33.1863 65.5491 33.2367 65.5177 33.2903Z" fill="#394165"/>
<path d="M67.2809 28.4249C67.3502 28.5018 67.409 28.4945 67.4604 28.4054C67.4235 28.3272 67.3837 28.2467 67.3468 28.1685C67.3249 28.254 67.3029 28.3394 67.2809 28.4249Z" fill="#F9E9E2"/>
<path d="M63.9891 31.4928C64.0326 31.2751 63.8656 31.373 63.7787 31.3507C63.8109 31.4571 63.8658 31.5275 63.9891 31.4928Z" fill="#F9E9E2"/>
<path d="M64.166 31.6235C64.1643 31.5658 64.2724 31.4972 64.1591 31.4589C64.108 31.4404 64.0415 31.4735 63.9827 31.4808C63.9872 31.6043 64.0384 31.6669 64.1687 31.6232L64.166 31.6235Z" fill="#F9E9E2"/>
<path d="M63.9939 31.4932C63.9939 31.4932 63.9857 31.4942 63.9802 31.4949C63.9795 31.4894 63.9792 31.4867 63.9785 31.4812L63.9939 31.4932Z" fill="#394165"/>
<path d="M67.2142 4.16428C67.2142 4.16428 67.2025 4.16011 67.1966 4.15803C67.2049 4.157 67.2104 4.15631 67.2188 4.15527L67.2139 4.16151L67.2142 4.16428Z" fill="#394165"/>
<path d="M64.1651 31.6233C64.1651 31.6233 64.1598 31.624 64.1571 31.6243C64.1568 31.6216 64.1565 31.6189 64.1535 31.6165L64.1651 31.6233Z" fill="#394165"/>
<path d="M30.9612 26.4846C30.8395 22.9201 31.6325 19.6013 33.5031 16.6131C35.4423 13.5196 38.0769 11.3818 41.8603 11.0888C41.9668 11.3769 42.186 11.4989 42.4219 11.6023C42.1863 11.5016 41.9668 11.3769 41.8603 11.0888C42.5299 11.1576 42.6097 10.5949 42.8125 10.1689C42.9562 8.4566 43.8497 7.19572 45.1338 6.16551C47.0831 4.59935 49.3857 3.8849 51.7684 3.44245C55.2332 2.79651 58.7353 2.69322 62.2404 3.09542C63.9185 3.2878 65.6109 3.4867 67.196 4.15777C66.1134 4.15955 65.0288 4.145 63.9466 4.17161C62.2679 4.21427 60.6245 4.47643 59.0466 5.08981C62.8404 4.90331 66.5105 5.42875 69.9715 7.07478C73.398 8.70575 76.4783 10.8137 78.8115 13.9156C77.4392 13.008 76.1671 11.9442 74.5116 11.5168C77.2306 13.3435 79.3007 15.7068 80.6242 18.7406C82.1957 22.3462 82.3142 26.6519 81.5114 28.1834C81.5038 27.0925 81.6661 26.0773 81.2483 25.123C81.6801 24.898 81.4687 24.5317 81.402 24.2359C80.6842 21.0855 79.1156 18.4221 76.8583 16.1511C76.299 15.5904 75.7925 14.9733 75.2478 14.3996C74.9598 14.0954 74.6747 13.7715 74.0981 13.6413C74.6507 14.4324 75.1271 15.114 75.6008 15.7959C75.3947 15.9763 75.2213 16.0697 75.0626 16.0839C74.9574 16.0915 74.8562 16.0653 74.759 16.0055C74.8562 16.0653 74.9547 16.0918 75.0626 16.0839C75.2213 16.0697 75.395 15.9791 75.6008 15.7959C76.1292 16.4573 76.6729 17.1112 76.8072 17.9957C77.4808 18.534 77.7386 19.3395 78.0624 20.0843C79.2321 22.7557 79.4045 25.5676 79.1536 28.4321C79.1348 28.6528 79.0513 28.8787 78.8413 28.9186C78.5413 28.978 78.5556 28.6556 78.5186 28.4888C78.2446 27.3342 77.914 26.206 77.412 25.1213C76.3915 22.9067 75.109 20.8602 73.6774 18.9068C73.6412 18.8561 73.5574 18.8388 73.3275 18.7181C75.1297 22.6046 75.8076 26.5727 75.9307 30.7618C73.4604 28.133 71.3992 25.4037 69.8986 22.2371C68.9037 20.1411 67.4262 18.3426 65.7868 16.5118C65.8008 17.0629 66.1033 17.3515 66.2601 17.6942C66.4233 18.0443 66.6377 18.3687 66.819 18.7111C68.0473 21.0214 68.8711 23.4925 69.6005 25.992C69.9657 27.2458 70.5057 28.4171 71.1719 29.5091C71.6091 30.226 71.8497 30.8706 71.5485 31.6654C71.1215 31.7101 70.8612 31.3887 70.5551 31.1807C69.3916 30.3992 68.4137 29.4039 67.4549 28.3869L67.4569 28.4032C67.42 28.3249 67.3827 28.2438 67.3458 28.1655C67.3238 28.2512 67.3018 28.3368 67.2797 28.4225C67.2514 28.5449 67.1986 28.6675 67.1974 28.7893C67.2004 29.0322 67.2091 29.2771 66.9281 29.359C66.6659 29.4385 66.5056 29.2429 66.346 29.0747C65.1531 27.8159 64.172 26.4009 63.4102 24.8453C62.5937 23.1776 61.7323 21.5432 60.6901 20.0086C60.6334 19.9244 60.5841 19.8338 60.3805 19.8812C61.7266 22.7463 61.8232 26.043 63.5926 28.7671C62.6668 28.4537 62.0581 27.8244 61.5855 27.0207C61.9633 28.6599 62.9187 29.9786 63.7875 31.344C63.8165 31.4455 63.8708 31.5106 63.985 31.4881C63.9932 31.5977 64.0438 31.6549 64.1617 31.6182C64.4689 32.2959 65.1613 32.5914 65.6141 33.1267C65.5827 33.1804 65.5536 33.231 65.5222 33.2846C63.4677 32.8432 61.6623 31.9535 60.2904 30.283C62.1308 29.8332 62.2121 29.7651 61.0461 28.3067C59.6255 26.5288 58.8055 24.4608 57.9436 22.4063C57.7306 21.8965 57.4566 21.5739 56.8975 21.5632C56.9611 22.075 57.0273 22.5864 57.0936 23.0978C57.5029 23.1078 57.7523 23.2759 57.787 23.7304C57.8288 24.2642 57.9105 24.7903 58.1097 25.2991C58.2213 25.5838 58.2454 25.9097 57.9325 26.1282C57.6631 26.3911 57.833 26.7072 57.8628 26.991C58.0665 29.025 58.9829 30.7522 60.1498 32.3708C60.1113 32.4336 60.0725 32.4937 60.0341 32.5565C57.9007 31.3482 56.7519 29.3929 56.0636 27.115C55.496 25.2395 54.8882 23.3911 53.784 21.7509C53.2805 21.1362 52.8377 21.404 52.4845 21.8902C52.2053 22.2704 51.9267 22.3492 51.4604 22.2966C50.453 22.1812 49.552 22.4617 48.867 23.2987C48.2716 24.025 47.8384 24.8306 47.5467 25.7238C47.0627 27.2157 46.9423 28.7648 46.9119 30.3165C46.8747 32.2727 46.2591 34.0408 45.4428 35.7703C45.3765 34.6673 45.5668 33.5712 45.4191 32.6884C45.1028 33.7339 45.2055 35.1087 44.2263 36.1398C43.957 36.4248 43.8945 36.8195 43.8819 37.2219C43.8297 38.7072 44.0919 40.1618 44.3164 41.6183C44.4548 42.5133 44.3958 43.3968 44.2703 44.3135C43.4135 42.9135 42.6488 41.4882 41.9049 40.0547C41.4262 39.1357 40.8996 38.2474 40.2034 37.4825C39.5289 36.7398 38.7311 36.1865 37.6973 36.1436C36.1689 36.0819 35.484 37.0736 35.0662 38.3749C34.7979 38.3833 34.6413 38.2176 34.5355 38.0013C33.7784 36.4838 33.0491 34.9712 32.7286 33.2668C32.5517 32.324 32.5421 31.3274 32.1026 30.4394C32.0681 31.5189 32.0499 32.5992 32.1379 33.6801C31.3634 31.3438 31.0595 28.9408 30.975 26.4857L30.9612 26.4846ZM46.3593 7.5336C46.4461 7.61956 46.5035 7.70918 46.5388 7.79602C46.5032 7.70646 46.4461 7.61956 46.3593 7.5336ZM43.9837 28.2947C43.516 29.8952 43.7996 31.5655 43.5617 33.1983C44.5356 31.6427 44.606 29.9976 43.9837 28.2947Z" fill="#394165"/>
<path d="M43.5653 33.198C44.5393 31.6424 44.6097 29.9972 43.9874 28.2944C43.5196 29.8949 43.8033 31.5652 43.5653 33.198Z" fill="#2C3554"/>
<path d="M78.693 30.7601C78.8179 30.717 79.0432 30.7607 79.0189 30.5652C78.9936 30.3615 78.7892 30.4641 78.6578 30.4556C78.6703 30.5561 78.6805 30.6596 78.6903 30.7604L78.693 30.7601Z" fill="#394165"/>
<path d="M78.6921 30.7609C78.6796 30.6601 78.6694 30.5563 78.6596 30.4552C78.6129 30.4085 78.5693 30.3641 78.5227 30.3174C78.4753 30.5058 78.5268 30.657 78.6948 30.7605L78.6921 30.7609Z" fill="#1B1D28"/>
<path d="M73.0476 31.0456C73.0707 31.0785 73.0908 31.1091 73.1136 31.1394C73.1276 31.1211 73.157 31.0954 73.1529 31.0849C73.1405 31.0506 73.1151 31.0206 73.095 30.99C73.081 31.0083 73.0643 31.0269 73.048 31.0483L73.0476 31.0456Z" fill="#F9E9E2"/>
<path d="M63.8414 29.0784C63.8187 29.1143 63.7957 29.1475 63.773 29.1834C63.8131 29.2005 63.8509 29.2206 63.8927 29.2292C63.9007 29.2282 63.9327 29.1801 63.9264 29.1726C63.9029 29.1369 63.8698 29.1107 63.8414 29.0784Z" fill="#394165"/>
<path d="M71.8435 33.819C70.6593 33.1139 67.8123 32.3396 65.8974 34.8828C68.1528 34.4793 66.4608 33.3008 71.8435 33.819Z" fill="#444B68"/>
<path d="M51.8386 37.6092C52.6285 36.4799 54.9059 34.6042 57.6967 36.1361C55.4746 36.6948 56.5331 34.9252 51.8386 37.6092Z" fill="#444B68"/>
<path d="M64.4203 41.0721C65.0721 41.1671 69.9583 46.0061 65.5726 48.6952C66.346 47.4988 67.1983 44.2993 64.4203 41.0721Z" fill="#444B68"/>
<path d="M59.6898 52.2231L68.6857 50.465C68.6857 50.465 68.9147 54.0452 64.7848 54.5364C60.6549 55.0271 59.6899 52.2236 59.6899 52.2236L59.6898 52.2231Z" fill="white"/>
<path d="M69.0498 40.6668C69.7293 40.5452 70.1158 39.5287 69.9132 38.3963C69.7106 37.2639 68.9956 36.4445 68.3162 36.566C67.6367 36.6876 67.2502 37.7041 67.4528 38.8365C67.6554 39.9689 68.3704 40.7883 69.0498 40.6668Z" fill="#444B68"/>
<path d="M55.5186 43.0877C56.198 42.9661 56.5846 41.9496 56.382 40.8172C56.1794 39.6848 55.4643 38.8654 54.7849 38.9869C54.1055 39.1085 53.7189 40.125 53.9215 41.2574C54.1241 42.3898 54.8391 43.2092 55.5186 43.0877Z" fill="#444B68"/>
</svg>
