<svg width="117" height="198" viewBox="0 0 117 198" fill="none" xmlns="http://www.w3.org/2000/svg">
<path d="M73.9917 70.3683C73.9917 70.3683 72.6169 68.5186 69.2593 68.2145C65.8974 67.9104 50.8837 66.2107 48.6425 69.6559C46.4012 73.101 49.0507 79.4123 49.3548 79.9747C49.6589 80.5371 50.5754 83.3365 55.462 83.1824C60.3485 83.0283 71.0381 79.0082 72.1587 77.7335C73.2793 76.4587 74.654 72.322 73.9917 70.3683Z" fill="#273454"/>
<path d="M75.7594 75.134C75.7594 75.134 72.485 73.6551 70.4771 73.5468C68.4733 73.4385 48.3606 75.109 46.6526 75.738C44.9446 76.3671 44.0781 79.9664 44.0781 80.6037C44.0781 81.2411 44.6738 85.0362 51.0726 85.7402C57.4672 86.4442 63.216 87.8523 67.7693 87.6898C72.3226 87.5274 78.0173 87.3649 77.7715 82.7033C77.5257 78.0417 75.7594 75.1298 75.7594 75.1298V75.134Z" fill="#273454"/>
<path d="M57.559 143.795C44.7365 147.062 36.6631 141.925 37.4171 128.394C37.6796 123.758 38.7085 119.113 38.1128 114.501C37.3546 108.644 34.0428 103.433 32.5889 97.7087C31.6682 94.0928 31.7099 89.727 33.5595 86.3943C35.9882 82.0201 39.3334 82.845 43.3909 81.1245C45.8238 80.0955 48.29 77.0794 49.6814 74.8674C52.56 70.3141 53.439 64.032 52.9224 58.8664C52.8099 57.2708 52.535 55.7086 52.0934 54.1881C52.3808 54.2173 52.6641 54.2506 52.9557 54.2798C59.846 54.9796 64.9492 54.2964 65.6282 54.2714C67.2696 54.1631 67.3029 54.4047 69.7108 52.0843C70.369 51.4511 70.998 50.7804 71.5896 50.0764C72.0645 49.5099 72.9518 48.685 73.1768 47.9727C72.3103 50.7055 71.6437 53.5049 71.173 56.3335C70.6772 59.3579 70.0982 62.7364 70.9064 66.0191C70.998 66.2941 72.4436 77.8293 82.2666 85.157C88.1405 89.5478 92.6937 93.4679 93.4811 101.354C95.0141 116.734 80.3337 137.992 57.5631 143.8L57.559 143.795Z" fill="#FFE5D8"/>
<path d="M73.1811 47.9683C72.3146 50.7011 71.6481 53.5005 71.1774 56.3291C71.0107 57.3414 70.8358 58.3746 70.7066 59.416C66.9615 65.1941 61.3793 68.3476 54.8597 70.5805C53.7558 70.9554 52.5977 71.5261 51.4062 71.4012C52.8393 67.6769 53.2809 62.8362 52.9518 58.862C54.3473 59.2994 55.7971 59.591 57.2551 59.7201C58.4215 59.8243 60.2503 60.1492 61.2418 59.4535C63.1123 58.1413 64.4287 56.1875 65.6368 54.2629C67.2781 54.1546 67.3115 54.3962 69.7193 52.0758C70.3775 51.4426 71.0066 50.7719 71.5981 50.0679C72.073 49.5013 72.9604 48.6765 73.1853 47.9641L73.1811 47.9683Z" fill="#F9CEBC"/>
<path d="M27.9903 179.063C27.7445 181.655 27.5737 183.179 27.5737 183.179C27.5737 192.048 97.0101 192.048 97.0101 183.179C96.9809 177.901 96.6143 110.519 96.9101 105.086C97.2142 99.4874 102.205 87.6772 102.205 87.6772L78.2804 78.9206L74.0063 70.3681C72.2774 77.1918 65.4538 83.7072 65.4538 83.7072L59.6507 88.3896C59.6507 88.3896 58.0219 87.4731 55.3766 85.1319C52.7313 82.7907 48.6571 69.6558 48.6571 69.6558L42.2417 78.4124C31.5521 79.0248 21.0625 86.2525 21.0625 86.2525C21.0625 86.2525 25.3367 106.411 28.5985 125.757C30.7231 138.384 29.64 158.988 28.6318 171.782C28.4069 174.668 28.1819 177.16 27.9986 179.068L27.9903 179.063Z" fill="#E4F0FF"/>
<path d="M68.437 172.065C64.7294 178.693 60.8135 185.029 55.1562 190.207C66.4124 188.295 77.881 187.645 89.2787 188.274C81.5802 161.967 81.6219 173.256 80.0597 156.584C79.8306 154.122 79.3557 151.56 79.3557 149.09C76.2521 157.051 72.5528 164.695 68.4328 172.065H68.437Z" fill="#C9D4F2"/>
<path d="M48.8245 84.7945L54.6525 88.8937L57.2978 88.148L54.2776 84.8445C52.178 84.2613 50.3658 84.3404 48.8203 84.7945H48.8245Z" fill="#305FAD"/>
<path d="M61.4062 88.6605L62.4935 91.7141L72.0333 87.7982C70.2212 86.086 68.0091 84.6321 65.6637 84.553L61.4104 88.6605H61.4062Z" fill="#305FAD"/>
<path d="M76.5516 93.8676C74.1437 89.7268 69.2863 84.0404 64.5622 84.8069C64.304 84.8361 64.2623 84.4695 64.5039 84.432C69.2946 83.678 73.9937 88.9894 76.5349 93.0886C79.4218 87.3189 78.1054 79.0331 78.0929 78.9497C78.0513 78.6956 78.4304 78.6456 78.4678 78.8873C78.4845 78.9747 79.8676 87.673 76.7182 93.5677L76.5557 93.8718L76.5516 93.8676Z" fill="#C9D4F2"/>
<path d="M41.7188 92.0805L41.9395 78.9165C41.9395 78.8123 42.027 78.729 42.1312 78.729C42.2353 78.729 42.3186 78.8165 42.3186 78.9206L42.127 90.3267C44.8056 85.5902 49.3922 83.0907 54.6037 84.7403C54.8412 84.8153 54.7329 85.1777 54.4912 85.1028C54.3288 85.0778 51.8043 84.1071 48.8757 84.9736C44.2766 86.3317 42.1187 91.1599 42.0978 91.2099L41.7188 92.0805Z" fill="#C9D4F2"/>
<path d="M61.4091 88.6603L57.3016 88.1521L54.6562 88.8978L55.9768 95.7506L61.1716 97.042L62.4964 91.7139L61.4091 88.6603Z" fill="#426FC4"/>
<path d="M61.1694 97.0421C61.1694 97.0421 63.8147 107.123 63.6147 113.331C63.4106 119.542 66.3017 172.844 66.3017 172.844L57.2952 183.546L51.1797 171.994L52.7419 115.722C52.8544 106.432 54.9664 100.687 55.9787 95.7507L61.1694 97.0421Z" fill="#426FC4"/>
<path d="M52.4222 142.437C52.0473 142.433 52.3097 143.566 52.5513 115.718C52.6638 106.394 54.7926 100.6 55.7924 95.7048C55.8507 95.4632 56.2214 95.5465 56.1631 95.7923C55.1675 100.641 53.0429 106.44 52.9304 115.722C52.5055 143.654 52.793 142.437 52.4222 142.437Z" fill="#305FAD"/>
<path d="M61.2148 96.6548C59.0944 96.3674 55.7617 95.9175 55.945 95.9424C55.7034 95.9091 55.7367 95.5425 55.995 95.5634L61.2398 96.2757C61.344 96.2882 61.4189 96.384 61.4023 96.4882C61.3898 96.584 61.3065 96.6548 61.2148 96.6548Z" fill="#305FAD"/>
<path d="M97.2098 190.844C90.307 192.873 83.9666 194.319 78.1594 195.31C63.783 197.731 46.1032 198.372 32.6683 192.965C29.4981 191.715 27.9734 190.649 27.9734 190.649L27.7734 181.275C76.5972 192.028 96.6682 180.888 96.9932 180.863L97.2056 190.844H97.2098Z" fill="#64677A"/>
<path d="M111.83 126.39C111.58 130.236 111.609 133.639 111.018 137.567C109.897 145.008 108.781 152.448 107.66 159.888C106.823 165.462 104.707 171.894 102.065 176.851C92.5965 194.602 69.6385 184.333 76.7871 157.384C77.7036 153.931 78.0035 150.257 78.6701 146.707C80.1573 138.78 82.536 131.19 83.8149 123.229C85.977 126.695 85.2146 131.798 88.3473 134.006C89.7971 135.03 91.78 135.076 93.4505 134.481C95.1252 133.885 96.5332 132.718 97.7788 131.456C99.1619 130.052 101.545 127.74 102.103 125.799C102.765 123.487 101.832 119.846 101.682 117.438C101.541 115.151 101.395 112.847 101.553 110.56C101.711 108.257 96.9498 106.294 96.8998 104.057C96.779 98.9125 101.041 92.8137 100.299 87.7189C106.69 87.0857 113.217 91.5848 115.492 97.5878C119.141 107.232 112.38 117.884 111.834 126.386L111.83 126.39Z" fill="#E4F0FF"/>
<path d="M109.498 108.311C104.312 110.294 100.879 115.434 101.841 123.162C102.112 125.345 102.5 128.282 103.587 130.202C104.591 129.619 104.562 126.511 104.766 125.432C105.699 120.542 106.965 115.714 108.553 110.998C108.682 110.619 109.161 108.444 109.494 108.315L109.498 108.311Z" fill="#C9D4F2"/>
<path d="M76.606 157.334C77.5142 153.914 77.8224 150.219 78.4848 146.67C79.2805 142.437 80.3678 138.147 81.4217 133.764C82.1008 130.91 82.1591 126.815 84.5461 124.682C85.7209 123.637 87.4247 123.108 89.366 123.187C91.074 123.262 92.7195 123.774 94.3109 124.27C94.5525 124.345 94.44 124.712 94.1984 124.632C92.632 124.145 91.0115 123.641 89.3493 123.57C87.5289 123.491 85.9 123.987 84.8002 124.966C82.5298 126.995 82.4632 131.052 81.7925 133.852C80.8135 137.947 79.6846 142.362 78.8639 146.736C78.2015 150.261 77.8974 153.977 76.9809 157.43C75.977 161.217 75.527 165.141 75.6853 168.786C76.1478 179.48 82.7881 185.496 89.5368 185.496C95.2357 185.466 99.664 180.963 101.909 176.76C104.517 171.869 106.65 165.395 107.483 159.859C107.521 159.613 107.896 159.663 107.862 159.917C107.025 165.495 104.871 172.015 102.247 176.939C92.6695 194.894 69.4199 184.479 76.6185 157.334H76.606Z" fill="#C9D4F2"/>
<path d="M103.744 132.593C102.581 133.197 100.928 133.327 99.6278 133.464C96.0243 133.843 92.3584 133.627 88.8174 132.831C87.2094 132.468 85.4972 131.935 84.4475 130.644C83.7976 129.856 83.4227 128.852 83.5976 127.865C84.0392 125.37 88.8008 124.999 91.3211 124.812C93.6456 124.637 96.0077 124.887 98.2406 125.561C99.732 126.011 101.673 126.228 103.127 127.057C104.014 127.503 104.777 128.386 105.048 129.548C105.427 131.152 104.777 132.056 103.739 132.593H103.744Z" fill="#273454"/>
<path d="M6.6328 106.453C6.6328 106.453 6.69112 103.649 17.7056 105.345C28.7201 107.04 28.8868 106.357 28.9284 108.477C28.9701 110.598 26.0915 117.796 26.0915 117.796C26.0915 117.796 18.8054 121.017 17.8764 121.183C16.9433 121.354 8.16999 120.342 7.62427 119.234C7.44097 118.859 6.32036 111.681 6.6328 106.449V106.453Z" fill="#273454"/>
<path d="M8.6971 99.475C9.93019 100.779 10.6759 102.345 11.784 103.766C11.6715 105.911 11.1591 109.015 10.5592 112.106C10.2093 113.906 9.83021 115.701 9.48445 117.297C10.5301 117.971 12.0881 118.242 13.3045 118.492C16.6872 119.171 20.1782 119.3 23.6025 118.863C24.644 118.73 25.6979 118.538 26.6352 118.088C27.0935 106.599 26.2312 111.319 31.8259 90.506C32.2258 89.0146 32.5924 87.2858 31.6926 86.0277C30.8552 84.8612 28.9973 85.0195 27.8892 85.936C27.3518 83.9864 26.3311 82.0826 24.369 81.6619C23.4192 81.4577 22.2319 81.8577 21.6154 82.6117C21.6862 81.8118 21.1988 81.0162 20.4906 80.6371C19.0826 79.8914 17.2413 80.7412 16.5247 82.1993C16.4831 81.2703 16.3456 80.308 15.829 79.5331C15.3083 78.7624 14.3168 78.2417 13.4295 78.525C12.763 78.7374 12.3006 79.3415 11.9215 79.9372C10.8633 81.6119 10.8967 84.078 9.58443 85.5694C9.0512 86.1693 8.17637 86.3109 7.51817 86.8067C3.7689 89.6395 5.3061 95.8716 8.6971 99.475Z" fill="#FFE5D8"/>
<path d="M10.0286 93.0805C9.97856 93.0805 9.93274 93.0471 9.92441 92.9971C9.41201 90.5101 9.2787 87.969 9.52865 85.4403C9.53282 85.3861 9.57864 85.3445 9.6328 85.3445C9.6328 85.3445 9.64113 85.3445 9.6453 85.3445C9.70362 85.3486 9.74528 85.4028 9.74111 85.4611C9.49116 87.9648 9.62447 90.4851 10.1327 92.9513C10.1452 93.0096 10.1077 93.0638 10.0494 93.0763C10.0452 93.0763 10.0369 93.0763 10.0286 93.0763V93.0805Z" fill="#F9CEC0"/>
<path d="M15.8865 85.7652C15.8865 85.7652 15.8781 85.7652 15.874 85.7652C15.8156 85.7569 15.774 85.7069 15.7823 85.6486C16.2739 81.9701 16.1531 81.7369 16.3572 81.7785C16.5613 81.8035 16.3947 81.9451 15.9948 85.6736C15.9864 85.7277 15.9448 85.7652 15.8906 85.7652H15.8865Z" fill="#F9CEC0"/>
<path d="M21.4065 85.8818C21.4898 84.7071 21.5731 83.5323 21.6564 82.3575L21.6648 82.2367C21.6689 82.1784 21.7064 82.1326 21.7773 82.1367C21.8356 82.1409 21.8814 82.1909 21.8772 82.2492L21.8689 82.37C21.7856 83.5448 21.7023 84.7196 21.619 85.8943C21.6065 86.036 21.3982 86.0193 21.4065 85.8777V85.8818Z" fill="#F9CEC0"/>
<path d="M26.8015 88.8104C27.6846 85.8651 27.5763 85.7318 27.7804 85.7651C27.9721 85.8235 27.7804 85.9693 27.0056 88.8687C26.9681 89.002 26.764 88.9478 26.8015 88.8104Z" fill="#F9CEC0"/>
<path d="M6.61653 106.411C6.67485 106.561 5.15848 111.977 4.95852 113.272C4.24616 117.959 3.21303 124.72 0.621873 141.729C-1.53187 155.868 1.75498 172.744 12.8945 176.493C20.5513 179.072 27.5208 172.715 28.9413 165.583C31.4075 153.189 30.3119 141.467 28.9246 108.473C26.7917 110.256 24.9629 111.877 22.3093 112.718C19.6556 113.56 16.7145 113.668 14.1234 112.664C11.5281 111.66 7.2664 109.111 6.61653 106.407V106.411Z" fill="#E4F0FF"/>
<path d="M27.3253 170.407C26.8796 170.157 27.8169 170.228 28.7501 165.549C30.7122 155.689 30.2831 145.487 29.8707 135.618C28.7667 107.157 28.5376 108.302 28.9167 108.286H28.925C29.2833 108.286 28.975 107.119 30.2539 135.601C30.6663 145.491 31.0954 155.718 29.1291 165.624C28.7625 167.462 28.3626 168.965 27.5919 170.336C27.5378 170.428 27.4253 170.461 27.3295 170.407H27.3253Z" fill="#C9D4F2"/>
<path d="M106.47 155.181C106.116 155.181 106.429 156.23 105.008 131.31C105.004 131.206 105.083 131.115 105.187 131.11C105.279 131.11 105.383 131.185 105.387 131.289C106.633 156.143 106.858 155.16 106.479 155.181H106.466H106.47Z" fill="#C9D4F2"/>
<path d="M80.5448 142.425C80.3365 142.279 80.5573 141.966 80.7614 142.112C87.6101 146.878 96.7916 148.249 104.732 145.682C104.982 145.612 105.082 145.97 104.848 146.045C96.8333 148.632 87.5184 147.282 80.5448 142.425Z" fill="#C9D4F2"/>
<path d="M102.529 136.343C102.529 137.18 101.854 137.855 101.016 137.855C100.179 137.855 99.5 137.18 99.5 136.343C99.5 135.505 100.175 134.826 101.016 134.826C101.858 134.826 102.529 135.501 102.529 136.343Z" fill="#273454"/>
<path d="M102.95 142.267C102.95 143.104 102.276 143.779 101.438 143.779C100.601 143.779 99.9219 143.104 99.9219 142.267C99.9219 141.429 100.597 140.75 101.438 140.75C102.28 140.75 102.95 141.425 102.95 142.267Z" fill="#273454"/>
<path d="M106.333 114.031C104.916 115.272 103.979 116.834 102.679 118.213C102.517 122.033 103.291 128.786 103.746 132.594C102.583 133.198 100.929 133.327 99.6297 133.464C96.0262 133.843 92.3603 133.627 88.8193 132.831C87.7445 132.589 86.6614 132.285 85.7241 131.723C86.3823 119.663 86.8197 124.683 83.0246 102.362C82.7538 100.762 82.5414 98.9168 83.6079 97.6921C84.5993 96.5548 86.5281 96.9047 87.5946 97.9753C88.3486 95.9882 89.6067 94.1011 91.6979 93.8553C92.7102 93.7345 93.9142 94.2719 94.4807 95.1217C94.489 93.4221 96.5386 92.3598 98.2883 93.3929C99.0173 93.822 99.5505 94.4094 99.8505 95.1967C99.988 94.2261 100.225 93.2346 100.842 92.4764C101.463 91.7224 102.554 91.2767 103.454 91.6599C104.129 91.9474 104.554 92.6264 104.891 93.2846C105.833 95.1426 105.549 97.7171 106.778 99.4042C107.274 100.083 108.178 100.321 108.815 100.904C112.456 104.237 110.232 110.606 106.328 114.035L106.333 114.031Z" fill="#FFE5D8"/>
<path d="M105.579 107.207C105.579 107.207 105.558 107.207 105.546 107.202C105.487 107.186 105.454 107.123 105.475 107.065C106.254 104.536 106.641 101.916 106.629 99.2707C106.629 99.2082 106.679 99.1582 106.741 99.1582C106.804 99.1582 106.85 99.2082 106.854 99.2665C106.866 101.937 106.475 104.582 105.692 107.132C105.675 107.177 105.633 107.211 105.587 107.211L105.579 107.207Z" fill="#F9CEC0"/>
<path d="M100.066 98.8708C100.012 94.9008 99.8575 94.7633 100.07 94.7591C100.282 94.7133 100.141 95.0299 100.287 98.8625C100.287 99.0125 100.066 99.0166 100.062 98.8667L100.066 98.8708Z" fill="#F9CEC0"/>
<path d="M94.2662 98.6627C94.0538 98.6586 94.2079 98.5044 94.2454 94.7093C94.2454 94.5635 94.4703 94.5677 94.4703 94.7135L94.3829 98.5544C94.3829 98.6169 94.3287 98.6627 94.2704 98.6627H94.2662Z" fill="#F9CEC0"/>
<path d="M88.3448 101.216C88.2948 101.216 88.2448 101.179 88.2365 101.125C87.7074 98.0169 87.5241 97.842 87.7324 97.8003C87.8074 97.7878 87.8532 97.8295 87.8616 97.8878C88.3906 100.996 88.5739 101.17 88.3656 101.212C88.3573 101.212 88.349 101.212 88.3448 101.212V101.216Z" fill="#F9CEC0"/>
<path d="M4.82119 121.945C4.6254 121.783 4.87535 121.491 5.06698 121.654C11.5615 127.07 19.7391 127.944 28.1041 124.12C28.3249 124.012 28.4957 124.362 28.2624 124.466C20.1015 128.198 11.6948 127.682 4.82119 121.95V121.945Z" fill="#C9D4F2"/>
<path d="M9.12232 112.002C9.12232 112.839 8.44745 113.514 7.61012 113.514C6.77278 113.514 6.09375 112.839 6.09375 112.002C6.09375 111.164 6.76862 110.485 7.61012 110.485C8.45162 110.485 9.12232 111.16 9.12232 112.002Z" fill="#273454"/>
<path d="M9.02076 118.629C9.02076 119.467 8.34589 120.142 7.50856 120.142C6.67122 120.142 5.99219 119.467 5.99219 118.629C5.99219 117.792 6.66706 117.113 7.50856 117.113C8.35006 117.113 9.02076 117.788 9.02076 118.629Z" fill="#273454"/>
<path d="M10.6527 111.023C10.5319 110.952 10.6485 110.769 10.761 110.844C15.7725 113.947 22.2129 113.626 26.8953 110.031C27.0078 109.948 27.1328 110.115 27.0245 110.198C22.4254 113.731 15.9058 114.28 10.6527 111.023Z" fill="#F9CEC0"/>
<path d="M85.6793 131.944C85.5543 131.898 85.6085 131.702 85.7501 131.744C91.7239 133.918 98.3601 134.072 104.434 132.181C104.571 132.143 104.626 132.343 104.496 132.385C98.4601 134.264 91.7823 134.164 85.6751 131.944H85.6793Z" fill="#F9CEC0"/>
<path d="M37.1668 178.776V194.49C35.413 193.986 33.9216 193.469 32.6719 192.965V178.776H37.1668Z" fill="#E4F0FF"/>
<path d="M78.159 180.088V195.315C76.6218 195.573 75.1263 195.802 73.6641 196.002V180.093H78.159V180.088Z" fill="#C9D4F2"/>
<path d="M79.0487 35.7932C79.8985 36.0205 80.9927 37.242 81.8024 38.0456C82.0979 38.3377 82.2 38.7476 82.0687 39.1332C81.1204 41.9334 79.9532 44.6281 78.8226 47.3674C78.3083 48.6092 77.5533 49.0516 76.3788 49.5873C75.7953 49.8551 75.0986 49.8145 74.5588 49.4858C73.1108 48.6011 71.7467 47.8138 72.2209 46.0038C72.8118 43.7596 73.6725 41.4302 74.4531 39.2265C74.6974 38.5366 74.8178 37.3354 75.4524 36.8402C76.036 36.3817 78.2755 35.5903 79.045 35.7973L79.0487 35.7932Z" fill="#FFE5D8"/>
<path d="M74.2307 44.0307C74.0081 44.6752 74.1565 45.3649 74.4946 45.9754C75.6284 48.0369 78.428 45.5722 78.0982 44.0684C77.7147 42.2971 74.808 42.3725 74.2307 44.0307Z" fill="#F9CEBC"/>
<path d="M75.1757 45.3154C75.0254 45.1574 75.2421 44.8992 75.3994 45.0611C75.6022 45.2768 75.9203 45.404 76.2384 45.404C76.2489 45.404 76.2594 45.404 76.2734 45.404C78.0912 45.3462 79.2553 40.1444 78.6331 38.8035C78.4548 38.4143 78.0877 38.1446 77.6997 38.1176C77.3396 38.0906 76.8817 38.3565 76.9096 38.6879C76.9166 38.7842 76.8502 38.869 76.7628 38.8767C76.7593 38.8767 76.7523 38.8767 76.7488 38.8767C76.6649 38.8767 76.595 38.8073 76.588 38.7148C76.5461 38.133 77.1823 37.7207 77.7207 37.767C78.2136 37.8055 78.682 38.1484 78.9162 38.6455C79.119 39.0771 79.133 39.5587 79.1225 40.0134C79.07 41.9862 78.0563 45.7046 76.2839 45.7624C75.9063 45.7778 75.4694 45.6275 75.1757 45.3192V45.3154Z" fill="#F9CEC0"/>
<path d="M41.8155 32.3216C41.074 34.9086 40.5116 37.4914 40.0492 40.0951C39.2743 44.4484 39.7242 48.8809 41.1115 53.1092C42.1613 56.3044 43.9734 59.333 46.6812 61.3243C53.1674 66.1025 63.5029 64.3778 69.8517 55.2921C72.9677 50.8347 74.4716 45.3732 75.8505 40.1618C76.2379 39.0078 76.7461 37.8664 77.1502 36.7166L77.4002 35.9751C80.9995 24.3357 75.6422 19.7949 63.4737 17.5037C61.145 17.0621 58.7163 16.9038 56.3668 16.683C54.0506 16.4539 51.4928 18.0286 49.5765 19.345C47.0811 21.0447 44.8899 23.3859 43.6235 26.1687C42.7736 28.0808 42.3154 30.522 41.8155 32.3175V32.3216Z" fill="#FFE5D8"/>
<path d="M39.7677 17.9983C39.0942 18.5366 38.8363 19.3421 38.5126 20.087C37.3428 22.7584 37.1704 25.5703 37.4213 28.4347C37.4402 28.6554 37.5236 28.8814 37.7336 28.9213C38.0337 28.9807 38.0193 28.6583 38.0563 28.4915C38.3303 27.3369 38.6609 26.2087 39.1629 25.1239C40.1834 22.9094 41.466 20.8629 42.8975 18.9095C42.9337 18.8587 43.0175 18.8415 43.2474 18.7208C41.4452 22.6073 40.7673 26.5754 40.6442 30.7644C43.1146 28.1357 45.1757 25.4064 46.6763 22.2398C47.6712 20.1437 49.1488 18.3453 50.7882 16.5145C50.7741 17.0656 50.4717 17.3542 50.3148 17.6968C50.1516 18.047 49.9372 18.3714 49.756 18.7137C48.5277 21.0241 47.7038 23.4952 46.9744 25.9947C46.6092 27.2485 46.0692 28.4197 45.4031 29.5118C44.9658 30.2287 44.7252 30.8733 45.0264 31.6681C44.4693 32.3424 43.581 32.3537 42.8518 32.9017C42.8868 32.226 43.3662 31.8267 43.3532 31.1866C42.2198 32.2952 41.7316 33.6194 41.5446 35.0806C41.3733 36.4165 41.3178 37.7613 41.2707 39.1044C41.2592 39.4374 41.1935 39.7693 41.1549 40.1017C40.5521 39.7863 40.5465 39.1084 40.3444 38.5885C39.5236 36.4798 38.7462 34.3488 38.3171 32.109C38.2661 31.8401 38.3401 31.3103 37.9793 31.3677C37.5769 31.4311 37.9492 31.8947 37.8635 32.1688C37.6431 32.1469 37.4789 32.2426 37.3634 32.4273C36.3067 30.3556 36.1609 28.1123 36.1903 25.8383C36.1948 25.4297 36.3055 25.0206 36.3237 24.611C36.3426 24.2401 36.623 23.6475 36.2868 23.5505C35.8716 23.4325 35.8323 24.0994 35.6216 24.4159C35.484 24.6255 35.4241 24.889 35.332 25.1263C34.9002 24.9013 35.1089 24.5347 35.1783 24.2393C35.8961 21.0888 37.4647 18.4255 39.722 16.1545C40.2813 15.5937 40.7878 14.9766 41.3325 14.403C41.6205 14.0988 41.9056 13.7748 42.4822 13.6447C41.9296 14.4357 41.4532 15.1173 40.9795 15.7993C40.4511 16.4606 39.9074 17.1146 39.7731 17.999L39.7677 17.9983ZM37.8805 30.7612C38.0485 30.6576 38.0999 30.5065 38.0525 30.3181C38.0059 30.3649 37.9623 30.4092 37.9157 30.4559C37.7841 30.4645 37.5792 30.3616 37.5538 30.5658C37.5292 30.7645 37.7553 30.718 37.8805 30.7612ZM43.5286 31.0453C43.5122 31.0239 43.4954 31.0052 43.4814 30.9869C43.4613 31.0176 43.4358 31.0476 43.4233 31.082C43.419 31.0952 43.4488 31.1183 43.4628 31.1366C43.4856 31.1063 43.5057 31.0756 43.5289 31.0426L43.5286 31.0453Z" fill="#2C3554"/>
<path d="M37.3619 32.427C37.48 32.2426 37.6417 32.1466 37.8621 32.1684C37.7769 32.5256 38.0462 32.8992 37.8095 33.3149C37.6256 32.999 37.3635 32.7867 37.3592 32.4267L37.3619 32.427Z" fill="#394165"/>
<path d="M49.3551 4.1578C49.319 4.18641 49.2825 4.21773 49.2464 4.24634C49.236 4.22024 49.2254 4.19685 49.2147 4.17346C49.2612 4.17096 49.3103 4.16879 49.3571 4.16357L49.3524 4.15747L49.3551 4.1578Z" fill="#394165"/>
<path d="M49.2923 28.4252C49.3207 28.5475 49.3735 28.6702 49.3747 28.792C49.3717 29.0349 49.363 29.2798 49.644 29.3617C49.9061 29.4412 50.0665 29.2455 50.2261 29.0774C51.419 27.8186 52.4001 26.4036 53.1619 24.848C53.9784 23.1803 54.8398 21.5458 55.882 20.0112C55.9387 19.9271 55.988 19.8365 56.1916 19.8839C54.8455 22.749 54.7489 26.0457 52.9795 28.7698C53.9053 28.4563 54.514 27.8271 54.9865 27.0233C54.6088 28.6626 53.6533 29.9813 52.7846 31.3467C52.6971 31.3718 52.5301 31.2709 52.5737 31.4891L52.5888 31.4772C52.5298 31.4699 52.4629 31.4394 52.412 31.4552C52.2957 31.4933 52.4038 31.5648 52.4051 31.6202L52.4168 31.6134C52.2208 31.3734 52.0705 31.6201 51.9217 31.679C50.2196 32.3715 48.4946 32.9644 46.4717 33.02C47.7111 31.8471 48.3414 30.4078 49.0378 29.0072C49.0579 28.9986 49.0941 28.9921 49.0958 28.9785C49.1005 28.9404 49.0945 28.9009 49.0915 28.8591C49.0679 28.6986 49.3043 28.5483 49.1129 28.3808L49.1108 28.3971C49.1623 28.4864 49.2213 28.4937 49.2907 28.4167L49.2923 28.4252ZM52.7289 29.0787C52.7007 29.1083 52.6672 29.1374 52.6437 29.1731C52.6373 29.1806 52.6691 29.2316 52.6775 29.2298C52.7194 29.2212 52.7572 29.2011 52.7975 29.1839C52.7747 29.1479 52.7516 29.1147 52.7289 29.0787Z" fill="#2C3554"/>
<path d="M56.2901 30.2891C54.4497 29.8394 54.3684 29.7713 55.5344 28.3128C56.955 26.535 57.775 24.467 58.6369 22.4124C58.8499 21.9026 59.1239 21.5801 59.683 21.5694C59.6194 22.0811 59.5531 22.5926 59.4869 23.104C59.0776 23.114 58.8282 23.282 58.7935 23.7366C58.7517 24.2704 58.67 24.7965 58.4708 25.3052C58.3592 25.5899 58.3351 25.9159 58.648 26.1344C58.0742 27.6442 57.5288 29.1659 56.2878 30.2861L56.2901 30.2891Z" fill="#2C3554"/>
<path d="M49.1051 28.8683C49.1084 28.9073 49.1143 28.9467 49.1093 28.9874C49.1079 28.9983 49.0715 29.0076 49.0514 29.0161C49.0682 28.9685 49.088 28.9186 49.1047 28.871L49.1051 28.8683Z" fill="#394165"/>
<path d="M56.2821 32.5435C56.3323 32.4891 56.3828 32.4319 56.4303 32.3772C56.4687 32.4399 56.5074 32.4998 56.5457 32.5625C56.4869 32.5993 56.4307 32.6365 56.3718 32.6733C56.3418 32.6309 56.3121 32.5859 56.2821 32.5435Z" fill="#394165"/>
<path d="M56.3751 32.6741C56.3058 32.7069 56.2299 32.816 56.1709 32.6791C56.1602 32.6557 56.2442 32.5917 56.2853 32.5444C56.3153 32.5867 56.345 32.6318 56.3751 32.6741Z" fill="#394165"/>
<path d="M51.0604 33.2903C50.9929 33.2874 50.89 33.3077 50.8696 33.2749C50.8202 33.1915 50.9005 33.1573 50.9687 33.1327C51 33.1863 51.0291 33.2367 51.0604 33.2903Z" fill="#394165"/>
<path d="M49.2972 28.4246C49.2279 28.5015 49.1691 28.4942 49.1177 28.4051C49.1546 28.327 49.1945 28.2464 49.2313 28.1683C49.2533 28.2537 49.2752 28.3392 49.2972 28.4246Z" fill="#F9E9E2"/>
<path d="M52.5812 31.4923C52.5377 31.2746 52.7047 31.3725 52.7916 31.3503C52.7594 31.4566 52.7045 31.527 52.5812 31.4923Z" fill="#F9E9E2"/>
<path d="M52.4121 31.6233C52.4139 31.5656 52.3057 31.497 52.419 31.4586C52.4702 31.4402 52.5366 31.4732 52.5954 31.4805C52.5909 31.6041 52.5397 31.6667 52.4095 31.6229L52.4121 31.6233Z" fill="#F9E9E2"/>
<path d="M52.5842 31.4929C52.5842 31.4929 52.5924 31.494 52.5979 31.4946C52.5986 31.4892 52.5989 31.4864 52.5996 31.4809L52.5842 31.4929Z" fill="#394165"/>
<path d="M49.3639 4.16404C49.3639 4.16404 49.3757 4.15987 49.3816 4.15778C49.3732 4.15675 49.3677 4.15606 49.3594 4.15503L49.3642 4.16127L49.3639 4.16404Z" fill="#394165"/>
<path d="M52.4131 31.6235C52.4131 31.6235 52.4184 31.6242 52.421 31.6245C52.4213 31.6218 52.4217 31.6192 52.4246 31.6168L52.4131 31.6235Z" fill="#394165"/>
<path d="M85.6169 26.4846C85.7386 22.9201 84.9456 19.6013 83.075 16.6131C81.1358 13.5196 78.5012 11.3818 74.7179 11.0888C74.6113 11.3769 74.3921 11.4989 74.1562 11.6023C74.3918 11.5016 74.6113 11.3769 74.7179 11.0888C74.0482 11.1576 73.9685 10.5949 73.7656 10.1689C73.6219 8.4566 72.7284 7.19572 71.4443 6.16551C69.495 4.59935 67.1924 3.8849 64.8097 3.44245C61.345 2.79651 57.8428 2.69322 54.3377 3.09542C52.6597 3.2878 50.9672 3.4867 49.3821 4.15777C50.4647 4.15955 51.5493 4.145 52.6315 4.17161C54.3103 4.21427 55.9536 4.47643 57.5315 5.08981C53.7377 4.90331 50.0676 5.42875 46.6066 7.07478C43.1801 8.70575 40.0998 10.8137 37.7666 13.9156C39.1389 13.008 40.411 11.9442 42.0665 11.5168C39.3476 13.3435 37.2775 15.7068 35.9539 18.7406C34.3825 22.3462 34.2639 26.6519 35.0667 28.1834C35.0743 27.0925 34.912 26.0773 35.3298 25.123C34.898 24.898 35.1095 24.5317 35.1761 24.2359C35.8939 21.0855 37.4626 18.4221 39.7198 16.1511C40.2792 15.5904 40.7856 14.9733 41.3303 14.3996C41.6184 14.0954 41.9035 13.7715 42.4801 13.6413C41.9275 14.4324 41.451 15.114 40.9773 15.7959C41.1834 15.9763 41.3568 16.0698 41.5156 16.0839C41.6207 16.0915 41.7219 16.0653 41.8191 16.0055C41.7219 16.0653 41.6234 16.0918 41.5156 16.0839C41.3568 16.0698 41.1831 15.9791 40.9773 15.7959C40.449 16.4573 39.9053 17.1112 39.7709 17.9957C39.0974 18.534 38.8395 19.3395 38.5158 20.0843C37.346 22.7557 37.1736 25.5676 37.4245 28.4321C37.4433 28.6528 37.5268 28.8787 37.7368 28.9186C38.0368 28.978 38.0225 28.6556 38.0595 28.4888C38.3335 27.3342 38.6641 26.206 39.1661 25.1213C40.1866 22.9067 41.4692 20.8602 42.9007 18.9068C42.9369 18.8561 43.0207 18.8388 43.2506 18.7181C41.4484 22.6046 40.7705 26.5727 40.6474 30.7618C43.1178 28.133 45.1789 25.4037 46.6795 22.2371C47.6744 20.1411 49.152 18.3426 50.7914 16.5118C50.7773 17.0629 50.4748 17.3515 50.318 17.6942C50.1548 18.0443 49.9404 18.3687 49.7591 18.7111C48.5309 21.0214 47.707 23.4925 46.9776 25.992C46.6124 27.2458 46.0724 28.4171 45.4063 29.5091C44.969 30.226 44.7284 30.8706 45.0296 31.6654C45.4566 31.7101 45.7169 31.3887 46.023 31.1807C47.1865 30.3992 48.1644 29.4039 49.1232 28.3869L49.1212 28.4032C49.1581 28.3249 49.1954 28.2438 49.2324 28.1655C49.2544 28.2512 49.2764 28.3368 49.2984 28.4225C49.3267 28.5449 49.3795 28.6675 49.3807 28.7893C49.3777 29.0322 49.3691 29.2771 49.65 29.359C49.9122 29.4385 50.0725 29.2429 50.2321 29.0747C51.425 27.8159 52.4061 26.4009 53.1679 24.8453C53.9845 23.1776 54.8459 21.5432 55.888 20.0086C55.9447 19.9244 55.9941 19.8338 56.1977 19.8812C54.8515 22.7463 54.7549 26.043 52.9855 28.7671C53.9114 28.4537 54.52 27.8244 54.9926 27.0207C54.6149 28.6599 53.6594 29.9786 52.7906 31.344C52.7617 31.4455 52.7073 31.5106 52.5931 31.4881C52.585 31.5977 52.5343 31.6549 52.4165 31.6182C52.1092 32.2959 51.4168 32.5914 50.964 33.1267C50.9954 33.1804 51.0245 33.231 51.056 33.2846C53.1104 32.8432 54.9159 31.9535 56.2878 30.283C54.4474 29.8332 54.366 29.7651 55.532 28.3067C56.9526 26.5288 57.7727 24.4608 58.6346 22.4063C58.8475 21.8965 59.1215 21.5739 59.6806 21.5632C59.617 22.075 59.5508 22.5864 59.4845 23.0978C59.0752 23.1078 58.8258 23.2759 58.7911 23.7304C58.7493 24.2642 58.6676 24.7903 58.4684 25.2991C58.3569 25.5838 58.3327 25.9097 58.6456 26.1282C58.915 26.3911 58.7451 26.7072 58.7153 26.991C58.5117 29.025 57.5952 30.7522 56.4284 32.3708C56.4668 32.4336 56.5056 32.4937 56.544 32.5565C58.6774 31.3482 59.8263 29.3929 60.5146 27.115C61.0821 25.2395 61.6899 23.3911 62.7941 21.7509C63.2976 21.1362 63.7404 21.404 64.0936 21.8902C64.3728 22.2704 64.6514 22.3492 65.1178 22.2966C66.1251 22.1812 67.0261 22.4617 67.7112 23.2987C68.3065 24.025 68.7397 24.8306 69.0314 25.7238C69.5154 27.2157 69.6359 28.7648 69.6662 30.3165C69.7035 32.2727 70.3191 34.0408 71.1354 35.7703C71.2016 34.6673 71.0113 33.5712 71.159 32.6884C71.4754 33.7339 71.3726 35.1087 72.3518 36.1398C72.6211 36.4248 72.6837 36.8195 72.6963 37.2219C72.7485 38.7072 72.4862 40.1618 72.2617 41.6183C72.1234 42.5133 72.1823 43.3968 72.3079 44.3135C73.1646 42.9135 73.9293 41.4881 74.6732 40.0547C75.1519 39.1357 75.6785 38.2474 76.3748 37.4825C77.0492 36.7398 77.8471 36.1865 78.8808 36.1436C80.4093 36.0819 81.0941 37.0736 81.512 38.3749C81.7803 38.3833 81.9369 38.2176 82.0426 38.0013C82.7997 36.4838 83.529 34.9712 83.8495 33.2668C84.0265 32.324 84.036 31.3274 84.4755 30.4394C84.5101 31.5189 84.5282 32.5992 84.4402 33.6801C85.2147 31.3438 85.5186 28.9408 85.6032 26.4857L85.6169 26.4846ZM70.2188 7.5336C70.132 7.61956 70.0746 7.70918 70.0393 7.79602C70.0749 7.70646 70.132 7.61956 70.2188 7.5336ZM72.5944 28.2947C73.0621 29.8952 72.7785 31.5655 73.0164 33.1983C72.0425 31.6427 71.9721 29.9976 72.5944 28.2947Z" fill="#394165"/>
<path d="M73.0128 33.1982C72.0389 31.6426 71.9684 29.9975 72.5907 28.2946C73.0585 29.8952 72.7749 31.5654 73.0128 33.1982Z" fill="#2C3554"/>
<path d="M37.8774 30.7603C37.7524 30.7172 37.5271 30.761 37.5514 30.5654C37.5767 30.3617 37.7811 30.4643 37.9125 30.4558C37.9 30.5563 37.8898 30.6599 37.88 30.7607L37.8774 30.7603Z" fill="#394165"/>
<path d="M37.8782 30.7614C37.8907 30.6606 37.9009 30.5568 37.9107 30.4557C37.9574 30.409 38.001 30.3646 38.0476 30.3179C38.095 30.5062 38.0435 30.6575 37.8755 30.761L37.8782 30.7614Z" fill="#1B1D28"/>
<path d="M43.5305 31.0451C43.5074 31.0781 43.4873 31.1087 43.4645 31.1389C43.4505 31.1206 43.4212 31.0949 43.4252 31.0844C43.4376 31.0501 43.463 31.0201 43.4831 30.9896C43.4971 31.0078 43.5138 31.0265 43.5302 31.0478L43.5305 31.0451Z" fill="#F9E9E2"/>
<path d="M52.7289 29.0786C52.7516 29.1145 52.7746 29.1477 52.7973 29.1836C52.7572 29.2007 52.7194 29.2208 52.6776 29.2294C52.6696 29.2284 52.6376 29.1803 52.644 29.1728C52.6674 29.1372 52.7005 29.1109 52.7289 29.0786Z" fill="#394165"/>
<path d="M44.7268 33.819C45.911 33.1139 48.758 32.3396 50.6729 34.8828C48.4175 34.4793 50.1096 33.3008 44.7268 33.819Z" fill="#444B68"/>
<path d="M64.7317 37.6099C63.9418 36.4806 61.6644 34.6049 58.8736 36.1368C61.0957 36.6956 60.0372 34.926 64.7317 37.6099Z" fill="#444B68"/>
<path d="M52.15 41.0721C51.4982 41.1671 46.612 46.0061 50.9977 48.6952C50.2243 47.4988 49.372 44.2993 52.15 41.0721Z" fill="#444B68"/>
<path d="M56.8805 52.2236L47.8846 50.4655C47.8846 50.4655 47.6556 54.0457 51.7855 54.5369C55.9154 55.0276 56.8804 52.2241 56.8804 52.2241L56.8805 52.2236Z" fill="white"/>
<path d="M47.5205 40.667C46.8411 40.5455 46.4545 39.5289 46.6571 38.3965C46.8597 37.2642 47.5747 36.4447 48.2542 36.5663C48.9336 36.6878 49.3201 37.7044 49.1175 38.8367C48.9149 39.9691 48.1999 40.7886 47.5205 40.667Z" fill="#444B68"/>
<path d="M61.0517 43.0882C60.3723 42.9666 59.9858 41.9501 60.1883 40.8177C60.3909 39.6853 61.106 38.8659 61.7854 38.9874C62.4648 39.109 62.8514 40.1255 62.6488 41.2579C62.4462 42.3903 61.7312 43.2097 61.0517 43.0882Z" fill="#444B68"/>
</svg>
