<?xml version="1.0" encoding="UTF-8"?><svg id="_レイヤー_2" xmlns="http://www.w3.org/2000/svg" width="192.34" height="71.76" viewBox="0 0 192.34 71.76"><defs><style>.cls-1{fill:#fff;stroke-width:0px;}</style></defs><g id="_レイヤー_2-2"><path class="cls-1" d="M0,0c1.65,3.4,10.33,10.95,17.81,12.35,2.58-1.63,5.41-2.91,8.42-3.76,1.87-.77,3.91-1.22,6.05-1.22h127.86c17.78,0,32.19,14.41,32.19,32.19h0c0,17.78-14.41,32.19-32.19,32.19H39.87c-1.66,0-3.28-.17-4.84-.5v.22c-17.78,0-32.22-14.13-32.22-31.91h0c0-6.69,2.04-12.9,5.53-18.04C1.94,14.18.36,6.27,0,0Z"/></g></svg>