<?xml version="1.0" encoding="UTF-8"?><svg id="_レイヤー_2" xmlns="http://www.w3.org/2000/svg" width="261.53" height="114.62" xmlns:xlink="http://www.w3.org/1999/xlink" viewBox="0 0 261.53 114.62"><defs><style>.cls-1{fill:url(#_名称未設定グラデーション_212);}.cls-1,.cls-2{stroke-width:0px;}.cls-3{fill:#3e3a39;font-family:SourceHanSansJP-Bold-83pv-RKSJ-H, 'Source Han Sans JP';font-size:21.48px;font-weight:700;}.cls-2{fill:#c1981c;}</style><linearGradient id="_名称未設定グラデーション_212" x1="28.81" y1="66.95" x2="231.53" y2="66.95" gradientUnits="userSpaceOnUse"><stop offset=".03" stop-color="#a77210"/><stop offset=".07" stop-color="#aa7613"/><stop offset=".12" stop-color="#b5821e"/><stop offset=".16" stop-color="#c8972f"/><stop offset=".19" stop-color="#dcae43"/><stop offset=".35" stop-color="#b37e10"/><stop offset=".52" stop-color="#e5b747"/><stop offset=".64" stop-color="#bb891d"/><stop offset=".81" stop-color="#a87310"/><stop offset=".87" stop-color="#ac7814"/><stop offset=".95" stop-color="#b88721"/><stop offset="1" stop-color="#c6972f"/></linearGradient></defs><g id="_デザイン"><path class="cls-2" d="M226.02,114.62c-.5,0-.97-.03-1.42-.08-1.35-.18-2.51-.54-3.46-1.09-1.03-.6-1.44-1.34-1.61-1.87-.09-.3-.12-.56-.12-.74-.14-.12-.32-.31-.49-.58-.39-.62-.54-1.43-.44-2.39.11-1.04.41-2.13.9-3.24.41-.97.89-1.9,1.38-2.67.49-.79.9-1.43,1.23-1.87.33-.45.56-.71.56-.71l.56-.64.17.83s.19.91.32,2.11c.12,1.13.23,2.75.03,4.05-.3,1.91-1.02,3.11-1.61,3.81.25-.02.5-.03.75-.03,1.09,0,2.21.2,3.43.6,1.05.35,2.34.9,3.84,1.63,1.15.56,2.01,1.02,2.01,1.02l.84.45-.89.33s-.42.15-1.11.35l-.12.03c-.66.18-1.57.42-2.62.55-.81.09-1.48.13-2.12.13h0Z"/><path class="cls-2" d="M234.34,107.62c-1.01,0-1.93-.14-2.74-.41-1.13-.37-1.68-1.03-1.95-1.51-.15-.28-.23-.52-.26-.7-.16-.09-.38-.24-.6-.47-.51-.53-.81-1.29-.91-2.25-.1-1.04-.03-2.17.23-3.35.18-.97.47-1.98.81-2.89.28-.81.57-1.55.83-2.07l.8-1.63.59,1.43c.14.36.33.86.51,1.44.28.86.76,2.52.85,3.96.09,1.94-.37,3.26-.81,4.05.66-.2,1.55-.38,2.7-.38.48,0,.99.03,1.51.1,1.36.15,2.99.54,4.09.82l1.55.41,1.53.42-1.06.67c-.19.11-.45.25-.76.41-.71.36-1.56.77-2.56,1.12-1.29.42-2.42.67-3.46.77-.3.02-.59.03-.88.03h0Z"/><path class="cls-2" d="M241.5,99.03c-.31,0-.61-.02-.9-.05-.95-.12-1.69-.48-2.21-1.08-.21-.24-.33-.47-.4-.64-.18-.05-.42-.15-.67-.33-.42-.29-1-.88-1.35-2.03-.3-.96-.44-2.01-.45-3.31-.03-1.09.09-2.13.22-3,.12-.94.28-1.72.4-2.2.12-.53.21-.85.21-.85l.22-.89.53.74s.56.78,1.15,1.83c.44.77,1.22,2.27,1.62,3.7.25.92.34,1.82.27,2.77-.04.49-.12.96-.25,1.38.34-.19.76-.39,1.26-.56.75-.27,1.7-.46,2.8-.57.53-.05,1.14-.08,1.87-.08.84,0,1.68.04,2.32.07,1.28.06,2.23.13,2.23.13l.9.06-.62.65s-.32.33-.88.79c-.52.41-1.33,1.02-2.29,1.61-1,.59-2.15,1.11-3.24,1.45-.92.28-1.84.41-2.72.41h0Z"/><path class="cls-2" d="M247.37,89.13c-.8,0-1.47-.21-2.01-.63-.25-.19-.42-.39-.52-.54-.18-.02-.44-.07-.73-.19-.47-.2-1.15-.66-1.73-1.71-1.11-2.08-1.39-4.5-1.5-6.14-.05-.68-.05-1.29-.04-1.78v-.44c0-.58.03-.92.03-.92l.08-.87.64.6s.68.65,1.49,1.56c.96,1.08,1.81,2.29,2.32,3.3.45.89.73,1.76.83,2.67.06.48.06.95.03,1.39.35-.3.73-.57,1.13-.8.73-.42,1.6-.8,2.61-1.11,1.19-.37,2.72-.62,3.95-.82l.16-.03c1.25-.2,2.21-.32,2.21-.32l.92-.11-.52.77s-.25.37-.69.93c-.42.55-1.11,1.27-1.93,2.04-1.2,1.09-3.61,2.96-6.36,3.15-.13,0-.25.01-.37.01Z"/><path class="cls-2" d="M251.63,78.2c-.48,0-.92-.1-1.32-.29-.28-.14-.49-.3-.62-.43-.07,0-.15.01-.24.01-.17,0-.34-.02-.52-.05-.5-.1-1.27-.42-2.03-1.33-.65-.79-1.23-1.76-1.72-2.87-.2-.46-.38-.94-.55-1.47-.16-.44-.3-.91-.43-1.37-.18-.69-.31-1.31-.41-1.81l-.07-.35c-.11-.57-.14-.91-.14-.91l-.09-.86.73.45s.8.5,1.77,1.23c1.19.89,2.27,1.91,2.94,2.78.94,1.19,1.5,2.47,1.64,3.8.6-.75,1.6-1.7,3.29-2.63,1.15-.61,2.62-1.18,3.8-1.63,1.24-.47,2.16-.77,2.16-.77l.89-.3-.37.86s-.17.41-.5,1.05c-.21.43-.68,1.31-1.48,2.39-.35.47-.71.93-1.07,1.34-.43.46-.88.88-1.33,1.26-1.03.86-2.11,1.46-3.18,1.75-.39.11-.78.17-1.14.17Z"/><path class="cls-2" d="M253.75,66.61c-.24,0-.48-.03-.72-.09-.31-.08-.54-.2-.69-.29-.17.05-.43.11-.74.11-.52,0-1.33-.16-2.26-.9-1.78-1.41-2.96-3.44-3.79-5.05l-.12-.26c-.33-.7-.62-1.31-.8-1.78-.21-.52-.31-.85-.31-.85l-.25-.82.8.29s.88.32,1.97.85c1.02.49,2.45,1.25,3.45,2.13.75.65,1.36,1.36,1.81,2.12.23.42.42.84.55,1.27.2-.4.46-.8.75-1.18.51-.71,1.17-1.4,1.95-2.05.84-.68,1.99-1.48,3.43-2.39,1.08-.68,1.93-1.17,1.93-1.17l.82-.47-.19.92s-.09.43-.29,1.13c-.19.64-.47,1.6-.97,2.64-.52,1.16-2.03,4.05-4.6,5.38-.59.3-1.17.46-1.73.46Z"/><path class="cls-2" d="M251.42,54.99c-.58,0-1.19-.16-1.82-.48-.93-.46-1.85-1.12-2.72-1.96-.82-.8-1.52-1.57-2.02-2.23l-.36-.48c-.39-.52-.73-.96-.96-1.33-.31-.47-.47-.76-.47-.76l-.4-.75.84.13s.92.14,2.1.44c1.12.28,2.69.75,3.81,1.39.85.47,1.59,1.05,2.19,1.71.36.4.61.78.8,1.13.11-.4.28-.83.48-1.3.35-.79.86-1.61,1.51-2.42.97-1.18,2.22-2.41,2.87-3.03.93-.88,1.65-1.53,1.65-1.53l.71-.63v.95s0,.44-.06,1.16l-.02.25c-.06.7-.14,1.56-.39,2.53-.26,1.03-.6,2.23-1.19,3.34-.63,1.2-1.38,2.16-2.22,2.86-.71.57-1.45.86-2.18.86h-.14c-.31-.02-.56-.09-.73-.15-.16.09-.4.2-.71.26-.18.04-.37.06-.57.06Z"/><path class="cls-2" d="M248.85,43.93c-.38,0-.78-.06-1.2-.17-1.01-.27-2.04-.73-3.06-1.38-.94-.6-1.79-1.21-2.43-1.78-.24-.22-.48-.43-.7-.62-.38-.33-.72-.62-.97-.88-.4-.39-.62-.65-.62-.65l-.56-.65.86-.04s.37-.02.96-.02c.34,0,.74,0,1.19.03,1.72.08,3.07.28,4.03.6.93.29,1.77.71,2.49,1.23.43.31.76.64,1.02.95.03-.4.1-.86.21-1.37.19-.85.52-1.75,1-2.67.76-1.43,1.7-2.83,2.2-3.53.72-1.05,1.31-1.82,1.31-1.82l.56-.75.19.92s.09.43.18,1.14l.04.35c.08.67.18,1.5.12,2.45-.05,1.04-.14,2.28-.5,3.5-.38,1.3-.92,2.4-1.6,3.25-.76.93-1.56,1.22-2.1,1.31-.14.02-.27.03-.39.03-.14,0-.26-.01-.36-.03-.14.12-.35.27-.65.4-.36.16-.77.24-1.22.24Z"/><path class="cls-2" d="M243.89,33.62c-.11,0-.23,0-.35-.01-1.04-.07-2.13-.32-3.25-.76-.92-.32-1.85-.74-2.75-1.24-.39-.22-.75-.44-1.06-.64l-.83-.5c-.49-.31-.76-.51-.76-.51l-.7-.53.84-.22s.91-.24,2.12-.43c.5-.08,1.25-.19,2.01-.24.29-.02.57-.02.85-.02.42,0,.81.02,1.17.06,1.58.17,2.96.68,3.9,1.43-.14-1.1-.15-2.43.36-4.19.16-.56.39-1.22.7-2.01.26-.67.52-1.32.77-1.91.49-1.17.9-2.04.9-2.04l.39-.84.38.85s.18.4.42,1.08l.04.1c.11.32.24.68.35,1.09.13.53.23,1.04.31,1.53.21,1.28.3,2.46.24,3.51-.13,1.38-.45,2.56-.96,3.53-.45.85-1.05,1.42-1.79,1.69-.3.11-.55.14-.74.15-.11.15-.29.34-.55.51-.37.25-1.02.56-2.03.56Z"/><path class="cls-2" d="M236.17,24.57c-.63,0-1.3-.06-1.98-.17-.88-.15-2.01-.37-2.94-.67-.52-.16-.97-.33-1.38-.48-.25-.1-.48-.18-.69-.25-.55-.2-.86-.35-.86-.35l-.8-.37.79-.39s.85-.42,1.99-.86c1.31-.52,2.73-.89,3.9-1.01.34-.03.67-.05.99-.05.62,0,1.23.06,1.8.19.51.12.94.29,1.3.48-.12-.38-.24-.82-.34-1.35-.17-.85-.22-1.8-.15-2.83.07-1.08.31-2.36.53-3.48l.12-.66c.25-1.25.47-2.19.47-2.19l.21-.9.54.75s.26.36.63.97c.35.53.77,1.39,1.23,2.54.4,1.05.8,2.18.94,3.42.16,1.35.09,2.57-.22,3.63-.26.92-.74,1.6-1.41,2.01-.27.17-.52.25-.69.3-.08.16-.21.39-.43.61-.35.37-1.03.85-2.22,1.02-.44.06-.9.09-1.37.09Z"/><path class="cls-2" d="M232.93,16.34c-1.01,0-3.03-.33-5.19-2.56-1.76-1.81-3.55-4.98-3.63-5.11l-.44-.78.88.15c.25.04,6.07,1.1,8.82,4.74,1.4,1.85.59,3.24.56,3.3l-.09.15-.17.04s-.29.07-.73.07h0Z"/><path class="cls-2" d="M35.51,114.62c.5,0,.97-.03,1.42-.08,1.35-.18,2.51-.54,3.46-1.09,1.03-.6,1.44-1.34,1.61-1.87.09-.3.12-.56.12-.74.14-.12.32-.31.49-.58.39-.62.54-1.43.44-2.39-.11-1.04-.41-2.13-.9-3.24-.41-.97-.89-1.9-1.38-2.67-.49-.79-.9-1.43-1.23-1.87-.33-.45-.56-.71-.56-.71l-.56-.64-.17.83s-.19.91-.32,2.11c-.12,1.13-.23,2.75-.03,4.05.3,1.91,1.02,3.11,1.61,3.81-.25-.02-.5-.03-.75-.03-1.09,0-2.21.2-3.43.6-1.05.35-2.34.9-3.84,1.63-1.15.56-2.01,1.02-2.01,1.02l-.84.45.89.33s.42.15,1.11.35l.12.03c.66.18,1.57.42,2.62.55.81.09,1.48.13,2.12.13h0Z"/><path class="cls-2" d="M27.19,107.62c1.01,0,1.93-.14,2.74-.41,1.13-.37,1.68-1.03,1.95-1.51.15-.28.23-.52.26-.7.16-.09.38-.24.6-.47.51-.53.81-1.29.91-2.25.1-1.04.03-2.17-.23-3.35-.18-.97-.47-1.98-.81-2.89-.28-.81-.57-1.55-.83-2.07l-.8-1.63-.59,1.43c-.14.36-.33.86-.51,1.44-.28.86-.76,2.52-.85,3.96-.09,1.94.37,3.26.81,4.05-.66-.2-1.55-.38-2.7-.38-.48,0-.99.03-1.51.1-1.36.15-2.99.54-4.09.82l-1.55.41-1.53.42,1.06.67c.19.11.45.25.76.41.71.36,1.56.77,2.56,1.12,1.29.42,2.42.67,3.46.77.3.02.59.03.88.03h0Z"/><path class="cls-2" d="M20.03,99.03c.31,0,.61-.02.9-.05.95-.12,1.69-.48,2.21-1.08.21-.24.33-.47.4-.64.18-.05.42-.15.67-.33.42-.29,1-.88,1.35-2.03.3-.96.44-2.01.45-3.31.03-1.09-.09-2.13-.22-3-.12-.94-.28-1.72-.4-2.2-.12-.53-.21-.85-.21-.85l-.22-.89-.53.74s-.56.78-1.15,1.83c-.44.77-1.22,2.27-1.62,3.7-.25.92-.34,1.82-.27,2.77.04.49.12.96.25,1.38-.34-.19-.76-.39-1.26-.56-.75-.27-1.7-.46-2.8-.57-.53-.05-1.14-.08-1.87-.08-.84,0-1.68.04-2.32.07-1.28.06-2.23.13-2.23.13l-.9.06.62.65s.32.33.88.79c.52.41,1.33,1.02,2.29,1.61,1,.59,2.15,1.11,3.24,1.45.92.28,1.84.41,2.72.41h0Z"/><path class="cls-2" d="M14.16,89.13c.8,0,1.47-.21,2.01-.63.25-.19.42-.39.52-.54.18-.02.44-.07.73-.19.47-.2,1.15-.66,1.73-1.71,1.11-2.08,1.39-4.5,1.5-6.14.05-.68.05-1.29.04-1.78v-.44c0-.58-.03-.92-.03-.92l-.08-.87-.64.6s-.68.65-1.49,1.56c-.96,1.08-1.81,2.29-2.32,3.3-.45.89-.73,1.76-.83,2.67-.06.48-.06.95-.03,1.39-.35-.3-.73-.57-1.13-.8-.73-.42-1.6-.8-2.61-1.11-1.19-.37-2.72-.62-3.95-.82l-.16-.03c-1.25-.2-2.21-.32-2.21-.32l-.92-.11.52.77s.25.37.69.93c.42.55,1.11,1.27,1.93,2.04,1.2,1.09,3.61,2.96,6.36,3.15.13,0,.25.01.37.01Z"/><path class="cls-2" d="M9.9,78.2c.48,0,.92-.1,1.32-.29.28-.14.49-.3.62-.43.07,0,.15.01.24.01.17,0,.34-.02.52-.05.5-.1,1.27-.42,2.03-1.33.65-.79,1.23-1.76,1.72-2.87.2-.46.38-.94.55-1.47.16-.44.3-.91.43-1.37.18-.69.31-1.31.41-1.81l.07-.35c.11-.57.14-.91.14-.91l.09-.86-.73.45s-.8.5-1.77,1.23c-1.19.89-2.27,1.91-2.94,2.78-.94,1.19-1.5,2.47-1.64,3.8-.6-.75-1.6-1.7-3.29-2.63-1.15-.61-2.62-1.18-3.8-1.63-1.24-.47-2.16-.77-2.16-.77l-.89-.3.37.86s.17.41.5,1.05c.21.43.68,1.31,1.48,2.39.35.47.71.93,1.07,1.34.43.46.88.88,1.33,1.26,1.03.86,2.11,1.46,3.18,1.75.39.11.78.17,1.14.17Z"/><path class="cls-2" d="M7.77,66.61c.24,0,.48-.03.72-.09.31-.08.54-.2.69-.29.17.05.43.11.74.11.52,0,1.33-.16,2.26-.9,1.78-1.41,2.96-3.44,3.79-5.05l.12-.26c.33-.7.62-1.31.8-1.78.21-.52.31-.85.31-.85l.25-.82-.8.29s-.88.32-1.97.85c-1.02.49-2.45,1.25-3.45,2.13-.75.65-1.36,1.36-1.81,2.12-.23.42-.42.84-.55,1.27-.2-.4-.46-.8-.75-1.18-.51-.71-1.17-1.4-1.95-2.05-.84-.68-1.99-1.48-3.43-2.39-1.08-.68-1.93-1.17-1.93-1.17l-.82-.47.19.92s.09.43.29,1.13c.19.64.47,1.6.97,2.64.52,1.16,2.03,4.05,4.6,5.38.59.3,1.17.46,1.73.46Z"/><path class="cls-2" d="M10.1,54.99c.58,0,1.19-.16,1.82-.48.93-.46,1.85-1.12,2.72-1.96.82-.8,1.52-1.57,2.02-2.23l.36-.48c.39-.52.73-.96.96-1.33.31-.47.47-.76.47-.76l.4-.75-.84.13s-.92.14-2.1.44c-1.12.28-2.69.75-3.81,1.39-.85.47-1.59,1.05-2.19,1.71-.36.4-.61.78-.8,1.13-.11-.4-.28-.83-.48-1.3-.35-.79-.86-1.61-1.51-2.42-.97-1.18-2.22-2.41-2.87-3.03-.93-.88-1.65-1.53-1.65-1.53l-.71-.63v.95s0,.44.06,1.16l.02.25c.06.7.14,1.56.39,2.53.26,1.03.6,2.23,1.19,3.34.63,1.2,1.38,2.16,2.22,2.86.71.57,1.45.86,2.18.86h.14c.31-.02.56-.09.73-.15.16.09.4.2.71.26.18.04.37.06.57.06Z"/><path class="cls-2" d="M12.68,43.93c.38,0,.78-.06,1.2-.17,1.01-.27,2.04-.73,3.06-1.38.94-.6,1.79-1.21,2.43-1.78.24-.22.48-.43.7-.62.38-.33.72-.62.97-.88.4-.39.62-.65.62-.65l.56-.65-.86-.04s-.37-.02-.96-.02c-.34,0-.74,0-1.19.03-1.72.08-3.07.28-4.03.6-.93.29-1.77.71-2.49,1.23-.43.31-.76.64-1.02.95-.03-.4-.1-.86-.21-1.37-.19-.85-.52-1.75-1-2.67-.76-1.43-1.7-2.83-2.2-3.53-.72-1.05-1.31-1.82-1.31-1.82l-.56-.75-.19.92s-.09.43-.18,1.14l-.04.35c-.08.67-.18,1.5-.12,2.45.05,1.04.14,2.28.5,3.5.38,1.3.92,2.4,1.6,3.25.76.93,1.56,1.22,2.1,1.31.14.02.27.03.39.03.14,0,.26-.01.36-.03.14.12.35.27.65.4.36.16.77.24,1.22.24Z"/><path class="cls-2" d="M17.64,33.62c.11,0,.23,0,.35-.01,1.04-.07,2.13-.32,3.25-.76.92-.32,1.85-.74,2.75-1.24.39-.22.75-.44,1.06-.64l.83-.5c.49-.31.76-.51.76-.51l.7-.53-.84-.22s-.91-.24-2.12-.43c-.5-.08-1.25-.19-2.01-.24-.29-.02-.57-.02-.85-.02-.42,0-.81.02-1.17.06-1.58.17-2.96.68-3.9,1.43.14-1.1.15-2.43-.36-4.19-.16-.56-.39-1.22-.7-2.01-.26-.67-.52-1.32-.77-1.91-.49-1.17-.9-2.04-.9-2.04l-.39-.84-.38.85s-.18.4-.42,1.08l-.04.1c-.11.32-.24.68-.35,1.09-.13.53-.23,1.04-.31,1.53-.21,1.28-.3,2.46-.24,3.51.13,1.38.45,2.56.96,3.53.45.85,1.05,1.42,1.79,1.69.3.11.55.14.74.15.11.15.29.34.55.51.37.25,1.02.56,2.03.56Z"/><path class="cls-2" d="M25.36,24.57c.63,0,1.3-.06,1.98-.17.88-.15,2.01-.37,2.94-.67.52-.16.97-.33,1.38-.48.25-.1.48-.18.69-.25.55-.2.86-.35.86-.35l.8-.37-.79-.39s-.85-.42-1.99-.86c-1.31-.52-2.73-.89-3.9-1.01-.34-.03-.67-.05-.99-.05-.62,0-1.23.06-1.8.19-.51.12-.94.29-1.3.48.12-.38.24-.82.34-1.35.17-.85.22-1.8.15-2.83-.07-1.08-.31-2.36-.53-3.48l-.12-.66c-.25-1.25-.47-2.19-.47-2.19l-.21-.9-.54.75s-.26.36-.63.97c-.35.53-.77,1.39-1.23,2.54-.4,1.05-.8,2.18-.94,3.42-.16,1.35-.09,2.57.22,3.63.26.92.74,1.6,1.41,2.01.27.17.52.25.69.3.08.16.21.39.43.61.35.37,1.03.85,2.22,1.02.44.06.9.09,1.37.09Z"/><path class="cls-2" d="M28.59,16.34c1.01,0,3.03-.33,5.19-2.56,1.76-1.81,3.55-4.98,3.63-5.11l.44-.78-.88.15c-.25.04-6.07,1.1-8.82,4.74-1.4,1.85-.59,3.24-.56,3.3l.09.15.17.04s.29.07.73.07h0Z"/><path class="cls-1" d="M68.03,65.65c4.24-3.96,5.01-4.4,5.4-4.4.49,0,.98.44,3.49,3.03,1.17,1.21,1.48,1.7,1.37,2.09-.1.38-.31.55-.86.55h-43.13c-1.6,0-3.22.11-5.42.33l-.07-2.04c2.22.33,3.95.44,5.71.44h33.5Z"/><path class="cls-1" d="M89.52,72.36c-.55,2.09-.44,2.31,1.37,2.31,2.04,0,3.22-.11,4.26-.94,1.25-.99,2.39-3.03,4.76-7.21.13-.27.68-.27.61,0-.46,1.54-1.13,3.85-1.46,5.12-.28,1.04-.24,1.32.28,1.65,1.01.77,1.19,1.1.95,2.04-.33,1.26-1.6,2.31-3.64,2.97-1.99.66-4.72.99-7.96.99-4.46,0-5.66-1.27-4.6-5.28.35-1.32.77-2.7,2.19-8.09l1.54-5.83-2.43.44c-1.7.38-2.76.66-3.88,1.16l-.41-1.98c1.6,0,3.07-.17,4.16-.33l2.89-.55c1.35-5.33,2.71-10.67,3.95-16.01,5.06.44,6.85.94,6.6,1.87-.13.5-.53.77-2.26,1.48l-3.08,11.66,5.5-1.04c2.45-3.47,2.98-3.79,3.42-3.79.55,0,1.07.33,2.99,1.81.91.71,1.15,1.04,1.04,1.48-.04.17-.36.33-.6.39l-12.69,2.42-3.5,13.26ZM119.6,48.21c-3.01,11-6.32,19.14-10.73,25.47-5.51,7.98-12.73,13.04-23.45,17.38-.3.11-.57-.55-.31-.71,8.87-5.06,14.85-10.4,19.57-18.32,3.7-6.11,6.58-13.7,9.36-23.82h-5.78c-1.26,0-2.5.11-4.24.44l-.04-2.15c1.78.33,3.13.44,4.5.44h20.3c2.75-2.31,3.28-2.64,3.72-2.64.55,0,.9.33,2.55,2.2.76.88.99,1.27.87,1.71-.1.38-.31.55-2.3,2.03-5.45,19.2-10.05,31.02-14.17,36.19-.98,1.21-2.09,2.09-3.23,2.64-1.26.6-2.92,1.04-4.46,1.04-1.04,0-1.3-.27-1.22-1.43.12-2.15-.73-3.08-4.85-4.57-.25-.11.01-.88.27-.83,3.67.5,6.03.71,7.4.71,2.04,0,3.07-1.21,4.68-4.62,3.55-7.43,7.65-19.42,10.76-31.19h-9.24Z"/><path class="cls-1" d="M167.31,53.38c-.33,1.26-1.18,1.98-2.99,2.58-1.92.61-5.01,1.27-8.69,2.09-4.98,7.21-9.99,14.3-14.09,19.86-1.53,2.04-2.38,2.97-3.11,3.46-.46.28-1.16.44-1.54.44-.83,0-1.29-.33-1.52-.71-.24-.33-.57-.77-.31-1.76.25-.93,1.61-2.37,2.77-3.63,4.43-4.9,8.82-10.07,13.49-16.72-1.36.17-3.87.5-5.14.5-1.49,0-2.6-.17-3.39-.71-1.13-.72-2-1.82-2.32-3.52-.06-.39-.05-.66.03-.93.07-.28.36-.33.47-.33.17,0,.26.05.52.33.65.66,1.31,1.1,2.13,1.32,1.14.28,1.96.28,2.62.28,1.82,0,4.68-.44,7.7-1.05,2.53-3.96,3.33-5.72,3.64-6.93.35-1.32.05-1.65-2.58-2.75-.25-.11-.37-.28-.31-.5s.37-.55.74-.72c.82-.38,1.58-.55,2.57-.55,1.65,0,3.89.88,5.02,1.82.95.77.85,1.38.67,2.04-.16.6-.5,1.04-1.09,1.43-.93.61-1.73,1.54-4.09,5.06,2.03-.61,2.92-1.04,4.07-1.65,1.08-.55,1.95-.72,2.5-.72,1.73.11,2.43,1.21,2.23,1.98ZM167.15,60.04c-.87-.06-1.98,0-2.6.05-.46.05-.8.11-1.08.11-.33,0-.52-.11-.45-.39.09-.33.42-.55.85-.71,2.05-.88,4.25-1.1,6.01-1.1,3.08,0,6.54.88,8.66,2.42,1.62,1.15,1.89,2.42,1.59,3.58-.33,1.26-1.12,2.14-2.49,2.14-.66,0-1.52-.49-1.91-.88-1.64-1.7-2.74-1.92-3.78-1.92-1.1,0-1.76.22-2.66.72-1.65.83-2.54,1.92-3.05,3.85-.36,1.38-.92,5.17-.83,10.23,7.72,2.86,9.38,5.12,8.81,7.26-.3,1.15-1.11,2.31-2.79,2.42-.78.05-1.8-.28-2.78-1.54-.58-.71-1.8-2.37-4.16-3.85-.63,2.58-2.23,4.9-4.35,6.05-2.01,1.16-4.15,1.54-6.79,1.54s-4.69-.99-5.72-2.09c-1.04-1.04-1.53-2.53-1.1-4.18.52-1.98,2-3.63,3.52-4.57,2.36-1.43,4.92-1.98,7.12-1.98.88,0,2.68.05,3.89.27.55-2.91,1.15-5.83,1.78-8.19,1.25-4.73,5.47-6.77,9.32-7.59-1.42-1.1-3.28-1.54-5.01-1.65ZM155.72,80.01c-1.98,0-3.8.22-4.96.88-.97.55-1.77,1.49-1.98,2.31-.29,1.1.03,1.98.71,2.53.79.55,2.13.88,3.67.88,1.76,0,3.79-.39,4.97-1.32,1.13-.93,1.75-2.04,2.15-3.58.06-.22.13-.5.15-.77-1.9-.71-3.27-.93-4.7-.93Z"/><path class="cls-1" d="M208.54,53.5c-.51.88-1.54,3.74-3.49,9.68-1.96,5.78-3.5,10.78-4.42,14.25-.75,2.86-.74,4.46-.11,5.23.68.77,2.47,1.27,4.95,1.27,3.63,0,8.19-1.21,12.88-3.35,3.31-1.49,7.63-3.91,11.58-7.43.43-.39.85-.71,1.18-.71.28,0,.51.16.41.55-.07.28-.65.99-1.12,1.54-3.45,3.91-7.57,7.21-12.15,9.79-4.13,2.31-8.93,4.46-15.86,4.46-5.78,0-8.25-3.96-6.3-10.73,2.64-9.18,5.41-18.21,7.83-26.57.59-2.04.44-2.92-1.13-3.63-1.39-.55-1.54-.61-1.46-.93.13-.5.57-.72,1.2-.99.8-.33,2.06-.5,2.66-.5,1.43,0,3.06.71,4.63,2.47.85.93,1.09,1.93.86,2.81-.26.99-.82,1.43-1.26,1.87-.31.33-.63.5-.85.94Z"/><text class="cls-3" transform="translate(77.9 18.9)"><tspan x="0" y="0">無理な営業</tspan></text></g></svg>