<?xml version="1.0" encoding="UTF-8"?>
<svg id="_レイヤー_2" data-name=" レイヤー 2" xmlns="http://www.w3.org/2000/svg" xmlns:xlink="http://www.w3.org/1999/xlink" version="1.1" viewBox="0 0 261.5 135.9">
  <defs>
    <style>
      .cls-1 {
        font-family: KozGoPr6N-Bold-83pv-RKSJ-H, 'Kozuka Gothic Pr6N';
        font-size: 21px;
        font-weight: 700;
      }

      .cls-1, .cls-2 {
        fill: #3e3a39;
      }

      .cls-1, .cls-2, .cls-3 {
        isolation: isolate;
      }

      .cls-2 {
        font-family: KozGoPr6N-Regular-83pv-RKSJ-H, 'Kozuka Gothic Pr6N';
        font-size: 10.6px;
        letter-spacing: 0em;
      }

      .cls-4 {
        fill: url(#_名称未設定グラデーション);
      }

      .cls-4, .cls-5, .cls-6, .cls-7, .cls-8, .cls-9 {
        stroke-width: 0px;
      }

      .cls-5 {
        fill: url(#_名称未設定グラデーション_2);
      }

      .cls-6 {
        fill: url(#_名称未設定グラデーション_5);
      }

      .cls-7 {
        fill: url(#_名称未設定グラデーション_4);
      }

      .cls-8 {
        fill: url(#_名称未設定グラデーション_3);
      }

      .cls-9 {
        fill: #c1981c;
      }
    </style>
    <linearGradient id="_名称未設定グラデーション" data-name="名称未設定グラデーション" x1="79" y1="70.8" x2="189.8" y2="70.8" gradientTransform="translate(0 128.2) scale(1 -1)" gradientUnits="userSpaceOnUse">
      <stop offset="0" stop-color="#a77210"/>
      <stop offset="0" stop-color="#aa7613"/>
      <stop offset=".1" stop-color="#b5821e"/>
      <stop offset=".2" stop-color="#c8972f"/>
      <stop offset=".2" stop-color="#dcae43"/>
      <stop offset=".3" stop-color="#b37e10"/>
      <stop offset=".5" stop-color="#e5b747"/>
      <stop offset=".6" stop-color="#bb891d"/>
      <stop offset=".8" stop-color="#a87310"/>
      <stop offset=".9" stop-color="#ac7814"/>
      <stop offset=".9" stop-color="#b88721"/>
      <stop offset="1" stop-color="#c6972f"/>
    </linearGradient>
    <linearGradient id="_名称未設定グラデーション_2" data-name="名称未設定グラデーション 2" x1="79" y1="71.3" x2="189.8" y2="71.3" gradientTransform="translate(0 128.2) scale(1 -1)" gradientUnits="userSpaceOnUse">
      <stop offset="0" stop-color="#a77210"/>
      <stop offset="0" stop-color="#aa7613"/>
      <stop offset=".1" stop-color="#b5821e"/>
      <stop offset=".2" stop-color="#c8972f"/>
      <stop offset=".2" stop-color="#dcae43"/>
      <stop offset=".3" stop-color="#b37e10"/>
      <stop offset=".5" stop-color="#e5b747"/>
      <stop offset=".6" stop-color="#bb891d"/>
      <stop offset=".8" stop-color="#a87310"/>
      <stop offset=".9" stop-color="#ac7814"/>
      <stop offset=".9" stop-color="#b88721"/>
      <stop offset="1" stop-color="#c6972f"/>
    </linearGradient>
    <linearGradient id="_名称未設定グラデーション_3" data-name="名称未設定グラデーション 3" x1="79" y1="63.5" x2="189.8" y2="63.5" gradientTransform="translate(0 128.2) scale(1 -1)" gradientUnits="userSpaceOnUse">
      <stop offset="0" stop-color="#a77210"/>
      <stop offset="0" stop-color="#aa7613"/>
      <stop offset=".1" stop-color="#b5821e"/>
      <stop offset=".2" stop-color="#c8972f"/>
      <stop offset=".2" stop-color="#dcae43"/>
      <stop offset=".3" stop-color="#b37e10"/>
      <stop offset=".5" stop-color="#e5b747"/>
      <stop offset=".6" stop-color="#bb891d"/>
      <stop offset=".8" stop-color="#a87310"/>
      <stop offset=".9" stop-color="#ac7814"/>
      <stop offset=".9" stop-color="#b88721"/>
      <stop offset="1" stop-color="#c6972f"/>
    </linearGradient>
    <linearGradient id="_名称未設定グラデーション_4" data-name="名称未設定グラデーション 4" x1="79" y1="27.1" x2="189.8" y2="27.1" gradientTransform="translate(0 128.2) scale(1 -1)" gradientUnits="userSpaceOnUse">
      <stop offset="0" stop-color="#a77210"/>
      <stop offset="0" stop-color="#aa7613"/>
      <stop offset=".1" stop-color="#b5821e"/>
      <stop offset=".2" stop-color="#c8972f"/>
      <stop offset=".2" stop-color="#dcae43"/>
      <stop offset=".3" stop-color="#b37e10"/>
      <stop offset=".5" stop-color="#e5b747"/>
      <stop offset=".6" stop-color="#bb891d"/>
      <stop offset=".8" stop-color="#a87310"/>
      <stop offset=".9" stop-color="#ac7814"/>
      <stop offset=".9" stop-color="#b88721"/>
      <stop offset="1" stop-color="#c6972f"/>
    </linearGradient>
    <linearGradient id="_名称未設定グラデーション_5" data-name="名称未設定グラデーション 5" x1="79" y1="27" x2="189.8" y2="27" gradientTransform="translate(0 128.2) scale(1 -1)" gradientUnits="userSpaceOnUse">
      <stop offset="0" stop-color="#a77210"/>
      <stop offset="0" stop-color="#aa7613"/>
      <stop offset=".1" stop-color="#b5821e"/>
      <stop offset=".2" stop-color="#c8972f"/>
      <stop offset=".2" stop-color="#dcae43"/>
      <stop offset=".3" stop-color="#b37e10"/>
      <stop offset=".5" stop-color="#e5b747"/>
      <stop offset=".6" stop-color="#bb891d"/>
      <stop offset=".8" stop-color="#a87310"/>
      <stop offset=".9" stop-color="#ac7814"/>
      <stop offset=".9" stop-color="#b88721"/>
      <stop offset="1" stop-color="#c6972f"/>
    </linearGradient>
  </defs>
  <g id="_デザイン" data-name=" デザイン">
    <path class="cls-9" d="M226,114.6c-.5,0-1,0-1.4,0-1.4-.2-2.5-.5-3.5-1.1-1-.6-1.4-1.3-1.6-1.9,0-.3-.1-.6-.1-.7-.1-.1-.3-.3-.5-.6-.4-.6-.5-1.4-.4-2.4.1-1,.4-2.1.9-3.2.4-1,.9-1.9,1.4-2.7.5-.8.9-1.4,1.2-1.9.3-.4.6-.7.6-.7l.6-.6.2.8s.2.9.3,2.1c.1,1.1.2,2.8,0,4.1-.3,1.9-1,3.1-1.6,3.8.2,0,.5,0,.8,0,1.1,0,2.2.2,3.4.6,1.1.3,2.3.9,3.8,1.6,1.1.6,2,1,2,1l.8.4-.9.3s-.4.2-1.1.3h-.1c-.7.2-1.6.4-2.6.6-.8,0-1.5.1-2.1.1h0Z"/>
    <path class="cls-9" d="M234.3,107.6c-1,0-1.9-.1-2.7-.4-1.1-.4-1.7-1-1.9-1.5-.1-.3-.2-.5-.3-.7-.2,0-.4-.2-.6-.5-.5-.5-.8-1.3-.9-2.2-.1-1,0-2.2.2-3.3.2-1,.5-2,.8-2.9.3-.8.6-1.6.8-2.1l.8-1.6.6,1.4c.1.4.3.9.5,1.4.3.9.8,2.5.9,4,0,1.9-.4,3.3-.8,4.1.7-.2,1.6-.4,2.7-.4s1,0,1.5,0c1.4.2,3,.5,4.1.8l1.6.4,1.5.4-1.1.7c-.2.1-.4.2-.8.4-.7.4-1.6.8-2.6,1.1-1.3.4-2.4.7-3.5.8-.3,0-.6,0-.9,0h0Z"/>
    <path class="cls-9" d="M241.5,99c-.3,0-.6,0-.9,0-.9-.1-1.7-.5-2.2-1.1-.2-.2-.3-.5-.4-.6-.2,0-.4-.2-.7-.3-.4-.3-1-.9-1.4-2-.3-1-.4-2-.4-3.3,0-1.1,0-2.1.2-3,.1-.9.3-1.7.4-2.2.1-.5.2-.8.2-.8l.2-.9.5.7s.6.8,1.1,1.8c.4.8,1.2,2.3,1.6,3.7.2.9.3,1.8.3,2.8,0,.5-.1,1-.2,1.4.3-.2.8-.4,1.3-.6.8-.3,1.7-.5,2.8-.6.5,0,1.1,0,1.9,0s1.7,0,2.3,0c1.3,0,2.2.1,2.2.1h.9c0,0-.6.7-.6.7,0,0-.3.3-.9.8-.5.4-1.3,1-2.3,1.6-1,.6-2.1,1.1-3.2,1.4-.9.3-1.8.4-2.7.4h0Z"/>
    <path class="cls-9" d="M247.4,89.1c-.8,0-1.5-.2-2-.6-.2-.2-.4-.4-.5-.5-.2,0-.4,0-.7-.2-.5-.2-1.1-.7-1.7-1.7-1.1-2.1-1.4-4.5-1.5-6.1,0-.7,0-1.3,0-1.8v-.4c0-.6,0-.9,0-.9v-.9c0,0,.7.6.7.6,0,0,.7.7,1.5,1.6,1,1.1,1.8,2.3,2.3,3.3.4.9.7,1.8.8,2.7,0,.5,0,.9,0,1.4.4-.3.7-.6,1.1-.8.7-.4,1.6-.8,2.6-1.1,1.2-.4,2.7-.6,3.9-.8h.2c1.2-.2,2.2-.3,2.2-.3h.9c0-.1-.5.7-.5.7,0,0-.2.4-.7.9-.4.6-1.1,1.3-1.9,2-1.2,1.1-3.6,3-6.4,3.2-.1,0-.2,0-.4,0h0Z"/>
    <path class="cls-9" d="M251.6,78.2c-.5,0-.9,0-1.3-.3-.3-.1-.5-.3-.6-.4,0,0-.1,0-.2,0-.2,0-.3,0-.5,0-.5,0-1.3-.4-2-1.3-.6-.8-1.2-1.8-1.7-2.9-.2-.5-.4-.9-.6-1.5-.2-.4-.3-.9-.4-1.4-.2-.7-.3-1.3-.4-1.8v-.3c-.2-.6-.2-.9-.2-.9v-.9c0,0,.6.4.6.4,0,0,.8.5,1.8,1.2,1.2.9,2.3,1.9,2.9,2.8.9,1.2,1.5,2.5,1.6,3.8.6-.8,1.6-1.7,3.3-2.6,1.1-.6,2.6-1.2,3.8-1.6,1.2-.5,2.2-.8,2.2-.8l.9-.3-.4.9s-.2.4-.5,1.1c-.2.4-.7,1.3-1.5,2.4-.4.5-.7.9-1.1,1.3-.4.5-.9.9-1.3,1.3-1,.9-2.1,1.5-3.2,1.8-.4.1-.8.2-1.1.2h0Z"/>
    <path class="cls-9" d="M253.8,66.6c-.2,0-.5,0-.7,0-.3,0-.5-.2-.7-.3-.2,0-.4.1-.7.1-.5,0-1.3-.2-2.3-.9-1.8-1.4-3-3.4-3.8-5v-.3c-.4-.7-.7-1.3-.9-1.8-.2-.5-.3-.8-.3-.8l-.2-.8.8.3s.9.3,2,.8c1,.5,2.4,1.2,3.4,2.1.8.7,1.4,1.4,1.8,2.1.2.4.4.8.6,1.3.2-.4.5-.8.8-1.2.5-.7,1.2-1.4,1.9-2,.8-.7,2-1.5,3.4-2.4,1.1-.7,1.9-1.2,1.9-1.2l.8-.5-.2.9s0,.4-.3,1.1c-.2.6-.5,1.6-1,2.6-.5,1.2-2,4-4.6,5.4-.6.3-1.2.5-1.7.5h0Z"/>
    <path class="cls-9" d="M251.4,55c-.6,0-1.2-.2-1.8-.5-.9-.5-1.9-1.1-2.7-2-.8-.8-1.5-1.6-2-2.2l-.4-.5c-.4-.5-.7-1-1-1.3-.3-.5-.5-.8-.5-.8l-.4-.8h.8c0,.1.9.3,2.1.6,1.1.3,2.7.8,3.8,1.4.9.5,1.6,1,2.2,1.7.4.4.6.8.8,1.1.1-.4.3-.8.5-1.3.4-.8.9-1.6,1.5-2.4,1-1.2,2.2-2.4,2.9-3,.9-.9,1.6-1.5,1.6-1.5l.7-.6v1s0,.4,0,1.2v.2c0,.7-.2,1.6-.4,2.5-.3,1-.6,2.2-1.2,3.3-.6,1.2-1.4,2.2-2.2,2.9-.7.6-1.4.9-2.2.9h-.1c-.3,0-.6,0-.7-.2-.2,0-.4.2-.7.3-.2,0-.4,0-.6,0h0Z"/>
    <path class="cls-9" d="M248.9,43.9c-.4,0-.8,0-1.2-.2-1-.3-2-.7-3.1-1.4-.9-.6-1.8-1.2-2.4-1.8-.2-.2-.5-.4-.7-.6-.4-.3-.7-.6-1-.9-.4-.4-.6-.7-.6-.7l-.6-.7h.9s.4,0,1,0,.7,0,1.2,0c1.7,0,3.1.3,4,.6.9.3,1.8.7,2.5,1.2.4.3.8.6,1,1,0-.4.1-.9.2-1.4.2-.8.5-1.8,1-2.7.8-1.4,1.7-2.8,2.2-3.5.7-1,1.3-1.8,1.3-1.8l.6-.8.2.9s0,.4.2,1.1v.3c.1.7.2,1.5.2,2.5,0,1-.1,2.3-.5,3.5-.4,1.3-.9,2.4-1.6,3.2-.8.9-1.6,1.2-2.1,1.3-.1,0-.3,0-.4,0s-.3,0-.4,0c-.1.1-.4.3-.6.4-.4.2-.8.2-1.2.2h0Z"/>
    <path class="cls-9" d="M243.9,33.6c-.1,0-.2,0-.4,0-1,0-2.1-.3-3.2-.8-.9-.3-1.9-.7-2.8-1.2-.4-.2-.8-.4-1.1-.6l-.8-.5c-.5-.3-.8-.5-.8-.5l-.7-.5.8-.2s.9-.2,2.1-.4c.5,0,1.2-.2,2-.2.3,0,.6,0,.9,0,.4,0,.8,0,1.2,0,1.6.2,3,.7,3.9,1.4-.1-1.1-.1-2.4.4-4.2.2-.6.4-1.2.7-2,.3-.7.5-1.3.8-1.9.5-1.2.9-2,.9-2l.4-.8.4.9s.2.4.4,1.1h0c.1.4.2.8.4,1.2.1.5.2,1,.3,1.5.2,1.3.3,2.5.2,3.5-.1,1.4-.4,2.6-1,3.5-.4.9-1.1,1.4-1.8,1.7-.3.1-.6.1-.7.2-.1.2-.3.3-.6.5-.4.2-1,.6-2,.6h0Z"/>
    <path class="cls-9" d="M236.2,24.6c-.6,0-1.3,0-2-.2-.9-.1-2-.4-2.9-.7-.5-.2-1-.3-1.4-.5-.2-.1-.5-.2-.7-.2-.6-.2-.9-.4-.9-.4l-.8-.4.8-.4s.9-.4,2-.9c1.3-.5,2.7-.9,3.9-1,.3,0,.7,0,1,0,.6,0,1.2,0,1.8.2.5.1.9.3,1.3.5-.1-.4-.2-.8-.3-1.4-.2-.9-.2-1.8-.1-2.8,0-1.1.3-2.4.5-3.5v-.7c.4-1.2.6-2.2.6-2.2l.2-.9.5.8s.3.4.6,1c.4.5.8,1.4,1.2,2.5.4,1.1.8,2.2.9,3.4.2,1.4,0,2.6-.2,3.6-.3.9-.7,1.6-1.4,2-.3.2-.5.2-.7.3,0,.2-.2.4-.4.6-.4.4-1,.9-2.2,1-.4,0-.9,0-1.4,0h0Z"/>
    <path class="cls-9" d="M232.9,16.3c-1,0-3-.3-5.2-2.6-1.8-1.8-3.6-5-3.6-5.1l-.4-.8h.9c.2.2,6.1,1.2,8.8,4.9,1.4,1.9.6,3.2.6,3.3h0c0,.1-.2.2-.2.2,0,0-.3,0-.7,0h0Z"/>
    <path class="cls-9" d="M35.5,114.6c.5,0,1,0,1.4,0,1.3-.2,2.5-.5,3.5-1.1,1-.6,1.4-1.3,1.6-1.9,0-.3.1-.6.1-.7.1-.1.3-.3.5-.6.4-.6.5-1.4.4-2.4-.1-1-.4-2.1-.9-3.2-.4-1-.9-1.9-1.4-2.7-.5-.8-.9-1.4-1.2-1.9-.3-.4-.6-.7-.6-.7l-.6-.6-.2.8s-.2.9-.3,2.1c-.1,1.1-.2,2.8,0,4.1.3,1.9,1,3.1,1.6,3.8-.2,0-.5,0-.8,0-1.1,0-2.2.2-3.4.6-1,.3-2.3.9-3.8,1.6-1.1.6-2,1-2,1l-.8.4.9.3s.4.2,1.1.3h.1c.7.2,1.6.4,2.6.6.8,0,1.5.1,2.1.1h0Z"/>
    <path class="cls-9" d="M27.2,107.6c1,0,1.9-.1,2.7-.4,1.1-.4,1.7-1,2-1.5.2-.3.2-.5.3-.7.2,0,.4-.2.6-.5.5-.5.8-1.3.9-2.2,0-1,0-2.2-.2-3.3-.2-1-.5-2-.8-2.9-.3-.8-.6-1.6-.8-2.1l-.8-1.6-.6,1.4c-.1.4-.3.9-.5,1.4-.3.9-.8,2.5-.9,4,0,1.9.4,3.3.8,4.1-.7-.2-1.5-.4-2.7-.4s-1,0-1.5,0c-1.4.2-3,.5-4.1.8l-1.5.4-1.5.4,1.1.7c.2.1.5.2.8.4.7.4,1.6.8,2.6,1.1,1.3.4,2.4.7,3.5.8.3,0,.6,0,.9,0h0Z"/>
    <path class="cls-9" d="M20,99c.3,0,.6,0,.9,0,1-.1,1.7-.5,2.2-1.1.2-.2.3-.5.4-.6.2,0,.4-.2.7-.3.4-.3,1-.9,1.4-2,.3-1,.4-2,.5-3.3,0-1.1,0-2.1-.2-3-.1-.9-.3-1.7-.4-2.2-.1-.5-.2-.8-.2-.8l-.2-.9-.5.7s-.6.8-1.1,1.8c-.4.8-1.2,2.3-1.6,3.7-.2.9-.3,1.8-.3,2.8,0,.5.1,1,.2,1.4-.3-.2-.8-.4-1.3-.6-.8-.3-1.7-.5-2.8-.6-.5,0-1.1,0-1.9,0s-1.7,0-2.3,0c-1.3,0-2.2.1-2.2.1h-.9c0,0,.6.7.6.7,0,0,.3.3.9.8.5.4,1.3,1,2.3,1.6,1,.6,2.2,1.1,3.2,1.4.9.3,1.8.4,2.7.4h0Z"/>
    <path class="cls-9" d="M14.2,89.1c.8,0,1.5-.2,2-.6.2-.2.4-.4.5-.5.2,0,.4,0,.7-.2.5-.2,1.1-.7,1.7-1.7,1.1-2.1,1.4-4.5,1.5-6.1,0-.7,0-1.3,0-1.8v-.4c0-.6,0-.9,0-.9v-.9c0,0-.7.6-.7.6,0,0-.7.7-1.5,1.6-1,1.1-1.8,2.3-2.3,3.3-.4.9-.7,1.8-.8,2.7,0,.5,0,.9,0,1.4-.4-.3-.7-.6-1.1-.8-.7-.4-1.6-.8-2.6-1.1-1.2-.4-2.7-.6-3.9-.8h-.2c-1.2-.2-2.2-.3-2.2-.3h-.9c0-.1.5.7.5.7,0,0,.2.4.7.9.4.6,1.1,1.3,1.9,2,1.2,1.1,3.6,3,6.4,3.2.1,0,.2,0,.4,0h0Z"/>
    <path class="cls-9" d="M9.9,78.2c.5,0,.9,0,1.3-.3.3-.1.5-.3.6-.4,0,0,.1,0,.2,0,.2,0,.3,0,.5,0,.5,0,1.3-.4,2-1.3.6-.8,1.2-1.8,1.7-2.9.2-.5.4-.9.5-1.5.2-.4.3-.9.4-1.4.2-.7.3-1.3.4-1.8v-.3c.2-.6.2-.9.2-.9v-.9c0,0-.6.4-.6.4,0,0-.8.5-1.8,1.2-1.2.9-2.3,1.9-2.9,2.8-.9,1.2-1.5,2.5-1.6,3.8-.6-.8-1.6-1.7-3.3-2.6-1.2-.6-2.6-1.2-3.8-1.6-1.2-.5-2.2-.8-2.2-.8l-.9-.3.4.9s.2.4.5,1.1c.2.4.7,1.3,1.5,2.4.3.5.7.9,1.1,1.3.4.5.9.9,1.3,1.3,1,.9,2.1,1.5,3.2,1.8.4.1.8.2,1.1.2h0Z"/>
    <path class="cls-9" d="M7.8,66.6c.2,0,.5,0,.7,0,.3,0,.5-.2.7-.3.2,0,.4.1.7.1.5,0,1.3-.2,2.3-.9,1.8-1.4,3-3.4,3.8-5v-.3c.5-.7.7-1.3.9-1.8.2-.5.3-.8.3-.8l.2-.8-.8.3s-.9.3-2,.8c-1,.5-2.4,1.2-3.4,2.1-.8.7-1.4,1.4-1.8,2.1-.2.4-.4.8-.6,1.3-.2-.4-.5-.8-.8-1.2-.5-.7-1.2-1.4-1.9-2-.8-.7-2-1.5-3.4-2.4-1.1-.7-1.9-1.2-1.9-1.2l-.8-.5.2.9s0,.4.3,1.1c.2.6.5,1.6,1,2.6.5,1.2,2,4,4.6,5.4.6.3,1.2.5,1.7.5Z"/>
    <path class="cls-9" d="M10.1,55c.6,0,1.2-.2,1.8-.5.9-.5,1.9-1.1,2.7-2,.8-.8,1.5-1.6,2-2.2l.4-.5c.4-.5.7-1,1-1.3.3-.5.5-.8.5-.8l.4-.8h-.8c0,.1-.9.3-2.1.6-1.1.3-2.7.8-3.8,1.4-.9.5-1.6,1-2.2,1.7-.4.4-.6.8-.8,1.1-.1-.4-.3-.8-.5-1.3-.4-.8-.9-1.6-1.5-2.4-1-1.2-2.2-2.4-2.9-3-.9-.9-1.7-1.5-1.7-1.5l-.7-.6v1s0,.4,0,1.2v.2c0,.7.2,1.6.4,2.5.3,1,.6,2.2,1.2,3.3.6,1.2,1.4,2.2,2.2,2.9.7.6,1.4.9,2.2.9h.1c.3,0,.6,0,.7-.2.2,0,.4.2.7.3.2,0,.4,0,.6,0h0Z"/>
    <path class="cls-9" d="M12.7,43.9c.4,0,.8,0,1.2-.2,1-.3,2-.7,3.1-1.4.9-.6,1.8-1.2,2.4-1.8.2-.2.5-.4.7-.6.4-.3.7-.6,1-.9.4-.4.6-.7.6-.7l.6-.7h-.9s-.4,0-1,0-.7,0-1.2,0c-1.7,0-3.1.3-4,.6-.9.3-1.8.7-2.5,1.2-.4.3-.8.6-1,1,0-.4-.1-.9-.2-1.4-.2-.8-.5-1.8-1-2.7-.8-1.4-1.7-2.8-2.2-3.5-.7-1-1.3-1.8-1.3-1.8l-.6-.8-.2.9s0,.4-.2,1.1v.3c-.1.7-.2,1.5-.2,2.5,0,1,.1,2.3.5,3.5.4,1.3.9,2.4,1.6,3.2.8.9,1.6,1.2,2.1,1.3.1,0,.3,0,.4,0s.3,0,.4,0c.1.1.4.3.6.4.4.2.8.2,1.2.2h0Z"/>
    <path class="cls-9" d="M17.6,33.6c.1,0,.2,0,.4,0,1,0,2.1-.3,3.2-.8.9-.3,1.9-.7,2.8-1.2.4-.2.8-.4,1.1-.6l.8-.5c.5-.3.8-.5.8-.5l.7-.5-.8-.2s-.9-.2-2.1-.4c-.5,0-1.2-.2-2-.2-.3,0-.6,0-.9,0-.4,0-.8,0-1.2,0-1.6.2-3,.7-3.9,1.4.1-1.1.1-2.4-.4-4.2-.2-.6-.4-1.2-.7-2-.3-.7-.5-1.3-.8-1.9-.5-1.2-.9-2-.9-2l-.4-.8-.4.9s-.2.4-.4,1.1h0c-.1.4-.2.8-.4,1.2-.1.5-.2,1-.3,1.5-.2,1.3-.3,2.5-.2,3.5.1,1.4.4,2.6,1,3.5.4.9,1.1,1.4,1.8,1.7.3.1.6.1.7.2.1.2.3.3.6.5.4.2,1,.6,2,.6h0Z"/>
    <path class="cls-9" d="M25.4,24.6c.6,0,1.3,0,2-.2.9-.1,2-.4,2.9-.7.5-.2,1-.3,1.4-.5.2-.1.5-.2.7-.2.5-.2.9-.4.9-.4l.8-.4-.8-.4s-.8-.4-2-.9c-1.3-.5-2.7-.9-3.9-1-.3,0-.7,0-1,0-.6,0-1.2,0-1.8.2-.5.1-.9.3-1.3.5.1-.4.2-.8.3-1.4.2-.9.2-1.8.1-2.8,0-1.1-.3-2.4-.5-3.5v-.7c-.4-1.2-.6-2.2-.6-2.2l-.2-.9-.5.8s-.3.4-.6,1c-.4.5-.8,1.4-1.2,2.5-.4,1.1-.8,2.2-.9,3.4-.2,1.4,0,2.6.2,3.6.3.9.7,1.6,1.4,2,.3.2.5.2.7.3,0,.2.2.4.4.6.4.4,1,.9,2.2,1,.4,0,.9,0,1.4,0h0Z"/>
    <path class="cls-9" d="M28.6,16.3c1,0,3-.3,5.2-2.6,1.8-1.8,3.5-5,3.6-5.1l.4-.8h-.9c-.2.2-6.1,1.2-8.8,4.9-1.4,1.9-.6,3.2-.6,3.3h0c0,.1.2.2.2.2,0,0,.3,0,.7,0h0Z"/>
    <path class="cls-4" d="M93.1,39c-3.8,0-5,.5-6,1.5-1.3,1.1-2.5,2.8-3.6,4.5-.3.5-.5.7-1.4.5-.7,0-.8-.3-.6-.8,1.5-3.5,3.8-9,5.1-12.7,4.5.2,9,.2,13.8.2s9,0,13.5-.2c.4,0,.5,0,.2,1.5-.2,1-.3,1.3-.8,1.8-9.8,12-16.1,21.6-19.9,29.9-1.7,3.5-2.8,6.7-3.4,9.1-.5,1.9-.6,3-1.1,4.6-.6,2.2-3.6,3.7-6.2,3.7s-4.1-.8-3.5-3c1.4-5.2,4.8-10.9,9.6-17.5,4.9-6.7,10.9-13.9,19.3-23.1h-14.9,0Z"/>
    <path class="cls-5" d="M144.3,56.9c-4.2,15.8-12.5,25.8-22.1,25.8s-12.9-9.5-8.7-25.4c4.2-16.1,12.5-26,22.3-26s12.7,9.9,8.5,25.6ZM121.6,57.1c-3.8,14.3-4.7,23.5,1.2,23.5s9.6-9.2,13.4-23.5c3.8-14.4,4.9-23.7-1-23.7s-9.8,9.3-13.6,23.7h0Z"/>
    <path class="cls-8" d="M189.8,66.2l-4.3,16.3h-3l.4-1.6h-18.6l-.4,1.5h-2.9l3.3-12.5c-4.1,1.9-8.3,3.4-12.3,4.5-.1-.7-.6-1.8-1.1-2.2,5.9-1.4,12.5-4,18.4-7.6-1.3-1.7-3.5-3.8-5.6-5.3l2.6-1.5c2.1,1.4,4.4,3.5,5.8,5.2,4.2-2.7,8-6,10.9-9.5h-13.7c-3.6,2.9-8.1,5.8-13.3,8.2-.3-.6-1-1.5-1.6-1.9,8-3.5,14.3-8.5,18-12.6l3.7.6c-.2.3-.5.5-1.1.5-.9,1-1.9,1.9-3.1,2.9h13.3l.6-.2,1.9,1c-.2.2-.4.3-.6.3-4.1,5.5-9.7,10.3-15.9,14h18.5,0ZM165,78.6h18.6l2.6-10h-18.6l-2.6,10Z"/>
    <path class="cls-7" d="M130.9,106h-13.1c1.1,4.2,4.8,6.4,11.6,7.2-.6.5-1.5,1.3-2,2-7.3-1.1-11-3.8-11.9-9.2h-.4c-2.8,4.3-7.1,7.5-16.6,9.1,0-.5-.4-1.3-.7-1.8,8.2-1.3,12.3-3.8,14.8-7.3h-12.6l.5-1.9h13.3c.7-1.3,1.3-2.8,1.9-4.5l3,.2c0,.2-.4.4-.8.4-.5,1.3-1.1,2.6-1.7,3.8h15.2l-.5,1.9h0ZM113.8,92.5l2.3.2c0,.2-.4.3-.8.4-2,4.3-4.7,7.1-12.9,8.5-.1-.5-.5-1.2-.8-1.6,7.4-1.2,9.8-3.4,11.5-7.5h-6.3l-.9,3.6h-2.3l1.4-5.4h13.1l.9-3.4,3,.2c0,.2-.3.4-.8.4l-.8,2.9h13.3l-1.4,5.4h-2.4l.9-3.6h-6.5c-.1,0-.3.2-.6.2l-1.4,5.4c-.2.7,0,.8,1.2.8h4.3c.9,0,1.2-.2,1.6-1.9.4.3,1.2.6,1.8.7-.8,2.3-1.6,2.9-3.7,2.9h-4.8c-2.8,0-3.4-.5-2.9-2.5l1.5-5.6h-7.8s0,0,0,0Z"/>
    <path class="cls-6" d="M144.1,111.1h-6.7l-.7,2.6h-2l2.8-10.6c-1.1,1.3-2.2,2.6-3.4,3.6-.1-.4-.5-1.3-.8-1.8,3.5-3,6.6-8.3,9.1-13.9h-4.5l.5-1.9h12.9l-.5,1.9h-6.1c-1.1,2.5-2.3,4.9-3.7,7.1h6.6l-3.4,13h0ZM142.6,109.3l2.5-9.4h-4.6l-2.5,9.4h4.6ZM164.4,98.9l1.3.5c-.1.2-.2.3-.4.4-2.1,3.9-4.8,7.2-7.8,9.8,1.6,1.8,3.6,3.2,6.3,4.1-.6.4-1.5,1.1-1.9,1.7-2.6-.9-4.7-2.4-6.2-4.3-2.5,1.8-5.2,3.2-7.9,4.3-.1-.5-.6-1.3-.9-1.7,2.6-.9,5.3-2.3,7.7-4.1-1.4-2.2-2.1-4.9-2.4-7.9l2-.4c.2,2.6.9,5,2.2,7,2.3-2,4.4-4.4,6-7.2h-10.9c-1.3,4.5-3.7,10.4-8.2,14.4-.2-.4-1-1.1-1.4-1.3,4.7-4.2,6.6-10.1,7.7-14.4l2.1-7.9h7.2l1.1-4.3,2.8.2c0,.2-.3.4-.8.4l-1,3.8h8c0,.2-1.9,3.9-3.5,6.3l-1.8-.5c.6-1.1,1.4-2.5,2.2-3.9h-5.3l-1.5,5.5h5.2c0,0,0,0,0,0ZM158.5,93.4h-5l-1.5,5.5h5l1.5-5.5Z"/>
    <g class="cls-3">
      <text class="cls-1" transform="translate(67.8 18.9)"><tspan x="0" y="0">代理店加盟数</tspan></text>
    </g>
  </g>
  <g class="cls-3">
    <g class="cls-3">
      <text class="cls-2" transform="translate(75.6 132.2)"><tspan x="0" y="0">※2026年2月10日現在</tspan></text>
    </g>
  </g>
</svg>