<?xml version="1.0" encoding="UTF-8"?><svg id="_レイヤー_2" xmlns="http://www.w3.org/2000/svg" width="261.53" height="125.76" xmlns:xlink="http://www.w3.org/1999/xlink" viewBox="0 0 261.53 125.76"><defs><style>.cls-1{fill:url(#_名称未設定グラデーション_212);}.cls-1,.cls-2{stroke-width:0px;}.cls-3{fill:#3e3a39;font-family:SourceHanSansJP-Bold-83pv-RKSJ-H, 'Source Han Sans JP';font-size:21.48px;font-weight:700;}.cls-2{fill:#c1981c;}</style><linearGradient id="_名称未設定グラデーション_212" x1="79.03" y1="74.73" x2="189.82" y2="74.73" gradientUnits="userSpaceOnUse"><stop offset=".03" stop-color="#a77210"/><stop offset=".07" stop-color="#aa7613"/><stop offset=".12" stop-color="#b5821e"/><stop offset=".16" stop-color="#c8972f"/><stop offset=".19" stop-color="#dcae43"/><stop offset=".35" stop-color="#b37e10"/><stop offset=".52" stop-color="#e5b747"/><stop offset=".64" stop-color="#bb891d"/><stop offset=".81" stop-color="#a87310"/><stop offset=".87" stop-color="#ac7814"/><stop offset=".95" stop-color="#b88721"/><stop offset="1" stop-color="#c6972f"/></linearGradient></defs><g id="_デザイン"><path class="cls-2" d="M226.02,114.62c-.5,0-.97-.03-1.42-.08-1.35-.18-2.51-.54-3.46-1.09-1.03-.6-1.44-1.34-1.61-1.87-.09-.3-.12-.56-.12-.74-.14-.12-.32-.31-.49-.58-.39-.62-.54-1.43-.44-2.39.11-1.04.41-2.13.9-3.24.41-.97.89-1.9,1.38-2.67.49-.79.9-1.43,1.23-1.87.33-.45.56-.71.56-.71l.56-.64.17.83s.19.91.32,2.11c.12,1.13.23,2.75.03,4.05-.3,1.91-1.02,3.11-1.61,3.81.25-.02.5-.03.75-.03,1.09,0,2.21.2,3.43.6,1.05.35,2.34.9,3.84,1.63,1.15.56,2.01,1.02,2.01,1.02l.84.45-.89.33s-.42.15-1.11.35l-.12.03c-.66.18-1.57.42-2.62.55-.81.09-1.48.13-2.12.13h0Z"/><path class="cls-2" d="M234.34,107.62c-1.01,0-1.93-.14-2.74-.41-1.13-.37-1.68-1.03-1.95-1.51-.15-.28-.23-.52-.26-.7-.16-.09-.38-.24-.6-.47-.51-.53-.81-1.29-.91-2.25-.1-1.04-.03-2.17.23-3.35.18-.97.47-1.98.81-2.89.28-.81.57-1.55.83-2.07l.8-1.63.59,1.43c.14.36.33.86.51,1.44.28.86.76,2.52.85,3.96.09,1.94-.37,3.26-.81,4.05.66-.2,1.55-.38,2.7-.38.48,0,.99.03,1.51.1,1.36.15,2.99.54,4.09.82l1.55.41,1.53.42-1.06.67c-.19.11-.45.25-.76.41-.71.36-1.56.77-2.56,1.12-1.29.42-2.42.67-3.46.77-.3.02-.59.03-.88.03h0Z"/><path class="cls-2" d="M241.5,99.03c-.31,0-.61-.02-.9-.05-.95-.12-1.69-.48-2.21-1.08-.21-.24-.33-.47-.4-.64-.18-.05-.42-.15-.67-.33-.42-.29-1-.88-1.35-2.03-.3-.96-.44-2.01-.45-3.31-.03-1.09.09-2.13.22-3,.12-.94.28-1.72.4-2.2.12-.53.21-.85.21-.85l.22-.89.53.74s.56.78,1.15,1.83c.44.77,1.22,2.27,1.62,3.7.25.92.34,1.82.27,2.77-.04.49-.12.96-.25,1.38.34-.19.76-.39,1.26-.56.75-.27,1.7-.46,2.8-.57.53-.05,1.14-.08,1.87-.08.84,0,1.68.04,2.32.07,1.28.06,2.23.13,2.23.13l.9.06-.62.65s-.32.33-.88.79c-.52.41-1.33,1.02-2.29,1.61-1,.59-2.15,1.11-3.24,1.45-.92.28-1.84.41-2.72.41h0Z"/><path class="cls-2" d="M247.37,89.13c-.8,0-1.47-.21-2.01-.63-.25-.19-.42-.39-.52-.54-.18-.02-.44-.07-.73-.19-.47-.2-1.15-.66-1.73-1.71-1.11-2.08-1.39-4.5-1.5-6.14-.05-.68-.05-1.29-.04-1.78v-.44c0-.58.03-.92.03-.92l.08-.87.64.6s.68.65,1.49,1.56c.96,1.08,1.81,2.29,2.32,3.3.45.89.73,1.76.83,2.67.06.48.06.95.03,1.39.35-.3.73-.57,1.13-.8.73-.42,1.6-.8,2.61-1.11,1.19-.37,2.72-.62,3.95-.82l.16-.03c1.25-.2,2.21-.32,2.21-.32l.92-.11-.52.77s-.25.37-.69.93c-.42.55-1.11,1.27-1.93,2.04-1.2,1.09-3.61,2.96-6.36,3.15-.13,0-.25.01-.37.01Z"/><path class="cls-2" d="M251.63,78.2c-.48,0-.92-.1-1.32-.29-.28-.14-.49-.3-.62-.43-.07,0-.15.01-.24.01-.17,0-.34-.02-.52-.05-.5-.1-1.27-.42-2.03-1.33-.65-.79-1.23-1.76-1.72-2.87-.2-.46-.38-.94-.55-1.47-.16-.44-.3-.91-.43-1.37-.18-.69-.31-1.31-.41-1.81l-.07-.35c-.11-.57-.14-.91-.14-.91l-.09-.86.73.45s.8.5,1.77,1.23c1.19.89,2.27,1.91,2.94,2.78.94,1.19,1.5,2.47,1.64,3.8.6-.75,1.6-1.7,3.29-2.63,1.15-.61,2.62-1.18,3.8-1.63,1.24-.47,2.16-.77,2.16-.77l.89-.3-.37.86s-.17.41-.5,1.05c-.21.43-.68,1.31-1.48,2.39-.35.47-.71.93-1.07,1.34-.43.46-.88.88-1.33,1.26-1.03.86-2.11,1.46-3.18,1.75-.39.11-.78.17-1.14.17Z"/><path class="cls-2" d="M253.75,66.61c-.24,0-.48-.03-.72-.09-.31-.08-.54-.2-.69-.29-.17.05-.43.11-.74.11-.52,0-1.33-.16-2.26-.9-1.78-1.41-2.96-3.44-3.79-5.05l-.12-.26c-.33-.7-.62-1.31-.8-1.78-.21-.52-.31-.85-.31-.85l-.25-.82.8.29s.88.32,1.97.85c1.02.49,2.45,1.25,3.45,2.13.75.65,1.36,1.36,1.81,2.12.23.42.42.84.55,1.27.2-.4.46-.8.75-1.18.51-.71,1.17-1.4,1.95-2.05.84-.68,1.99-1.48,3.43-2.39,1.08-.68,1.93-1.17,1.93-1.17l.82-.47-.19.92s-.09.43-.29,1.13c-.19.64-.47,1.6-.97,2.64-.52,1.16-2.03,4.05-4.6,5.38-.59.3-1.17.46-1.73.46Z"/><path class="cls-2" d="M251.42,54.99c-.58,0-1.19-.16-1.82-.48-.93-.46-1.85-1.12-2.72-1.96-.82-.8-1.52-1.57-2.02-2.23l-.36-.48c-.39-.52-.73-.96-.96-1.33-.31-.47-.47-.76-.47-.76l-.4-.75.84.13s.92.14,2.1.44c1.12.28,2.69.75,3.81,1.39.85.47,1.59,1.05,2.19,1.71.36.4.61.78.8,1.13.11-.4.28-.83.48-1.3.35-.79.86-1.61,1.51-2.42.97-1.18,2.22-2.41,2.87-3.03.93-.88,1.65-1.53,1.65-1.53l.71-.63v.95s0,.44-.06,1.16l-.02.25c-.06.7-.14,1.56-.39,2.53-.26,1.03-.6,2.23-1.19,3.34-.63,1.2-1.38,2.16-2.22,2.86-.71.57-1.45.86-2.18.86h-.14c-.31-.02-.56-.09-.73-.15-.16.09-.4.2-.71.26-.18.04-.37.06-.57.06Z"/><path class="cls-2" d="M248.85,43.93c-.38,0-.78-.06-1.2-.17-1.01-.27-2.04-.73-3.06-1.38-.94-.6-1.79-1.21-2.43-1.78-.24-.22-.48-.43-.7-.62-.38-.33-.72-.62-.97-.88-.4-.39-.62-.65-.62-.65l-.56-.65.86-.04s.37-.02.96-.02c.34,0,.74,0,1.19.03,1.72.08,3.07.28,4.03.6.93.29,1.77.71,2.49,1.23.43.31.76.64,1.02.95.03-.4.1-.86.21-1.37.19-.85.52-1.75,1-2.67.76-1.43,1.7-2.83,2.2-3.53.72-1.05,1.31-1.82,1.31-1.82l.56-.75.19.92s.09.43.18,1.14l.04.35c.08.67.18,1.5.12,2.45-.05,1.04-.14,2.28-.5,3.5-.38,1.3-.92,2.4-1.6,3.25-.76.93-1.56,1.22-2.1,1.31-.14.02-.27.03-.39.03-.14,0-.26-.01-.36-.03-.14.12-.35.27-.65.4-.36.16-.77.24-1.22.24Z"/><path class="cls-2" d="M243.89,33.62c-.11,0-.23,0-.35-.01-1.04-.07-2.13-.32-3.25-.76-.92-.32-1.85-.74-2.75-1.24-.39-.22-.75-.44-1.06-.64l-.83-.5c-.49-.31-.76-.51-.76-.51l-.7-.53.84-.22s.91-.24,2.12-.43c.5-.08,1.25-.19,2.01-.24.29-.02.57-.02.85-.02.42,0,.81.02,1.17.06,1.58.17,2.96.68,3.9,1.43-.14-1.1-.15-2.43.36-4.19.16-.56.39-1.22.7-2.01.26-.67.52-1.32.77-1.91.49-1.17.9-2.04.9-2.04l.39-.84.38.85s.18.4.42,1.08l.04.1c.11.32.24.68.35,1.09.13.53.23,1.04.31,1.53.21,1.28.3,2.46.24,3.51-.13,1.38-.45,2.56-.96,3.53-.45.85-1.05,1.42-1.79,1.69-.3.11-.55.14-.74.15-.11.15-.29.34-.55.51-.37.25-1.02.56-2.03.56Z"/><path class="cls-2" d="M236.17,24.57c-.63,0-1.3-.06-1.98-.17-.88-.15-2.01-.37-2.94-.67-.52-.16-.97-.33-1.38-.48-.25-.1-.48-.18-.69-.25-.55-.2-.86-.35-.86-.35l-.8-.37.79-.39s.85-.42,1.99-.86c1.31-.52,2.73-.89,3.9-1.01.34-.03.67-.05.99-.05.62,0,1.23.06,1.8.19.51.12.94.29,1.3.48-.12-.38-.24-.82-.34-1.35-.17-.85-.22-1.8-.15-2.83.07-1.08.31-2.36.53-3.48l.12-.66c.25-1.25.47-2.19.47-2.19l.21-.9.54.75s.26.36.63.97c.35.53.77,1.39,1.23,2.54.4,1.05.8,2.18.94,3.42.16,1.35.09,2.57-.22,3.63-.26.92-.74,1.6-1.41,2.01-.27.17-.52.25-.69.3-.08.16-.21.39-.43.61-.35.37-1.03.85-2.22,1.02-.44.06-.9.09-1.37.09Z"/><path class="cls-2" d="M232.93,16.34c-1.01,0-3.03-.33-5.19-2.56-1.76-1.81-3.55-4.98-3.63-5.11l-.44-.78.88.15c.25.04,6.07,1.1,8.82,4.74,1.4,1.85.59,3.24.56,3.3l-.09.15-.17.04s-.29.07-.73.07h0Z"/><path class="cls-2" d="M35.51,114.62c.5,0,.97-.03,1.42-.08,1.35-.18,2.51-.54,3.46-1.09,1.03-.6,1.44-1.34,1.61-1.87.09-.3.12-.56.12-.74.14-.12.32-.31.49-.58.39-.62.54-1.43.44-2.39-.11-1.04-.41-2.13-.9-3.24-.41-.97-.89-1.9-1.38-2.67-.49-.79-.9-1.43-1.23-1.87-.33-.45-.56-.71-.56-.71l-.56-.64-.17.83s-.19.91-.32,2.11c-.12,1.13-.23,2.75-.03,4.05.3,1.91,1.02,3.11,1.61,3.81-.25-.02-.5-.03-.75-.03-1.09,0-2.21.2-3.43.6-1.05.35-2.34.9-3.84,1.63-1.15.56-2.01,1.02-2.01,1.02l-.84.45.89.33s.42.15,1.11.35l.12.03c.66.18,1.57.42,2.62.55.81.09,1.48.13,2.12.13h0Z"/><path class="cls-2" d="M27.19,107.62c1.01,0,1.93-.14,2.74-.41,1.13-.37,1.68-1.03,1.95-1.51.15-.28.23-.52.26-.7.16-.09.38-.24.6-.47.51-.53.81-1.29.91-2.25.1-1.04.03-2.17-.23-3.35-.18-.97-.47-1.98-.81-2.89-.28-.81-.57-1.55-.83-2.07l-.8-1.63-.59,1.43c-.14.36-.33.86-.51,1.44-.28.86-.76,2.52-.85,3.96-.09,1.94.37,3.26.81,4.05-.66-.2-1.55-.38-2.7-.38-.48,0-.99.03-1.51.1-1.36.15-2.99.54-4.09.82l-1.55.41-1.53.42,1.06.67c.19.11.45.25.76.41.71.36,1.56.77,2.56,1.12,1.29.42,2.42.67,3.46.77.3.02.59.03.88.03h0Z"/><path class="cls-2" d="M20.03,99.03c.31,0,.61-.02.9-.05.95-.12,1.69-.48,2.21-1.08.21-.24.33-.47.4-.64.18-.05.42-.15.67-.33.42-.29,1-.88,1.35-2.03.3-.96.44-2.01.45-3.31.03-1.09-.09-2.13-.22-3-.12-.94-.28-1.72-.4-2.2-.12-.53-.21-.85-.21-.85l-.22-.89-.53.74s-.56.78-1.15,1.83c-.44.77-1.22,2.27-1.62,3.7-.25.92-.34,1.82-.27,2.77.04.49.12.96.25,1.38-.34-.19-.76-.39-1.26-.56-.75-.27-1.7-.46-2.8-.57-.53-.05-1.14-.08-1.87-.08-.84,0-1.68.04-2.32.07-1.28.06-2.23.13-2.23.13l-.9.06.62.65s.32.33.88.79c.52.41,1.33,1.02,2.29,1.61,1,.59,2.15,1.11,3.24,1.45.92.28,1.84.41,2.72.41h0Z"/><path class="cls-2" d="M14.16,89.13c.8,0,1.47-.21,2.01-.63.25-.19.42-.39.52-.54.18-.02.44-.07.73-.19.47-.2,1.15-.66,1.73-1.71,1.11-2.08,1.39-4.5,1.5-6.14.05-.68.05-1.29.04-1.78v-.44c0-.58-.03-.92-.03-.92l-.08-.87-.64.6s-.68.65-1.49,1.56c-.96,1.08-1.81,2.29-2.32,3.3-.45.89-.73,1.76-.83,2.67-.06.48-.06.95-.03,1.39-.35-.3-.73-.57-1.13-.8-.73-.42-1.6-.8-2.61-1.11-1.19-.37-2.72-.62-3.95-.82l-.16-.03c-1.25-.2-2.21-.32-2.21-.32l-.92-.11.52.77s.25.37.69.93c.42.55,1.11,1.27,1.93,2.04,1.2,1.09,3.61,2.96,6.36,3.15.13,0,.25.01.37.01Z"/><path class="cls-2" d="M9.9,78.2c.48,0,.92-.1,1.32-.29.28-.14.49-.3.62-.43.07,0,.15.01.24.01.17,0,.34-.02.52-.05.5-.1,1.27-.42,2.03-1.33.65-.79,1.23-1.76,1.72-2.87.2-.46.38-.94.55-1.47.16-.44.3-.91.43-1.37.18-.69.31-1.31.41-1.81l.07-.35c.11-.57.14-.91.14-.91l.09-.86-.73.45s-.8.5-1.77,1.23c-1.19.89-2.27,1.91-2.94,2.78-.94,1.19-1.5,2.47-1.64,3.8-.6-.75-1.6-1.7-3.29-2.63-1.15-.61-2.62-1.18-3.8-1.63-1.24-.47-2.16-.77-2.16-.77l-.89-.3.37.86s.17.41.5,1.05c.21.43.68,1.31,1.48,2.39.35.47.71.93,1.07,1.34.43.46.88.88,1.33,1.26,1.03.86,2.11,1.46,3.18,1.75.39.11.78.17,1.14.17Z"/><path class="cls-2" d="M7.77,66.61c.24,0,.48-.03.72-.09.31-.08.54-.2.69-.29.17.05.43.11.74.11.52,0,1.33-.16,2.26-.9,1.78-1.41,2.96-3.44,3.79-5.05l.12-.26c.33-.7.62-1.31.8-1.78.21-.52.31-.85.31-.85l.25-.82-.8.29s-.88.32-1.97.85c-1.02.49-2.45,1.25-3.45,2.13-.75.65-1.36,1.36-1.81,2.12-.23.42-.42.84-.55,1.27-.2-.4-.46-.8-.75-1.18-.51-.71-1.17-1.4-1.95-2.05-.84-.68-1.99-1.48-3.43-2.39-1.08-.68-1.93-1.17-1.93-1.17l-.82-.47.19.92s.09.43.29,1.13c.19.64.47,1.6.97,2.64.52,1.16,2.03,4.05,4.6,5.38.59.3,1.17.46,1.73.46Z"/><path class="cls-2" d="M10.1,54.99c.58,0,1.19-.16,1.82-.48.93-.46,1.85-1.12,2.72-1.96.82-.8,1.52-1.57,2.02-2.23l.36-.48c.39-.52.73-.96.96-1.33.31-.47.47-.76.47-.76l.4-.75-.84.13s-.92.14-2.1.44c-1.12.28-2.69.75-3.81,1.39-.85.47-1.59,1.05-2.19,1.71-.36.4-.61.78-.8,1.13-.11-.4-.28-.83-.48-1.3-.35-.79-.86-1.61-1.51-2.42-.97-1.18-2.22-2.41-2.87-3.03-.93-.88-1.65-1.53-1.65-1.53l-.71-.63v.95s0,.44.06,1.16l.02.25c.06.7.14,1.56.39,2.53.26,1.03.6,2.23,1.19,3.34.63,1.2,1.38,2.16,2.22,2.86.71.57,1.45.86,2.18.86h.14c.31-.02.56-.09.73-.15.16.09.4.2.71.26.18.04.37.06.57.06Z"/><path class="cls-2" d="M12.68,43.93c.38,0,.78-.06,1.2-.17,1.01-.27,2.04-.73,3.06-1.38.94-.6,1.79-1.21,2.43-1.78.24-.22.48-.43.7-.62.38-.33.72-.62.97-.88.4-.39.62-.65.62-.65l.56-.65-.86-.04s-.37-.02-.96-.02c-.34,0-.74,0-1.19.03-1.72.08-3.07.28-4.03.6-.93.29-1.77.71-2.49,1.23-.43.31-.76.64-1.02.95-.03-.4-.1-.86-.21-1.37-.19-.85-.52-1.75-1-2.67-.76-1.43-1.7-2.83-2.2-3.53-.72-1.05-1.31-1.82-1.31-1.82l-.56-.75-.19.92s-.09.43-.18,1.14l-.04.35c-.08.67-.18,1.5-.12,2.45.05,1.04.14,2.28.5,3.5.38,1.3.92,2.4,1.6,3.25.76.93,1.56,1.22,2.1,1.31.14.02.27.03.39.03.14,0,.26-.01.36-.03.14.12.35.27.65.4.36.16.77.24,1.22.24Z"/><path class="cls-2" d="M17.64,33.62c.11,0,.23,0,.35-.01,1.04-.07,2.13-.32,3.25-.76.92-.32,1.85-.74,2.75-1.24.39-.22.75-.44,1.06-.64l.83-.5c.49-.31.76-.51.76-.51l.7-.53-.84-.22s-.91-.24-2.12-.43c-.5-.08-1.25-.19-2.01-.24-.29-.02-.57-.02-.85-.02-.42,0-.81.02-1.17.06-1.58.17-2.96.68-3.9,1.43.14-1.1.15-2.43-.36-4.19-.16-.56-.39-1.22-.7-2.01-.26-.67-.52-1.32-.77-1.91-.49-1.17-.9-2.04-.9-2.04l-.39-.84-.38.85s-.18.4-.42,1.08l-.04.1c-.11.32-.24.68-.35,1.09-.13.53-.23,1.04-.31,1.53-.21,1.28-.3,2.46-.24,3.51.13,1.38.45,2.56.96,3.53.45.85,1.05,1.42,1.79,1.69.3.11.55.14.74.15.11.15.29.34.55.51.37.25,1.02.56,2.03.56Z"/><path class="cls-2" d="M25.36,24.57c.63,0,1.3-.06,1.98-.17.88-.15,2.01-.37,2.94-.67.52-.16.97-.33,1.38-.48.25-.1.48-.18.69-.25.55-.2.86-.35.86-.35l.8-.37-.79-.39s-.85-.42-1.99-.86c-1.31-.52-2.73-.89-3.9-1.01-.34-.03-.67-.05-.99-.05-.62,0-1.23.06-1.8.19-.51.12-.94.29-1.3.48.12-.38.24-.82.34-1.35.17-.85.22-1.8.15-2.83-.07-1.08-.31-2.36-.53-3.48l-.12-.66c-.25-1.25-.47-2.19-.47-2.19l-.21-.9-.54.75s-.26.36-.63.97c-.35.53-.77,1.39-1.23,2.54-.4,1.05-.8,2.18-.94,3.42-.16,1.35-.09,2.57.22,3.63.26.92.74,1.6,1.41,2.01.27.17.52.25.69.3.08.16.21.39.43.61.35.37,1.03.85,2.22,1.02.44.06.9.09,1.37.09Z"/><path class="cls-2" d="M28.59,16.34c1.01,0,3.03-.33,5.19-2.56,1.76-1.81,3.55-4.98,3.63-5.11l.44-.78-.88.15c-.25.04-6.07,1.1-8.82,4.74-1.4,1.85-.59,3.24-.56,3.3l.09.15.17.04s.29.07.73.07h0Z"/><path class="cls-1" d="M93.08,39.03c-3.78,0-4.96.55-6.04,1.51-1.32,1.1-2.53,2.82-3.61,4.54-.33.48-.53.69-1.37.48-.74-.07-.75-.27-.56-.76,1.48-3.51,3.75-9.01,5.13-12.66,4.49.21,9.03.21,13.78.21s9.03-.07,13.47-.21c.41,0,.53.07.17,1.45-.25.96-.34,1.31-.75,1.79-9.83,11.97-16.09,21.6-19.92,29.86-1.68,3.51-2.81,6.74-3.43,9.08-.51,1.93-.64,2.96-1.08,4.61-.58,2.2-3.59,3.72-6.21,3.72-2.27,0-4.12-.83-3.54-3.03,1.38-5.23,4.79-10.87,9.56-17.48,4.87-6.74,10.89-13.9,19.31-23.12h-14.93Z"/><path class="cls-1" d="M144.31,56.85c-4.17,15.82-12.52,25.8-22.08,25.8s-12.91-9.49-8.71-25.39c4.25-16.1,12.5-26,22.27-26s12.66,9.91,8.52,25.59ZM121.62,57.06c-3.78,14.31-4.74,23.46,1.17,23.46s9.64-9.15,13.41-23.46c3.79-14.38,4.87-23.67-.98-23.67s-9.81,9.29-13.61,23.67Z"/><path class="cls-1" d="M189.82,66.22l-4.29,16.28h-2.98l.42-1.59h-18.61l-.4,1.52h-2.85l3.3-12.52c-4.14,1.94-8.29,3.42-12.32,4.48-.13-.65-.62-1.75-1.05-2.24,5.95-1.44,12.46-4.02,18.45-7.55-1.28-1.71-3.52-3.83-5.58-5.35l2.57-1.55c2.08,1.44,4.43,3.49,5.75,5.2,4.18-2.73,7.96-5.96,10.93-9.53h-13.73c-3.65,2.88-8.09,5.81-13.27,8.24-.27-.61-.98-1.52-1.56-1.94,7.97-3.53,14.33-8.5,17.96-12.6l3.74.57c-.17.3-.52.49-1.08.49-.9.95-1.94,1.94-3.06,2.92h13.3l.56-.15,1.86.99c-.17.15-.42.27-.65.34-4.05,5.54-9.71,10.28-15.87,14h18.48ZM164.98,78.55h18.61l2.63-9.98h-18.61l-2.63,9.98Z"/><path class="cls-1" d="M130.89,108.98h-13.11c1.05,4.17,4.75,6.45,11.59,7.17-.64.48-1.52,1.35-1.99,1.98-7.33-1.08-11.04-3.84-11.92-9.15h-.38c-2.75,4.35-7.1,7.5-16.57,9.12-.04-.51-.39-1.35-.73-1.77,8.23-1.32,12.26-3.78,14.81-7.35h-12.63l.49-1.86h13.28c.73-1.35,1.33-2.85,1.93-4.47l3.02.21c-.1.24-.41.39-.84.45-.53,1.35-1.06,2.61-1.69,3.81h15.22l-.49,1.86ZM113.82,95.54l2.33.21c-.08.18-.36.33-.78.36-2.02,4.29-4.74,7.08-12.86,8.49-.11-.48-.5-1.23-.83-1.62,7.37-1.17,9.81-3.42,11.53-7.47h-6.31l-.94,3.57h-2.29l1.42-5.4h13.14l.91-3.45,2.96.15c-.09.21-.3.36-.79.42l-.76,2.88h13.28l-1.43,5.4h-2.36l.94-3.57h-6.52c-.13.09-.32.18-.64.21l-1.43,5.43c-.18.69-.04.81,1.25.81h4.33c.92,0,1.16-.24,1.65-1.86.43.3,1.25.57,1.84.66-.84,2.28-1.65,2.88-3.66,2.88h-4.85c-2.83,0-3.39-.48-2.86-2.49l1.49-5.64h-7.78v.03Z"/><path class="cls-1" d="M144.14,114.11h-6.69l-.67,2.55h-2.01l2.8-10.62c-1.07,1.35-2.24,2.55-3.44,3.6-.15-.45-.5-1.35-.76-1.77,3.46-3.03,6.62-8.28,9.1-13.92h-4.54l.49-1.86h12.87l-.49,1.86h-6.14c-1.09,2.46-2.32,4.89-3.66,7.14h6.59l-3.44,13.02ZM142.57,112.31l2.49-9.42h-4.64l-2.49,9.42h4.64ZM164.41,101.87l1.3.51c-.12.18-.24.27-.37.36-2.06,3.93-4.76,7.17-7.83,9.75,1.57,1.83,3.65,3.24,6.3,4.05-.65.39-1.46,1.14-1.94,1.65-2.59-.93-4.66-2.4-6.17-4.29-2.5,1.83-5.16,3.24-7.88,4.26-.14-.51-.55-1.26-.93-1.65,2.63-.9,5.28-2.28,7.74-4.11-1.35-2.25-2.14-4.95-2.41-7.95l2.03-.45c.21,2.58.9,4.98,2.18,6.99,2.34-2.01,4.42-4.44,6.04-7.23h-10.92c-1.32,4.5-3.66,10.38-8.17,14.4-.24-.39-.99-1.05-1.41-1.26,4.66-4.2,6.59-10.11,7.73-14.43l2.08-7.89h7.17l1.14-4.32,2.83.15c-.09.21-.3.36-.79.42l-.99,3.75h6.76l1.21.06c-.05.18-1.9,3.84-3.52,6.21l-1.78-.48c.65-1.05,1.45-2.52,2.16-3.93h-5.33l-1.46,5.52h4.81l.4-.09ZM158.47,96.44h-4.98l-1.46,5.52h4.98l1.46-5.52Z"/><text class="cls-3" transform="translate(67.16 18.9)"><tspan x="0" y="0">代理店加盟数</tspan></text></g></svg>