<?xml version="1.0" encoding="UTF-8"?>
<svg id="_レイヤー_2" data-name=" レイヤー 2" xmlns="http://www.w3.org/2000/svg" xmlns:xlink="http://www.w3.org/1999/xlink" version="1.1" viewBox="0 0 261.5 142.1">
  <defs>
    <style>
      .cls-1 {
        font-family: KozGoPr6N-Bold-83pv-RKSJ-H, 'Kozuka Gothic Pr6N';
        font-size: 21px;
        font-weight: 700;
      }

      .cls-1, .cls-2 {
        fill: #3e3a39;
      }

      .cls-1, .cls-2, .cls-3 {
        isolation: isolate;
      }

      .cls-2 {
        font-family: KozGoPr6N-Regular-83pv-RKSJ-H, 'Kozuka Gothic Pr6N';
        font-size: 10.6px;
      }

      .cls-4 {
        fill: url(#_名称未設定グラデーション);
      }

      .cls-4, .cls-5, .cls-6, .cls-7 {
        stroke-width: 0px;
      }

      .cls-5 {
        fill: url(#_名称未設定グラデーション_2);
      }

      .cls-6 {
        fill: url(#_名称未設定グラデーション_3);
      }

      .cls-7 {
        fill: #c1981c;
      }
    </style>
    <linearGradient id="_名称未設定グラデーション" data-name="名称未設定グラデーション" x1="65.4" y1="73.8" x2="207.9" y2="73.8" gradientTransform="translate(0 144.2) scale(1 -1)" gradientUnits="userSpaceOnUse">
      <stop offset="0" stop-color="#a77210"/>
      <stop offset="0" stop-color="#aa7613"/>
      <stop offset="0" stop-color="#b5821e"/>
      <stop offset=".2" stop-color="#c8972f"/>
      <stop offset=".2" stop-color="#dcae43"/>
      <stop offset=".3" stop-color="#b37e10"/>
      <stop offset=".5" stop-color="#e5b747"/>
      <stop offset=".6" stop-color="#bb891d"/>
      <stop offset=".8" stop-color="#a87310"/>
      <stop offset=".9" stop-color="#ac7814"/>
      <stop offset=".9" stop-color="#b88721"/>
      <stop offset="1" stop-color="#c6972f"/>
    </linearGradient>
    <linearGradient id="_名称未設定グラデーション_2" data-name="名称未設定グラデーション 2" x1="65.3" y1="73.8" x2="207.8" y2="73.8" gradientTransform="translate(0 144.2) scale(1 -1)" gradientUnits="userSpaceOnUse">
      <stop offset="0" stop-color="#a77210"/>
      <stop offset="0" stop-color="#aa7613"/>
      <stop offset="0" stop-color="#b5821e"/>
      <stop offset=".2" stop-color="#c8972f"/>
      <stop offset=".2" stop-color="#dcae43"/>
      <stop offset=".3" stop-color="#b37e10"/>
      <stop offset=".5" stop-color="#e5b747"/>
      <stop offset=".6" stop-color="#bb891d"/>
      <stop offset=".8" stop-color="#a87310"/>
      <stop offset=".9" stop-color="#ac7814"/>
      <stop offset=".9" stop-color="#b88721"/>
      <stop offset="1" stop-color="#c6972f"/>
    </linearGradient>
    <linearGradient id="_名称未設定グラデーション_3" data-name="名称未設定グラデーション 3" x1="65.3" y1="53.8" x2="207.8" y2="53.8" gradientTransform="translate(0 144.2) scale(1 -1)" gradientUnits="userSpaceOnUse">
      <stop offset="0" stop-color="#a77210"/>
      <stop offset="0" stop-color="#aa7613"/>
      <stop offset="0" stop-color="#b5821e"/>
      <stop offset=".2" stop-color="#c8972f"/>
      <stop offset=".2" stop-color="#dcae43"/>
      <stop offset=".3" stop-color="#b37e10"/>
      <stop offset=".5" stop-color="#e5b747"/>
      <stop offset=".6" stop-color="#bb891d"/>
      <stop offset=".8" stop-color="#a87310"/>
      <stop offset=".9" stop-color="#ac7814"/>
      <stop offset=".9" stop-color="#b88721"/>
      <stop offset="1" stop-color="#c6972f"/>
    </linearGradient>
  </defs>
  <g id="_デザイン" data-name=" デザイン">
    <path class="cls-7" d="M225.9,114.6h-1.4c-1.4-.2-2.5-.5-3.5-1.1s-1.4-1.3-1.6-1.9c0-.3-.1-.6-.1-.7-.1,0-.3-.3-.5-.6-.4-.6-.5-1.4-.4-2.4s.4-2.1.9-3.2c.4-1,.9-1.9,1.4-2.7.5-.8.9-1.4,1.2-1.9.3-.4.6-.7.6-.7l.6-.6.2.8s.2.9.3,2.1c.1,1.1.2,2.8,0,4.1-.3,1.9-1,3.1-1.6,3.8h.8c1.1,0,2.2.2,3.4.6,1.1.3,2.3.9,3.8,1.6,1.1.6,2,1,2,1l.8.4-.9.3s-.4.2-1.1.3h-.1c-.7.2-1.6.4-2.6.6-.8,0-1.5,0-2.1,0h0Z"/>
    <path class="cls-7" d="M234.3,107.6c-1,0-1.9,0-2.7-.4-1.1-.4-1.7-1-1.9-1.5-.1-.3-.2-.5-.3-.7-.2,0-.4-.2-.6-.5-.5-.5-.8-1.3-.9-2.2-.1-1,0-2.2.2-3.3.2-1,.5-2,.8-2.9.3-.8.6-1.6.8-2.1l.8-1.6.6,1.4c.1.4.3.9.5,1.4.3.9.8,2.5.9,4,0,1.9-.4,3.3-.8,4.1.7-.2,1.6-.4,2.7-.4h1.5c1.4.2,3,.5,4.1.8l1.6.4,1.5.4-1.1.7-.8.4c-.7.4-1.6.8-2.6,1.1-1.3.4-2.4.7-3.5.8h-.9,0Z"/>
    <path class="cls-7" d="M241.4,99h-.9c-.9,0-1.7-.5-2.2-1.1-.2-.2-.3-.5-.4-.6-.2,0-.4-.2-.7-.3-.4-.3-1-.9-1.4-2-.3-1-.4-2-.4-3.3s0-2.1.2-3c.1-.9.3-1.7.4-2.2.1-.5.2-.8.2-.8l.2-.9.5.7s.6.8,1.1,1.8c.4.8,1.2,2.3,1.6,3.7.2.9.3,1.8.3,2.8s-.1,1-.2,1.4c.3-.2.8-.4,1.3-.6.8-.3,1.7-.5,2.8-.6h4.2c1.3,0,2.2,0,2.2,0h.9l-.6.7s-.3.3-.9.8c-.5.4-1.3,1-2.3,1.6s-2.1,1.1-3.2,1.4c-.9.3-1.8.4-2.7.4h0Z"/>
    <path class="cls-7" d="M247.3,89.1c-.8,0-1.5-.2-2-.6-.2-.2-.4-.4-.5-.5-.2,0-.4,0-.7-.2-.5-.2-1.1-.7-1.7-1.7-1.1-2.1-1.4-4.5-1.5-6.1v-4l.7.6s.7.7,1.5,1.6c1,1.1,1.8,2.3,2.3,3.3.4.9.7,1.8.8,2.7v1.4c.4-.3.7-.6,1.1-.8.7-.4,1.6-.8,2.6-1.1,1.2-.4,2.7-.6,3.9-.8h.2c1.2-.2,2.2-.3,2.2-.3h.9c0,0-.5.7-.5.7,0,0-.2.4-.7.9-.4.6-1.1,1.3-1.9,2-1.2,1.1-3.6,3-6.4,3.2h-.4v-.3Z"/>
    <path class="cls-7" d="M251.6,78.2c-.5,0-.9,0-1.3-.3-.3,0-.5-.3-.6-.4h-.7c-.5,0-1.3-.4-2-1.3-.6-.8-1.2-1.8-1.7-2.9-.2-.5-.4-.9-.6-1.5-.2-.4-.3-.9-.4-1.4-.2-.7-.3-1.3-.4-1.8v-.3c-.2-.6-.2-.9-.2-.9v-.9l.6.4s.8.5,1.8,1.2c1.2.9,2.3,1.9,2.9,2.8.9,1.2,1.5,2.5,1.6,3.8.6-.8,1.6-1.7,3.3-2.6,1.1-.6,2.6-1.2,3.8-1.6,1.2-.5,2.2-.8,2.2-.8l.9-.3-.4.9s-.2.4-.5,1.1c-.2.4-.7,1.3-1.5,2.4-.4.5-.7.9-1.1,1.3-.4.5-.9.9-1.3,1.3-1,.9-2.1,1.5-3.2,1.8-.4,0-.8.2-1.1.2h0v-.2Z"/>
    <path class="cls-7" d="M253.8,66.6h-.7c-.3,0-.5-.2-.7-.3-.2,0-.4,0-.7,0-.5,0-1.3-.2-2.3-.9-1.8-1.4-3-3.4-3.8-5v-.3c-.4-.7-.7-1.3-.9-1.8s-.3-.8-.3-.8l-.2-.8.8.3s.9.3,2,.8c1,.5,2.4,1.2,3.4,2.1.8.7,1.4,1.4,1.8,2.1.2.4.4.8.6,1.3.2-.4.5-.8.8-1.2.5-.7,1.2-1.4,1.9-2,.8-.7,2-1.5,3.4-2.4,1.1-.7,1.9-1.2,1.9-1.2l.8-.5-.2.9s0,.4-.3,1.1c-.2.6-.5,1.6-1,2.6-.5,1.2-2,4-4.6,5.4-.6.3-1.2.5-1.7.5h0Z"/>
    <path class="cls-7" d="M251.3,55c-.6,0-1.2-.2-1.8-.5-.9-.5-1.9-1.1-2.7-2-.8-.8-1.5-1.6-2-2.2l-.4-.5c-.4-.5-.7-1-1-1.3-.3-.5-.5-.8-.5-.8l-.4-.8h.8c0,0,.9.3,2.1.6,1.1.3,2.7.8,3.8,1.4.9.5,1.6,1,2.2,1.7.4.4.6.8.8,1.1.1-.4.3-.8.5-1.3.4-.8.9-1.6,1.5-2.4,1-1.2,2.2-2.4,2.9-3,.9-.9,1.6-1.5,1.6-1.5l.7-.6v2.4c0,.7-.2,1.6-.4,2.5-.3,1-.6,2.2-1.2,3.3-.6,1.2-1.4,2.2-2.2,2.9-.7.6-1.4.9-2.2.9h-.1c-.3,0-.6,0-.7-.2-.2,0-.4.2-.7.3h-.6Z"/>
    <path class="cls-7" d="M248.8,43.9c-.4,0-.8,0-1.2-.2-1-.3-2-.7-3.1-1.4-.9-.6-1.8-1.2-2.4-1.8-.2-.2-.5-.4-.7-.6-.4-.3-.7-.6-1-.9-.4-.4-.6-.7-.6-.7l-.6-.7h3.1c1.7,0,3.1.3,4,.6s1.8.7,2.5,1.2c.4.3.8.6,1,1,0-.4.1-.9.2-1.4.2-.8.5-1.8,1-2.7.8-1.4,1.7-2.8,2.2-3.5.7-1,1.3-1.8,1.3-1.8l.6-.8.2.9s0,.4.2,1.1v.3c.1.7.2,1.5.2,2.5s-.1,2.3-.5,3.5c-.4,1.3-.9,2.4-1.6,3.2-.8.9-1.6,1.2-2.1,1.3h-.8c-.1,0-.4.3-.6.4-.4.2-.8.2-1.2.2h0v.3Z"/>
    <path class="cls-7" d="M243.8,33.6h-.4c-1,0-2.1-.3-3.2-.8-.9-.3-1.9-.7-2.8-1.2-.4-.2-.8-.4-1.1-.6l-.8-.5c-.5-.3-.8-.5-.8-.5l-.7-.5.8-.2s.9-.2,2.1-.4c.5,0,1.2-.2,2-.2h2.1c1.6.2,3,.7,3.9,1.4-.1-1.1-.1-2.4.4-4.2.2-.6.4-1.2.7-2,.3-.7.5-1.3.8-1.9.5-1.2.9-2,.9-2l.4-.8.4.9s.2.4.4,1.1h0c.1.4.2.8.4,1.2.1.5.2,1,.3,1.5.2,1.3.3,2.5.2,3.5-.1,1.4-.4,2.6-1,3.5-.4.9-1.1,1.4-1.8,1.7-.3,0-.6,0-.7.2-.1.2-.3.3-.6.5-.4.2-1,.6-2,.6h0v-.3Z"/>
    <path class="cls-7" d="M236.1,24.6c-.6,0-1.3,0-2-.2-.9-.1-2-.4-2.9-.7-.5-.2-1-.3-1.4-.5s-.5-.2-.7-.2c-.6-.2-.9-.4-.9-.4l-.8-.4.8-.4s.9-.4,2-.9c1.3-.5,2.7-.9,3.9-1h1c.6,0,1.2,0,1.8.2.5.1.9.3,1.3.5-.1-.4-.2-.8-.3-1.4-.2-.9-.2-1.8-.1-2.8,0-1.1.3-2.4.5-3.5v-.7c.4-1.2.6-2.2.6-2.2l.2-.9.5.8s.3.4.6,1c.4.5.8,1.4,1.2,2.5s.8,2.2.9,3.4c.2,1.4,0,2.6-.2,3.6-.3.9-.7,1.6-1.4,2-.3.2-.5.2-.7.3,0,.2-.2.4-.4.6-.4.4-1,.9-2.2,1h-1.4v.3Z"/>
    <path class="cls-7" d="M232.8,16.3c-1,0-3-.3-5.2-2.6-1.8-1.8-3.6-5-3.6-5.1l-.4-.8h.9c.2.2,6.1,1.2,8.8,4.9,1.4,1.9.6,3.2.6,3.3h0c0,0-.2.2-.2.2h-.9Z"/>
    <path class="cls-7" d="M35.4,114.6h1.4c1.3-.2,2.5-.5,3.5-1.1s1.4-1.3,1.6-1.9c0-.3,0-.6,0-.7,0,0,.3-.3.5-.6.4-.6.5-1.4.4-2.4s-.4-2.1-.9-3.2c-.4-1-.9-1.9-1.4-2.7-.5-.8-.9-1.4-1.2-1.9-.3-.4-.6-.7-.6-.7l-.6-.6-.2.8s-.2.9-.3,2.1c0,1.1-.2,2.8,0,4.1.3,1.9,1,3.1,1.6,3.8h-.8c-1.1,0-2.2.2-3.4.6-1,.3-2.3.9-3.8,1.6-1.1.6-2,1-2,1l-.8.4.9.3s.4.2,1.1.3h.1c.7.2,1.6.4,2.6.6.8,0,1.5,0,2.1,0h.1Z"/>
    <path class="cls-7" d="M27.1,107.6c1,0,1.9,0,2.7-.4,1.1-.4,1.7-1,2-1.5.2-.3.2-.5.3-.7.2,0,.4-.2.6-.5.5-.5.8-1.3.9-2.2,0-1,0-2.2-.2-3.3-.2-1-.5-2-.8-2.9-.3-.8-.6-1.6-.8-2.1l-.8-1.6-.6,1.4c-.1.4-.3.9-.5,1.4-.3.9-.8,2.5-.9,4,0,1.9.4,3.3.8,4.1-.7-.2-1.5-.4-2.7-.4h-1.5c-1.4.2-3,.5-4.1.8l-1.5.4-1.5.4,1.1.7c.2,0,.5.2.8.4.7.4,1.6.8,2.6,1.1,1.3.4,2.4.7,3.5.8h.9-.3Z"/>
    <path class="cls-7" d="M19.9,99h.9c1,0,1.7-.5,2.2-1.1.2-.2.3-.5.4-.6.2,0,.4-.2.7-.3.4-.3,1-.9,1.4-2,.3-1,.4-2,.5-3.3,0-1.1,0-2.1-.2-3-.1-.9-.3-1.7-.4-2.2s-.2-.8-.2-.8l-.2-.9-.5.7s-.6.8-1.1,1.8c-.4.8-1.2,2.3-1.6,3.7-.2.9-.3,1.8-.3,2.8s.1,1,.2,1.4c-.3-.2-.8-.4-1.3-.6-.8-.3-1.7-.5-2.8-.6h-4.2c-1.3,0-2.2,0-2.2,0h-.9l.6.7s.3.3.9.8c.5.4,1.3,1,2.3,1.6s2.2,1.1,3.2,1.4c.9.3,1.8.4,2.7.4h-.1Z"/>
    <path class="cls-7" d="M14.1,89.1c.8,0,1.5-.2,2-.6.2-.2.4-.4.5-.5.2,0,.4,0,.7-.2.5-.2,1.1-.7,1.7-1.7,1.1-2.1,1.4-4.5,1.5-6.1v-4l-.7.6s-.7.7-1.5,1.6c-1,1.1-1.8,2.3-2.3,3.3-.4.9-.7,1.8-.8,2.7v1.4c-.4-.3-.7-.6-1.1-.8-.7-.4-1.6-.8-2.6-1.1-1.2-.4-2.7-.6-3.9-.8h-.2c-1.2-.2-2.2-.3-2.2-.3h-.9c0,0,.5.7.5.7,0,0,.2.4.7.9.4.6,1.1,1.3,1.9,2,1.2,1.1,3.6,3,6.4,3.2h.4v-.3Z"/>
    <path class="cls-7" d="M9.8,78.2c.5,0,.9,0,1.3-.3.3,0,.5-.3.6-.4h.7c.5,0,1.3-.4,2-1.3.6-.8,1.2-1.8,1.7-2.9.2-.5.4-.9.5-1.5.2-.4.3-.9.4-1.4.2-.7.3-1.3.4-1.8v-.3c.2-.6.2-.9.2-.9v-.9l-.6.4s-.8.5-1.8,1.2c-1.2.9-2.3,1.9-2.9,2.8-.9,1.2-1.5,2.5-1.6,3.8-.6-.8-1.6-1.7-3.3-2.6-1.2-.6-2.6-1.2-3.8-1.6-1.2-.5-2.2-.8-2.2-.8l-.9-.3.4.9s.2.4.5,1.1c.2.4.7,1.3,1.5,2.4.3.5.7.9,1.1,1.3.4.5.9.9,1.3,1.3,1,.9,2.1,1.5,3.2,1.8.4,0,.8.2,1.1.2h0l.2-.2Z"/>
    <path class="cls-7" d="M7.7,66.6h.7c.3,0,.5-.2.7-.3.2,0,.4,0,.7,0,.5,0,1.3-.2,2.3-.9,1.8-1.4,3-3.4,3.8-5v-.3c.5-.7.7-1.3.9-1.8.2-.5.3-.8.3-.8l.2-.8-.8.3s-.9.3-2,.8c-1,.5-2.4,1.2-3.4,2.1-.8.7-1.4,1.4-1.8,2.1-.2.4-.4.8-.6,1.3-.2-.4-.5-.8-.8-1.2-.5-.7-1.2-1.4-1.9-2-.8-.7-2-1.5-3.4-2.4-1.1-.7-1.9-1.2-1.9-1.2l-.8-.5.2.9s0,.4.3,1.1c.2.6.5,1.6,1,2.6.5,1.2,2,4,4.6,5.4.6.3,1.2.5,1.7.5h0Z"/>
    <path class="cls-7" d="M10,55c.6,0,1.2-.2,1.8-.5.9-.5,1.9-1.1,2.7-2,.8-.8,1.5-1.6,2-2.2l.4-.5c.4-.5.7-1,1-1.3.3-.5.5-.8.5-.8l.4-.8h-.8c0,0-.9.3-2.1.6-1.1.3-2.7.8-3.8,1.4-.9.5-1.6,1-2.2,1.7-.4.4-.6.8-.8,1.1-.1-.4-.3-.8-.5-1.3-.4-.8-.9-1.6-1.5-2.4-1-1.2-2.2-2.4-2.9-3-.9-.9-1.7-1.5-1.7-1.5l-.7-.6v2.4c0,.7.2,1.6.4,2.5.3,1,.6,2.2,1.2,3.3.6,1.2,1.4,2.2,2.2,2.9.7.6,1.4.9,2.2.9h0c.3,0,.6,0,.7-.2.2,0,.4.2.7.3h.7Z"/>
    <path class="cls-7" d="M12.6,43.9c.4,0,.8,0,1.2-.2,1-.3,2-.7,3.1-1.4.9-.6,1.8-1.2,2.4-1.8.2-.2.5-.4.7-.6.4-.3.7-.6,1-.9.4-.4.6-.7.6-.7l.6-.7h-3.1c-1.7,0-3.1.3-4,.6s-1.8.7-2.5,1.2c-.4.3-.8.6-1,1,0-.4-.1-.9-.2-1.4-.2-.8-.5-1.8-1-2.7-.8-1.4-1.7-2.8-2.2-3.5-.7-1-1.3-1.8-1.3-1.8l-.6-.8-.2.9s0,.4-.2,1.1v.3c0,.7-.2,1.5-.2,2.5s0,2.3.5,3.5c.4,1.3.9,2.4,1.6,3.2.8.9,1.6,1.2,2.1,1.3h.8c.1,0,.4.3.6.4.4.2.8.2,1.2.2h0v.3Z"/>
    <path class="cls-7" d="M17.5,33.6h.4c1,0,2.1-.3,3.2-.8.9-.3,1.9-.7,2.8-1.2.4-.2.8-.4,1.1-.6l.8-.5c.5-.3.8-.5.8-.5l.7-.5-.8-.2s-.9-.2-2.1-.4c-.5,0-1.2-.2-2-.2h-2.1c-1.6.2-3,.7-3.9,1.4.1-1.1.1-2.4-.4-4.2-.2-.6-.4-1.2-.7-2-.3-.7-.5-1.3-.8-1.9-.5-1.2-.9-2-.9-2l-.4-.8-.4.9s-.2.4-.4,1.1h0c-.1.4-.2.8-.4,1.2-.1.5-.2,1-.3,1.5-.2,1.3-.3,2.5-.2,3.5.1,1.4.4,2.6,1,3.5.4.9,1.1,1.4,1.8,1.7.3,0,.6,0,.7.2.1.2.3.3.6.5.4.2,1,.6,2,.6h0v-.3Z"/>
    <path class="cls-7" d="M25.3,24.6c.6,0,1.3,0,2-.2.9-.1,2-.4,2.9-.7.5-.2,1-.3,1.4-.5.2-.1.5-.2.7-.2.5-.2.9-.4.9-.4l.8-.4-.8-.4s-.8-.4-2-.9c-1.3-.5-2.7-.9-3.9-1h-1c-.6,0-1.2,0-1.8.2-.5.1-.9.3-1.3.5.1-.4.2-.8.3-1.4.2-.9.2-1.8.1-2.8,0-1.1-.3-2.4-.5-3.5v-.7c-.4-1.2-.6-2.2-.6-2.2l-.2-.9-.5.8s-.3.4-.6,1c-.4.5-.8,1.4-1.2,2.5-.4,1.1-.8,2.2-.9,3.4-.2,1.4,0,2.6.2,3.6.3.9.7,1.6,1.4,2,.3.2.5.2.7.3,0,.2.2.4.4.6.4.4,1,.9,2.2,1h1.4v.3Z"/>
    <path class="cls-7" d="M28.5,16.3c1,0,3-.3,5.2-2.6,1.8-1.8,3.5-5,3.6-5.1l.4-.8h-.9c-.2.2-6.1,1.2-8.8,4.9-1.4,1.9-.6,3.2-.6,3.3h0c0,0,.2.2.2.2h.9Z"/>
    <g>
      <g>
        <path class="cls-4" d="M76.9,108.9c-7.6,0-12.8-4-11.3-9.8.6-2.5,2.8-5.5,6.4-5.5s4.2,2.4,4.3,7.5c0,1.9,1.2,3.5,4.3,3.5,5.4,0,9.5-4,12.2-6.9,7.5-8.7,10.5-19.7,12.3-26.1-4.7,3.9-11.2,9.2-19.2,9.2s-16.1-8.3-12.2-23.2c4.1-15.6,16.6-25.6,29-25.6,18,0,17.1,21.7,13.8,34.1-4.8,18.2-20.8,42.8-39.5,42.8h-.1ZM101.3,36c-4,0-7.6,2.4-10.5,5.6-3.3,3.6-6.1,10.7-7.5,16.1-1.8,6.7-3.5,17.2,5.9,17.2s8.8-1.8,13.2-5.4c4.2-3.4,5.4-6,6.3-9.7,1.5-5.6,4.3-23.8-7.4-23.8Z"/>
        <path class="cls-5" d="M137.6,108.9c-13.2,0-17.7-16.9-12-38.5,5.9-22.5,19.6-38.4,32.3-38.4s18.3,13.4,11.7,38.4c-4,15.3-15.7,38.5-32,38.5ZM156.6,36c-10.6,0-16.9,16.5-21.7,34.4-5.1,19.8-6.4,34,3.6,34s19.1-24.4,21.7-34.1c3.3-12.6,8.3-34.3-3.6-34.3Z"/>
      </g>
      <path class="cls-6" d="M173.8,110l-2.3-1.5,34-37.6,2.3,1.4-34,37.7ZM178.8,90.1c-5.1,0-7.4-4.2-6-9.6s5.9-9.6,11-9.6,7.4,4,5.9,9.6c-1.4,5.4-5.8,9.6-11,9.6h.1ZM183.3,73c-3.6,0-5.3,6.1-5.7,7.5-.4,1.5-1.9,7.5,1.7,7.5s5.3-6.3,5.6-7.5c.4-1.6,1.8-7.5-1.7-7.5h0ZM195.3,110c-5,0-7.4-4-6-9.6,1.5-5.6,6-9.6,11-9.6s7.3,4.2,5.9,9.6c-1.4,5.3-5.8,9.6-11,9.6h.1ZM199.8,92.9c-3.6,0-5.4,6.2-5.7,7.5-1,3.6-1.1,7.5,1.7,7.5s5.2-5.8,5.6-7.5c.9-3.3,1.3-7.5-1.7-7.5h0Z"/>
    </g>
    <g class="cls-3">
      <g class="cls-3">
        <text class="cls-1" transform="translate(60.1 20.4)"><tspan x="0" y="0">取り扱い継続率</tspan></text>
      </g>
    </g>
    <g class="cls-3">
      <g class="cls-3">
        <text class="cls-2" transform="translate(49.6 127.6)"><tspan x="0" y="0">※1ヶ月経過後の正規代理店継続率</tspan></text>
      </g>
    </g>
  </g>
</svg>