<svg width="95" height="193" viewBox="0 0 95 193" fill="none" xmlns="http://www.w3.org/2000/svg">
<path d="M46.4922 66.4158L49.954 66.1367L46.5463 69.5069L46.4922 66.4158Z" fill="#64677A"/>
<path d="M72.0631 59.5589C72.0631 59.5589 69.9343 59.0423 68.7054 59.688C67.4765 60.3338 68.7554 61.3794 68.7554 61.3794C68.7554 61.3794 69.6927 63.0457 69.7802 63.0457C69.8677 63.0457 72.0631 59.5547 72.0631 59.5547V59.5589Z" fill="#64677A"/>
<path d="M26.8542 156.028C26.6793 156.495 26.5126 156.961 26.3502 157.436C26.6418 156.578 7.66633 148.55 5.83336 147.376C3.43383 145.843 1.33841 143.672 0.434421 140.973C-1.52353 135.12 3.73377 131.516 4.38781 126.192C4.47529 125.48 4.41697 124.747 4.55028 124.043C4.83356 122.589 5.78337 122.189 6.70402 121.252C7.51636 120.427 7.89546 119.489 8.42452 118.427C12.6154 110.05 17.2686 101.135 21.0762 91.799C24.2172 84.0964 27.8957 77.8309 35.0401 73.5859C34.057 74.1692 33.2363 75.7147 32.7531 76.7062C31.9449 78.3558 30.416 84.9087 30.0203 86.6625C28.1665 94.8734 26.9292 103.243 26.3377 111.674C26.0544 115.715 26.3502 119.352 26.7084 123.368C27.5374 132.562 27.2458 141.71 27.3625 151.058C27.3791 153.02 27.5499 154.128 26.8542 156.028Z" fill="#426FC4"/>
<path d="M81.3012 86.4244C79.5182 94.0063 77.3478 102.409 70.1284 106.233C65.5334 108.666 60.0054 108.316 54.8647 107.566C47.5536 106.5 41.9464 103.475 40.9799 95.406C40.5592 91.8983 41.3923 88.3699 42.2213 84.933C42.9212 82.0295 43.3753 78.9009 44.3668 76.0889C44.5834 75.4682 45.829 68.3155 46.0623 68.153C50.9696 64.6787 52.411 60.5503 53.2317 58.0883C53.3817 57.6384 53.3733 57.1552 53.4316 56.6844C53.8941 53.1684 53.8357 49.465 52.8943 46.0074C56.127 46.4156 59.3971 46.5364 62.6548 46.3781C64.9461 46.2656 67.0123 46.1532 68.9744 45.1159C69.266 44.9617 70.5241 44.3702 70.5741 44.0244C70.2242 46.3823 69.9742 48.7568 69.8326 51.1355C69.5701 55.5138 70.8324 62.7874 73.1611 65.9784C73.2028 66.0493 73.2444 66.1076 73.3027 66.1784C76.3022 70.136 81.1387 69.9527 82.2676 75.7765C82.9508 79.305 82.126 82.9293 81.3012 86.4286V86.4244Z" fill="#FFE5D8"/>
<path d="M33.1685 98.8553C32.5394 103.596 32.1603 108.416 32.7977 113.157C33.4351 117.897 35.1639 122.588 38.3341 126.171C59.5133 78.8134 58.6468 81.2379 58.7218 79.4383C58.8301 76.7263 56.6263 74.3559 54.0977 73.3769C52.0981 72.6063 49.9277 72.5188 47.8072 72.5646C45.6868 72.6104 44.5496 73.5686 43.0165 75.01C36.5386 81.1004 34.3432 89.9779 33.1685 98.8553Z" fill="white"/>
<path d="M74.5361 67.3911C74.3611 67.3369 56.1231 62.7503 53.5569 58.3803C53.207 57.7804 53.3278 57.4763 53.4319 56.6848C53.8943 53.1688 53.836 49.4654 52.8945 46.0078C55.0066 46.2744 57.1354 46.4202 59.2683 46.441C61.0971 46.4618 63.0759 46.566 64.8547 46.0702C68.4456 45.0746 69.8954 42.7751 71.4659 41.417C70.5536 45.7495 70.1661 50.1903 70.3036 54.6144C70.4244 58.4845 70.7993 62.7378 73.1655 65.9747C73.2072 66.0455 73.2489 66.1038 73.3072 66.1746C73.6613 66.6412 74.0737 67.0661 74.5403 67.3911H74.5361Z" fill="#F9CEBC"/>
<path d="M71.8185 28.8615C71.7269 30.0196 71.8019 31.0986 71.9477 33.0774C71.9643 33.2982 71.9643 33.4648 71.981 33.6356C71.9643 33.6981 71.981 33.7439 71.9977 33.8064C72.6392 44.6709 69.3357 49.2409 62.1413 54.3232C60.15 55.7354 58.0296 57.1476 55.7009 57.1976C52.8514 57.2518 49.7729 55.3938 47.6149 53.5567C41.8786 48.8243 41.1162 45.6916 40.6372 38.468C40.2497 31.7151 40.3997 34.2855 40.3997 29.0782C40.3872 27.7326 39.2939 25.3955 39.498 24.0791C39.9896 20.9839 40.6026 18.7495 42.4981 16.5791C44.6768 13.8588 47.9982 13.5562 49.6937 13.1105C50.9601 12.7564 53.7887 11.919 55.6217 11.7107C59.6418 11.0192 65.3198 10.6151 68.5983 13.0646C68.6067 13.0688 69.0649 13.4229 69.0732 13.4271C69.6231 13.8353 70.423 14.8934 70.423 14.9518C73.6015 19.5717 71.9393 27.3993 71.8227 28.8657L71.8185 28.8615Z" fill="#FFE5D8"/>
<path d="M40.8425 12.6502C39.8308 10.9036 39.2576 9.0722 39.7219 7.01287C39.932 6.08789 40.373 5.28748 40.9203 4.28034C41.0682 5.0622 40.9644 5.62407 41.1071 6.17005C41.2497 6.71603 41.3276 7.27525 41.548 7.80267C41.7582 8.31154 41.9216 8.84162 42.3703 9.37169C42.4871 8.42551 42.3989 7.5986 42.5623 6.78228C43.1355 3.90399 45.0006 2.21836 47.4778 1.07075C47.8073 0.917026 48.0148 0.988586 47.9188 1.40734C47.6905 2.39858 48.0848 3.31296 48.2794 4.30419C48.8838 3.26525 49.4908 2.25281 50.4064 1.48685C51.3766 0.675843 52.4946 0.442611 53.9212 0.487667C52.8318 1.30928 52.1262 2.1521 52.134 3.58859C53.6696 2.17595 55.3298 1.4312 57.3349 1.33578C57.2 1.84465 56.7487 2.07524 56.6994 2.60266C58.5489 2.23426 60.4269 2.21306 62.2167 1.62467C62.9897 1.37024 63.5345 0.864019 63.9339 0C64.4968 1.53721 64.074 2.64771 62.8678 3.69726C65.5863 3.80327 67.8871 4.88727 70.3125 5.4518C71.0673 5.62673 71.8429 5.49951 72.6081 5.51011L72.6237 5.52601C72.5537 6.5146 71.7703 6.92275 71.0777 7.49523C72.7093 8.17108 74.3176 8.76741 76.097 8.58453L76.1359 8.62959C75.6794 9.64203 74.6626 9.93357 73.7028 10.5193C75.8169 11.6404 77.1891 13.4983 78.8803 14.9799C78.9971 15.0806 79.1631 15.2104 79.1709 15.335C79.1864 15.5762 78.927 15.5629 78.7662 15.6266C78.0165 15.926 77.2254 15.9128 76.2423 15.9234C77.2435 16.684 78.167 17.0737 79.2513 17.0445C79.4977 17.0392 79.8531 16.9014 79.9724 17.1744C80.0995 17.4606 79.7441 17.6143 79.5755 17.7972C79.3421 18.049 79.0723 18.269 78.8155 18.5022C78.5717 18.6003 78.3226 18.6904 78.0814 18.7964C77.1502 19.2019 76.1878 19.3848 75.1658 19.3556C73.031 19.2947 71.2956 18.1683 69.5083 17.1903C67.3113 15.987 65.0753 14.9189 62.6006 14.418C62.0066 14.2987 61.3659 14.4259 60.6733 14.0999C63.0131 13.3022 65.2802 13.1326 67.5992 13.3552C63.6278 10.4027 59.2622 9.96802 54.6268 11.0838C57.0599 9.38494 59.7758 8.72235 62.6784 8.64284C60.7044 6.99961 58.4581 6.68422 56.1313 7.32296C52.1055 8.42816 49.6957 11.0255 49.4778 15.5285C49.3559 15.3721 49.2884 15.2926 49.2314 15.2104C47.6257 12.9179 46.9201 10.3338 46.8683 7.54029C46.8631 7.32296 47.0031 6.98371 46.6763 6.92805C46.4403 6.88565 46.3806 7.19839 46.2846 7.38127C45.3923 9.06955 45.2859 10.8744 45.5453 12.7324C45.7269 14.0337 46.2976 15.1813 47.0031 16.4402C45.6984 16.1593 44.6297 15.6955 43.5947 15.0938C42.513 14.4657 41.7997 13.4241 40.8425 12.6634V12.6502Z" fill="#343D5E"/>
<path d="M40.842 12.6504C41.7992 13.4111 42.5125 14.45 43.5942 15.0808C44.6292 15.6824 45.7005 16.1463 47.0027 16.4272C46.2971 15.1683 45.729 14.0207 45.5448 12.7193C45.2854 10.8614 45.3918 9.05919 46.2841 7.36825C46.3801 7.18538 46.4398 6.87263 46.6758 6.91504C47.0027 6.97335 46.8626 7.3126 46.8678 7.52727C46.9222 10.3208 47.6278 12.9022 49.2309 15.1974C49.2879 15.2796 49.3554 15.3591 49.4773 15.5155C49.6926 11.0125 52.1024 8.41515 56.1308 7.30994C58.4576 6.67121 60.704 6.9866 62.678 8.62983C59.7753 8.70934 57.0594 9.37193 54.6263 11.0708C59.2617 9.95766 63.6274 10.3897 67.5987 13.3422C65.2797 13.1195 63.0126 13.2892 60.6728 14.0869C61.3654 14.4129 62.0061 14.2857 62.6001 14.405C65.0722 14.9059 67.3108 15.9766 69.5079 17.1773C71.2951 18.1552 73.0279 19.2816 75.1653 19.3426C76.1873 19.3718 77.1497 19.1915 78.0809 18.7834C78.3221 18.6774 78.5686 18.5872 78.815 18.4892C78.9006 20.4346 78.7294 22.3428 78.0135 24.1689C77.6425 24.1689 77.2482 24.2113 76.9707 23.8986C76.6464 23.5355 76.2418 23.5249 75.8086 23.5116C73.8968 23.456 72.1278 22.9047 70.478 21.9082C69.443 21.2827 68.4807 20.5538 67.5365 19.817C67.3445 20.0396 67.469 20.1907 67.4664 20.3418C67.4534 21.1846 67.552 22.046 67.0825 22.8146C67.0358 20.0927 66.2628 19.0431 63.6689 18.3196C60.7429 17.5032 57.8091 17.6093 54.8857 18.3752C54.7871 18.4017 54.6886 18.4256 54.424 18.4945C54.7716 17.9962 55.0336 17.6199 55.3474 17.1693C54.0945 17.3866 53.0725 17.9459 52.1335 18.635C51.6796 18.9689 51.3346 18.9848 50.8495 18.7648C49.4954 18.1473 48.0636 17.7895 46.5643 17.4688C46.7458 17.93 47.2361 18.0042 47.3866 18.4441C45.0105 18.1446 43.3763 19.7163 41.6383 20.8666C40.3076 21.7491 40.1287 23.5991 40.9328 25.0091C41.0521 25.2185 41.2337 25.396 41.0443 25.6584C39.9575 27.1691 40.414 28.9422 40.2817 30.6014C40.1338 32.4593 40.4036 34.3198 40.5229 36.1804C40.1416 36.1115 40.1468 35.759 40.0716 35.4939C39.1352 32.0988 38.082 28.7381 37.2571 25.3112C37.1897 25.025 37.0782 24.752 36.99 24.4843C36.6372 24.3995 36.6476 24.8925 36.3467 24.858C36.1729 24.7096 36.2351 24.5082 36.2351 24.3306C36.2481 23.3075 36.1962 22.319 35.8356 21.3198C35.3921 20.0927 35.5866 18.8814 36.5438 17.8902C36.6268 17.8054 36.6398 17.649 36.6865 17.5245C37.3012 17.5775 37.4283 17.8637 37.047 18.3593C36.7954 18.688 36.6813 19.0749 36.5775 19.4645C36.549 19.5785 36.5723 19.764 36.645 19.8329C36.7539 19.9363 36.8914 19.8276 36.9848 19.7296C37.2079 19.4937 37.475 19.3294 37.7474 19.1597C38.881 18.46 40.152 18.4229 41.4101 18.3275C42.4814 18.248 43.5241 18.0598 44.7018 17.6358C42.0171 16.4352 39.8355 14.9271 39.104 11.9719C39.5113 12.1045 39.8148 12.3986 40.1442 12.6557C40.3647 12.8307 40.6137 13.0718 40.8368 12.6425L40.842 12.6504Z" fill="#253050"/>
<path d="M67.0831 22.8247C67.5526 22.0561 67.454 21.1947 67.467 20.3519C67.467 20.2008 67.3451 20.0498 67.537 19.8271C68.4812 20.564 69.4436 21.2955 70.4786 21.9183C72.1283 22.9148 73.8948 23.4661 75.8092 23.5218C76.2424 23.535 76.647 23.543 76.9713 23.9087C77.2488 24.2215 77.6431 24.1817 78.014 24.179C77.6716 25.8249 76.7663 27.2747 76.4084 28.9153C75.1244 27.113 72.4448 28.1095 72.0064 29.9383C71.69 31.2502 71.3709 32.5595 71.0363 33.8635C70.8469 34.6003 70.5227 35.2576 69.7419 35.7903C69.7419 35.3053 69.7445 34.9422 69.7419 34.5817C69.7237 32.7715 69.7938 30.9613 69.6303 29.1511C69.5266 27.9876 69.0908 27.0785 68.0273 26.5458C67.7912 26.4266 67.5811 26.2569 67.3529 26.1218C66.7796 25.7878 66.5383 25.3585 66.7536 24.6535C66.9326 24.0651 66.9819 23.4369 67.0909 22.8274L67.0831 22.8247Z" fill="#2D3657"/>
<path d="M39.1129 11.9791C39.8443 14.9343 42.0233 16.4423 44.7106 17.643C43.533 18.0697 42.4902 18.2552 41.4189 18.3347C40.1608 18.4301 38.8898 18.4672 37.7562 19.1669C37.4838 19.3365 37.2167 19.5009 36.9936 19.7368C36.9002 19.8348 36.7627 19.9435 36.6538 19.8401C36.5811 19.7712 36.5552 19.5857 36.5863 19.4717C36.6901 19.0821 36.8042 18.6952 37.0558 18.3665C37.4346 17.8735 37.31 17.5873 36.6953 17.5316C35.9871 17.7569 35.3334 18.0988 34.685 18.4619C34.5008 18.5653 34.3244 18.9019 34.0858 18.6793C33.8912 18.4964 34.0806 18.2234 34.1376 17.9955C34.5164 16.5033 35.3957 15.3875 36.7108 14.6772C37.3256 14.3433 37.4008 13.9484 37.2841 13.3176C37.0014 11.7724 37.2193 10.2829 37.9508 8.84375C38.1868 9.9569 38.6745 10.9561 39.1129 11.9765V11.9791Z" fill="#343D5E"/>
<path d="M76.0977 8.57686C76.1547 8.54505 76.2092 8.5106 76.2689 8.48145C76.274 8.48145 76.2974 8.51325 76.3104 8.5318C76.2507 8.56096 76.1936 8.59276 76.134 8.62191L76.0977 8.57686Z" fill="#343D5E"/>
<path d="M72.6094 5.50195C72.6221 5.48339 72.6348 5.46484 72.65 5.44629C72.6424 5.47014 72.6322 5.494 72.6246 5.5152L72.6094 5.4993V5.50195Z" fill="#343D5E"/>
<path d="M42 28.0897C43.1206 27.1185 45.9892 25.7589 48.4993 28.0897C46.0341 28.0897 47.6029 26.5209 42 28.0897Z" fill="#444B68"/>
<path d="M63.9109 28.3132C62.8602 27.2667 60.0926 25.7116 57.4271 27.863C59.8865 28.0337 58.4301 26.36 63.9109 28.3132Z" fill="#444B68"/>
<path d="M51.2395 34.3652C50.5671 34.5893 46.309 40.6405 51.4636 42.6575C50.4177 41.5369 48.9087 38.3097 51.2395 34.3652Z" fill="#444B68"/>
<path d="M58.3594 45.2795L48.4983 45.1221C48.4983 45.1221 48.9341 48.9574 53.4014 48.695C57.8686 48.4321 58.3594 45.28 58.3594 45.28V45.2795Z" fill="white"/>
<path d="M46.2569 34.8134C45.5142 34.8134 44.9122 33.81 44.9122 32.5722C44.9122 31.3345 45.5142 30.3311 46.2569 30.3311C46.9995 30.3311 47.6016 31.3345 47.6016 32.5722C47.6016 33.81 46.9995 34.8134 46.2569 34.8134Z" fill="#444B68"/>
<path d="M61.0498 34.8134C60.3072 34.8134 59.7051 33.81 59.7051 32.5722C59.7051 31.3345 60.3072 30.3311 61.0498 30.3311C61.7925 30.3311 62.3945 31.3345 62.3945 32.5722C62.3945 33.81 61.7925 34.8134 61.0498 34.8134Z" fill="#444B68"/>
<path d="M75.1221 23.0869C77.3134 22.9453 78.7589 24.7449 79.1797 26.7321C79.7296 29.344 78.5923 32.3518 78.0882 34.8971C77.8049 36.3218 77.0051 36.9884 75.7262 37.859C75.0971 38.2881 74.2515 38.4298 73.5225 38.2423C71.5853 37.7382 69.8023 37.3091 69.869 35.3845C69.9565 32.9975 70.3272 30.4438 70.6438 28.0235C70.7438 27.2695 70.5647 26.0447 71.1646 25.349C71.727 24.6991 74.1473 23.1494 75.1221 23.0869Z" fill="#FFE5D8"/>
<path d="M72.1052 33.0147C72.0303 34.2353 73.1175 35.56 73.984 35.6392C75.4754 35.7767 76.8501 33.3147 76.1919 32.0357C75.2505 30.2111 72.2219 31.0776 72.1052 33.0105V33.0147Z" fill="#F9CEBC"/>
<path d="M73.3526 34.339C73.1318 34.2223 73.311 33.8932 73.5318 34.0057C73.8609 34.1807 74.3233 34.2223 74.7357 34.1098C76.602 33.6099 76.8811 29.6899 76.3562 27.5236C76.2312 27.0196 76.0896 26.6196 75.7897 26.3114C75.4439 25.9614 74.8982 25.8031 74.4024 25.9073C73.9525 26.0031 73.4401 26.453 73.5651 26.7904C73.6526 27.0237 73.2985 27.157 73.2152 26.9196C72.9944 26.3239 73.6567 25.6823 74.3274 25.5407C74.9482 25.4115 75.6272 25.6115 76.0604 26.0489C76.4437 26.4405 76.6062 26.9446 76.7228 27.4361C77.256 29.6482 77.0061 33.8849 74.8357 34.4723C74.3108 34.6139 73.7609 34.5514 73.3526 34.3348V34.339Z" fill="#F9CEC0"/>
<path d="M39.2476 124.147L39.0977 124.134C39.7184 115.898 42.197 107.487 46.2712 99.818C50.3121 92.2112 55.8652 85.4292 62.3306 80.2052L62.1348 76.6101C62.3639 76.6184 66.1465 76.7559 66.3631 76.7642C70.0499 74.3022 73.3618 71.3319 76.207 67.9326L76.3195 68.0284C73.4617 71.4444 70.1332 74.4313 66.4256 76.9017L66.4048 76.9142C63.5512 76.8017 63.422 76.8142 62.2931 76.7642L62.4847 80.2719C62.3598 80.426 41.368 95.9105 39.2476 124.142V124.147Z" fill="#7F5C62"/>
<path d="M73.1906 60.7927C65.8671 65.3251 59.4725 70.9907 54.1485 77.6102L48.8787 72.9653L44.0547 75.6731L46.4709 66.5124L46.4959 66.4124L49.0287 72.3737L72.0617 59.5596L73.1865 60.7927H73.1906Z" fill="white"/>
<path d="M48.8782 72.9646C48.8782 72.9646 45.7705 72.6689 44.879 74.6685C43.9917 76.6681 44.6582 78.9635 44.6582 78.9635L49.1032 80.0008L52.8483 76.5098C52.8483 76.5098 51.1736 72.9605 48.8782 72.9605V72.9646Z" fill="#64677A"/>
<path d="M49.1022 80.0014C49.1022 80.0014 48.9647 83.5049 48.8689 85.0588C48.5107 85.6295 48.1607 86.2085 47.8191 86.7876C41.6578 97.2605 38.346 110.579 37.6878 122.718C37.6586 122.639 34.2385 121.747 34.2135 121.656C32.0681 113.807 38.8084 94.4444 40.808 87.7749C42.8076 81.1095 44.6572 78.96 44.6572 78.96L49.098 79.9973L49.1022 80.0014Z" fill="#64677A"/>
<path d="M28.8172 127.95L28.6797 127.892C29.792 125.255 32.4498 123.288 35.2992 123.001L35.3159 123.151C32.5206 123.434 29.9086 125.363 28.8213 127.95H28.8172Z" fill="#7F5C62"/>
<path d="M43.1763 133.061C42.6389 131.524 41.6725 130.137 41.0892 128.604C40.4227 126.841 40.5644 125.288 41.4975 124.109L41.5475 124.042L41.6725 124.167L41.5683 124.271H41.5642C40.4894 125.688 40.7851 127.375 41.2309 128.549C41.8099 130.078 42.7722 131.453 43.318 133.007L43.1763 133.057V133.061Z" fill="#7F5C62"/>
<path d="M48.9241 132.782C48.8241 129.062 47.0995 125.376 44.3125 122.909L44.4125 122.797C47.2286 125.288 48.9741 129.016 49.0741 132.778H48.9241V132.782Z" fill="#7F5C62"/>
<path d="M24.9273 122.422C21.1114 125.188 18.112 129.038 16.3373 133.366C15.3334 128.359 18.9702 124.318 22.5653 121.435C23.0485 121.047 23.0194 121.014 23.5693 121.214C24.1816 121.443 24.5857 121.901 24.9273 122.422Z" fill="white"/>
<path d="M94.2668 93.6154C94.0751 107.371 92.0089 118.661 88.5887 132.466C86.3308 141.585 84.0729 150.704 81.815 159.823C81.211 162.26 81.7859 163.518 82.7482 165.685C85.7893 172.462 87.3056 179.732 87.3223 186.872C87.3223 189.142 86.7807 190.113 83.8563 190.626C71.6129 192.763 59.0279 192.954 46.7219 191.184C43.3934 190.705 39.9274 190.092 36.7114 191.084C35.2159 191.546 33.812 192.342 32.2623 192.575C30.7167 192.808 28.8671 192.259 28.3006 190.805C27.8756 189.717 28.2547 190.313 28.2547 174.237C27.7132 176.612 26.9092 178.986 26.6426 181.411C26.3259 184.289 26.3676 187.255 26.2343 190.146C26.2135 190.555 26.1801 191 25.8969 191.3C25.097 192.142 23.689 187.897 23.3974 187.376C22.056 184.952 20.3021 183.073 20.0647 180.153C19.8522 177.507 20.5896 175.816 24.1055 165.093C24.5138 163.843 24.7638 162.627 25.0929 161.365C25.397 160.194 26.3468 158.623 26.3468 157.436C26.5092 156.961 26.6759 156.495 26.8508 156.028C27.5465 154.129 27.3757 153.02 27.3591 151.058C27.055 124.813 27.8798 136.624 25.0679 105.009C24.7263 101.206 24.3847 97.3689 24.9429 93.5988C25.0429 92.9281 25.4011 92.2199 25.6261 91.5825C26.1551 90.0661 26.7009 88.5539 27.2549 87.0501C28.6088 83.3758 29.6003 79.4765 32.1206 76.4021C33.787 74.365 35.9032 72.6904 38.2736 71.5531C40.6815 70.395 41.573 71.803 44.2016 68.7078C44.7557 68.0579 45.5097 66.2375 46.497 66.4166C46.497 68.1454 45.6471 70.0617 45.2347 71.7239C42.1478 84.2089 37.9695 98.7769 36.0615 108.479C35.1367 113.174 35.42 117.611 37.3738 121.981C38.157 108.658 41.7104 97.1814 47.8217 86.7918C48.1633 86.2127 48.5091 85.6295 48.8715 85.0629C54.7704 75.5606 62.9479 67.1373 73.1917 60.7969C73.1709 60.8094 76.137 65.9917 76.3953 66.4708C77.3617 68.2579 78.749 68.6828 80.507 69.6826C83.8896 71.6073 87.1265 73.886 89.6677 76.8604C93.9377 81.8511 94.3501 87.3833 94.2668 93.6196V93.6154Z" fill="#426FC4"/>
<path d="M23.3164 126.966C28.3404 129.516 28.4029 129.645 28.7987 129.524C29.1153 129.428 29.2694 129.074 29.3694 128.758C30.1109 126.425 30.265 124.3 31.5731 113.769C31.7731 112.178 31.9939 110.595 32.1605 108.999C29.4735 115.085 27.4489 119.772 24.1371 125.558C23.9538 125.875 23.3164 126.621 23.3164 126.966Z" fill="#305FAD"/>
<path d="M93.2286 92.2988C92.7037 102.784 90.1209 113.37 84.7928 122.414C79.4646 131.462 71.912 139.185 62.9929 144.73C60.3934 146.347 57.3648 147.834 54.3821 147.117C51.1077 146.338 48.8831 143.085 49.6288 139.556C67.4045 117.565 78.469 102.551 93.2286 92.2988Z" fill="#305FAD"/>
<path d="M38.4326 155.44C34.9916 164.643 33.042 162.626 33.042 162.626C32.892 162.51 25.9142 157.098 26.3475 157.436C27.6847 153.52 27.3515 156.24 27.3223 142.168C27.4723 142.197 40.7613 144.672 39.924 144.513C39.924 144.513 41.8694 146.238 38.4285 155.44H38.4326Z" fill="#426FC4"/>
<path d="M32.9062 162.755C27.474 158.569 28.1613 159.035 27.5239 158.627C27.1199 158.369 26.6616 158.073 26.4575 157.74C26.1034 157.161 26.1325 156.344 25.9326 155.59C25.0661 152.324 25.2286 148.812 26.3867 145.7L26.5075 145.376C27.7447 141.935 28.5779 141.851 31.5981 142.697C33.0978 143.118 32.0772 142.826 40.0173 144.338L40.0548 144.372C40.1381 144.447 42.0586 146.288 38.6093 155.507C36.4389 161.31 34.8142 162.768 33.831 162.972C33.4269 163.055 33.0687 162.926 32.9104 162.755H32.9062ZM26.8574 145.5C26.8116 145.721 24.8328 149.983 26.295 155.494C26.3742 155.79 26.42 156.086 26.4616 156.369C26.6408 157.577 26.7324 157.669 27.7281 158.31C28.3779 158.727 28.3238 158.748 33.1603 162.476C33.1853 162.501 33.3811 162.685 33.7727 162.601C34.4976 162.439 36.0473 161.281 38.2593 155.374C41.3421 147.138 40.0506 144.971 39.834 144.684C32.073 143.201 33.0395 143.488 31.4982 143.055C28.6321 142.251 28.0113 142.301 26.8616 145.5H26.8574Z" fill="#305FAD"/>
<path d="M38.4303 155.44C34.9893 164.643 33.0397 162.626 33.0397 162.626C32.3857 162.122 31.8608 161.918 31.5442 161.164C31.011 159.885 30.7027 156.819 30.7818 154.932C30.8943 152.058 31.6192 149.208 32.8106 146.575C33.273 145.55 34.0604 144.055 35.2601 143.738C36.085 143.518 37.2472 144.013 38.1096 144.176L39.9217 144.517C39.9092 144.667 41.8838 146.205 38.4262 155.444L38.4303 155.44Z" fill="#273454"/>
<path d="M42.3594 143.53C48.9372 142.264 55.0361 142.951 61.5681 144.709C62.6012 144.989 63.901 144.993 64.7591 146.417C65.4757 147.613 64.9799 148.971 63.4302 149.221C62.6596 149.346 62.318 149.242 55.5526 148.413L42.3635 143.53H42.3594Z" fill="#FFE5D8"/>
<path d="M67.1759 160.41C66.6843 160.31 66.2427 160.039 65.8345 159.743C64.5306 158.823 63.4349 157.606 62.6476 156.211C63.06 157.173 62.556 158.427 61.5895 158.827C60.3064 159.36 59.5107 158.402 58.7734 157.544C59.6482 158.985 59.5982 160.847 57.5944 161.089C56.3113 161.243 55.0616 160.647 54.0785 159.885C54.0951 160.477 53.7369 161.01 53.1745 161.21C52.5954 161.414 51.9455 161.281 51.3623 161.072C48.1879 159.96 46.9507 156.682 44.0887 155.153C41.0102 153.495 36.4403 153.636 33.2159 153.295C32.2202 153.191 32.3494 152.057 32.6368 151.104C33.4492 148.254 34.8156 145.567 36.6319 143.218C36.8693 142.913 37.1235 142.601 37.4567 142.397C38.0774 142.009 38.5482 142.351 39.1855 142.393C44.6803 142.801 50.0043 141.797 55.674 145.405C60.4564 148.379 65.3179 152.295 68.3423 157.102C69.8045 159.448 68.6298 160.722 67.1759 160.406V160.41Z" fill="#FFE5D8"/>
<path d="M41.6889 145.867C41.464 146.379 38.927 148.408 36.7024 152.395C36.4983 152.765 36.3691 153.124 36.2775 153.532C36.0067 153.507 35.7401 153.49 35.4693 153.474C35.1985 151.462 35.3902 147.875 36.7066 146.433C37.7814 145.271 39.4685 145.175 40.9516 145.104C41.1974 145.092 41.4723 145.1 41.6348 145.279C41.7764 145.442 41.7722 145.679 41.6889 145.871V145.867Z" fill="#F9CEBC"/>
<path d="M54.4327 160.419C53.1413 158.09 53.4204 158.819 51.6832 156.765C51.5249 156.578 51.8082 156.332 51.9707 156.524C53.6995 158.573 53.4454 157.861 54.7618 160.235C54.8826 160.452 54.5535 160.635 54.4327 160.419Z" fill="#F9CEC0"/>
<path d="M58.9707 158.299C58.1875 157.215 56.9836 156.12 56.1796 155.008C56.0338 154.808 56.3337 154.587 56.4837 154.787C57.2668 155.87 58.4708 156.965 59.2748 158.078C59.4206 158.278 59.1165 158.498 58.9707 158.299Z" fill="#F9CEC0"/>
<path d="M62.0116 155.982C61.4534 154.653 59.7871 153.353 58.7123 152.308C58.5332 152.137 58.7956 151.866 58.9747 152.041C60.0662 153.103 61.7617 154.42 62.3574 155.836C62.4532 156.065 62.1075 156.211 62.0116 155.982Z" fill="#F9CEC0"/>
<path d="M61.048 149.404C60.7564 149.404 57.4446 146.979 51.7915 146.467C51.5374 146.442 51.5832 146.059 51.8248 146.092C55.0867 146.388 58.3069 147.412 61.1438 149.054C61.3105 149.15 61.2438 149.404 61.048 149.404Z" fill="#F9CEC0"/>
<path d="M38.1131 144.172C37.8632 145.934 37.4383 147.667 36.9634 149.392C36.4426 151.279 35.7594 154.087 35.2429 155.953C33.7348 155.895 32.2726 155.228 30.7812 154.928C30.8937 152.054 31.6186 149.204 32.81 146.571C33.2724 145.547 34.0598 144.051 35.2595 143.734C36.0844 143.514 37.2466 144.009 38.109 144.172H38.1131Z" fill="white"/>
<path d="M62.1849 170.9C56.5236 170.9 52.8826 170.321 51.562 170.188L51.5287 170.071C50.833 167.788 51.0621 165.247 52.1536 163.093L52.1952 163.01C55.7071 162.581 65.1427 160.477 78.3693 161.406L78.5067 161.415L78.5401 161.548C80.2147 168.434 79.8065 168.067 79.9356 168.955C78.6984 169.159 71.9247 170.9 62.1891 170.9H62.1849ZM51.8495 169.85C60.8977 171.054 70.4667 170.642 79.5357 168.659C79.3899 166.289 78.765 164.077 78.1985 161.773C70.0709 161.215 62.1141 161.702 52.4369 163.352C51.4454 165.364 51.2288 167.722 51.8453 169.85H51.8495Z" fill="#305FAD"/>
<path d="M71.0272 190.604C70.669 190.604 70.9398 191.217 70.4648 172.508C70.4648 172.404 70.544 172.321 70.6481 172.316C70.7481 172.316 70.8356 172.4 70.8356 172.5C71.1397 191.221 71.3897 190.596 71.0231 190.604H71.0272Z" fill="#305FAD"/>
<path d="M91.143 103.072C85.0775 121.41 72.5758 137.548 56.3374 148C50.0803 152.029 40.9071 147.642 33.6501 146.013C27.3764 144.605 20.7693 143.847 14.5039 142.435C14.5206 134.628 18.5823 126.629 25.8308 121.797C26.8681 122.768 28.4178 122.947 29.8301 122.826C31.2506 122.705 32.6462 122.343 34.0626 122.401C36.4996 122.509 38.9074 124.471 41.2778 123.922C41.207 123.255 41.7069 122.576 42.3693 122.455C43.0108 122.343 43.4232 123.238 43.6398 123.688C44.1023 123.251 44.2522 122.514 44.748 122.072C45.502 121.405 46.6768 121.605 47.3808 120.881C47.9932 120.26 48.0015 119.252 48.4764 118.535C49.0096 117.744 49.9261 117.027 50.5718 116.319C52.3423 114.386 54.117 112.457 55.9083 110.545C56.4582 104.192 57.7704 98.1225 60.8531 92.5361C63.5359 87.6621 66.7936 82.8963 71.4885 79.9136C76.1835 76.9308 82.6072 76.1185 87.2479 79.1887C90.8722 81.5841 92.8469 85.9624 93.2051 90.2907C93.5717 94.619 92.5094 98.9473 91.1472 103.076L91.143 103.072Z" fill="#426FC4"/>
<path d="M38.7369 147.583C30.0761 145.046 30.8592 145.838 14.3125 142.58C14.3875 141.843 14.15 138.181 16.158 133.294C18.0326 128.729 21.3278 124.567 25.7228 121.634L25.8477 121.551C25.9977 121.613 26.86 122.884 29.8095 122.634C31.2092 122.517 32.6297 122.147 34.067 122.209C36.4082 122.313 38.8785 124.18 41.0781 123.767C41.0864 123.059 41.628 122.392 42.3278 122.267C43.0069 122.155 43.4193 122.838 43.6776 123.351C43.7942 123.192 43.89 123.013 43.99 122.822C44.4816 121.901 44.7565 121.643 45.9771 121.326C46.4562 121.201 46.9103 121.084 47.2394 120.743C47.8101 120.164 47.8267 119.16 48.3142 118.422C48.8724 117.598 49.793 116.881 50.4262 116.185C52.1134 114.344 53.9214 112.378 55.7169 110.461C56.3584 103.138 57.9373 97.414 60.6784 92.44C62.9988 88.22 66.3148 82.9669 71.3763 79.7508C71.5804 79.6175 71.7887 79.9341 71.5763 80.0674C66.5856 83.2377 63.307 88.4408 61.0075 92.6192C58.283 97.5598 56.7167 103.259 56.0835 110.557V110.62C55.9377 110.774 50.6387 116.527 49.918 117.218C49.4431 117.673 48.9515 118.143 48.6183 118.635C48.16 119.331 48.1517 120.347 47.5018 121.009C46.7186 121.813 45.5939 121.559 44.8565 122.209C44.4149 122.601 44.2233 123.376 43.7525 123.821L43.5651 124C43.3735 123.613 42.936 122.547 42.3862 122.638C41.8279 122.738 41.3863 123.33 41.4488 123.901L41.4655 124.067L41.303 124.105C38.8368 124.684 36.4748 122.697 34.0378 122.588C31.3508 122.484 28.1098 124.017 25.7977 122.034C19.0657 126.567 14.7416 134.261 14.6749 142.284C20.8737 143.672 27.4807 144.442 33.6754 145.834C41.0239 147.483 50.0263 151.833 56.2209 147.846C72.5261 137.348 84.8611 121.426 90.9516 103.013C92.1097 99.5095 93.3886 94.902 93.0012 90.3029C92.9804 90.0572 93.3553 90.0155 93.3761 90.2696C93.7677 94.9354 92.4763 99.5928 91.3057 103.125C85.1902 121.618 72.801 137.61 56.4251 148.154C51.4385 151.366 44.4774 149.266 38.7244 147.583H38.7369Z" fill="#305FAD"/>
<path d="M29.8512 122.338C29.8512 122.338 29.8262 122.338 29.8137 122.338C29.7137 122.317 29.647 122.217 29.6679 122.117C29.6929 121.988 32.2549 109.053 32.7756 102.825C32.7839 102.721 32.8756 102.638 32.9797 102.654C33.0839 102.663 33.1589 102.754 33.1505 102.859C32.6298 109.103 30.0636 122.059 30.0386 122.192C30.022 122.28 29.9428 122.342 29.8553 122.342L29.8512 122.338Z" fill="#305FAD"/>
<path d="M81.6728 163.493H81.6687C81.5645 163.493 81.4812 163.406 81.4854 163.301C81.5645 160.027 80.8355 156.749 79.3816 153.812C79.2691 153.583 79.6149 153.428 79.719 153.645C81.2021 156.636 81.9394 159.977 81.8603 163.31C81.8603 163.41 81.7728 163.493 81.6728 163.493Z" fill="#305FAD"/>
<path d="M26.8198 142.168C28.4361 136.186 30.8898 130.462 34.1059 125.163C34.235 124.95 34.5558 125.146 34.4266 125.359C31.2273 130.628 28.7902 136.315 27.1822 142.268C27.1156 142.505 26.7573 142.409 26.8198 142.168Z" fill="#305FAD"/>
</svg>
