<svg width="212" height="218" viewBox="0 0 212 218" fill="none" xmlns="http://www.w3.org/2000/svg">
<g clip-path="url(#clip0_426_330)">
<path d="M119.913 70.1968C121.054 70.1082 122.322 70.7947 123.285 69.6377C123.34 70.9469 124.287 70.7421 125.095 70.6563C131.182 70.0114 137.241 70.219 143.297 71.0549C148.974 71.8382 154.59 72.8651 159.863 75.2095C163.192 76.6903 165.935 78.7275 166.367 82.7631C166.439 83.4274 166.816 84.0612 167.059 84.7062C167.186 85.0411 167.494 85.3815 167.231 85.733C166.932 86.1344 166.467 86.0071 166.079 85.8853C164.277 85.3151 162.536 85.5365 160.812 86.2202C158.966 86.9537 157.178 87.8173 155.495 88.8608C147.449 93.8568 142.101 101.236 137.537 109.296C137.288 109.739 137.08 110.207 137.193 110.744C137.279 111.145 137.512 111.392 137.932 111.452C138.317 111.508 138.528 111.339 138.655 110.979C139.859 107.566 142.405 104.984 144.227 101.953C147.233 96.9514 151.728 93.5081 156.428 90.3001C158.171 89.1099 160.045 88.0692 162.138 87.5599C163.685 87.1834 165.21 87.0174 166.661 88.0055C167.242 88.4013 167.782 89.4586 168.731 88.4151C168.93 88.1937 169.116 88.5591 169.177 88.7584C169.365 89.3645 169.606 89.9762 169.237 90.7374C167.181 89.359 165.124 89.9873 163.184 90.8897C156.563 93.9703 151.368 98.6896 147.7 105C145.71 108.424 143.994 112.006 142.076 115.471C141.063 117.304 139.945 119.092 138.492 120.664C138.054 120.304 138.06 119.919 138.029 119.565C137.869 117.639 137.719 115.709 137.578 113.78C137.539 113.249 137.484 112.673 136.817 112.673C136.036 112.673 136.031 113.315 136.067 113.888C136.186 115.82 136.319 117.749 136.449 119.681C136.49 120.315 136.69 120.863 137.332 121.126C137.772 121.306 137.733 121.55 137.47 121.86C136.554 122.942 135.627 124.01 134.318 124.846C134.536 123.033 134.835 121.353 134.924 119.662C135.156 115.095 134.074 110.968 130.581 107.752C130.155 107.359 129.665 106.595 128.989 107.359C128.444 107.976 128.967 108.463 129.424 108.87C132.197 111.339 133.252 114.525 133.332 118.131C133.437 122.812 132.341 127.279 130.816 131.644C129.803 134.548 129.128 137.468 129.211 140.565C129.341 145.434 128.857 150.231 127.334 154.889C126.628 157.051 126.656 159.218 127.235 161.424C127.899 163.962 128.61 166.506 129.009 169.091C129.842 174.494 129.36 179.955 129.488 185.389C129.501 186.009 129.214 186.449 128.771 186.811C127.021 188.245 125.25 189.643 123.135 190.526C119.966 191.849 116.705 192.101 113.381 191.334C112.722 191.182 111.762 191.11 111.726 190.144C111.651 188.187 110.887 186.363 110.707 184.436C110.159 178.638 108.723 173.005 107.602 167.309C106.777 163.118 105.844 158.922 105.429 154.684C105.025 150.568 105.219 146.394 105.152 142.245C105.075 137.307 105.507 132.392 105.836 127.47C105.875 126.9 105.972 126.261 105.216 126.169C104.485 126.081 104.333 126.668 104.286 127.268C104.214 128.187 104.117 129.103 104.056 130.022C103.846 133.194 104.125 136.494 103.331 139.511C102.024 144.485 100.751 149.5 98.8054 154.3C97.5156 157.483 96.4084 158.396 92.9928 158.562C87.2577 158.842 82.8761 156.19 79.2419 152.082C75.9785 148.396 73.958 143.997 72.4245 139.372C69.2359 129.751 68.2755 119.742 67.3703 109.728C67.2126 107.981 67.1738 106.24 67.2901 104.483C67.6029 99.7303 68.4222 95.0526 69.3937 90.408C70.4012 85.5891 71.5056 80.7674 74.2292 76.527C74.4589 76.1699 74.5973 75.8904 75.0956 75.7852C81.8742 74.3708 88.6804 73.1889 95.6362 73.1668C97.6955 73.1585 99.7105 72.8485 101.535 71.9129C103.093 71.1158 104.601 71.1407 106.221 71.5282C108.056 71.9655 109.899 72.4886 111.812 72.2672C114.145 71.9959 116.467 71.6278 118.795 71.3095C119.465 71.2182 119.947 70.9691 119.925 70.194L119.913 70.1968ZM84.9991 91.5373C86.2945 97.48 84.8109 103.799 87.8667 109.559C89.3835 112.418 90.4076 115.577 92.0158 118.422C94.3657 122.579 97.5045 126.023 101.648 128.481C102.191 128.804 102.874 129.35 103.342 128.611C103.89 127.75 102.968 127.476 102.431 127.091C101.421 126.369 100.38 125.679 99.4282 124.888C94.9608 121.182 92.37 116.205 90.2471 110.962C89.544 109.227 88.1656 107.818 87.9912 105.828C87.6757 102.205 87.2245 98.5927 86.8896 94.9723C86.7235 93.187 86.682 91.3879 86.5962 89.5943C86.5685 89.0102 86.3582 88.5729 85.7132 88.6061C85.1264 88.6366 84.9991 89.0988 84.9991 89.6026C84.9991 90.2475 84.9991 90.8924 84.9991 91.5373ZM121.555 103.257C118.673 103.24 116.185 104.311 113.89 105.983C109.384 109.269 107.115 113.88 106.021 119.186C105.858 119.978 105.252 121.173 106.475 121.403C107.641 121.622 107.425 120.301 107.582 119.568C108.695 114.397 110.865 109.891 115.468 106.905C117.644 105.493 119.966 104.591 122.637 104.931C123.196 105.003 123.849 104.964 123.908 104.22C123.963 103.517 123.39 103.309 122.798 103.262C122.385 103.229 121.97 103.257 121.555 103.257ZM101.82 132.671C102.321 132.696 102.902 132.779 102.974 132.054C103.057 131.207 102.448 131.124 101.806 131.066C98.2325 130.734 95.0355 129.433 92.1708 127.285C90.7342 126.208 89.306 125.12 87.9995 123.889C87.5511 123.465 87.0391 123.227 86.5575 123.75C86.0924 124.257 86.4689 124.697 86.8647 125.043C87.6259 125.71 88.3898 126.374 89.187 127C92.9264 129.934 96.8651 132.436 101.822 132.671H101.82ZM103.032 74.1023C103.065 73.3827 102.96 72.9841 102.462 72.8761C101.892 72.7516 101.559 73.1225 101.454 73.5903C100.884 76.1672 99.514 78.3206 97.9612 80.3882C97.6125 80.8532 97.3633 81.4234 97.9861 81.8275C98.6006 82.2289 99.0296 81.7556 99.3535 81.2933C100.436 79.7544 101.515 78.2044 102.232 76.4523C102.578 75.6081 102.824 74.7196 103.032 74.0968V74.1023Z" fill="#5886B1"/>
<path d="M119.912 70.1963C119.934 70.9713 119.452 71.2204 118.783 71.3117C116.455 71.6273 114.132 71.9954 111.799 72.2694C109.886 72.4936 108.043 71.9677 106.208 71.5304C104.589 71.1457 103.08 71.118 101.522 71.9151C99.6978 72.8507 97.6828 73.1607 95.6235 73.169C88.6705 73.1939 81.8615 74.3758 75.0829 75.7874C74.5846 75.8898 74.4463 76.1722 74.2165 76.5292C71.4929 80.7696 70.3885 85.5913 69.381 90.4103C68.4095 95.0548 67.5902 99.7325 67.2774 104.485C67.1611 106.243 67.1999 107.984 67.3577 109.73C68.2628 119.744 69.226 129.753 72.4118 139.374C73.9453 144 75.9658 148.398 79.2292 152.085C82.8635 156.192 87.245 158.841 92.9801 158.564C96.3957 158.398 97.5029 157.482 98.7927 154.302C100.739 149.502 102.012 144.487 103.318 139.513C104.113 136.496 103.833 133.196 104.043 130.024C104.104 129.106 104.201 128.189 104.273 127.27C104.32 126.673 104.472 126.083 105.203 126.172C105.959 126.263 105.862 126.902 105.823 127.472C105.494 132.391 105.059 137.307 105.14 142.248C105.206 146.397 105.012 150.571 105.416 154.686C105.832 158.924 106.764 163.12 107.589 167.311C108.71 173.004 110.147 178.64 110.695 184.439C110.877 186.368 111.639 188.189 111.713 190.146C111.752 191.112 112.71 191.184 113.369 191.336C116.696 192.103 119.956 191.851 123.123 190.528C125.237 189.645 127.009 188.247 128.758 186.814C129.201 186.451 129.489 186.011 129.475 185.391C129.345 179.955 129.829 174.494 128.996 169.093C128.598 166.508 127.886 163.965 127.222 161.426C126.646 159.22 126.616 157.053 127.322 154.891C128.844 150.233 129.328 145.436 129.198 140.567C129.115 137.473 129.79 134.55 130.804 131.646C132.329 127.281 133.422 122.814 133.32 118.134C133.239 114.527 132.185 111.341 129.411 108.872C128.955 108.465 128.431 107.978 128.977 107.361C129.652 106.597 130.142 107.361 130.568 107.754C134.061 110.97 135.144 115.1 134.911 119.664C134.825 121.355 134.524 123.036 134.305 124.848C135.614 124.013 136.541 122.944 137.458 121.862C137.721 121.552 137.759 121.308 137.319 121.128C136.677 120.865 136.478 120.317 136.436 119.684C136.306 117.752 136.173 115.822 136.054 113.89C136.018 113.32 136.027 112.678 136.804 112.675C137.471 112.675 137.527 113.248 137.566 113.782C137.707 115.712 137.859 117.638 138.017 119.567C138.047 119.922 138.039 120.306 138.479 120.666C139.935 119.094 141.05 117.306 142.063 115.474C143.982 112.005 145.698 108.427 147.688 105.003C151.352 98.6918 156.551 93.9753 163.171 90.8919C165.112 89.9895 167.168 89.364 169.225 90.7396C169.593 89.9785 169.352 89.364 169.164 88.7606C169.103 88.5641 168.918 88.1987 168.718 88.4174C167.772 89.4609 167.229 88.4035 166.648 88.0077C165.197 87.0196 163.672 87.1857 162.125 87.5621C160.033 88.0714 158.159 89.1121 156.415 90.3023C151.715 93.5103 147.22 96.9536 144.214 101.955C142.393 104.986 139.846 107.571 138.642 110.981C138.515 111.341 138.305 111.507 137.92 111.455C137.499 111.396 137.267 111.15 137.181 110.746C137.067 110.212 137.275 109.741 137.524 109.298C142.088 101.238 147.439 93.8591 155.482 88.863C157.165 87.8195 158.953 86.9559 160.799 86.2224C162.521 85.5388 164.262 85.3173 166.067 85.8875C166.457 86.0121 166.919 86.1366 167.218 85.7353C167.481 85.381 167.174 85.0433 167.046 84.7084C166.803 84.0635 166.426 83.4296 166.354 82.7653C165.923 78.7297 163.18 76.6925 159.85 75.2117C154.574 72.8673 148.961 71.8404 143.284 71.0571C137.228 70.2212 131.169 70.0108 125.082 70.6585C124.274 70.7443 123.327 70.9491 123.272 69.6399C125.417 68.8262 127.676 68.7514 129.921 68.7016C139.907 68.4746 149.675 69.698 159.13 73.086C161.347 73.8803 163.252 75.1204 165.037 76.5846C165.934 77.3208 166.803 78.2509 167.063 79.3359C167.797 82.3861 169.455 85.0211 170.567 87.8776C171.757 90.9306 171.475 94.313 170.733 97.5514C170.481 98.6475 169.391 99.2758 169.128 100.411C168.702 102.249 168.702 102.362 170.537 102.75C172.314 103.123 173.939 103.837 175.563 104.629C178.625 106.118 181.683 107.652 184.858 108.864C193.699 112.243 195.238 120.514 194.634 126.792C194.308 130.182 192.852 133.152 191.188 136.039C190.673 136.93 189.937 137.628 189.01 138.104C188.603 137.058 188.941 136.233 189.53 135.3C190.51 133.753 191.398 132.114 192.063 130.412C193.344 127.124 193.278 123.744 192.73 120.254C191.999 115.606 189.168 112.814 185.262 110.848C182.386 109.404 179.425 108.122 176.468 106.843C174.193 105.858 172.04 104.563 169.568 104.05C168.298 103.788 167.01 103.765 166.014 104.648C164.813 105.711 163.634 106.716 162.704 108.186C161.082 110.749 161.129 113.088 161.929 115.8C162.554 117.92 163.523 120.068 162.853 122.393C162.499 123.622 162.562 124.854 162.709 126.097C162.942 128.087 162.424 129.308 161.065 129.98C159.623 130.697 158.12 130.44 156.75 129.244C154.771 127.52 152.67 127.251 150.422 128.441C149.42 127.68 148.313 128.342 147.173 127.937C147.35 128.474 147.588 128.494 147.81 128.505C149.487 128.596 150.478 129.479 150.995 131.068C151.319 132.062 151.92 132.964 152.255 133.958C152.626 135.054 153.395 135.256 154.378 135.198C154.389 135.333 154.4 135.466 154.414 135.602C153.486 135.588 152.556 135.574 151.629 135.56C150.843 135.112 151.067 135.693 151.098 136.081C151.153 137.631 151.209 139.181 151.264 140.731C151.167 141.342 151.286 141.921 151.549 142.472C152.473 146.795 153.415 151.113 153.766 155.533C153.821 156.225 154.278 156.428 154.834 156.61C156.814 157.263 158.851 157.643 160.918 157.825C163.285 158.033 165.474 157.421 167.52 156.225C168.552 155.622 169.156 154.894 168.987 153.565C168.832 152.339 168.904 151.08 168.954 149.837C168.99 148.94 168.751 148.525 167.752 148.453C162.778 148.107 159.479 145.278 157.068 141.143C156.7 140.512 156.755 140.138 157.378 139.815C158.278 139.895 159.039 140.075 159.41 141.11C160.669 144.609 165.541 147.443 169.164 146.837C170.252 146.654 171.323 146.386 172.408 146.181C174.143 145.851 174.428 146.161 173.911 147.803C173.817 148.104 173.609 148.414 173.903 148.697C174.138 148.926 174.423 148.81 174.675 148.702C178.622 147.008 182.306 144.996 184.288 140.883C184.451 140.543 184.509 139.986 185.071 140.066C185.674 140.152 185.589 140.742 185.73 141.157C185.58 142.192 185.121 143.1 184.437 143.864C181.553 147.086 178.146 149.505 173.897 150.604C173.72 150.651 173.54 150.706 173.36 150.734C171.525 151.022 171.082 150.543 171.586 148.816C171.636 148.647 171.699 148.481 171.755 148.312C170.836 148.016 170.54 148.298 170.6 149.27C170.689 150.692 170.628 152.126 170.606 153.554C170.587 154.756 170.335 155.871 169.629 156.901C168.782 158.138 169.244 159.265 170.647 159.768C175.464 161.501 180.249 163.284 184.05 166.94C185.137 167.986 185.843 169.049 185.265 170.574C185.118 170.959 185.292 171.192 185.442 171.46C185.998 172.476 185.841 173.337 184.861 173.968C184.326 174.311 184.49 174.496 184.839 174.887C186.181 176.387 185.957 177.721 184.232 178.867C183.197 179.163 182.217 178.991 181.296 178.482C180.817 178.216 180.595 178.067 180.404 178.825C179.992 180.45 179.007 180.923 177.368 180.434C176.147 180.068 175.184 179.293 174.257 178.446C171.943 176.337 170.061 173.793 167.572 171.856C166.435 170.97 165.247 170.253 163.722 170.148C163.725 170.771 164.09 171.095 164.323 171.477C165.023 172.642 165.51 173.865 165.458 175.258C165.408 176.542 164.824 177.483 163.609 177.906C162.454 178.308 161.677 177.638 161.035 176.777C160.262 175.747 159.498 174.71 158.732 173.674C157.658 172.022 156.584 170.372 155.51 168.72V168.725C155.33 168.213 155.147 167.701 154.965 167.189L155.056 167.15C154.862 165.62 155.178 164.125 155.394 162.625C155.49 161.947 155.513 161.316 154.663 161.102C153.943 160.92 153.758 160.394 153.772 159.738C153.791 158.722 153.871 157.709 152.656 157.205C152.249 157.036 152.235 156.535 152.197 156.112C151.46 148.01 148.809 140.144 149.235 131.901C149.235 131.857 149.221 131.81 149.221 131.763C149.221 130.73 148.812 130.218 147.682 130.099C145.811 129.9 145.244 129.191 145.523 127.315C145.723 125.994 145.108 125.087 144.505 123.891C144.247 124.699 144.438 125.286 144.507 125.864C144.806 128.378 145.188 130.885 145.435 133.404C146.074 139.939 146.592 146.485 147.292 153.012C147.638 156.245 148.078 159.492 149.393 162.525L149.368 162.6L149.434 162.644C149.667 163.627 149.996 164.576 150.469 165.47L150.433 165.465C150.746 166.727 151.452 167.787 152.152 168.853C152.556 169.625 152.556 170.383 152.296 171.233C151.798 172.855 151.422 174.513 150.993 176.157C150.622 177.577 150.326 177.71 148.964 177.071C146.367 175.85 144.12 174.092 141.811 172.426C141.358 172.099 141.205 171.637 141.095 171.142C140.118 166.785 139.351 162.403 139.412 157.914C139.45 155.157 139.437 152.403 139.448 149.646C139.459 148.902 139.467 148.154 139.478 147.41L139.531 147.349L139.478 147.288C139.708 147.13 139.736 146.981 139.456 146.848L139.401 143.828C139.655 143.482 139.697 143.089 139.711 142.668C139.863 137.459 140.034 132.255 139.913 127.041C139.877 125.477 138.808 124.821 138.017 124.076C137.546 123.633 136.898 124.976 136.259 125.433C135.849 125.726 135.503 126.108 135.121 126.437C134.867 126.659 134.67 126.883 134.778 127.262C135.556 129.988 136.215 132.743 136.743 135.527C136.94 137.401 137.278 139.267 136.998 141.163C136.503 144.509 135.299 147.615 131.091 148.331C130.333 148.461 130.294 148.949 130.203 149.505C129.813 151.899 129.337 154.277 128.672 156.61C128.384 157.618 128.34 158.592 128.562 159.608C129.289 162.932 130.153 166.237 130.685 169.594C131.531 174.945 130.939 180.364 131.15 185.751C131.161 186.019 131.108 186.315 131 186.559C130.46 187.78 130.978 188.319 132.154 188.632C134.064 189.139 136.021 189.568 137.643 190.794C138.233 191.239 138.775 191.812 139.52 191.918C141.864 192.25 143.544 193.576 145.017 195.314C145.548 195.942 146.226 196.446 146.852 196.988C148.579 198.489 148.266 200.462 146.163 201.309C145.264 201.671 145.196 202.189 145.958 202.865C146.163 203.047 146.387 203.208 146.603 203.377C147.765 204.608 148.836 205.907 149.703 207.371C150.207 208.221 150.517 209.128 150.569 210.108C150.647 211.559 149.916 212.273 148.407 212.267C148.072 212.267 147.585 212.043 147.743 212.721C148.053 214.055 148.399 215.47 146.868 216.256C145.526 216.945 144.286 216.228 143.115 215.547C142.351 218.238 141.12 218.68 138.772 217.083C138.13 216.646 137.527 216.131 136.993 215.567C136.505 215.049 136.137 214.421 135.747 213.878C135.324 214.039 135.354 214.279 135.335 214.498C135.135 216.685 133.253 217.568 131.421 216.333C130.718 215.86 130.228 215.193 129.788 214.487C128.717 212.771 127.634 211.06 126.588 209.328C125.957 208.284 125.093 207.479 124.185 206.69C123.25 205.879 122.389 204.985 121.498 204.127C119.981 202.416 118.769 200.506 118.174 198.303C117.861 197.146 117.332 196.62 116.159 196.493C115.021 196.368 113.969 195.959 113.839 194.555C113.742 193.495 113.346 192.742 112.145 192.64C111.785 192.61 111.401 192.349 111.293 191.995C110.706 190.069 109.433 188.419 109.233 186.318C108.898 182.792 108.475 179.271 107.675 175.803C105.466 166.231 103.631 156.605 103.498 146.732C103.495 146.463 103.415 146.197 103.371 145.932C102.383 149.267 101.176 152.439 100.052 155.644C99.3325 157.695 98.1257 159.029 96.0553 159.649C92.0889 160.84 88.2802 160.369 84.7096 158.395C83.4115 157.679 82.6946 157.814 81.6788 158.849C80.3806 160.17 79.052 161.49 77.0204 161.872C71.9828 162.821 67.3521 162.046 62.9982 159.281C55.5166 154.529 48.7657 148.78 41.4971 143.739C37.4892 140.96 33.545 138.093 29.573 135.264C29.5453 135.173 29.4844 135.128 29.3876 135.128V135.117C28.2749 134.002 26.4757 133.631 25.9305 131.887C25.8087 131.497 25.4931 131.763 25.2468 131.851C23.8628 132.355 22.4733 132.848 21.0866 133.34C18.0392 134.423 15.6643 136.316 13.8098 138.987C12.6888 140.603 11.3713 142.14 9.14312 142.328C6.9205 142.516 5.44521 141.331 5.37878 139.125C5.18502 132.64 7.41318 127.237 12.6335 123.21C14.8201 121.521 17.0178 119.847 19.1906 118.139C20.5164 117.096 21.9834 116.359 23.611 115.95C24.2393 115.792 24.6655 115.496 24.4441 114.801C23.8573 112.952 25.1084 112.025 26.3373 111.23C27.7268 110.334 29.3045 109.752 30.8905 109.271C32.28 108.847 33.5588 108.994 34.7933 109.943C36.1302 110.973 37.7937 111.488 39.1001 112.653C39.6593 113.151 40.7387 112.98 41.5636 113.326C45.9064 115.144 49.4853 118.17 53.4019 120.663C54.6308 121.447 55.8958 122.172 57.3655 123.055C56.4964 120.138 55.7463 117.45 54.891 114.798C53.4794 110.414 51.8795 106.032 51.7024 101.407C51.4478 94.7503 53.4794 88.8049 58.1793 83.8974C61.5174 80.4098 65.6056 78.0876 69.8488 75.9037C74.0698 73.7309 78.7033 73.5676 83.1873 72.6542C87.9038 71.6937 92.7061 71.5996 97.4946 71.4308C98.8287 71.3837 100.058 71.0239 101.148 70.3125C102.538 69.4074 104.135 69.1887 105.53 69.7008C109.798 71.2674 113.991 70.2931 118.218 69.7146C118.846 69.6288 119.522 69.3825 119.887 70.2018L119.912 70.1963ZM160.841 95.9737C163.573 95.6416 165.762 96.3114 166.772 99.1734C166.803 99.2592 166.861 99.334 166.911 99.4115C167.345 100.12 167.73 100.164 168.198 99.4032C169.097 97.939 169.385 96.3363 169.399 94.659C169.416 92.644 168.289 91.4925 166.313 91.7416C163.603 92.0848 161.32 93.3858 159.366 95.2735C158.801 95.3676 158.35 95.6859 157.896 96.0042C155.651 97.5764 153.821 99.5803 152.008 101.604C150.774 102.982 149.742 104.488 148.914 106.176C149.437 106.32 149.639 106.077 149.83 105.805C150.815 104.421 152.083 103.295 153.229 102.055C155.457 99.644 158.3 97.9971 160.838 95.9737H160.841ZM176.856 164.003C175.248 163.336 173.604 162.741 172.037 161.988C169.928 160.972 168.048 160.491 165.698 161.794C163.011 163.286 159.961 162.533 157.021 161.88C156.952 162.716 156.963 163.505 156.811 164.261C156.434 166.129 156.769 167.809 157.876 169.365C159.291 171.352 160.664 173.37 162.073 175.36C162.366 175.775 162.543 176.511 163.265 176.229C163.963 175.955 163.811 175.249 163.802 174.66C163.797 174.087 163.54 173.6 163.271 173.112C162.917 172.467 162.543 171.828 162.261 171.153C161.491 169.32 162.407 168.141 164.386 168.451C165.92 168.692 167.257 169.428 168.464 170.381C170.022 171.609 171.458 172.968 172.773 174.46C173.994 175.844 175.317 177.129 176.767 178.272C177.257 178.657 177.935 179.252 178.483 178.784C179.112 178.247 178.547 177.505 178.232 176.916C177.971 176.431 177.628 175.991 177.318 175.537C175.981 173.586 174.179 172.047 172.649 170.267C172.328 169.893 171.918 169.434 172.4 168.933C172.934 168.377 173.415 168.772 173.82 169.171C175.192 170.533 176.532 171.928 177.922 173.276C179.3 174.613 180.554 176.105 182.206 177.126C182.704 177.433 183.419 177.655 183.861 177.087C184.39 176.412 183.665 176.01 183.283 175.612C180.77 172.993 178.37 170.248 175.242 168.305C174.766 168.008 174.473 167.582 174.86 167.037C175.242 166.497 175.751 166.647 176.205 166.94C176.864 167.361 177.49 167.834 178.14 168.266C179.845 169.401 180.994 171.139 182.597 172.376C182.967 172.661 183.438 173.198 183.895 172.634C184.29 172.144 183.698 171.814 183.405 171.51C181.304 169.348 178.838 167.665 176.288 166.087C175.84 165.811 175.123 165.661 175.314 164.947C175.541 164.111 176.244 164.424 176.817 164.518C179.2 165.694 181.107 167.593 183.396 168.922C181.633 166.716 179.472 165.055 176.859 163.998L176.856 164.003ZM71.5649 77.0302C66.5467 79.1532 61.8938 81.8602 58.398 86.1283C54.4094 90.9971 52.959 96.6602 53.5763 102.921C53.997 107.195 55.5968 111.136 56.7732 115.197C59.4082 124.309 62.774 133.202 64.98 142.444C65.5696 144.907 66.1758 147.368 66.4802 149.89C66.5411 150.385 66.4913 150.853 65.8824 150.944C65.3122 151.03 65.0326 150.67 64.9357 150.161C64.8084 149.483 64.7337 148.794 64.5898 148.121C63.2141 141.625 61.4343 135.242 59.3529 128.931C58.6415 126.778 57.9053 124.951 55.6688 123.838C51.3703 121.704 47.7305 118.482 43.562 116.121C42.2168 115.36 40.9131 114.192 39.1001 114.746C36.5398 115.529 34.4916 116.918 32.9969 119.208C30.647 122.806 29.4263 126.872 27.9012 130.819C27.5248 131.796 28.2001 132.15 28.7925 132.574C31.2947 134.378 33.783 136.2 36.3129 137.968C44.2429 143.515 51.8962 149.436 59.7404 155.099C62.7657 157.283 65.8021 159.497 69.572 160.272C73.8152 161.141 77.8314 161.078 80.973 157.424C81.4574 156.862 81.6483 156.552 80.973 156.023C76.0682 152.17 73.4055 146.842 71.2964 141.171C68.7056 134.207 67.5874 126.924 66.6684 119.598C66.1121 115.161 65.2624 110.693 65.5558 106.254C66.209 96.3114 67.604 86.4688 71.8472 77.2793C71.9607 77.1797 72.1766 77.0828 71.9911 76.914C71.8527 76.7894 71.6811 76.8946 71.5649 77.0358V77.0302ZM148.859 210.454C149.041 209.242 148.479 208.381 147.868 207.493C146.096 204.927 143.602 203.039 141.596 200.7C140.397 199.302 138.8 198.278 137.823 196.681C137.541 196.219 137.161 195.696 137.759 195.217C138.415 194.691 138.866 195.12 139.24 195.649C140.284 197.127 141.582 198.37 142.883 199.61C143.658 200.349 145.219 200.332 146.016 199.626C146.489 199.208 146.39 198.846 145.983 198.472C145.371 197.913 144.734 197.376 144.159 196.781C142.647 195.211 141.147 193.664 138.775 193.465C138.36 193.429 137.914 193.111 137.588 192.809C136.541 191.846 135.285 191.3 133.964 190.866C133.223 190.622 132.456 190.165 131.736 190.224C130.892 190.293 130.961 191.419 130.471 191.995C127.886 195.034 124.598 196.698 120.656 196.969C119.533 197.046 119.516 197.296 119.848 198.209C120.786 200.791 122.345 202.909 124.404 204.694C125.971 206.053 127.457 207.462 128.531 209.3C129.597 211.124 130.635 212.984 131.983 214.631C132.365 215.096 132.857 215.403 133.43 215.099C134.064 214.761 133.726 214.171 133.535 213.754C132.619 211.747 131.651 209.759 130.701 207.769C130.41 207.158 129.86 206.457 130.613 205.92C131.412 205.35 131.963 206.02 132.42 206.629C134.244 209.062 136.148 211.434 137.82 213.978C138.169 214.506 138.628 215.007 139.14 215.376C139.755 215.818 140.682 216.563 141.2 216.112C141.9 215.503 141.194 214.553 140.746 213.892C139.403 211.913 138.114 209.895 136.533 208.082C135.722 207.149 134.969 206.153 134.465 204.999C134.299 204.617 134.299 204.287 134.629 204.002C135.002 203.678 135.312 203.883 135.598 204.143C135.836 204.359 136.065 204.589 136.276 204.833C138.778 207.722 141.424 210.49 143.749 213.535C144.112 214.011 144.499 214.476 145.078 214.714C145.429 214.861 145.806 214.944 146.135 214.714C146.511 214.451 146.367 214.041 146.295 213.695C146.143 212.956 145.687 212.361 145.271 211.755C143.121 208.641 140.771 205.688 138.219 202.892C137.881 202.521 137.311 202.126 137.53 201.627C137.972 200.612 137.599 199.992 136.86 199.366C136.483 199.048 136.597 198.585 136.893 198.245C137.236 197.849 137.624 197.988 137.986 198.267C138.778 198.873 139.473 199.587 139.462 200.639C139.45 201.666 139.963 202.358 140.591 203.061C142.772 205.513 145.496 207.398 147.671 209.856C147.931 210.15 148.269 210.438 148.859 210.454ZM161.19 121.895C161.389 120.204 161.298 118.615 160.689 117.176C158.939 113.052 159.211 109.26 162.38 105.938C163.246 105.03 163.869 103.871 165.048 103.262C165.734 102.907 166.739 102.628 166.963 102.063C167.215 101.421 166.213 100.823 165.876 100.137C165.798 99.9789 165.768 99.799 165.701 99.6329C164.583 96.746 163.061 96.8152 160.976 98.0331C160.777 98.1493 160.589 98.2794 160.392 98.4012C155.266 101.515 151.557 106.06 147.926 110.691C147.311 111.474 147.214 111.956 148.352 112.207C148.767 112.299 149.171 112.587 149.05 113.074C148.911 113.625 148.454 113.724 147.945 113.528C146.55 112.985 145.789 113.633 145.341 114.901C144.95 116.005 143.962 117.01 144.35 118.244C145.036 120.434 145.916 122.562 146.708 124.718C147.165 125.964 147.998 126.498 149.36 126.368C151.477 126.169 153.564 126.299 155.446 127.47C155.676 127.614 155.892 127.625 156.061 127.431C156.952 126.437 157.517 126.9 158.067 127.81C158.51 128.544 159.252 128.663 160.016 128.45C160.647 128.272 161.082 127.807 161.023 127.129C160.827 124.896 160.215 122.845 158.303 121.4C157.851 121.812 158.471 122.493 157.904 122.67C157.27 122.869 157.124 122.144 156.791 121.823C155.933 120.993 155.156 120.079 154.32 119.221C154.101 118.997 153.766 118.765 153.459 118.981C153.129 119.208 153.315 119.598 153.431 119.872C153.683 120.461 153.993 121.026 154.3 121.593C154.519 122 154.585 122.404 154.176 122.698C153.716 123.027 153.296 122.864 152.98 122.438C152.399 121.652 152.019 120.758 151.776 119.819C151.557 118.983 151.568 118.15 152.332 117.55C153.135 116.918 154.126 116.966 154.774 117.55C156.706 119.296 159.706 119.404 161.195 121.89L161.19 121.895ZM141.05 148.619C141.05 150.324 141.075 152.029 141.045 153.734C140.951 159.137 141.067 164.518 142.467 169.788C142.636 170.422 142.8 171.017 143.35 171.454C145.05 172.805 146.832 174.023 148.695 175.133C149.423 175.568 149.642 175.321 149.78 174.602C150.007 173.428 150.254 172.254 150.586 171.108C150.81 170.333 150.677 169.705 150.314 169.008C147.596 163.787 146.116 158.199 145.576 152.364C144.781 143.786 144.269 135.184 143.076 126.648C143.01 126.18 143.262 125.391 142.321 125.488C141.504 125.574 141.488 126.188 141.507 126.828C141.593 129.717 141.571 132.599 141.479 135.494C141.344 139.864 141.205 144.24 141.05 148.616V148.619ZM133.563 128.657C133.405 128.917 133.284 129.05 133.234 129.205C131.9 133.454 130.499 137.683 130.823 142.25C130.906 143.432 130.765 144.642 130.635 145.829C130.527 146.826 130.884 146.972 131.706 146.604C133.826 145.658 134.9 143.975 135.321 141.738C135.802 139.181 135.127 136.695 134.908 134.193C134.748 132.358 134.609 130.451 133.563 128.657ZM129.453 188.405C129.392 188.416 129.334 188.411 129.303 188.438C125.431 191.715 121.168 193.924 115.887 193.357C115.231 193.288 115.206 193.587 115.417 194.09C115.644 194.63 116.103 194.782 116.607 194.912C121.431 196.175 125.481 194.733 128.955 191.347C129.815 190.511 130.189 189.537 129.453 188.405ZM167.57 158.072C167.082 158.288 166.623 158.492 166.161 158.694C162.872 160.123 159.584 159.486 156.29 158.714C155.978 158.639 155.549 158.254 155.363 158.808C155.192 159.312 155.452 159.688 155.994 159.84C157.16 160.17 158.281 160.566 159.521 160.718C162.081 161.031 164.486 160.812 166.811 159.68C167.475 159.356 167.866 158.955 167.567 158.074L167.57 158.072ZM142.542 117.984C142.409 118.084 142.318 118.122 142.271 118.189C141.446 119.346 140.63 120.508 139.799 121.663C139.481 122.106 139.019 122.487 139.545 123.085C140.018 123.625 140.347 124.298 141.291 124.162C142.678 123.963 143.821 122.225 143.406 120.818C143.135 119.905 142.852 118.994 142.545 117.984H142.542Z" fill="#1F1F23"/>
<path d="M29.5899 135.264C33.5618 138.093 37.5061 140.961 41.514 143.74C48.7825 148.78 55.5362 154.529 63.0151 159.281C67.369 162.047 71.9997 162.822 77.0373 161.872C79.0689 161.49 80.4003 160.17 81.6957 158.85C82.7115 157.814 83.4284 157.679 84.7265 158.396C88.2971 160.369 92.1058 160.84 96.0722 159.65C98.1426 159.027 99.3494 157.693 100.069 155.644C101.193 152.442 102.397 149.267 103.388 145.932C103.432 146.198 103.51 146.466 103.515 146.732C103.648 156.602 105.483 166.232 107.692 175.803C108.492 179.271 108.912 182.789 109.25 186.318C109.449 188.419 110.723 190.069 111.309 191.995C111.417 192.347 111.802 192.607 112.162 192.64C113.366 192.743 113.759 193.496 113.856 194.556C113.986 195.959 115.038 196.369 116.175 196.493C117.352 196.62 117.88 197.146 118.19 198.303C118.783 200.507 119.998 202.416 121.515 204.127C121.194 204.368 120.964 204.719 120.457 204.675C117.169 204.387 113.875 204.171 110.593 203.842C106.391 203.418 102.231 202.726 98.1287 201.7C94.0018 200.667 89.9828 199.25 86.6945 196.507C83.2042 193.598 82.5537 188.599 86.0579 184.599C87.3062 183.177 88.6791 181.904 90.0603 180.63C93.6447 177.331 92.6344 173.882 90.0298 170.865C88.2473 168.8 85.9278 168.119 83.4311 167.607C78.7119 166.641 73.9179 166.536 69.1764 166.882C65.246 167.17 61.3654 166.893 57.4765 166.738C54.3294 166.614 51.1934 166.115 48.0629 165.598C45.4334 165.163 42.8205 164.626 40.2574 163.992C34.5112 162.567 28.7817 160.884 23.8548 157.466C19.4538 154.413 17.3032 151.144 18.557 145.356C19.4012 141.467 21.8647 138.677 25.3661 136.809C26.6587 136.12 27.8821 135.256 29.4072 135.118V135.129C29.3989 135.27 29.4211 135.367 29.5927 135.264H29.5899Z" fill="#ABCAE0"/>
<path d="M155.065 167.149L154.974 167.188C155.074 167.73 154.647 168.458 155.522 168.724L155.519 168.718C155.602 169.388 155.187 170.36 155.73 170.672C156.599 171.176 156.792 171.979 157.141 172.712C157.49 173.446 157.955 173.772 158.744 173.673C159.51 174.708 160.274 175.743 161.047 176.776C161.692 177.636 162.469 178.309 163.621 177.905C164.833 177.481 165.42 176.54 165.47 175.256C165.522 173.864 165.038 172.64 164.335 171.475C164.102 171.09 163.74 170.766 163.734 170.146C165.259 170.252 166.45 170.971 167.584 171.854C170.07 173.789 171.955 176.336 174.269 178.445C175.199 179.292 176.159 180.067 177.38 180.432C179.019 180.922 180.004 180.451 180.416 178.824C180.607 178.068 180.829 178.218 181.308 178.481C182.227 178.99 183.209 179.162 184.244 178.865C184.048 184.05 183.27 189.01 179.027 192.672C175.808 195.448 172.019 197.167 168.085 198.62C165.326 199.641 162.494 200.425 159.632 201.111C155.414 202.124 151.151 202.863 146.825 203.201C146.753 203.206 146.687 203.311 146.618 203.372C146.402 203.201 146.177 203.04 145.97 202.858C145.208 202.184 145.276 201.666 146.175 201.302C148.278 200.458 148.588 198.481 146.864 196.981C146.238 196.436 145.557 195.932 145.029 195.307C143.556 193.568 141.876 192.24 139.532 191.911C138.787 191.805 138.245 191.232 137.655 190.787C136.03 189.561 134.073 189.132 132.166 188.625C130.987 188.312 130.47 187.772 131.012 186.552C131.12 186.308 131.173 186.012 131.162 185.744C130.951 180.357 131.544 174.938 130.697 169.587C130.165 166.23 129.302 162.925 128.574 159.601C128.352 158.588 128.396 157.611 128.684 156.603C129.351 154.27 129.827 151.892 130.215 149.498C130.306 148.942 130.345 148.454 131.103 148.324C135.311 147.607 136.518 144.505 137.01 141.155C137.29 139.259 136.952 137.394 136.756 135.52C136.891 135.631 137.143 135.739 137.146 135.855C137.193 137.721 137.76 139.564 137.412 141.443C137.054 143.381 137.356 143.749 139.413 143.818L139.468 146.838C139.476 146.985 139.482 147.131 139.49 147.278L139.543 147.339L139.49 147.4C139.025 148.139 139.056 148.886 139.46 149.636C139.449 152.393 139.463 155.147 139.424 157.904C139.363 162.396 140.13 166.775 141.107 171.132C141.217 171.63 141.37 172.09 141.824 172.416C144.132 174.082 146.38 175.84 148.976 177.061C150.338 177.703 150.634 177.57 151.005 176.147C151.434 174.503 151.81 172.845 152.308 171.223C152.569 170.373 152.569 169.615 152.164 168.843C152.331 167.34 151.627 166.274 150.446 165.455L150.482 165.46C150.612 164.345 150.343 163.376 149.446 162.634L149.38 162.59C149.38 162.59 149.405 162.515 149.405 162.513C149.449 161.513 149.474 160.511 149.541 159.515C149.607 158.56 150.354 158.084 151.248 158.441C152.292 158.856 153.518 159.125 153.338 160.708C153.319 160.88 153.512 161.19 153.676 161.25C154.827 161.679 154.628 162.637 154.694 163.548C154.783 164.746 154.29 166.014 155.062 167.141L155.065 167.149Z" fill="#ABCAE0"/>
<path d="M185.738 141.152C185.597 140.737 185.683 140.147 185.079 140.062C184.518 139.981 184.459 140.538 184.296 140.878C182.314 144.994 178.63 147.006 174.683 148.697C174.431 148.805 174.146 148.922 173.911 148.692C173.618 148.407 173.825 148.097 173.919 147.798C174.434 146.156 174.152 145.846 172.416 146.176C171.334 146.381 170.26 146.649 169.172 146.832C165.549 147.441 160.675 144.604 159.418 141.105C159.045 140.07 158.286 139.89 157.387 139.81C157.146 137.88 156.127 136.494 154.422 135.594C154.411 135.459 154.4 135.326 154.386 135.19C154.43 134.927 154.478 134.667 154.522 134.404C155.394 135.063 155.59 134.135 155.856 133.731C156.149 133.286 156.246 132.599 155.734 132.22C155.244 131.858 155.095 132.549 154.779 132.746C154.624 132.843 154.478 132.948 154.328 133.05C154.251 133.114 154.179 133.106 154.118 133.028C154.27 131.857 153.354 131.863 152.62 131.669C151.892 130.593 151.162 129.516 150.434 128.436C152.678 127.246 154.782 127.512 156.761 129.239C158.131 130.435 159.634 130.692 161.076 129.975C162.432 129.303 162.953 128.082 162.72 126.092C162.576 124.849 162.51 123.617 162.864 122.389C163.537 120.063 162.568 117.913 161.94 115.795C161.137 113.083 161.09 110.744 162.715 108.181C163.645 106.711 164.821 105.706 166.025 104.643C167.024 103.761 168.309 103.783 169.579 104.046C172.048 104.558 174.202 105.853 176.48 106.838C179.436 108.117 182.397 109.399 185.273 110.844C189.179 112.806 192.01 115.602 192.741 120.249C193.289 123.739 193.355 127.119 192.074 130.407C191.41 132.109 190.521 133.748 189.541 135.295C188.952 136.228 188.611 137.053 189.021 138.099C188.348 138.888 187.178 139.466 187.856 140.831C187.476 142.182 187.416 143.533 187.856 144.886C187.604 147.814 185.962 149.971 183.599 150.48C182.89 150.632 182.082 150.729 181.871 149.879C181.639 148.938 182.422 148.877 183.153 148.736C185.149 148.349 185.813 146.752 186.092 145.022C186.281 143.856 186.181 142.647 186.203 141.457C186.209 141.127 185.985 141.116 185.741 141.155L185.738 141.152ZM191.224 129.184C191.382 126.792 190.139 124.857 189.137 122.854C188.871 122.319 188.584 121.467 187.762 121.89C187 122.283 187.335 123.047 187.665 123.59C188.343 124.702 188.849 125.873 189.137 127.135C189.314 127.916 189.699 128.793 188.376 129.029C187.95 129.103 187.958 129.591 187.953 129.959C187.939 131.251 187.85 132.522 187.399 133.762C187.236 134.21 187.18 134.869 187.809 135.06C188.401 135.24 188.719 134.722 188.932 134.255C189.217 133.632 189.289 132.613 189.738 132.419C191.304 131.736 191.136 130.443 191.221 129.186L191.224 129.184Z" fill="#3B5B7F"/>
<path d="M209.465 51.1232C209.465 36.5502 209.465 21.9772 209.465 7.40422C209.465 7.12743 209.454 6.85064 209.468 6.57385C209.498 5.95384 209.321 5.10133 210.276 5.12347C211.201 5.14561 211.059 5.99536 211.059 6.61537C211.071 16.6241 211.076 26.6301 211.079 36.6388C211.079 56.0086 211.079 75.3784 211.071 94.7482C211.071 95.3017 211.073 95.8581 211.001 96.4034C210.949 96.7964 210.675 97.0732 210.237 97.051C209.814 97.0317 209.551 96.7798 209.504 96.3646C209.462 95.9992 209.476 95.6283 209.476 95.2602C209.476 80.5488 209.476 65.8374 209.476 51.126H209.465V51.1232Z" fill="#5886B1"/>
<path d="M1.58954 51.668C1.58954 65.823 1.58954 79.9808 1.58954 94.1359C1.58954 94.4127 1.60061 94.6895 1.58401 94.9663C1.54526 95.5807 1.75838 96.4388 0.80069 96.436C-0.1487 96.436 0.0146058 95.5863 0.0146058 94.9663C0.00630208 66.0998 0.00630208 37.2334 0.00906998 8.36967C0.00906998 7.73582 -0.104414 6.90268 0.817298 6.89991C1.76669 6.89714 1.60061 7.75242 1.60061 8.36967C1.60892 22.8015 1.60615 37.2333 1.60615 51.668H1.59231H1.58954Z" fill="#5886B1"/>
<path d="M187.297 35.8964C187.297 47.1036 187.297 58.3109 187.297 69.5181C187.297 69.7949 187.305 70.0717 187.285 70.3485C187.252 70.8412 187.117 71.2924 186.519 71.309C185.926 71.3256 185.738 70.9076 185.708 70.3983C185.688 70.0772 185.699 69.7534 185.699 69.4296C185.699 46.9708 185.699 24.5093 185.699 2.0505C185.699 1.77371 185.683 1.49415 185.716 1.22289C185.771 0.75235 186.032 0.450649 186.53 0.461721C186.973 0.470024 187.186 0.768958 187.23 1.17584C187.269 1.5412 187.269 1.9121 187.269 2.28023C187.269 13.4875 187.269 24.6947 187.269 35.8992C187.277 35.8992 187.285 35.8992 187.297 35.8992V35.8964Z" fill="#5886B1"/>
<path d="M178.988 36.4447C178.988 46.3566 178.988 56.2684 178.988 66.1803C178.988 66.5484 178.991 66.9193 178.98 67.2875C178.966 67.7885 178.822 68.2424 178.238 68.2701C177.56 68.3033 177.419 67.8023 177.397 67.2515C177.386 66.9304 177.383 66.6066 177.383 66.2827C177.383 46.4147 177.386 26.5439 177.388 6.67593C177.388 6.49048 177.38 6.3078 177.388 6.12235C177.424 5.50511 177.231 4.64429 178.186 4.66643C179.099 4.68581 178.972 5.53279 178.972 6.15833C178.977 16.2529 178.977 26.3502 178.977 36.4447C178.98 36.4447 178.983 36.4447 178.988 36.4447Z" fill="#5886B1"/>
<path d="M201.198 50.7185C201.198 39.0546 201.198 27.3934 201.198 15.7295C201.198 15.4084 201.187 15.0818 201.229 14.7635C201.276 14.4036 201.528 14.1656 201.876 14.1518C202.231 14.1407 202.496 14.3704 202.544 14.7302C202.596 15.1399 202.602 15.5578 202.602 15.9703C202.602 39.157 202.602 62.3465 202.599 85.5332C202.599 85.81 202.593 86.0868 202.593 86.3636C202.593 86.8341 202.438 87.2078 201.912 87.2133C201.406 87.2161 201.187 86.8895 201.196 86.3968C201.204 85.9345 201.201 85.4751 201.201 85.0128C201.201 73.5814 201.201 62.1472 201.201 50.7157L201.198 50.7185Z" fill="#3B5B7F"/>
<path d="M33.7338 40.5858C33.7338 52.1557 33.7338 63.7227 33.7338 75.2926C33.7338 75.5694 33.7393 75.8462 33.7255 76.1202C33.7061 76.5022 33.4791 76.7125 33.1165 76.7402C32.7511 76.7679 32.4633 76.5631 32.3969 76.2226C32.3166 75.8213 32.3249 75.3978 32.3249 74.9853C32.3221 52.0782 32.3166 29.171 32.3415 6.26108C32.3415 5.61893 31.8986 4.47855 32.9615 4.45087C34.1766 4.41766 33.7061 5.61616 33.7088 6.29153C33.7365 17.723 33.7282 29.1544 33.7282 40.5831H33.7338V40.5858Z" fill="#3B5B7F"/>
<path d="M194.266 41.9956C194.266 53.1088 194.266 64.2219 194.266 75.335C194.266 75.7031 194.263 76.074 194.247 76.4422C194.23 76.8629 194.031 77.1618 193.591 77.1867C193.054 77.2144 192.876 76.8712 192.874 76.3896C192.874 75.9273 192.86 75.4679 192.86 75.0056C192.857 52.7794 192.854 30.5559 192.852 8.32963C192.852 8.05284 192.852 7.77605 192.857 7.49926C192.868 7.0564 192.96 6.62737 193.499 6.608C194.122 6.58862 194.224 7.06193 194.244 7.55462C194.258 7.92275 194.252 8.29088 194.252 8.66178C194.252 19.7749 194.252 30.888 194.252 41.9984H194.263L194.266 41.9956Z" fill="#3B5B7F"/>
<path d="M9.418 13.7342C10.2013 13.975 9.91622 14.6365 9.91899 15.132C9.94667 26.3697 9.96051 37.6101 9.96605 48.8478C9.97158 61.4224 9.96605 73.997 9.96605 86.5716C9.96605 86.9397 10.002 87.3244 9.90515 87.6704C9.76399 88.1797 9.46229 88.4704 8.97237 87.9445C8.93915 87.485 8.87549 87.0283 8.87549 86.5688C8.87272 63.1191 8.87549 39.6695 8.86719 16.2198C8.86719 15.3368 8.91424 14.4899 9.42077 13.7314L9.418 13.7342Z" fill="#5886B1"/>
<path d="M120.827 43.9796C120.808 39.8361 120.774 35.6925 120.769 31.5462C120.758 23.1623 120.761 14.7783 120.758 6.3943C120.758 6.07322 120.741 5.74661 120.777 5.4283C120.816 5.07678 120.791 4.63668 121.336 4.65329C121.743 4.66436 122.059 4.89133 122.153 5.27607C122.239 5.62482 122.225 6.00679 122.225 6.37216C122.225 20.1923 122.225 34.0124 122.222 47.8326C122.222 48.1536 122.227 48.4775 122.203 48.7986C122.169 49.2082 121.978 49.4988 121.524 49.5182C121.059 49.5376 120.841 49.2608 120.827 48.8429C120.805 48.1094 120.821 47.3731 120.821 46.6368C121.04 45.7511 121.035 44.8654 120.83 43.9796H120.827Z" fill="#3B5B7F"/>
<path d="M24.0703 13.7656C25.2411 13.0266 25.4155 13.8099 25.4238 14.6956C25.4487 17.0926 25.4294 19.4896 25.4294 21.8866C25.4294 40.343 25.4349 58.8021 25.4127 77.2585C25.4127 77.909 25.7726 79.0383 24.3277 78.6369C24.3388 78.5456 24.3582 78.4542 24.3582 78.3629C24.3665 57.2133 24.372 36.0638 24.3748 14.9143C24.3748 14.5101 24.4661 14.0701 24.0703 13.7656Z" fill="#5886B1"/>
<path d="M48.9573 35.9089C48.9573 27.6135 48.9573 19.3181 48.9573 11.0227C48.9573 10.4386 48.8162 9.66916 49.713 9.69961C50.499 9.72452 50.3717 10.4525 50.3717 10.9867C50.3772 27.6245 50.38 44.2624 50.3772 60.8975C50.3772 61.4345 50.4824 62.1735 49.6963 62.1652C48.83 62.1597 48.9656 61.3736 48.9656 60.7951C48.9601 52.4997 48.9601 44.2043 48.9601 35.9089H48.9518H48.9573Z" fill="#3B5B7F"/>
<path d="M40.6404 32.1588C40.6404 24.417 40.6404 16.6724 40.6404 8.93054C40.6404 8.56241 40.6321 8.19151 40.6736 7.82615C40.7179 7.41096 40.9781 7.13694 41.4016 7.15355C41.7697 7.16739 41.9662 7.45248 42.0078 7.80124C42.0465 8.11955 42.0354 8.44616 42.0354 8.76723C42.0382 24.392 42.0465 40.0141 42.0299 55.6389C42.0299 56.2561 42.3897 57.2941 41.3822 57.3107C40.419 57.3246 40.6542 56.3198 40.6542 55.6666C40.6459 47.8306 40.6487 39.9975 40.6487 32.1615H40.6404V32.1588Z" fill="#3B5B7F"/>
<path d="M146.886 27.3661C146.886 33.1732 146.897 38.9802 146.878 44.7901C146.872 46.0273 146.739 47.2646 146.687 48.5046C146.667 48.9779 146.524 49.3571 146 49.3433C145.497 49.3294 145.314 48.9447 145.3 48.4797C145.289 48.1586 145.289 47.8348 145.289 47.5109C145.289 34.7426 145.292 21.977 145.295 9.20868C145.295 8.88483 145.284 8.56099 145.308 8.23991C145.342 7.78874 145.508 7.41508 146.034 7.3957C146.629 7.37633 146.828 7.77214 146.867 8.2842C146.892 8.60528 146.878 8.92912 146.878 9.25296C146.878 15.2898 146.878 21.3293 146.878 27.3661H146.889H146.886Z" fill="#5886B1"/>
<path d="M72.1696 24.6422C72.1696 17.0831 72.1696 9.52117 72.1696 1.96203C72.1696 1.5939 72.1696 1.223 72.1779 0.85487C72.189 0.434149 72.3772 0.107536 72.8145 0.0964644C73.3072 0.0853928 73.5508 0.412005 73.5646 0.899156C73.5729 1.223 73.5729 1.54408 73.5729 1.86792C73.5729 17.1274 73.5757 32.3868 73.5757 47.6463C73.5757 47.9673 73.584 48.294 73.5508 48.6123C73.5093 49.0247 73.2795 49.3347 72.8505 49.3125C72.4353 49.2932 72.2 48.9915 72.1807 48.568C72.1641 48.1528 72.1641 47.7376 72.1641 47.3224C72.1641 39.7633 72.1641 32.2014 72.1641 24.6422H72.1696Z" fill="#3B5B7F"/>
<path d="M18.2036 67.4172C17.6141 68.2587 17.2016 67.8186 16.9498 67.182C16.8058 66.8166 16.8695 66.3654 16.8695 65.9502C16.8695 46.813 16.8695 27.6729 16.875 8.53564C16.875 8.07617 16.8806 7.61393 16.9276 7.15723C16.9636 6.80847 17.1878 6.54552 17.5366 6.49016C17.9822 6.4182 18.2313 6.64517 18.2534 7.10464C17.7608 7.60563 17.96 8.23948 17.96 8.81243C17.949 27.8639 17.949 46.9181 17.9545 65.9696C17.9545 66.4595 17.7967 66.991 18.2009 67.4172H18.2036Z" fill="#5886B1"/>
<path d="M64.3739 28.1531C64.3739 22.0278 64.3739 15.8996 64.3739 9.77426C64.3739 9.35908 64.3822 8.94666 64.4071 8.53148C64.432 8.15227 64.6617 7.95298 65.0354 7.93084C65.4893 7.90316 65.7246 8.14674 65.7633 8.57576C65.791 8.89684 65.7772 9.22068 65.7772 9.54176C65.7772 22.025 65.7827 34.5082 65.7827 46.9915C65.7827 47.3126 65.791 47.6392 65.7578 47.9575C65.7163 48.3588 65.5447 48.6633 65.0658 48.6439C64.5981 48.6245 64.432 48.3173 64.4071 47.9132C64.3794 47.5008 64.3766 47.0856 64.3766 46.6704C64.3766 40.498 64.3766 34.3256 64.3766 28.1531H64.3711H64.3739Z" fill="#3B5B7F"/>
<path d="M58.6115 54.1455C57.9638 54.8126 57.5514 54.4859 57.3272 53.7857C57.2192 53.448 57.2773 53.0549 57.2773 52.6896C57.2773 36.633 57.2801 20.5791 57.2967 4.52253C57.2967 3.82225 56.9812 2.77598 58.3817 3.09152C58.3679 3.22992 58.3458 3.36554 58.3458 3.50394C58.3458 19.9951 58.3458 36.489 58.3513 52.9802C58.3513 53.3815 58.2406 53.8216 58.6142 54.1455H58.6115Z" fill="#5886B1"/>
<path d="M88.8231 29.7051C88.8231 23.6683 88.8231 17.6315 88.8231 11.5947C88.8231 11.2266 88.8092 10.8557 88.8535 10.4903C88.8978 10.1277 89.1552 9.91181 89.5178 9.91458C89.8832 9.91458 90.1268 10.1443 90.1794 10.5014C90.2264 10.8169 90.2236 11.1435 90.2236 11.4674C90.2292 23.7707 90.2319 36.074 90.2347 48.3774C90.2347 48.6541 90.2375 48.9309 90.2209 49.205C90.196 49.6312 89.969 49.9246 89.5372 49.9163C89.1165 49.908 88.8729 49.6229 88.848 49.1967C88.8258 48.8285 88.8314 48.4604 88.8314 48.0923C88.8314 41.9641 88.8314 35.836 88.8314 29.7051H88.8203H88.8231Z" fill="#3B5B7F"/>
<path d="M81.9056 19.9877C81.9056 26.0218 81.9056 32.0586 81.9056 38.0926C81.9056 38.5078 81.9056 38.923 81.8641 39.3326C81.8281 39.7007 81.5735 39.9332 81.222 39.9388C80.8677 39.9471 80.6047 39.7063 80.5549 39.352C80.4968 38.9451 80.494 38.5271 80.494 38.112C80.4885 26.0882 80.4857 14.0644 80.4829 2.04065C80.4829 1.94931 80.4774 1.8552 80.4829 1.76386C80.5466 1.11894 80.2283 0.105887 81.1887 0.0948151C82.188 0.0837435 81.878 1.1134 81.878 1.73895C81.8973 7.82003 81.889 13.9011 81.889 19.9822H81.9029L81.9056 19.9877Z" fill="#3B5B7F"/>
<path d="M129.09 24.0014C129.09 19.022 129.09 14.0453 129.09 9.06581C129.09 8.65339 129.101 8.23544 129.17 7.82856C129.231 7.46596 129.516 7.28328 129.876 7.29712C130.244 7.31373 130.471 7.549 130.513 7.90606C130.552 8.22437 130.538 8.55098 130.538 8.87205C130.538 18.8282 130.546 28.7871 130.524 38.7433C130.524 39.3965 130.923 40.4981 129.835 40.5258C128.703 40.5562 129.112 39.4352 129.107 38.7958C129.071 33.8634 129.087 28.931 129.087 23.9986L129.09 24.0014Z" fill="#3B5B7F"/>
<path d="M162.139 30.6773C162.139 36.7141 162.139 42.7536 162.139 48.7904C162.139 49.1143 162.145 49.4353 162.128 49.7564C162.106 50.1827 161.868 50.4816 161.442 50.4622C161.032 50.4428 160.791 50.1439 160.769 49.7177C160.755 49.3966 160.755 49.0727 160.755 48.7489C160.755 36.5812 160.752 24.4135 160.755 12.243C160.755 11.8777 160.763 11.504 160.844 11.1497C160.907 10.8646 161.159 10.6958 161.466 10.7013C161.776 10.7068 162.012 10.8923 162.059 11.1829C162.125 11.587 162.131 12.005 162.134 12.4174C162.136 18.5013 162.136 24.5851 162.136 30.669H162.142L162.139 30.6773Z" fill="#3B5B7F"/>
<path d="M97.145 24.2769C97.145 18.4699 97.145 12.6601 97.145 6.853C97.145 6.57621 97.145 6.29942 97.145 6.02263C97.145 5.57146 97.2557 5.15074 97.7872 5.1286C98.4099 5.10092 98.5123 5.57423 98.529 6.06969C98.5373 6.34648 98.54 6.62327 98.54 6.90006C98.54 18.5169 98.54 30.1338 98.54 41.7507C98.54 42.0718 98.5428 42.3984 98.504 42.7167C98.4598 43.0627 98.2743 43.3395 97.8896 43.345C97.455 43.3533 97.2059 43.0904 97.1671 42.6724C97.1312 42.3071 97.1422 41.9362 97.1422 41.568C97.1422 35.8053 97.1422 30.0425 97.1422 24.2825L97.145 24.2769Z" fill="#3B5B7F"/>
<path d="M169.115 24.1383C169.115 18.5112 169.115 12.884 169.115 7.25964C169.115 6.89151 169.093 6.51231 169.167 6.15801C169.239 5.82033 169.516 5.61274 169.884 5.62935C170.2 5.64318 170.388 5.86462 170.452 6.14694C170.513 6.41266 170.535 6.69222 170.535 6.96624C170.527 18.4032 170.515 29.8402 170.493 41.2772C170.493 41.8307 170.737 42.6583 169.829 42.6639C168.963 42.6694 169.107 41.875 169.107 41.2938C169.101 35.5753 169.104 29.8568 169.104 24.1383H169.118H169.115Z" fill="#3B5B7F"/>
<path d="M113.821 25.4264C113.821 31.0009 113.827 36.5755 113.81 42.15C113.81 42.5569 114.092 43.2489 113.439 43.2821C112.841 43.3125 112.443 42.8974 112.445 42.1168C112.473 30.9234 112.465 19.7272 112.465 8.53385C112.465 7.97196 112.434 7.26615 113.176 7.27999C113.951 7.29106 113.821 8.04393 113.824 8.56983C113.835 14.1887 113.829 19.8103 113.829 25.4291C113.829 25.4291 113.827 25.4291 113.824 25.4291L113.821 25.4264Z" fill="#3B5B7F"/>
<path d="M152.442 22.8669C152.442 17.2037 152.434 11.5406 152.456 5.87748C152.456 5.44291 152.171 4.70665 152.918 4.66237C153.674 4.61808 153.815 5.24639 153.815 5.91899C153.809 17.2452 153.815 28.5715 153.831 39.8978C153.831 40.5316 153.671 41.088 153.012 41.0603C152.32 41.0298 152.453 40.3434 152.453 39.859C152.447 34.1959 152.45 28.5328 152.45 22.8696H152.442V22.8669Z" fill="#3B5B7F"/>
<path d="M137.543 0.487886C138.088 -0.345253 138.515 0.00627062 138.813 0.665032C138.938 0.939054 138.891 1.29888 138.891 1.61719C138.899 14.308 138.905 27.0016 138.905 39.6925C138.905 40.0108 138.844 40.3291 138.811 40.6474C138.091 40.8661 138.357 41.475 138.348 41.9289C138.318 43.9578 138.343 45.9867 138.318 48.0155C138.315 48.3228 138.523 48.7656 137.989 48.929C137.704 48.392 137.836 47.8301 137.836 47.2931C137.828 32.2136 137.836 17.1341 137.825 2.05452C137.825 1.52585 138.03 0.936286 137.543 0.485118V0.487886Z" fill="#5886B1"/>
<path d="M106.53 40.342C105.907 40.7489 105.6 40.4112 105.453 39.8438C105.387 39.5836 105.428 39.2958 105.428 39.019C105.426 26.7738 105.423 14.5286 105.42 2.28337C105.42 2.05363 105.401 1.82113 105.431 1.59416C105.559 0.622629 105.988 0.37075 106.782 1.05442C106.392 1.36719 106.497 1.80729 106.5 2.20864C106.508 14.9188 106.522 27.6318 106.533 40.342H106.53Z" fill="#5886B1"/>
<path d="M58.6142 54.1458C58.2405 53.8219 58.3513 53.3846 58.3513 52.9805C58.3457 36.4893 58.3457 19.9954 58.3457 3.50421C58.3457 3.36582 58.3706 3.23019 58.3817 3.0918C58.8689 3.45439 58.7803 3.99967 58.7803 4.48682C58.7803 20.7233 58.7748 36.9599 58.7609 53.1964C58.7609 53.5119 58.664 53.8275 58.6142 54.143V54.1458Z" fill="#3B5B7F"/>
<path d="M9.4105 13.734C8.90397 14.4924 8.85692 15.3394 8.85692 16.2224C8.86522 39.672 8.86245 63.1217 8.86522 86.5714C8.86522 87.0309 8.92888 87.4876 8.9621 87.947C8.17324 87.5568 8.54414 86.826 8.54414 86.2724C8.51646 68.3171 8.522 50.3589 8.51923 32.4035C8.51923 26.602 8.51923 20.8005 8.52754 14.9989C8.52754 14.3983 8.31994 13.5956 9.41326 13.734H9.4105Z" fill="#3B5B7F"/>
<path d="M137.538 0.486655C138.026 0.937823 137.821 1.52739 137.821 2.05606C137.829 17.1356 137.826 32.2151 137.832 47.2946C137.832 47.8316 137.699 48.3935 137.984 48.9305C138.518 48.7672 138.311 48.3243 138.313 48.0171C138.338 45.9882 138.313 43.9593 138.344 41.9305C138.349 41.4765 138.087 40.8676 138.806 40.6489C138.817 43.0902 138.856 45.5287 138.814 47.97C138.803 48.5734 139.138 49.6142 138.142 49.6308C137.087 49.6474 137.464 48.6094 137.464 48.0005C137.442 38.2381 137.45 28.4757 137.45 18.7105C137.45 13.0474 137.45 7.3815 137.455 1.71837C137.455 1.30595 137.511 0.896304 137.538 0.483887V0.486655Z" fill="#3B5B7F"/>
<path d="M24.0672 13.7655C24.463 14.0699 24.3716 14.51 24.3716 14.9141C24.3716 36.0637 24.3633 57.2132 24.355 78.3628C24.355 78.4541 24.3356 78.5455 24.3246 78.6368C23.843 78.2576 23.9841 77.7123 23.9841 77.2252C23.9731 56.3912 23.9703 35.5572 23.9731 14.7204C23.9731 14.4021 24.0339 14.0838 24.0672 13.7627V13.7655Z" fill="#3B5B7F"/>
<path d="M18.2074 67.4181C17.8005 66.9918 17.961 66.4576 17.961 65.9704C17.9555 46.919 17.9555 27.8647 17.9666 8.81326C17.9666 8.23754 17.7645 7.60369 18.26 7.10547C18.2849 14.0529 18.3264 21.0003 18.3319 27.9478C18.3402 40.5556 18.3319 53.1661 18.3208 65.7739C18.3208 66.322 18.2489 66.87 18.2101 67.4181H18.2074Z" fill="#3B5B7F"/>
<path d="M106.523 40.3433C106.509 27.6331 106.498 14.9201 106.49 2.20988C106.49 1.80853 106.384 1.36844 106.772 1.05566C106.805 2.20158 106.866 3.34749 106.866 4.4934C106.872 15.6619 106.877 26.8304 106.847 38.0016C106.847 38.7766 107.19 39.6458 106.523 40.3433Z" fill="#3B5B7F"/>
<path d="M209.485 102.408C209.485 101.769 209.471 101.127 209.491 100.487C209.507 99.978 209.718 99.5739 210.293 99.5767C210.792 99.5767 211.041 99.9393 211.049 100.388C211.077 101.713 211.082 103.039 211.049 104.365C211.038 104.88 210.717 105.251 210.172 105.215C209.676 105.182 209.505 104.78 209.494 104.329C209.48 103.69 209.491 103.048 209.491 102.408C209.491 102.408 209.488 102.408 209.485 102.408Z" fill="#5886B1"/>
<path d="M1.57008 102.185C1.57008 102.783 1.58945 103.381 1.56454 103.976C1.54516 104.436 1.33204 104.787 0.814439 104.782C0.327288 104.776 0.0283542 104.472 0.0200505 104.004C-0.00486064 102.719 0.000675165 101.432 0.0255863 100.145C0.03389 99.6554 0.352199 99.3869 0.83935 99.4063C1.26837 99.4229 1.52025 99.7135 1.53963 100.12C1.57284 100.807 1.54793 101.496 1.54793 102.185H1.57008Z" fill="#5886B1"/>
<path d="M187.282 77.0606C187.282 77.5671 187.306 78.0736 187.273 78.5774C187.243 79.0396 187.002 79.369 186.495 79.3662C185.983 79.3607 185.751 79.0092 185.737 78.558C185.707 77.5948 185.712 76.6288 185.726 75.6628C185.732 75.1535 185.936 74.7189 186.507 74.7217C187.091 74.7217 187.243 75.1978 187.276 75.6849C187.306 76.1416 187.282 76.6039 187.282 77.0633V77.0606Z" fill="#5886B1"/>
<path d="M146.75 55.3226C146.75 55.8263 146.773 56.3301 146.742 56.8311C146.717 57.238 146.51 57.5286 146.05 57.5175C145.591 57.5065 145.394 57.2075 145.386 56.8007C145.364 55.8402 145.355 54.877 145.372 53.9165C145.38 53.4736 145.549 53.0778 146.083 53.0917C146.615 53.1055 146.748 53.5096 146.77 53.9497C146.792 54.4064 146.775 54.8659 146.775 55.3226C146.767 55.3226 146.759 55.3226 146.75 55.3226Z" fill="#3B5B7F"/>
<path d="M48.9456 68.0932C48.9456 67.4981 48.9345 66.9058 48.9484 66.3107C48.9567 65.901 49.1421 65.591 49.5878 65.5744C50.0223 65.5578 50.2991 65.8429 50.3102 66.2415C50.3462 67.5203 50.3406 68.799 50.3268 70.0778C50.3212 70.5068 50.0611 70.7504 49.621 70.7366C49.167 70.7227 48.9816 70.421 48.9705 70.0114C48.9539 69.372 48.965 68.7326 48.965 68.0932C48.9567 68.0932 48.9511 68.0932 48.9428 68.0932H48.9456Z" fill="#3B5B7F"/>
<path d="M120.821 43.98C121.026 44.8657 121.032 45.7514 120.813 46.6372C120.14 45.7487 120.138 44.8629 120.821 43.98Z" fill="#5886B1"/>
<path d="M187.855 144.887C187.414 143.536 187.475 142.183 187.855 140.832C187.855 142.183 187.855 143.534 187.855 144.887Z" fill="#1F1F23"/>
<path d="M85 91.5384C85 90.8935 85 90.2486 85 89.6037C85 89.0999 85.1273 88.6377 85.7141 88.6072C86.3563 88.574 86.5694 89.0114 86.5971 89.5954C86.6829 91.389 86.7244 93.1881 86.8905 94.9734C87.2282 98.5966 87.6793 102.206 87.9921 105.829C88.1665 107.819 89.5449 109.228 90.2479 110.964C92.3709 116.206 94.9617 121.183 99.4291 124.889C100.384 125.681 101.425 126.37 102.432 127.092C102.969 127.477 103.891 127.751 103.343 128.612C102.872 129.351 102.191 128.803 101.649 128.482C97.5082 126.021 94.3666 122.578 92.0166 118.423C90.4085 115.578 89.3816 112.42 87.8676 109.56C84.8118 103.8 86.2926 97.4784 85 91.5384Z" fill="#1F1F23"/>
<path d="M121.555 103.257C121.97 103.257 122.385 103.229 122.797 103.262C123.39 103.309 123.963 103.517 123.907 104.22C123.846 104.965 123.196 105.003 122.637 104.931C119.966 104.591 117.644 105.493 115.468 106.905C110.862 109.892 108.695 114.398 107.582 119.568C107.424 120.302 107.64 121.622 106.475 121.403C105.252 121.174 105.858 119.978 106.021 119.186C107.114 113.88 109.384 109.269 113.89 105.983C116.185 104.311 118.673 103.238 121.555 103.257Z" fill="#1F1F23"/>
<path d="M101.82 132.67C96.8625 132.435 92.921 129.936 89.1844 126.999C88.39 126.373 87.6233 125.709 86.8621 125.042C86.4663 124.696 86.0898 124.253 86.5548 123.749C87.0365 123.226 87.5485 123.464 87.9969 123.888C89.3061 125.122 90.7316 126.207 92.1682 127.284C95.0329 129.432 98.2271 130.736 101.803 131.065C102.445 131.123 103.057 131.206 102.971 132.053C102.899 132.778 102.318 132.693 101.817 132.67H101.82Z" fill="#1F1F23"/>
<path d="M103.033 74.1025C102.825 74.7253 102.579 75.611 102.233 76.458C101.513 78.2101 100.437 79.7601 99.3543 81.2991C99.0305 81.7613 98.6014 82.2319 97.987 81.8333C97.3642 81.4264 97.6133 80.8562 97.9621 80.394C99.5148 78.3236 100.885 76.1729 101.455 73.596C101.558 73.1255 101.892 72.7573 102.463 72.8819C102.961 72.9898 103.066 73.3884 103.033 74.1081V74.1025Z" fill="#1F1F23"/>
<path d="M71.8463 77.2774C67.6003 86.4669 66.2053 96.3095 65.5521 106.252C65.2614 110.692 66.1084 115.162 66.6648 119.596C67.5837 126.923 68.7047 134.205 71.2927 141.169C73.4018 146.843 76.0673 152.171 80.9693 156.021C81.6447 156.553 81.4537 156.86 80.9693 157.422C77.8277 161.076 73.8115 161.139 69.5683 160.27C65.7984 159.498 62.7593 157.281 59.7367 155.097C51.8925 149.437 44.2392 143.513 36.3092 137.966C33.7821 136.198 31.291 134.376 28.7888 132.572C28.1992 132.146 27.5211 131.791 27.8975 130.817C29.4226 126.87 30.6433 122.804 32.9932 119.206C34.4879 116.917 36.5361 115.527 39.0965 114.744C40.9122 114.187 42.2131 115.355 43.5583 116.119C47.7268 118.48 51.3666 121.699 55.6651 123.836C57.9016 124.949 58.6406 126.776 59.3492 128.929C61.4279 135.24 63.2104 141.623 64.5861 148.119C64.73 148.794 64.802 149.484 64.9321 150.159C65.0289 150.668 65.3057 151.028 65.8787 150.942C66.4876 150.851 66.5375 150.383 66.4766 149.888C66.1693 147.366 65.5632 144.908 64.9764 142.442C62.7676 133.2 59.4046 124.307 56.7695 115.195C55.5932 111.132 53.9933 107.193 53.5726 102.919C52.9553 96.6583 54.4057 90.9979 58.3943 86.1264C61.8901 81.8583 66.543 79.1513 71.5612 77.0283C71.6553 77.1114 71.7522 77.1916 71.8463 77.2747V77.2774Z" fill="#5886B1"/>
<path d="M148.863 210.455C148.27 210.439 147.933 210.151 147.675 209.858C145.5 207.397 142.776 205.512 140.595 203.062C139.969 202.359 139.454 201.667 139.466 200.64C139.477 199.589 138.782 198.874 137.99 198.268C137.628 197.992 137.24 197.85 136.897 198.246C136.601 198.587 136.487 199.049 136.864 199.367C137.603 199.993 137.979 200.613 137.534 201.629C137.315 202.13 137.885 202.523 138.223 202.893C140.772 205.689 143.125 208.642 145.275 211.756C145.693 212.36 146.147 212.955 146.299 213.697C146.371 214.045 146.513 214.452 146.139 214.715C145.81 214.945 145.433 214.862 145.082 214.715C144.503 214.477 144.116 214.012 143.753 213.536C141.428 210.491 138.785 207.723 136.28 204.834C136.069 204.59 135.84 204.36 135.602 204.145C135.316 203.884 135.006 203.68 134.633 204.003C134.303 204.289 134.303 204.615 134.469 205C134.97 206.154 135.723 207.153 136.537 208.083C138.118 209.896 139.407 211.914 140.75 213.893C141.198 214.555 141.904 215.504 141.204 216.113C140.686 216.564 139.759 215.82 139.144 215.377C138.632 215.009 138.173 214.508 137.824 213.979C136.152 211.432 134.245 209.063 132.424 206.63C131.967 206.021 131.416 205.351 130.617 205.922C129.864 206.459 130.414 207.159 130.705 207.771C131.654 209.763 132.623 211.748 133.539 213.755C133.73 214.175 134.068 214.762 133.434 215.1C132.864 215.404 132.369 215.1 131.987 214.632C130.636 212.985 129.601 211.125 128.535 209.301C127.458 207.463 125.975 206.054 124.408 204.695C122.352 202.91 120.79 200.795 119.852 198.21C119.52 197.294 119.537 197.045 120.66 196.97C124.602 196.702 127.89 195.035 130.475 191.996C130.965 191.421 130.896 190.294 131.74 190.225C132.46 190.167 133.227 190.623 133.968 190.867C135.292 191.299 136.545 191.844 137.592 192.81C137.918 193.112 138.364 193.433 138.779 193.466C141.151 193.668 142.651 195.213 144.163 196.782C144.736 197.377 145.375 197.911 145.987 198.473C146.394 198.847 146.493 199.209 146.02 199.627C145.223 200.333 143.662 200.35 142.887 199.611C141.586 198.371 140.285 197.131 139.244 195.65C138.87 195.121 138.419 194.692 137.763 195.218C137.165 195.697 137.542 196.217 137.827 196.682C138.804 198.282 140.401 199.304 141.6 200.701C143.606 203.04 146.1 204.928 147.872 207.494C148.486 208.382 149.045 209.243 148.863 210.455Z" fill="#F7F6F6"/>
<path d="M161.192 121.896C159.703 119.41 156.702 119.299 154.77 117.556C154.122 116.972 153.132 116.922 152.329 117.556C151.568 118.156 151.557 118.987 151.773 119.825C152.016 120.764 152.395 121.655 152.977 122.444C153.289 122.867 153.713 123.033 154.172 122.704C154.582 122.41 154.518 122.006 154.297 121.6C153.992 121.035 153.68 120.467 153.428 119.878C153.311 119.604 153.129 119.216 153.455 118.987C153.765 118.771 154.098 119.003 154.316 119.227C155.152 120.085 155.93 120.999 156.788 121.829C157.12 122.15 157.267 122.876 157.901 122.676C158.465 122.499 157.848 121.818 158.299 121.406C160.212 122.851 160.824 124.902 161.02 127.135C161.078 127.813 160.644 128.281 160.013 128.456C159.249 128.669 158.507 128.55 158.064 127.816C157.513 126.903 156.946 126.441 156.057 127.437C155.886 127.628 155.673 127.617 155.443 127.476C153.561 126.305 151.474 126.175 149.356 126.374C147.994 126.501 147.161 125.97 146.705 124.724C145.913 122.568 145.033 120.44 144.346 118.25C143.959 117.016 144.947 116.011 145.337 114.907C145.786 113.639 146.547 112.994 147.942 113.534C148.451 113.73 148.908 113.631 149.046 113.08C149.171 112.59 148.764 112.305 148.349 112.214C147.208 111.962 147.305 111.48 147.922 110.697C151.554 106.066 155.263 101.521 160.389 98.4072C160.586 98.2882 160.777 98.1554 160.973 98.0391C163.057 96.8185 164.58 96.7493 165.698 99.639C165.762 99.805 165.795 99.985 165.872 100.143C166.21 100.829 167.212 101.427 166.96 102.069C166.739 102.634 165.731 102.916 165.045 103.268C163.866 103.877 163.24 105.036 162.376 105.944C159.21 109.266 158.936 113.055 160.685 117.182C161.294 118.618 161.388 120.21 161.186 121.901L161.192 121.896Z" fill="#F7F6F6"/>
<path d="M154.421 135.598C156.126 136.5 157.142 137.884 157.386 139.813C156.766 140.137 156.708 140.508 157.076 141.142C159.489 145.277 162.789 148.106 167.76 148.452C168.759 148.521 168.997 148.939 168.961 149.836C168.911 151.078 168.839 152.338 168.994 153.564C169.163 154.893 168.56 155.621 167.527 156.224C165.482 157.42 163.293 158.029 160.926 157.824C158.858 157.644 156.821 157.265 154.842 156.609C154.286 156.426 153.826 156.224 153.774 155.532C153.422 151.114 152.481 146.794 151.557 142.473C151.584 141.872 151.797 141.241 151.272 140.732C151.216 139.182 151.161 137.632 151.105 136.082C151.393 136.021 151.576 135.855 151.637 135.562C152.564 135.575 153.494 135.589 154.421 135.603V135.598Z" fill="#5886B1"/>
<path d="M176.819 164.525C176.246 164.431 175.543 164.121 175.316 164.954C175.122 165.666 175.842 165.818 176.29 166.095C178.839 167.672 181.306 169.355 183.406 171.517C183.7 171.819 184.292 172.148 183.896 172.641C183.44 173.205 182.966 172.668 182.598 172.383C180.996 171.143 179.847 169.408 178.142 168.273C177.491 167.841 176.866 167.368 176.207 166.947C175.753 166.657 175.244 166.504 174.862 167.044C174.474 167.592 174.768 168.016 175.244 168.312C178.372 170.258 180.774 173.001 183.285 175.619C183.667 176.018 184.392 176.419 183.863 177.094C183.42 177.662 182.706 177.44 182.208 177.133C180.555 176.112 179.302 174.62 177.923 173.283C176.536 171.938 175.194 170.54 173.821 169.178C173.417 168.777 172.938 168.384 172.401 168.94C171.92 169.441 172.329 169.901 172.65 170.274C174.181 172.054 175.98 173.593 177.32 175.544C177.633 175.998 177.973 176.438 178.233 176.923C178.551 177.512 179.116 178.254 178.485 178.791C177.937 179.256 177.259 178.664 176.769 178.279C175.319 177.139 173.996 175.852 172.775 174.468C171.46 172.976 170.024 171.617 168.465 170.388C167.258 169.436 165.922 168.699 164.388 168.458C162.409 168.148 161.493 169.328 162.262 171.16C162.545 171.835 162.921 172.475 163.273 173.12C163.541 173.607 163.796 174.094 163.804 174.667C163.812 175.259 163.965 175.965 163.267 176.236C162.547 176.519 162.37 175.782 162.074 175.367C160.665 173.374 159.292 171.359 157.878 169.372C156.771 167.816 156.436 166.136 156.812 164.268C156.965 163.512 156.954 162.723 157.023 161.887C159.959 162.541 163.01 163.294 165.7 161.802C168.05 160.498 169.932 160.98 172.039 161.995C173.605 162.751 175.249 163.346 176.858 164.01C176.844 164.185 176.83 164.356 176.819 164.531V164.525Z" fill="#F7F6F6"/>
<path d="M141.054 148.62C141.206 144.244 141.344 139.868 141.483 135.497C141.574 132.602 141.593 129.72 141.51 126.831C141.491 126.191 141.508 125.577 142.324 125.491C143.265 125.394 143.013 126.18 143.08 126.651C144.273 135.187 144.787 143.792 145.579 152.367C146.119 158.199 147.602 163.791 150.318 169.011C150.68 169.708 150.816 170.337 150.589 171.112C150.257 172.258 150.011 173.434 149.784 174.605C149.642 175.324 149.426 175.574 148.699 175.136C146.836 174.023 145.05 172.806 143.354 171.458C142.803 171.02 142.64 170.425 142.471 169.791C141.07 164.521 140.954 159.14 141.048 153.738C141.079 152.033 141.054 150.327 141.054 148.622V148.62Z" fill="#5886B1"/>
<path d="M155.067 167.149C154.295 166.019 154.787 164.754 154.699 163.556C154.632 162.645 154.832 161.687 153.68 161.258C153.517 161.198 153.323 160.888 153.342 160.716C153.522 159.135 152.296 158.867 151.253 158.449C150.359 158.092 149.609 158.568 149.545 159.523C149.476 160.519 149.451 161.521 149.409 162.521C148.094 159.487 147.654 156.24 147.308 153.007C146.608 146.481 146.091 139.935 145.451 133.4C145.205 130.881 144.823 128.376 144.524 125.86C144.455 125.281 144.264 124.694 144.521 123.886C145.125 125.082 145.739 125.987 145.54 127.31C145.257 129.187 145.828 129.895 147.699 130.095C148.828 130.214 149.24 130.726 149.238 131.758C149.238 131.805 149.254 131.849 149.251 131.897C148.825 140.139 151.477 148.006 152.213 156.107C152.252 156.531 152.266 157.032 152.673 157.201C153.888 157.707 153.807 158.72 153.788 159.733C153.774 160.389 153.957 160.915 154.679 161.098C155.526 161.314 155.507 161.942 155.41 162.62C155.194 164.12 154.876 165.615 155.072 167.146L155.067 167.149ZM148.407 156.974C148.557 157.561 148.468 158.145 149.088 158.324C149.296 158.385 149.384 158.139 149.401 157.954C149.454 157.35 149.221 156.985 148.407 156.974Z" fill="#BED8EE"/>
<path d="M139.415 143.82C137.358 143.751 137.056 143.38 137.413 141.445C137.759 139.566 137.195 137.723 137.148 135.857C137.145 135.744 136.893 135.633 136.757 135.522C136.229 132.738 135.57 129.984 134.792 127.257C134.684 126.878 134.878 126.654 135.135 126.432C135.517 126.1 135.863 125.718 136.273 125.428C136.91 124.974 137.557 123.631 138.031 124.071C138.822 124.813 139.891 125.469 139.927 127.036C140.051 132.253 139.877 137.457 139.725 142.663C139.714 143.084 139.672 143.477 139.415 143.823V143.82Z" fill="#BED8EE"/>
<path d="M133.564 128.659C134.611 130.452 134.749 132.359 134.91 134.194C135.128 136.699 135.804 139.182 135.322 141.74C134.901 143.979 133.827 145.662 131.707 146.606C130.888 146.971 130.528 146.824 130.636 145.831C130.766 144.643 130.907 143.437 130.824 142.252C130.5 137.685 131.901 133.455 133.235 129.207C133.285 129.052 133.404 128.919 133.564 128.659Z" fill="#5886B1"/>
<path d="M159.363 95.2744C161.317 93.3867 163.601 92.0858 166.311 91.7426C168.287 91.4935 169.414 92.6449 169.397 94.66C169.383 96.3373 169.095 97.9399 168.196 99.4042C167.728 100.165 167.34 100.121 166.909 99.4125C166.862 99.335 166.801 99.2602 166.77 99.1744C165.76 96.3124 163.57 95.6426 160.839 95.9747C160.268 95.9055 159.82 95.5844 159.363 95.2744Z" fill="#5886B1"/>
<path d="M129.454 188.405C130.19 189.537 129.816 190.512 128.955 191.348C125.479 194.733 121.432 196.175 116.608 194.913C116.107 194.783 115.645 194.63 115.418 194.091C115.207 193.587 115.235 193.288 115.888 193.357C121.169 193.922 125.432 191.716 129.304 188.438C129.335 188.414 129.393 188.419 129.454 188.405Z" fill="#F7F6F6"/>
<path d="M159.367 95.2749C159.821 95.5849 160.272 95.906 160.842 95.9752C158.301 97.9985 155.459 99.6454 153.233 102.056C152.09 103.296 150.82 104.423 149.834 105.807C149.64 106.078 149.438 106.322 148.918 106.178C149.743 104.489 150.775 102.984 152.012 101.605C153.825 99.5818 155.655 97.575 157.9 96.0056C158.354 95.6873 158.805 95.369 159.37 95.2749H159.367Z" fill="#F7F6F6"/>
<path d="M167.569 158.073C167.865 158.953 167.474 159.354 166.813 159.678C164.488 160.81 162.083 161.031 159.522 160.716C158.282 160.564 157.161 160.168 155.996 159.839C155.453 159.686 155.193 159.31 155.365 158.806C155.55 158.255 155.979 158.64 156.292 158.712C159.586 159.484 162.874 160.124 166.162 158.693C166.625 158.493 167.081 158.286 167.571 158.07L167.569 158.073Z" fill="#F7F6F6"/>
<path d="M142.548 117.984C142.855 118.992 143.137 119.905 143.408 120.819C143.824 122.228 142.68 123.963 141.294 124.162C140.35 124.298 140.02 123.625 139.547 123.086C139.021 122.488 139.483 122.103 139.802 121.663C140.632 120.511 141.449 119.346 142.273 118.189C142.323 118.12 142.412 118.081 142.545 117.984H142.548Z" fill="#5886B1"/>
<path d="M150.44 128.436C151.168 129.513 151.898 130.59 152.626 131.669C152.668 132.165 151.865 132.613 152.499 133.122C153.033 133.549 153.601 133.394 154.124 133.031C154.188 133.111 154.257 133.117 154.334 133.053C154.398 133.504 154.464 133.956 154.528 134.407C154.484 134.67 154.437 134.93 154.392 135.193C153.41 135.254 152.637 135.052 152.269 133.953C151.934 132.962 151.334 132.057 151.01 131.063C150.492 129.474 149.504 128.591 147.824 128.5C147.603 128.489 147.365 128.47 147.188 127.933C148.328 128.339 149.438 127.675 150.437 128.436H150.44Z" fill="#F7F6F6"/>
<path d="M176.815 164.525C176.829 164.35 176.84 164.179 176.854 164.004C179.467 165.059 181.629 166.72 183.392 168.928C181.103 167.6 179.198 165.701 176.812 164.525H176.815Z" fill="#BED8EE"/>
<path d="M158.74 173.672C157.951 173.775 157.486 173.445 157.138 172.712C156.789 171.978 156.598 171.176 155.726 170.672C155.184 170.359 155.599 169.388 155.516 168.718C156.59 170.37 157.664 172.02 158.738 173.672H158.74Z" fill="#BED8EE"/>
<path d="M150.445 165.462C151.627 166.281 152.33 167.347 152.164 168.85C151.464 167.784 150.758 166.721 150.445 165.462Z" fill="#BED8EE"/>
<path d="M149.453 162.643C150.347 163.382 150.618 164.353 150.488 165.469C150.015 164.575 149.686 163.625 149.453 162.643Z" fill="#BED8EE"/>
<path d="M139.459 149.638C139.055 148.888 139.025 148.141 139.49 147.402C139.479 148.146 139.47 148.894 139.459 149.638Z" fill="#BED8EE"/>
<path d="M151.276 140.726C151.802 141.235 151.592 141.866 151.561 142.467C151.295 141.913 151.179 141.337 151.276 140.726Z" fill="#3B5B7F"/>
<path d="M155.524 168.724C154.649 168.458 155.075 167.73 154.976 167.188C155.158 167.7 155.341 168.212 155.524 168.724Z" fill="#BED8EE"/>
<path d="M151.64 135.555C151.579 135.848 151.396 136.015 151.109 136.075C151.075 135.688 150.854 135.107 151.64 135.555Z" fill="#3B5B7F"/>
<path d="M71.5625 77.0301C71.6788 76.8917 71.8504 76.7838 71.9888 76.9083C72.177 77.0772 71.9583 77.1741 71.8476 77.2737C71.7535 77.1907 71.6594 77.1104 71.5625 77.0274V77.0301Z" fill="#5886B1"/>
<path d="M139.491 147.283C139.483 147.136 139.477 146.989 139.469 146.843C139.748 146.976 139.721 147.125 139.491 147.283Z" fill="#BED8EE"/>
<path d="M29.5943 135.266C29.4217 135.369 29.3994 135.269 29.4077 135.129C29.5024 135.129 29.5664 135.177 29.5943 135.266Z" fill="#BED8EE"/>
<path d="M191.227 129.184C191.141 130.44 191.31 131.73 189.744 132.417C189.295 132.613 189.223 133.632 188.938 134.252C188.722 134.72 188.407 135.237 187.814 135.057C187.186 134.869 187.241 134.208 187.405 133.759C187.856 132.519 187.947 131.249 187.958 129.956C187.961 129.588 187.956 129.101 188.382 129.026C189.705 128.791 189.32 127.916 189.143 127.133C188.855 125.871 188.349 124.7 187.67 123.587C187.338 123.045 187.006 122.278 187.767 121.888C188.589 121.464 188.877 122.317 189.143 122.851C190.145 124.855 191.388 126.792 191.23 129.181L191.227 129.184Z" fill="#1F1F23"/>
<path d="M154.522 134.407C154.458 133.956 154.392 133.505 154.328 133.054C154.478 132.951 154.627 132.846 154.779 132.749C155.095 132.553 155.244 131.864 155.734 132.223C156.246 132.603 156.152 133.286 155.856 133.735C155.59 134.139 155.394 135.063 154.522 134.407Z" fill="#1F1F23"/>
<path d="M154.119 133.027C153.596 133.39 153.026 133.545 152.495 133.119C151.861 132.612 152.664 132.161 152.622 131.666C153.356 131.862 154.272 131.854 154.119 133.025V133.027Z" fill="#1F1F23"/>
<path d="M148.41 156.973C149.224 156.984 149.456 157.35 149.404 157.953C149.387 158.138 149.299 158.385 149.091 158.324C148.471 158.144 148.56 157.56 148.41 156.973Z" fill="#ABCAE0"/>
</g>
<defs>
<clipPath id="clip0_426_330">
<rect width="211.083" height="218" fill="white"/>
</clipPath>
</defs>
</svg>
