<svg width="135" height="199" viewBox="0 0 135 199" fill="none" xmlns="http://www.w3.org/2000/svg">
<path d="M58.7735 77.1956C60.1899 75.9875 61.9354 75.2085 63.4268 74.1504C63.3435 74.8253 64.3308 79.7035 64.5307 91.9094C64.6516 99.0955 64.3766 106.286 63.7142 113.439C63.7142 115.051 62.8727 117.388 61.1023 117.625C58.8194 117.929 56.2157 117.683 53.8828 117.763C52.958 117.796 51.8541 117.733 51.3708 116.942C50.9459 116.246 51.0042 117.317 52.933 93.5507C53.4288 87.4353 54.0911 81.1907 58.7735 77.1915V77.1956Z" fill="#E5E5E5"/>
<path d="M130.226 163.233C130.226 163.233 129.96 168.019 106.51 170.206C89.0051 171.839 77.0116 167.111 72.2792 164.757C70.7878 164.012 70.013 163.503 70.013 163.503C70.013 163.503 69.9422 156.688 69.8672 155.455C73.404 161.287 80.9858 162.712 87.5887 163.783C89.43 164.083 91.2838 164.478 93.1334 164.703C95.0581 164.941 97.0952 164.841 99.0281 164.857C102.969 164.891 106.947 164.403 110.876 164.124C113.567 163.937 116.254 163.666 118.916 163.258C122.299 162.749 125.523 161.375 128.264 159.296C128.789 158.9 129.297 158.471 129.743 157.992L130.226 163.229V163.233Z" fill="#444B68"/>
<path d="M73.7302 158.984L73.3261 165.666C71.8347 164.853 71.0599 164.299 71.0599 164.299C71.0599 164.299 70.989 156.88 70.9141 155.534C71.8389 157.192 73.1678 158.571 73.7302 158.984Z" fill="#E5E5E5"/>
<path d="M108.156 163.986H111.339L112.035 172.047L108.548 172.66L108.156 163.986Z" fill="#E5E5E5"/>
<path d="M104.952 79.6992V66.9725C103.307 66.6101 101.674 66.5434 100.032 65.4853C97.3037 63.7357 96.9579 59.6156 96.3747 56.5746C95.4499 51.9963 95.2707 47.0639 96.4955 42.494C89.9218 43.3272 83.0315 42.9647 77.3992 41.8233C77.3743 41.8233 77.3576 41.8066 77.3284 41.8066C78.774 46.3349 78.874 51.0257 78.1658 54.5541C77.6575 57.2911 76.8952 61.1153 75.0664 63.6149C75.0414 63.6524 75.0205 63.6815 74.9997 63.719C74.3332 64.8896 73.3875 65.4645 72.4835 66.3935C68.2344 70.7676 67.2846 71.6966 66.4556 73.0713C65.1725 75.1876 65.5641 77.3538 65.5641 79.6992H104.961H104.952Z" fill="#FFE5D8"/>
<path d="M96.0405 54.6164C96.128 55.9953 94.6283 56.5535 93.4952 57.345C86.0591 62.5856 80.881 62.8522 74.1406 64.9518C76.6485 61.7775 77.3942 58.7364 78.1648 54.558C78.8855 50.9546 78.7564 46.2805 77.3275 41.8105C77.5816 41.8105 85.805 43.8518 96.4946 42.4979C96.1863 43.656 95.9572 44.8225 95.8239 46.0222C95.2948 50.4255 96.0072 54.0623 96.0405 54.6205V54.6164Z" fill="#F9CEBC"/>
<path d="M59.4744 80.4908C58.4496 84.0651 58.5204 87.8602 58.7287 91.5719C58.9787 96.0127 59.4119 100.437 59.8993 104.857C60.3076 108.527 60.1826 112.03 60.4909 115.667C61.6073 128.86 63.0904 142.558 69.1225 154.38C72.5718 161.142 80.087 162.583 87.3398 163.762C89.1811 164.058 91.0307 164.458 92.8803 164.678C94.805 164.92 96.8462 164.824 98.7792 164.828C105.028 164.887 112.46 164.528 118.617 163.599C124.337 162.737 129.14 159.279 130.169 157.367C132.402 153.46 131.098 146.345 131.114 142.029C131.131 136.151 131.152 130.277 131.169 124.399C131.194 115.784 133.231 106.894 133.931 98.2248C134.98 85.244 127.586 73.4838 121.112 70.1262C116.422 67.6891 111.002 66.9018 106.144 64.8522C103.966 63.9315 102.666 60.9571 101.387 59.0783C100.712 58.0869 99.6873 57.3745 98.5292 57.0704L96.1547 56.458C98.071 67.0476 85.0194 68.2307 85.0194 67.8891L81.8825 76.25L73.9299 65.3563C74.7922 64.294 75.5754 62.8776 76.2336 61.5362C75.2005 61.5903 73.9591 62.0652 73.1842 62.7651L71.5012 64.2815C71.1054 64.6397 70.8263 65.1063 70.7055 65.6229C70.1265 68.0766 67.352 70.4386 65.5565 72.1383C62.6988 74.8419 60.5659 76.6707 59.4661 80.495L59.4744 80.4908Z" fill="#E5E5E5"/>
<path d="M65.8165 30.9675C66.1081 34.2627 65.7373 36.5456 66.4247 40.0866C67.462 45.598 70.0615 51.1052 74.3981 54.7254C76.3977 56.4 78.564 57.8039 81.0427 58.0664C84.1754 58.3788 87.4122 57.0124 89.9492 55.1544C97.202 50.1013 97.9852 46.6103 99.4182 34.0961C99.6307 31.7799 99.6223 31.055 99.7515 29.6678C99.8723 28.2389 100.035 26.6226 99.9265 25.2062C99.7098 22.3817 98.6392 19.5948 97.1353 17.2244C94.4525 12.7586 91.9572 10.7173 83.9671 10.1633C82.1424 10.0383 80.2928 9.98415 78.5015 10.3924C71.3487 12.0171 64.9042 21.1403 65.8123 30.9717L65.8165 30.9675Z" fill="#FFE5D8"/>
<path d="M101.197 30.0105C102.021 30.0772 103.35 31.0145 104.292 31.606C104.633 31.8227 104.842 32.1768 104.842 32.5475C104.842 34.1764 104.917 35.9302 104.596 37.5215C104.367 38.6713 104.925 40.1877 104.496 41.275C104.184 42.0623 103.659 42.6205 102.971 43.2121C102.534 43.5912 101.901 43.7162 101.317 43.5412C99.7345 43.0663 98.2306 42.6455 98.1098 40.8459C97.9556 38.6172 98.0306 36.2551 98.0681 34.0306C98.0806 33.339 97.8182 32.1851 98.2472 31.6019C98.643 31.0686 100.443 29.9439 101.192 30.0022L101.197 30.0105Z" fill="#FFE5D8"/>
<path d="M99.721 38.7427C99.7543 39.43 100.104 40.0882 100.575 40.634C102.154 42.4544 103.541 39.48 102.804 38.0678C101.929 36.389 99.6376 36.9805 99.721 38.7468V38.7427Z" fill="#F9CEBC"/>
<path d="M100.788 40.0129C100.576 39.8796 100.776 39.563 100.988 39.6922C101.251 39.8588 101.6 39.9088 101.892 39.8255C103.221 39.4589 103.046 35.9929 102.484 34.1099C102.346 33.6475 102.2 33.2768 101.942 32.9727C101.53 32.4853 100.717 32.2353 100.397 32.7769C100.347 32.8602 100.297 32.9935 100.359 33.1435C100.455 33.3767 100.105 33.5142 100.009 33.2851C99.9175 33.056 99.9383 32.8102 100.072 32.5852C100.53 31.8187 101.625 32.0187 102.23 32.7269C102.55 33.1018 102.713 33.56 102.846 34.0016C103.363 35.7304 103.725 39.7088 101.992 40.1879C101.609 40.2962 101.155 40.2379 100.788 40.0088V40.0129Z" fill="#F9CEC0"/>
<path d="M70.6094 30.6629C71.6508 29.7603 74.317 28.4966 76.6499 30.6629C74.3586 30.6629 75.8167 29.2048 70.6094 30.6629Z" fill="#444B68"/>
<path d="M90.9718 30.87C89.9954 29.8974 87.4232 28.4521 84.9459 30.4516C87.2316 30.6103 85.878 29.0547 90.9718 30.87Z" fill="#444B68"/>
<path d="M79.1911 36.4951C78.5662 36.7034 74.6086 42.3273 79.3994 44.2019C78.4273 43.1605 77.0248 40.1611 79.1911 36.4951Z" fill="#444B68"/>
<path d="M85.8125 46.6395L76.6476 46.4932C76.6476 46.4932 77.0527 50.0577 81.2045 49.8139C85.3564 49.5695 85.8125 46.64 85.8125 46.64V46.6395Z" fill="white"/>
<path d="M74.5706 36.911C73.8803 36.911 73.3208 35.9784 73.3208 34.828C73.3208 33.6777 73.8803 32.7451 74.5706 32.7451C75.2608 32.7451 75.8203 33.6777 75.8203 34.828C75.8203 35.9784 75.2608 36.911 74.5706 36.911Z" fill="#444B68"/>
<path d="M88.3127 36.911C87.6225 36.911 87.063 35.9784 87.063 34.828C87.063 33.6777 87.6225 32.7451 88.3127 32.7451C89.003 32.7451 89.5625 33.6777 89.5625 34.828C89.5625 35.9784 89.003 36.911 88.3127 36.911Z" fill="#444B68"/>
<path d="M63.629 121.486C63.5416 121.486 63.4624 121.424 63.4457 121.332C62.2043 114.579 60.3713 100.97 60.3047 94.0293C60.3047 93.9251 60.388 93.8418 60.4922 93.8418C60.5963 93.8418 60.6796 93.9251 60.6796 94.0293C60.7463 100.949 62.5751 114.525 63.8165 121.266C63.8332 121.37 63.7665 121.466 63.6665 121.486C63.654 121.486 63.6457 121.486 63.6332 121.486H63.629Z" fill="#747474"/>
<path d="M93.1525 78.9577L93.0942 78.7411C92.2318 75.5834 90.5572 70.4385 89.7282 70.0844C88.9533 69.7678 84.9083 73.5879 82.2671 76.404L81.9922 76.1457C83.0836 74.9793 88.6034 69.1804 89.8781 69.7387C91.0696 70.2511 92.9817 76.9289 93.3983 78.4245C100.193 75.071 104.409 64.5439 104.45 64.4355L104.8 64.573C104.759 64.6813 100.405 75.5542 93.3566 78.8619L93.1525 78.9577Z" fill="#747474"/>
<path d="M70.4602 78.616L70.2686 77.8911C69.8312 76.2248 70.4311 68.043 70.4561 67.6973L70.831 67.7264C70.8268 67.7972 70.3644 74.0877 70.5144 76.8163C71.1434 74.4043 72.6348 69.322 73.972 69.5511C75.4926 69.8177 81.758 75.8582 82.0246 76.1164L81.7622 76.3872C79.975 74.6584 75.076 70.1301 73.9054 69.9218C72.7389 69.7552 70.9101 76.7413 70.6352 77.8911L70.4602 78.6201V78.616Z" fill="#747474"/>
<path d="M81.8991 127.907C81.8117 127.907 81.7325 127.844 81.7159 127.757C79.8329 118.213 79.937 84.8443 79.4871 83.6528C79.0705 82.7363 75.2213 80.291 76.6668 79.1579C77.8874 78.1997 81.3826 76.3584 81.5326 76.2793C81.7492 76.1626 81.9283 76.4959 81.7075 76.6125C81.67 76.6292 78.0916 78.5163 76.9001 79.4537C75.9087 80.2368 79.383 82.5156 79.8329 83.4987C80.3203 84.5776 80.2578 118.409 82.0866 127.682C82.1074 127.786 82.0408 127.882 81.9408 127.902C81.9283 127.902 81.9158 127.902 81.9033 127.902L81.8991 127.907Z" fill="#747474"/>
<path d="M82.4269 158.621C82.3269 158.621 82.2436 158.542 82.2395 158.442C82.0187 154.576 80.9105 135.604 80.7814 133.317C80.7772 133.213 80.8564 133.126 80.9605 133.117C81.048 133.105 81.1522 133.192 81.1605 133.297C81.3813 137.162 82.4894 156.134 82.6185 158.421C82.6227 158.525 82.5436 158.612 82.4436 158.621H82.4311H82.4269Z" fill="#747474"/>
<path d="M131.558 189.032C129.525 192.102 125.642 193.331 121.476 194.664C105.571 199.742 87.5914 199.034 71.1571 194.085C63.996 191.927 64.8583 181.241 65.829 175.722C67.5162 166.132 70.0157 163.503 70.0157 163.503C70.4989 163.716 83.738 172.331 106.517 170.206C129.966 168.015 130.233 163.232 130.233 163.232C133.312 169.215 133.287 177.442 133.032 184.012C132.953 186.111 132.424 187.736 131.566 189.036L131.558 189.032Z" fill="#426FC4"/>
<path d="M80.4313 192.844C80.4563 192.627 82.7933 171.923 83.0058 170.09C83.0183 169.986 83.1183 169.919 83.2141 169.923C83.3182 169.936 83.3932 170.027 83.3807 170.131C83.3599 170.327 80.8312 192.669 80.8062 192.885C80.7771 193.139 80.4021 193.085 80.4313 192.844Z" fill="#305FAD"/>
<path d="M81.5472 188.286C81.3097 188.224 81.393 187.861 81.643 187.924C82.9844 188.269 84.5341 187.761 85.4131 186.695C86.6462 185.195 86.6129 182.95 86.5879 180.967C86.5629 179.321 86.5879 180.242 86.7462 170.777C86.7462 170.673 86.8336 170.594 86.9336 170.594C87.0378 170.594 87.1211 170.681 87.1169 170.785L86.9544 179.696C86.9128 182.037 87.296 184.995 85.7005 186.936C84.7091 188.144 83.0344 188.674 81.5472 188.29V188.286Z" fill="#305FAD"/>
<path d="M80.7675 161.304C82.6879 162.066 86.4455 163.503 88.2327 163.832C88.6451 163.907 88.945 164.278 88.945 164.699L88.9825 169.869C88.9825 170.394 88.5409 170.802 88.0202 170.752C86.1622 170.564 82.0964 169.981 79.8343 168.402C79.6052 168.24 79.4844 167.969 79.4844 167.69L79.5635 162.112C79.5719 161.495 80.1926 161.079 80.7633 161.308L80.7675 161.304Z" fill="white"/>
<path d="M82.6685 85.7443C83.2966 85.7443 83.8058 85.2351 83.8058 84.607C83.8058 83.9789 83.2966 83.4697 82.6685 83.4697C82.0404 83.4697 81.5312 83.9789 81.5312 84.607C81.5312 85.2351 82.0404 85.7443 82.6685 85.7443Z" fill="white"/>
<path d="M83.0228 99.5034C82.3938 99.5243 81.8689 99.0327 81.8522 98.4037C81.8314 97.7746 82.3229 97.2497 82.952 97.2331C83.581 97.2122 84.1059 97.7038 84.1226 98.3328C84.1434 98.9619 83.6518 99.4868 83.0228 99.5034Z" fill="white"/>
<path d="M83.1138 138.987C83.7419 138.987 84.2511 138.478 84.2511 137.85C84.2511 137.222 83.7419 136.713 83.1138 136.713C82.4857 136.713 81.9766 137.222 81.9766 137.85C81.9766 138.478 82.4857 138.987 83.1138 138.987Z" fill="white"/>
<path d="M85.4238 153.652C84.7989 153.701 84.249 153.239 84.199 152.614C84.149 151.989 84.6114 151.439 85.2363 151.389C85.8612 151.339 86.4111 151.802 86.4611 152.427C86.5111 153.052 86.0486 153.602 85.4238 153.652Z" fill="white"/>
<path d="M118.465 141.47C121.302 134.988 127.526 123.066 130.109 103.061C130.596 99.2704 130.909 95.4086 130.325 91.6302C129.742 87.8518 128.201 84.1233 125.439 81.478C122.523 78.6827 117.311 77.0872 113.325 78.1495C109.009 79.2993 105.459 83.5943 103.343 87.2811C100.236 92.6967 99.1441 99.0246 98.565 105.24C97.786 113.605 97.8318 122.049 98.7025 130.402C87.9213 131.793 76.7318 131.577 65.8714 131.16C64.6384 130.177 63.5636 130.056 61.9889 130.01C59.656 129.948 57.3231 129.885 54.9944 129.823C52.8865 129.764 52.3616 130.331 52.0658 132.143C52.0658 133.518 51.5493 134.951 51.4368 136.326C51.2701 138.4 50.312 140.679 50.387 142.112C50.487 143.987 52.3074 144.22 53.7822 144.745C54.8778 145.136 55.9901 145.486 57.0815 145.878C59.9434 146.911 62.9845 147.453 66.0297 147.461C66.7504 147.461 67.7169 146.907 67.7086 146.186C79.323 148.415 91.3206 149.99 103.114 150.848C110.925 151.414 114.666 150.165 118.469 141.466L118.465 141.47Z" fill="#E5E5E5"/>
<path d="M54.375 134.297L78.3953 134.764L89.1265 131.614L82.5778 131.677L54.375 134.297Z" fill="#747474"/>
<path d="M103.097 151.036C91.2789 150.177 79.427 148.619 67.871 146.412C67.7127 147.132 66.7753 147.653 66.0338 147.653H66.0297C65.7839 147.653 65.7797 147.278 66.0297 147.278H66.0338C66.6587 147.278 67.5294 146.791 67.5169 146.195V145.962C70.3705 146.424 83.7595 149.257 103.127 150.665C110.921 151.227 114.549 149.969 118.294 141.396C121.202 134.751 127.351 122.97 129.921 103.041C130.367 99.5999 130.738 95.559 130.138 91.664C129.692 88.7645 128.492 84.6695 125.306 81.6201C125.126 81.4493 125.385 81.1785 125.564 81.3493C128.826 84.4695 130.05 88.6521 130.504 91.6098C131.113 95.5507 130.738 99.6249 130.288 103.095C129.142 111.968 127.001 120.75 123.927 129.194C122.377 133.447 120.377 137.559 118.632 141.554C114.678 150.594 110.608 151.594 103.089 151.048L103.097 151.036Z" fill="#747474"/>
<path d="M79.6298 131.659C74.3475 131.659 70.0234 131.489 65.7992 131.343L65.7492 131.305C64.537 130.339 63.4705 130.239 61.9791 130.197C61.7334 130.189 61.7375 129.822 61.9833 129.822C63.5747 129.91 64.6036 129.926 65.9367 130.972C75.9222 131.355 87.4825 131.638 98.497 130.239C97.643 121.94 97.6013 113.525 98.3762 105.223C98.9094 99.5115 99.8967 92.9044 103.179 87.1889C103.3 86.9764 103.629 87.1556 103.504 87.3764C100.259 93.0294 99.2802 99.5865 98.7511 105.26C97.9721 113.6 98.0179 122.057 98.8886 130.385L98.9094 130.568C98.3428 130.614 91.6858 131.663 79.634 131.663L79.6298 131.659Z" fill="#747474"/>
<path d="M67.7214 146.22C67.7214 146.22 67.7089 146.22 67.7006 146.22C67.5964 146.207 67.5215 146.116 67.534 146.011C67.8089 143.541 68.0922 140.992 67.9505 138.484C67.7922 135.672 67.109 133.276 65.9134 131.36C65.7843 131.152 66.0967 130.948 66.2342 131.16C67.4631 133.131 68.1672 135.584 68.3255 138.463C68.4671 141 68.1838 143.57 67.9047 146.053C67.8964 146.149 67.8131 146.22 67.7173 146.22H67.7214Z" fill="#747474"/>
<path d="M47.3125 119.733L56.0316 118.6L89.1626 131.505L54.3736 134.297L47.3125 119.733Z" fill="#C9D4F2"/>
<path d="M47.7578 120.033L52.8693 118.408L75.8648 129.094L52.3527 130.368L47.7578 120.033Z" fill="#444B68"/>
<path d="M62.6783 126.294C61.666 128.048 60.5079 125.803 60.0997 124.907C59.4248 123.42 59.1498 121.749 59.329 120.125C57.7168 120.966 55.5631 119.879 53.9884 120.799C52.7261 121.541 52.422 122.999 51.0139 127.119C50.8515 127.606 50.6765 128.098 50.3474 128.49C49.4976 129.493 48.2437 129.081 48.052 127.84C47.9312 127.094 48.0729 126.865 49.8267 119.42C48.5103 119.454 47.2147 120.045 46.3315 121.016C44.7318 122.77 44.182 126.515 42.4115 127.298C41.9949 127.486 41.4742 127.49 41.1076 127.211C40.4868 126.74 40.6035 125.79 40.7868 125.036C41.4742 122.128 42.2532 118.991 44.8443 117.258C47.2688 115.642 51.9888 115.43 54.6924 115.305C57.7585 115.171 61.3203 115.7 62.77 118.833C63.6573 120.749 63.3532 122.982 63.0283 125.069C62.9616 125.49 62.8949 125.919 62.6825 126.29L62.6783 126.294Z" fill="#FFE5D8"/>
<path d="M60.1043 124.907C59.9294 124.949 59.7336 124.957 59.5128 124.92C57.3382 124.553 54.9095 122.954 53.0391 121.746C54.6387 119.292 57.3507 121.162 59.3337 120.125C59.1545 121.75 59.4295 123.42 60.1043 124.907Z" fill="#F9CEBC"/>
<path d="M0.335938 90.8467L36.9329 96.7705L54.3795 134.296L18.574 127.16L0.335938 90.8467Z" fill="#E4F0FF"/>
<path d="M18.4464 127.332C7.67349 105.882 1.43305 93.451 0 90.6016L36.9636 96.5879C37.2094 96.6295 37.151 97.0003 36.9052 96.9586L0.666536 91.089L18.6963 126.994C50.9358 133.272 49.4694 132.714 49.3986 133.077C49.3445 133.36 51.2108 133.614 18.4422 127.328L18.4464 127.332Z" fill="#C9D4F2"/>
<path d="M51.9201 133.722C51.5243 136.146 51.1452 137.696 50.7537 140.125C36.5439 136.504 34.5652 138.458 25.3586 127.036C25.0295 126.627 24.6963 126.211 24.538 125.715C24.3838 125.215 24.4505 124.611 24.8337 124.261C26.4501 122.774 28.7038 126.207 29.4995 127.102C30.316 128.019 31.1783 128.902 32.074 129.743C32.8738 130.497 34.1153 131.193 34.7693 132.06C33.5445 130.431 29.9911 125.765 30.3077 123.599C30.466 122.52 31.4116 121.978 32.3114 122.624C32.9821 123.103 33.4279 123.832 33.8861 124.511C38.6977 131.626 42.6761 130.572 46.9002 131.755C48.5624 132.226 50.2121 133.422 51.9326 133.722H51.9201Z" fill="#FFE5D8"/>
<path d="M44.5397 132.676C43.1399 131.606 42.1818 129.977 41.9235 128.236C41.5444 125.703 43.4774 125.049 44.5772 126.44C45.9852 128.215 46.5809 130.269 50.7676 133.597" fill="#FFE5D8"/>
<path d="M26.6288 128.261C26.1414 128.49 25.9165 129.094 25.979 129.627C26.0415 130.16 26.3331 130.644 26.6372 131.085C28.6493 134.005 31.682 136.213 35.0772 137.23C38.0849 138.13 41.3926 138.2 44.5045 138.571" fill="#FFE5D8"/>
<path d="M35.0526 135.972C31.7033 134.347 28.8163 131.872 26.7001 128.815C26.5584 128.606 26.8709 128.398 27.0084 128.602C29.0871 131.606 31.9282 134.039 35.2192 135.634C35.4442 135.742 35.2776 136.084 35.0568 135.972H35.0526Z" fill="#F9CEC0"/>
<path d="M36.6451 133.897L34.1706 131.627C34.0956 131.556 34.0873 131.435 34.1581 131.36C34.2289 131.285 34.3497 131.277 34.4247 131.348L36.8992 133.618C37.0825 133.789 36.8242 134.064 36.6451 133.893V133.897Z" fill="#F9CEC0"/>
<path d="M45.8996 135.151C44.4624 134.135 43.3501 132.664 42.7627 131.006C42.6794 130.773 43.0293 130.639 43.1168 130.881C43.6792 132.468 44.7457 133.872 46.1162 134.847C46.3204 134.993 46.0996 135.297 45.8996 135.155V135.151Z" fill="#F9CEC0"/>
<path d="M66.6141 144.403C65.3393 144.195 59.7113 143.995 52.4044 140.904C52.1753 140.808 52.3211 140.458 52.5502 140.558C57.0368 142.457 61.7734 143.624 66.6266 144.028C66.7307 144.036 66.8057 144.128 66.7974 144.232C66.789 144.332 66.7057 144.403 66.6099 144.403H66.6141Z" fill="#747474"/>
<path d="M61.5186 13.5053C60.3375 11.6631 60.6424 9.17066 62.1669 7.53663C64.1591 5.4007 66.6931 4.10887 69.3868 3.02237C72.5424 1.74766 75.8016 0.769519 79.1821 0.3218C83.0689 -0.191508 86.9734 -0.305576 90.5522 1.63929C92.8908 2.9083 94.6314 4.69633 95.0902 7.38264C94.0926 8.16971 93.1809 9.05089 92.0827 9.72389C91.6593 9.9834 91.4995 9.93492 91.2893 9.50716C89.9691 6.83226 87.743 5.12123 84.9219 4.0661C84.8805 4.02902 84.8391 3.99195 84.7976 3.95488C84.7828 3.9834 84.7651 4.00906 84.7503 4.03758C84.8065 4.04899 84.8627 4.05754 84.9219 4.06895C85.5229 5.20678 86.5352 6.06515 87.1687 7.19157C87.9413 8.5661 88.5807 9.9834 88.4949 11.5547C88.3735 13.7705 86.8816 15.2134 85.1854 16.4996C84.8568 16.7505 84.7118 16.7334 84.5105 16.3798C82.838 13.4311 80.0435 12.433 76.7725 12.2762C74.0373 12.145 71.382 12.5813 68.7474 13.2401C66.3674 13.8361 63.9756 14.5718 61.5216 13.5081L61.5186 13.5053Z" fill="#343D5E"/>
<path d="M61.5158 13.5056C63.9698 14.5721 66.3616 13.8364 68.7416 13.2375C71.3762 12.5759 74.0344 12.1425 76.7667 12.2736C80.0377 12.4305 82.8321 13.4286 84.5046 16.3772C84.7059 16.7309 84.848 16.748 85.1796 16.497C86.8758 15.2109 88.3677 13.7708 88.4891 11.5521C88.5749 9.98085 87.9385 8.5607 87.1629 7.18903C86.5294 6.0626 85.517 5.20424 84.9161 4.06641C87.7401 5.11869 89.9632 6.82971 91.2835 9.50747C91.4966 9.93523 91.6535 9.98085 92.0768 9.7242C93.175 9.05405 94.0897 8.17002 95.0844 7.38295C95.487 8.60063 95.487 8.58352 97.0174 8.61203C97.6775 8.62344 98.4205 8.42952 98.8971 9.11108C96.5645 8.94568 94.6551 9.76698 92.9057 11.2356C91.6032 12.3278 90.4872 13.5683 89.309 14.766C89.1077 14.9713 88.7584 15.1824 88.8976 15.4761C89.016 15.7242 89.4038 15.7527 89.7027 15.7613C90.9105 15.7898 92.0887 15.9951 93.252 16.2945C93.0981 17.4039 93.0122 18.4989 93.6605 19.5227C93.9062 19.9134 93.5155 20.2185 93.4 20.5579C91.541 18.5417 89.0426 18.151 86.2423 18.094C86.6508 17.7375 86.9083 17.5151 87.1659 17.2898C87.1511 17.2442 87.1333 17.1985 87.1185 17.1558C86.5057 17.2955 85.8841 17.4039 85.2832 17.5835C83.584 18.0883 81.8937 18.6301 80.2923 19.3858C79.9015 19.5712 79.5966 19.5398 79.2089 19.3601C74.739 17.2898 69.1383 18.8839 66.5185 22.9704C65.7548 24.1653 65.4943 25.3972 66.4356 26.632C66.6369 26.8944 66.708 27.1539 66.554 27.439C65.1124 30.0854 65.8258 32.8316 66.1396 35.5579C66.2728 36.7099 66.4356 37.8592 66.5866 39.0084C66.1899 38.9485 66.1899 38.6006 66.107 38.344C64.772 34.3459 63.4961 30.3307 62.09 26.3554C61.6904 25.2233 61.0007 24.1966 60.8704 22.9561C60.7935 22.229 60.758 21.5046 60.8083 20.7888C60.8616 20.0331 60.6692 19.5056 59.8906 19.2575C59.9972 19.2061 60.1038 19.112 60.2074 19.112C61.6697 19.1348 62.9692 18.6215 64.2688 18.0455C65.4706 17.5122 66.708 17.0445 67.9512 16.6025C69.2626 16.1348 70.645 15.9609 72.0896 15.8867C71.9949 15.7556 71.9682 15.6786 71.9297 15.67C69.2833 15.094 66.6073 15.0968 63.9372 15.3877C62.4394 15.5502 60.9977 15.1596 60.4235 14.2128C60.8556 14.1444 61.273 14.2841 61.6934 14.3497C61.794 13.9961 61.4921 13.7907 61.5039 13.5113L61.5158 13.5056Z" fill="#253050"/>
<path d="M93.406 20.5547C93.5214 20.2154 93.9151 19.9103 93.6665 19.5196C93.0182 18.4958 93.104 17.4008 93.258 16.2914C97.79 17.3009 101.363 19.6336 103.811 23.5234C103.891 23.3979 103.944 23.3551 103.947 23.3067C104.116 20.4521 103.163 17.8912 101.733 15.4587C101.641 15.3019 101.348 15.1793 101.597 14.9625C101.715 14.8599 101.89 14.9369 102.005 15.0395C103.725 16.5738 105.297 18.1992 105.587 20.5861C105.62 20.8542 105.596 21.1222 105.963 21.1793C105.765 23.7772 105.549 26.3722 105.164 28.9502C105.048 29.7173 104.96 30.4901 104.865 31.2601C104.829 31.5624 104.939 31.9274 104.465 32.0101C103.885 31.4397 103.243 30.9949 102.387 30.8779C101.117 30.704 100.152 31.203 99.797 32.3894C99.4803 33.4473 99.3116 34.5452 99.054 35.6203C98.7935 36.704 98.4442 37.7449 97.195 38.3694C97.195 37.6051 97.195 36.9264 97.195 36.2477C97.2009 34.6194 97.1891 32.9911 97.2246 31.3627C97.2424 30.4987 96.8753 29.8542 96.2004 29.3323C96.0109 29.1869 95.8363 29.0215 95.635 28.8989C94.3532 28.1089 93.8885 27.088 94.2171 25.5766C94.59 23.8542 94.5575 22.0947 93.4089 20.5547H93.406Z" fill="#2D3657"/>
<path d="M105.959 21.1821C105.592 21.1251 105.615 20.8542 105.583 20.589C105.293 18.2021 103.721 16.5766 102.001 15.0424C101.886 14.9397 101.711 14.8627 101.593 14.9654C101.344 15.1821 101.637 15.3048 101.729 15.4616C103.161 17.897 104.112 20.4578 103.943 23.3095C103.943 23.3551 103.89 23.4008 103.807 23.5262C101.359 19.6365 97.7858 17.3038 93.2537 16.2943C92.0903 15.9977 90.9122 15.7924 89.7044 15.761C89.4054 15.7525 89.0177 15.7268 88.8993 15.4759C88.7601 15.1821 89.1065 14.9711 89.3107 14.7658C90.4889 13.5709 91.6049 12.3304 92.9074 11.2354C94.6568 9.76674 96.5662 8.94544 98.8988 9.11084C100.776 9.40742 102.066 10.5652 103.203 11.9027C105.503 14.6061 106.166 17.78 105.956 21.185L105.959 21.1821Z" fill="#343D5E"/>
<path d="M62.8687 13.5856C63.5117 14.7894 65.1377 15.2898 66.8237 15.0795C69.8292 14.7097 72.8413 14.706 75.8201 15.4385C75.8667 15.4494 75.8934 15.5473 76 15.7141C74.3707 15.8047 72.8146 16.0295 71.3419 16.6242C69.9425 17.1862 68.5497 17.7809 67.1969 18.4589C65.7342 19.1914 64.2748 19.8441 62.6254 19.8151C62.5088 19.8151 62.3889 19.9347 62.2689 20C60.3097 19.3147 59.2368 17.741 59.0535 15.6234C58.757 12.215 59.6933 9.16913 61.8391 6.60917C62.0623 6.34084 62.2789 6.03626 62.6554 6L62.6887 6.03263C62.1656 7.74773 61.6691 9.45921 61.8324 11.3157C61.9157 12.244 62.0923 13.0598 62.872 13.5856H62.8687Z" fill="#343D5E"/>
<path d="M60.2422 8.24142C60.2807 8.18438 60.3192 8.12735 60.3606 8.07031C60.331 8.1359 60.3014 8.20149 60.2718 8.26708L60.2422 8.24142Z" fill="#343D5E"/>
<path d="M84.9217 4.06622C84.8654 4.05481 84.8092 4.04625 84.75 4.03485C84.7648 4.00633 84.7826 3.98067 84.7974 3.95215C84.8388 3.98922 84.8802 4.02629 84.9217 4.06337V4.06622Z" fill="#253050"/>
</svg>
