<svg width="144" height="180" viewBox="0 0 144 180" fill="none" xmlns="http://www.w3.org/2000/svg">
<path d="M27.1454 135.783C25.5124 137.754 23.7502 139.62 21.8756 141.366C21.2965 141.907 18.7928 143.765 18.018 143.611C17.6764 143.544 17.5431 142.899 16.8516 142.511C18.6096 138.983 21.9756 136.096 25.0583 133.642C25.754 133.088 27.5161 131.517 28.3743 132.496C29.2783 133.525 27.7619 135.038 27.1412 135.787L27.1454 135.783Z" fill="#4A4B67"/>
<path d="M142.695 77.528C142.65 78.8694 141.521 79.2776 140.721 80.1066C138.417 82.5061 136.33 84.6182 133.235 86.0346C131.61 86.772 130.073 86.9261 127.986 87.5885C126.365 88.1342 125.361 89.5922 124.52 90.9878C121.246 96.4201 120.958 97.0908 120.15 97.7615C118.434 99.1945 116.838 97.3491 115.193 96.2243C108.411 91.6877 109.119 92.1501 109.031 92.0959C109.51 92.4292 113.297 88.1967 113.597 87.7468C113.61 87.7343 113.618 87.7176 113.63 87.7134C116.396 84.2516 117.971 80.519 118.709 76.1782C118.983 74.6077 119.871 73.4579 120.487 72.054C121.529 69.692 120.35 65.7011 121.979 65.1346C122.683 64.8804 123.387 65.5053 123.799 66.126C124.553 67.2883 124.895 68.6214 124.907 69.9878C130.185 67.5133 134.689 63.1974 139.038 59.419C140.358 58.2526 142.141 57.3444 143.025 58.8191C143.47 59.5565 143.1 60.5146 142.67 61.2686C141.196 63.8681 139.013 65.9719 136.813 67.9465C137.817 67.4341 139.221 68.0007 139.584 69.0754C139.892 69.9836 139.667 71.1042 138.913 71.55C139.946 71.275 141.162 71.7541 141.683 72.7039C142.279 73.7912 141.841 75.3284 140.758 75.9449C141.771 75.2826 142.733 76.6281 142.7 77.5321L142.695 77.528Z" fill="#FFE5D8"/>
<path d="M135.468 79.9693C136.889 78.5696 138.676 77.3907 140.218 76.1617C140.38 76.0368 140.567 76.2742 140.409 76.4033C138.864 77.6323 137.081 78.8112 135.685 80.1859C134.689 81.1649 134.835 82.3147 135.518 82.7438C136.585 83.402 138.435 82.0397 139.222 81.0649C139.359 80.9066 139.584 81.1024 139.459 81.2566C138.914 81.9356 138.214 82.4938 137.435 82.8812C134.977 84.1102 133.74 81.669 135.473 79.9693H135.468Z" fill="#F9CEC0"/>
<path d="M132.407 79.2526C130.616 77.0239 135.957 74.5952 138.406 71.7249C138.54 71.5708 138.769 71.7707 138.639 71.9249C136.186 74.8035 131.087 77.1197 132.649 79.061C133.036 79.54 133.745 79.7775 134.457 79.665C135.044 79.5734 135.644 79.2734 136.29 78.7485C136.457 78.6235 136.636 78.861 136.486 78.986C135.798 79.5484 135.149 79.8691 134.507 79.9691C133.745 80.0899 132.895 79.8483 132.416 79.2526H132.407Z" fill="#F9CEC0"/>
<path d="M129.969 75.8617C129.773 75.3451 129.86 74.7327 130.235 73.9871C131.127 72.2207 132.518 71.2709 136.642 67.605C136.796 67.4717 136.996 67.7008 136.846 67.8341C133.193 71.0793 131.402 72.3541 130.51 74.1245C130.173 74.7869 130.093 75.3201 130.256 75.7534C130.452 76.2699 131.06 76.6324 131.693 76.6074C132.389 76.5865 132.98 76.1825 133.355 75.8492C133.505 75.7159 133.709 75.9408 133.559 76.0783C132.031 77.4406 130.389 76.9656 129.973 75.8659L129.969 75.8617Z" fill="#F9CEC0"/>
<path d="M123.783 79.4027C125.682 76.8282 125.957 73.1956 124.462 70.3628C124.42 70.2878 124.453 70.1961 124.528 70.1545C124.603 70.1128 124.695 70.1462 124.732 70.217C126.278 73.1497 125.995 76.9115 124.028 79.5776C123.908 79.7401 123.662 79.5568 123.783 79.3985V79.4027Z" fill="#F9CEC0"/>
<path d="M15.135 85.7638C17.5012 80.9689 24.0832 74.7868 29.8779 76.6406C35.1394 78.3236 35.0811 86.2221 34.6645 90.5004C34.6645 95.0787 32.2316 101.698 28.9614 104.948C25.0497 108.838 21.7379 113.042 18.3344 117.483C18.0511 117.849 32.769 141.924 32.7149 144.806C32.6524 148.289 31.4401 150.097 29.4947 152.801C23.9749 146.548 18.451 140.291 12.9313 134.038C9.33196 129.959 3.8747 125.414 2.97488 119.757C2.3375 115.754 4.00801 111.784 5.64519 108.076C8.86539 100.769 11.6357 92.8583 15.135 85.7597V85.7638Z" fill="#FFE5D8"/>
<path d="M34.1809 99.4905C33.5477 101.903 31.648 102.819 29.9025 104.489C27.8238 106.493 25.8075 108.585 23.9079 110.801C23.3663 111.434 18.4839 116.945 18.8922 117.504C21.8458 121.69 24.3911 126.135 25.9866 131.03C27.0698 129.976 29.0819 130.547 29.1485 132.222C29.1735 132.834 28.986 133.296 28.7278 133.73C28.6819 133.788 28.4112 134.046 28.4112 134.092C28.3945 133.913 28.5153 133.746 28.5903 133.563C28.6653 133.396 28.6653 133.155 28.5153 133.051C28.3487 132.959 28.1529 133.067 28.0196 133.184C27.328 133.817 26.2283 133.742 25.6242 134.584C24.9452 135.517 25.3993 137.008 24.6161 137.837C23.4955 138.987 21.6667 137.741 20.4294 139.616C20.1878 139.978 19.992 140.353 19.7045 140.657C19.1005 141.291 17.9674 141.561 17.6549 142.465C17.505 142.903 17.6716 143.474 18.1049 143.64C17.155 143.278 16.4177 142.54 16.1636 141.545C15.9053 140.566 15.8303 139.437 16.526 138.591C14.5681 138.47 12.7309 137.462 11.2854 136.137C9.13162 134.184 7.72356 131.759 1.10403 122.311C-1.34966 118.77 0.833248 114.358 2.38294 110.334C5.73645 101.619 12.9267 86.5222 19.1921 80.4067C21.1209 78.5238 23.4705 76.7908 26.0158 75.8118C26.8448 75.4952 41.1252 73.6333 42 73.5C45.291 81.2776 36.3638 91.4462 34.1809 99.4905Z" fill="#426FC4"/>
<path d="M79.6745 108.509C79.7037 109.88 79.5579 110.651 78.8872 111.9C76.6043 116.166 72.9634 120.311 67.8352 120.77C61.6906 121.311 56.0042 122.565 49.7596 122.04C48.0349 121.886 46.2228 121.753 44.5315 121.382C43.5733 121.174 42.7318 121.503 41.7903 121.249C40.8572 120.999 40.0073 120.361 39.37 119.657C38.416 118.603 37.8036 117.291 37.2246 115.995C32.7421 105.952 33.3003 104.444 31.6673 101.49C31.2091 100.661 30.805 100.482 30.8425 99.4654C30.8841 98.2281 31.3007 96.9242 31.4507 95.687C31.7548 93.1458 31.8589 90.5755 31.7381 88.0177C31.6881 86.9345 30.6384 76.1866 29.6719 76.1866C33.167 75.9367 36.8371 76.3658 40.4198 75.6284C44.6398 74.7744 48.6931 72.2916 51.4218 68.2507C54.1754 64.1057 54.8669 58.6651 53.9254 53.916C54.1921 55.2491 68.7725 54.1326 70.443 54.2535C70.0931 59.8399 69.0641 64.4514 70.8846 69.488C71.9344 72.4165 73.7091 75.041 76.471 76.5616C77.9541 77.3697 79.7329 77.3364 81.3451 77.7113C82.6156 78.0071 82.499 78.1821 82.2532 79.4277C80.3036 89.2549 79.4746 99.3404 79.6829 108.509H79.6745Z" fill="#FFE5D8"/>
<path d="M37.4689 101.207C36.3358 105.048 34.5987 112.021 32.7574 115.575C32.7907 114.625 32.8323 110.363 32.7824 109.413C32.6282 106.926 32.2741 103.54 31.191 101.203C31.1077 100.865 30.9535 100.561 30.7661 100.29L30.7494 100.224V100.157C30.7661 100.124 30.7827 100.107 30.7827 100.074C34.2529 92.5251 33.6947 83.8768 30.4453 76.2408C31.1868 76.2158 31.5993 76.2116 31.9367 76.2241C37.6647 80.7399 40.9183 89.534 37.4731 101.207H37.4689Z" fill="#F9CEBC"/>
<path d="M70.4428 55.1492C70.3262 57.0613 70.0887 58.9068 69.9679 60.7523C64.5523 65.8513 57.1121 68.6049 49.8594 70.4171C53.9169 66.0096 55.0917 59.665 53.9711 54.0161C54.1252 54.7785 58.9284 54.7451 63.3317 54.591C66.3436 54.9993 69.1556 55.2867 70.4387 55.1492H70.4428Z" fill="#F9CEBC"/>
<path d="M83.6307 23.3137C83.8474 25.4216 83.4891 27.942 83.3891 29.8374C83.2433 32.5494 82.9684 35.2572 82.5601 37.9442C81.1146 47.4548 80.4272 51.0957 72.0913 56.4364C69.2294 58.2693 65.5551 59.9648 62.2558 59.5274C59.6563 59.1817 57.4609 57.432 55.4404 55.6948C52.7243 53.3578 50.0123 50.8416 48.421 47.5464C47.0754 44.7553 46.6172 41.556 46.6588 38.4066C46.6922 35.7571 47.1671 33.1951 47.4837 30.5706C47.717 28.6168 47.3837 26.4714 47.4378 24.4718C47.7669 11.9118 54.6239 8.99152 67.1006 9.78303C69.5168 9.93717 71.9455 10.3912 74.3076 10.7537C76.6404 11.1119 78.6192 13.3157 80.0648 15.0945C81.9436 17.4024 83.3141 20.2518 83.6307 23.3137Z" fill="#FFE5D8"/>
<path d="M81.2408 36.5621C83.451 35.1486 84.5011 32.8686 85.1693 30.4595C86.972 23.9427 85.7714 17.8895 82.2394 12.2543C77.841 5.23209 71.5333 1.21941 63.6102 0.24664C57.152 -0.543736 50.9214 0.459433 45.583 4.8065C42.767 7.10163 41.1441 10.2859 39.6315 13.5272C38.6255 15.6818 38.0013 17.9769 37.781 20.3632C37.6635 21.659 36.6025 21.4424 35.9049 21.659C32.986 22.571 30.8419 24.3721 29.8322 27.3626C28.8666 30.2239 28.7675 33.2144 29.0905 36.2125C29.4357 39.431 29.8359 42.6419 30.203 45.8566C30.4747 48.2506 29.9974 50.5001 28.94 52.628L28.9841 52.6736C30.7391 52.0466 31.6312 50.5381 32.461 48.9345C34.6052 53.4146 32.5197 58.1949 28.0001 58.7686C29.8249 59.8554 31.5615 60.3418 33.4707 60.1328C33.5771 59.6882 33.9663 59.6084 34.2931 59.4184C35.6259 58.6508 36.8374 57.7047 37.3955 56.1809C39.1799 51.2943 39.5103 46.4076 37.524 41.4412C36.6392 39.2258 35.3138 37.2765 34.3188 35.1372C32.5748 31.3791 33.478 27.621 36.5621 25.8655C37.0247 25.6033 37.6305 24.9801 38.0894 25.7325C38.4566 26.3328 38.6108 27.0434 37.9022 27.7008C36.3932 29.0992 35.9086 30.8775 36.5584 32.8724C37.2523 34.9966 38.5998 36.4975 40.7843 37.0561C40.4355 35.2968 40.3658 33.5412 40.8137 31.7857C40.6154 29.5931 40.4135 27.4044 40.52 25.1967C40.6044 23.4639 40.9679 21.8604 42.3741 20.709C44.0373 19.3449 45.7556 18.0377 47.3417 16.5823C52.0853 12.2315 57.6733 10.8331 63.8415 11.3537C64.0214 11.3689 64.1572 11.4449 64.1352 11.6919C64.0324 11.7337 63.9222 11.8173 63.8084 11.8211C59.1015 12.0301 54.9564 13.6754 51.3436 16.8369C48.9975 18.8889 46.7359 21.1118 43.6371 21.9782C43.6041 21.9858 43.6004 22.1188 43.5747 22.2214C44.2759 22.6508 45.0103 22.4684 45.7556 22.3924C47.4995 22.2214 48.9461 21.203 50.5653 20.6786C50.591 20.6634 50.6167 20.652 50.6424 20.6368C50.6167 20.652 50.5946 20.6672 50.5689 20.6824C48.579 23.7223 47.316 27.0358 47.0186 30.7179C47.1104 31.5311 47.1728 32.3519 47.2976 33.1574C47.5987 35.0802 48.3954 36.7027 49.9558 37.8731C50.0549 37.7705 50.099 37.7439 50.099 37.7135C50.1063 37.5843 50.1137 37.4551 50.1026 37.3297C49.842 33.5146 51.3473 30.5545 54.1964 28.2404C55.0372 27.5564 55.889 26.8876 56.7334 26.2074C56.8839 26.1086 57.0308 26.0098 57.1813 25.9149L57.1226 25.9491L57.1593 26.0061C57.218 25.7249 57.4053 25.6451 57.655 25.6565L57.6366 25.6717C58.2828 24.6343 58.9473 23.6083 59.5752 22.5596C61.3008 19.6754 63.2503 16.9889 66.0958 15.1802C67.2046 14.4772 68.4088 13.9376 69.569 13.322C69.6021 13.7096 69.5029 13.8388 69.3781 13.9224C65.5818 16.5443 62.7363 20.063 60.5812 24.1783C59.9864 25.3145 59.432 26.2644 58.0074 26.101C57.1703 27.2372 56.671 28.5558 56.0175 29.8439C60.5518 29.9123 66.764 27.3246 70.1785 23.9161C72.1207 21.9782 73.7435 19.8084 74.118 16.9091C73.6738 17.1751 73.604 17.6691 73.4461 18.1061C73.2552 18.6343 73.1524 19.1853 72.352 18.9801C71.6802 18.8053 71.3497 18.5165 71.3974 17.7603C71.4525 16.9053 71.4231 16.039 71.4085 15.1802C71.3974 14.5836 71.5406 14.177 72.2235 14.1656C72.9138 14.1542 72.9211 13.7514 72.7045 13.2042C72.565 12.8547 72.5062 12.4671 72.4145 12.0985C73.1488 12.0453 73.7913 12.2239 74.4007 12.7103C76.2438 14.177 77.6464 13.5158 77.9438 11.0801C77.9731 10.8293 77.9291 10.5329 78.2081 10.4037C78.5422 10.2479 78.7588 10.5025 78.9681 10.7039C80.6754 12.3531 81.9788 14.2834 82.7681 16.5709C82.9003 16.9509 83.0472 17.3385 82.5992 17.5931C82.2101 17.8135 81.8282 18.1859 81.3399 17.8173C80.9691 17.5361 80.6276 17.2093 80.2385 16.9623C78.9975 16.1758 77.9217 14.7508 76.1778 15.7388C76.3173 15.8946 76.4384 16.077 76.6 16.2024C81.138 19.7362 82.3936 24.7673 82.39 30.2543C82.39 32.3785 82.0008 34.533 81.2298 36.5583L81.2408 36.5621Z" fill="#353E66"/>
<path d="M42.0362 39.9212C41.6213 38.9675 41.2065 38.0099 40.7916 37.0561C38.6107 36.4975 37.2596 35.0004 36.5657 32.8725C35.9158 30.8813 36.4041 29.103 37.9094 27.7008C38.618 27.0434 38.4638 26.3329 38.0967 25.7325C37.6377 24.9801 37.0356 25.6033 36.5693 25.8655C33.4853 27.621 32.5821 31.3791 34.326 35.1372C35.3173 37.2765 36.6428 39.2221 37.5313 41.4412C39.5176 46.4038 39.1871 51.2943 37.4028 56.1809C36.8447 57.7047 35.6331 58.6509 34.3003 59.4184C33.9736 59.6084 33.5844 59.6882 33.4779 60.1328C34.583 60.0796 35.6955 60.1062 36.7896 59.9618C40.4722 59.483 42.1978 56.5647 42.7852 53.1448C43.3543 49.8465 42.7595 46.6242 42.1868 43.4057C41.9885 42.2886 41.9261 41.1828 42.1574 40.0694H42.1537C42.0509 40.0694 41.9371 40.0846 42.0362 39.9174V39.9212Z" fill="#283156"/>
<path d="M74.8649 15.3474C79.9463 20.5533 81.4957 26.9409 80.7541 34.1075C80.6513 35.0916 80.5558 36.0872 80.7577 37.0752C80.9156 36.9878 81.0735 36.9042 81.2314 36.8168C81.202 36.7902 81.1506 36.756 81.1543 36.7332C81.1653 36.6686 81.202 36.6078 81.2277 36.5432L81.2424 36.5622C82.0134 34.5369 82.4026 32.3823 82.4062 30.262C82.4099 24.775 81.1506 19.7439 76.6163 16.21C76.4547 16.0846 76.3336 15.9022 76.194 15.7464C75.7167 15.7464 75.412 15.1346 74.8723 15.3474H74.8649Z" fill="#283156"/>
<path d="M81.2307 36.543C81.205 36.6076 81.1683 36.6684 81.1573 36.733C81.1536 36.7558 81.2087 36.7862 81.2344 36.8166C81.2344 36.7254 81.2344 36.6342 81.2307 36.543Z" fill="#353E66"/>
<path d="M28.9366 52.6279C28.9109 52.6545 28.8816 52.6773 28.8559 52.7039C28.8999 52.6925 28.9403 52.6849 28.9844 52.6735L28.9403 52.6279H28.9366Z" fill="#353E66"/>
<path d="M40.8168 31.7856C42.6746 28.8635 44.4626 28.5595 47.0217 30.7217C47.3191 27.0396 48.5821 23.7261 50.572 20.6862H50.5684C48.9529 21.2068 47.5026 22.2251 45.7587 22.3961C45.0133 22.4683 44.279 22.6545 43.5778 22.2251C43.6035 22.1225 43.6035 21.9895 43.6402 21.9819C46.739 21.1156 49.0006 18.8926 51.3467 16.8407C54.9595 13.6792 59.1046 12.0339 63.8115 11.8249C63.9253 11.8211 64.0355 11.7375 64.1383 11.6957C64.1603 11.4487 64.0245 11.3727 63.8446 11.3575C57.6764 10.8407 52.0884 12.2352 47.3448 16.5861C45.7587 18.0415 44.0404 19.3486 42.3772 20.7128C40.971 21.8642 40.6075 23.4677 40.5231 25.2004C40.4166 27.4082 40.6222 29.5969 40.8168 31.7894V31.7856Z" fill="#283156"/>
<path d="M74.8688 15.3474C75.4085 15.1347 75.7132 15.7464 76.1905 15.7464C77.9345 14.7585 79.0066 16.1834 80.2512 16.97C80.6404 17.217 80.9818 17.5438 81.3527 17.825C81.841 18.1936 82.2228 17.8212 82.612 17.6008C83.0599 17.3462 82.9131 16.9586 82.7809 16.5786C81.9915 14.2911 80.6845 12.3607 78.9809 10.7116C78.7716 10.5064 78.555 10.2556 78.2209 10.4114C77.9418 10.5406 77.9859 10.8332 77.9565 11.0878C77.6591 13.5235 76.2566 14.1847 74.4135 12.7179C73.804 12.2315 73.1652 12.0529 72.4309 12.1061C72.5263 12.4785 72.5851 12.8623 72.7209 13.2157C72.9376 13.7629 72.9302 14.1695 72.24 14.1771C71.5571 14.1885 71.4139 14.5951 71.4249 15.1917C71.4396 16.0504 71.4689 16.913 71.4139 17.7718C71.3661 18.5318 71.6929 18.8205 72.3685 18.9915C73.1689 19.1967 73.2753 18.6495 73.4626 18.1176C73.6205 17.6806 73.6865 17.1866 74.1345 16.9206C74.4576 16.3088 73.9913 15.5678 74.4282 14.9713C74.6448 15.0055 74.8321 15.0815 74.9055 15.3208L74.8798 15.3436L74.8688 15.3474ZM76.2089 14.3063C76.2529 14.3785 76.2896 14.4317 76.3117 14.4887C76.3153 14.5001 76.2529 14.5609 76.2382 14.5533C76.1832 14.5267 76.1354 14.4849 76.084 14.4507C76.1244 14.4013 76.1648 14.3557 76.2089 14.3025V14.3063Z" fill="#3F4A76"/>
<path d="M57.6423 25.6793C58.138 25.4817 58.2224 25.6641 58.0168 26.1125C59.4413 26.2759 59.9957 25.3259 60.5905 24.1898C62.7457 20.0745 65.5875 16.5596 69.3875 13.9339C69.5123 13.8465 69.6151 13.7173 69.5784 13.3335C68.4182 13.9491 67.2139 14.4887 66.1051 15.1916C63.2597 17.0004 61.3101 19.6831 59.5845 22.571C58.9567 23.6198 58.2922 24.6457 57.646 25.6831L57.6423 25.6793Z" fill="#283156"/>
<path d="M57.1606 26.0137C57.3258 25.8959 57.491 25.7819 57.6562 25.6641C57.4066 25.6527 57.2157 25.7325 57.1606 26.0137Z" fill="#283156"/>
<path d="M56.7396 26.215C56.9452 26.2112 57.1141 26.139 57.1875 25.9224C57.037 26.0212 56.8864 26.1162 56.7396 26.215Z" fill="#283156"/>
<path d="M50.575 20.6862C50.6007 20.671 50.6227 20.6558 50.6484 20.6406C50.6227 20.6558 50.597 20.6672 50.5713 20.6824L50.575 20.6862Z" fill="#283156"/>
<path d="M74.8906 15.3247C74.8172 15.0853 74.6299 15.0093 74.4133 14.9751C74.5712 15.0929 74.7291 15.2107 74.8906 15.3247Z" fill="#283156"/>
<path d="M42.0309 39.9211C41.9318 40.0883 42.0493 40.0731 42.1484 40.0731C42.1374 40.0009 42.097 39.9477 42.0309 39.9211Z" fill="#181925"/>
<path d="M76.2095 14.3062C76.1655 14.3594 76.1251 14.4049 76.0847 14.4543C76.1361 14.4885 76.1838 14.5341 76.2389 14.5569C76.2536 14.5645 76.316 14.5037 76.3123 14.4923C76.2866 14.4315 76.2499 14.3783 76.2095 14.31V14.3062Z" fill="#353E66"/>
<path d="M75.4375 30.5402C74.2948 29.5498 71.3694 28.1633 68.8096 30.5402C71.3236 30.5402 69.7238 28.9403 75.4375 30.5402Z" fill="#444B68"/>
<path d="M53.0909 30.7682C54.1623 29.7011 56.9846 28.1153 59.7029 30.3091C57.1949 30.4833 58.6801 28.7765 53.0909 30.7682Z" fill="#444B68"/>
<path d="M66.016 36.9397C66.7016 37.1682 71.044 43.339 65.7874 45.396C66.854 44.2532 68.3929 40.9621 66.016 36.9397Z" fill="#444B68"/>
<path d="M58.75 48.0705L68.8061 47.9099C68.8061 47.9099 68.3616 51.8211 63.8061 51.5535C59.2505 51.2855 58.75 48.071 58.75 48.071V48.0705Z" fill="white"/>
<path d="M71.0978 37.3966C71.8552 37.3966 72.4691 36.3734 72.4691 35.1112C72.4691 33.8489 71.8552 32.8257 71.0978 32.8257C70.3405 32.8257 69.7266 33.8489 69.7266 35.1112C69.7266 36.3734 70.3405 37.3966 71.0978 37.3966Z" fill="#444B68"/>
<path d="M56.0119 37.3966C56.7692 37.3966 57.3832 36.3734 57.3832 35.1112C57.3832 33.8489 56.7692 32.8257 56.0119 32.8257C55.2546 32.8257 54.6406 33.8489 54.6406 35.1112C54.6406 36.3734 55.2546 37.3966 56.0119 37.3966Z" fill="#444B68"/>
<path d="M44.4916 29.0001C43.4668 28.9876 41.8338 29.9083 40.6632 30.4832C40.2341 30.6956 39.9841 31.0789 40.0008 31.5038C40.0716 33.3659 40.0508 35.3697 40.5298 37.2027C40.8714 38.5233 40.2216 40.2146 40.8173 41.4727C41.2464 42.3767 41.9337 43.0265 42.8211 43.7181C43.3835 44.1555 44.175 44.3138 44.8832 44.1388C46.7953 43.6639 48.5824 43.2557 48.6616 41.2894C48.7616 38.8482 48.5866 36.2445 48.4575 33.7908C48.4158 33.0243 48.6866 31.7746 48.1492 31.0872C47.6451 30.4457 45.4122 29.0085 44.4916 29.0001Z" fill="#FFE5D8"/>
<path d="M46.6447 38.8816C46.6239 40.1231 45.4658 41.452 44.6326 41.5269C43.1954 41.6561 42.1122 39.1941 42.8121 37.9401C43.8327 36.1113 46.6738 36.932 46.6405 38.8858L46.6447 38.8816Z" fill="#F9CEBC"/>
<path d="M43.9297 40.3312C42.53 39.9271 42.4217 38.0525 42.2634 37.0402C42.1884 36.5903 42.0218 35.5447 42.6716 33.3826C42.8174 32.8994 43.0049 32.3995 43.384 32.0037C44.1963 31.1705 45.5127 31.2497 45.9627 32.0829C46.0876 32.3078 46.1043 32.5494 46.0126 32.7619C45.9335 32.9577 45.6294 32.8369 45.7169 32.6369C45.871 32.2703 45.4253 31.8412 44.9837 31.7621C44.5129 31.6746 43.9714 31.8579 43.6131 32.2287C43.2965 32.5536 43.134 32.9618 42.9757 33.4742C42.38 35.4572 42.4967 36.2904 42.5966 37.1194C42.7008 38.0442 42.8924 39.6939 44.013 40.0188C44.4046 40.1313 44.8504 40.0896 45.1836 39.9105C45.3753 39.8105 45.5252 40.0938 45.3378 40.1979C45.0795 40.3354 44.3921 40.4645 43.9256 40.3312H43.9297Z" fill="#F9CEC0"/>
<path d="M123.646 92.5251C117.976 102.619 108.707 115.887 99.3129 122.578C97.5716 123.815 95.6261 125.031 93.489 125.006C92.081 124.985 90.8771 124.602 89.8523 123.961C85.6531 121.324 84.2742 114.213 83.1994 108.959C81.4831 100.94 80.7582 92.7084 81.0456 84.5059C81.1748 80.8399 80.9207 76.2408 85.3865 76.1117C88.9983 76.0075 92.9683 77.3823 94.6846 80.7483C96.1135 83.5477 96.0844 85.2682 97.9382 102.94C98.7463 102.123 108.899 92.6584 112.864 88.5217C112.873 88.5092 112.885 88.5009 112.894 88.4884C113.723 87.6136 113.618 87.7177 113.631 87.7094C114.327 86.9512 114.71 86.4596 114.643 86.3555C117.255 89.6215 119.984 89.0508 122.621 91.4337C123.308 92.0502 123.491 92.3751 123.646 92.5293V92.5251Z" fill="#FFE5D8"/>
<path d="M93 77.5C91.8 76.3 79.8333 74.3333 74 73.5L86.5 107C90.1667 105.833 97.6 103.5 98 103.5C98.5 103.5 97.5 90.5 96.5 86.5C95.5 82.5 94.5 79 93 77.5Z" fill="#426FC4"/>
<path d="M124.285 98.7865C123.239 99.2864 121.952 99.5946 120.819 99.353C115.745 108.185 108.942 116.021 100.923 122.299C97.5274 124.948 94.453 126.577 90.533 124.802C87.2045 123.302 85.2423 120.261 83.3594 117.125C85.3215 113.513 86.113 109.434 88.0751 105.823C88.9124 104.269 89.5748 103.165 91.187 102.507C94.3031 101.24 96.186 102.782 100.189 99.3364C103.56 96.4494 106.809 93.0459 110.171 90.1632C109.009 89.6174 108.584 87.9136 109.358 86.8888C110.129 85.8557 111.883 85.789 112.737 86.7513C113.358 87.4554 113.462 88.4552 113.633 89.3758C113.812 90.2923 114.178 91.3046 115.041 91.6712C115.853 92.0253 116.782 91.6712 117.632 91.3921C118.477 91.113 119.527 90.9463 120.16 91.5754C121.044 92.4377 120.46 94.1374 121.356 94.9872C122.306 95.8829 124.085 95.0705 125.047 95.9495C125.901 96.7285 125.326 98.2866 124.28 98.7865H124.285Z" fill="#426FC4"/>
<path d="M90.8954 105.473C90.1872 108.505 89.7706 111.592 89.6873 114.833C89.604 118.17 89.8873 121.52 90.533 124.802C87.2045 123.303 85.2423 120.261 83.3594 117.125C85.3215 113.513 86.113 109.434 88.0751 105.823C88.9124 104.269 89.5748 103.165 91.187 102.507C91.8535 103.506 91.1537 104.435 90.8912 105.473H90.8954Z" fill="#305FAD"/>
<path d="M89.2684 105.589C89.1351 105.856 89.3143 106.826 87.0855 111.78C84.0695 118.507 83.4529 120.161 85.0651 132.492C85.4525 135.729 84.5027 135.608 81.4658 136.65C80.6368 136.937 79.7786 137.145 78.9371 137.329C70.1847 139.241 61.1198 139.603 52.2465 138.412C48.6764 137.929 45.1229 137.191 41.8361 135.746C41.3987 135.533 35.8581 132.596 35.629 132.596C35.329 129.418 35.479 125.744 34.5 122.686C33.4502 119.378 31.2882 116.179 30.2967 112.925C28.6595 107.73 30.1009 101.444 30.43 95.8578C30.7758 89.2924 30.43 82.6937 29.3594 76.2158C31.4215 75.6742 33.3794 75.191 35.4915 75.191C36.7288 74.9035 37.8702 74.966 39.0783 74.7244C40.553 74.4245 41.9402 73.4455 43.5066 73.8829C46.5685 74.7369 46.3019 79.1902 56.8956 94.2789C58.487 96.541 60.4949 100.503 62.3654 99.6404C62.8028 99.4279 63.0736 98.9946 63.3277 98.5697C70.4221 86.4013 71.3178 80.1484 73.7507 73.658C74.5172 73.7788 75.3004 73.7163 76.0835 73.8246C77.2458 74.0412 78.0165 74.6161 79.0663 74.8785C80.8409 75.3451 83.6279 75.4951 85.0901 77.1239C86.1316 78.3279 85.6192 79.8942 85.7233 81.3731C86.1566 89.359 90.8556 97.4033 89.2643 105.593L89.2684 105.589Z" fill="#426FC4"/>
<path d="M27.0462 169.268C28.196 170.797 31.0079 172.022 32.6576 172.947C45.4718 180.15 61.3311 181.628 75.1243 176.979C80.1441 175.288 86.2013 173.693 89.6339 169.352C94.1247 163.674 92.6 155.967 91.8001 149.376C90.8503 141.541 88.8424 133.738 84.3974 127.131C80.0066 131.468 73.2496 132.638 67.08 132.855C56.3988 133.226 45.4926 131.597 35.3612 128.206C35.2113 128.151 30.508 145.236 30.0415 147.685C29.0458 152.972 28.046 158.258 27.0795 163.553C26.6921 165.661 25.7965 167.598 27.0504 169.268H27.0462Z" fill="#E8DDD9"/>
<path d="M33.5234 134.459C37.0436 136.637 41.047 138.079 45.092 139.049C59.3434 142.453 74.8611 140.199 87.5753 132.926C86.6838 130.922 85.634 128.985 84.3926 127.135C80.0018 131.472 73.2448 132.642 67.0752 132.859C56.3939 133.23 45.4878 131.601 35.3564 128.21C35.2481 128.172 34.9981 129.447 34.4441 131.28C34.165 132.209 33.8525 133.292 33.5234 134.463V134.459Z" fill="#DACFCD"/>
<path d="M36.9739 154.734C34.0245 151.268 32.0457 146.877 31.4084 142.365C31.375 142.124 31.7458 142.057 31.7833 142.311C32.4123 146.748 34.3578 151.072 37.2614 154.488C37.4238 154.68 37.1364 154.921 36.9739 154.734Z" fill="#DACFCD"/>
<path d="M30.3868 156.687C28.8079 156.096 26.9124 153.83 27.2874 151.901C27.4082 151.264 27.7581 150.676 27.7789 150.03C27.8206 148.76 26.4542 147.402 27.0916 146.223C27.3832 145.685 28.0872 145.535 28.4621 145.048C28.8704 144.515 28.8162 143.782 28.8662 143.111C28.9287 142.299 29.312 142.045 29.7702 141.474C30.1743 140.974 30.62 140.066 30.6159 139.428C30.6117 138.633 30.2576 137.958 30.7034 137.187C31.0991 136.504 31.9115 136.204 32.6613 135.954C33.3653 135.858 34.186 135.554 34.8775 135.367C36.5605 134.908 38.1769 133.442 39.0142 134.113C39.2434 134.296 39.3392 134.613 39.3225 134.908C39.3058 135.204 39.1809 135.483 39.0476 135.746C37.9811 137.804 35.8315 139.133 33.532 139.22C35.4066 140.978 37.5104 142.84 40.1723 143.186C40.8472 143.273 41.6096 143.303 42.072 143.803C42.4885 144.252 42.4969 144.981 42.1969 145.519C41.5637 146.644 40.1473 146.773 38.9434 146.835C39.9974 146.939 42.3886 147.927 42.1053 149.343C41.8512 150.601 39.1017 151.001 38.1102 151.026C39.2017 151.48 42.4011 152.097 40.5848 153.992C39.8516 154.759 38.5976 154.467 37.6437 154.63C38.4852 155.321 39.5766 156.8 38.1269 157.533C37.752 157.721 37.3271 157.775 36.9105 157.808C34.3193 158.004 32.5155 157.487 30.3868 156.687Z" fill="#FFE5D8"/>
<path d="M30.5644 137.104C30.9768 136.392 31.7725 136.079 32.614 135.796C33.1222 135.725 33.6555 135.563 34.1762 135.404C35.2468 135.079 35.2552 135.138 36.6257 134.454C37.4506 134.046 38.4712 133.459 39.1294 133.988C39.3835 134.192 39.5252 134.542 39.5002 134.925C39.4835 135.167 39.1502 135.113 39.1627 134.904C39.1794 134.638 39.0877 134.384 38.9169 134.25C38.2087 133.671 36.5716 135.092 34.9302 135.538C34.2387 135.725 33.4139 136.029 32.689 136.129C31.9391 136.383 31.2101 136.667 30.856 137.279C30.7435 137.471 30.4519 137.304 30.5644 137.108V137.104Z" fill="#F9CEC0"/>
<path d="M27.2836 152.068C27.2836 152.068 27.2627 152.068 27.2502 152.068C27.1586 152.051 27.1003 151.963 27.1169 151.872C27.1669 151.597 27.2627 151.334 27.3502 151.08C27.8543 149.626 27.5627 149.526 26.9919 148.023C26.8295 147.589 26.6045 146.769 26.9378 146.144C27.2627 145.544 27.9668 145.415 28.3209 144.948C28.6208 144.557 28.6458 144.036 28.6708 143.482C28.7249 142.344 28.8624 142.29 29.6664 141.332L29.7164 141.316C30.0164 141.224 30.2621 140.861 30.3288 140.566C30.4204 140.166 30.3621 139.878 30.1538 138.174C30.1288 137.954 30.4579 137.916 30.4913 138.133C30.7329 140.078 30.762 140.212 30.6621 140.641C30.5787 141.016 30.2788 141.466 29.8705 141.615C29.4123 142.174 29.0874 142.39 29.0332 143.119C28.9832 143.828 29.0332 144.569 28.5958 145.144C27.9668 145.965 26.5462 145.848 27.3127 147.893C27.5752 148.585 27.9709 149.26 27.9459 150.026C27.9251 150.71 27.5752 151.297 27.4502 151.926C27.4335 152.005 27.3669 152.063 27.2836 152.063V152.068Z" fill="#F9CEC0"/>
<path d="M33.9318 157.871C32.632 157.683 31.4364 157.258 30.3283 156.842C30.12 156.763 30.2367 156.45 30.445 156.525C32.5112 157.3 34.3192 157.837 36.8937 157.637C37.3519 157.604 37.7227 157.546 38.0476 157.379C38.4184 157.192 38.6225 156.942 38.6559 156.638C38.7225 156.034 38.1393 155.259 37.5311 154.759L37.2478 154.526L37.6102 154.463C38.5642 154.301 39.7848 154.576 40.4555 153.876C41.7094 152.568 40.4013 151.993 38.685 151.414C37.8852 151.143 38.1226 151.205 37.3144 150.88L38.0976 150.86C39.2099 150.826 41.7177 150.393 41.9344 149.31C42.176 148.106 40.0597 147.119 38.9225 147.006L38.9308 146.669C40.0681 146.61 41.447 146.506 42.051 145.436C42.3343 144.932 42.2926 144.29 41.9469 143.919C41.5844 143.528 40.9846 143.457 40.4055 143.39L40.1514 143.361C37.5061 143.015 35.4565 141.266 33.4194 139.349C33.2611 139.199 33.4819 138.949 33.6485 139.104C35.6481 140.982 37.6519 142.695 40.1972 143.028C41.0929 143.132 41.7427 143.203 42.1968 143.694C42.6384 144.173 42.7009 144.977 42.3468 145.606C41.8802 146.431 40.9471 146.802 40.0014 146.927C43.055 148.014 43.4424 150.556 38.8975 151.135C39.839 151.455 41.0679 151.893 41.272 152.713C41.3762 153.143 41.1887 153.613 40.7054 154.113C40.0098 154.838 38.9558 154.696 38.0351 154.759C39.5765 156.263 39.3349 157.796 36.9229 157.979C36.5854 158.004 34.9358 158.021 33.9359 157.875L33.9318 157.871Z" fill="#F9CEC0"/>
<path d="M37.1887 147.173C35.6015 147.023 32.448 145.477 30.8858 144.527C30.6983 144.415 30.8691 144.123 31.0608 144.24C32.5563 145.152 34.1518 145.906 35.8015 146.481C36.6972 146.794 37.722 147.077 38.5843 146.598C38.7759 146.485 38.9467 146.781 38.7509 146.894C38.2802 147.156 37.722 147.227 37.1887 147.173Z" fill="#F9CEC0"/>
<path d="M33.7696 150.693L29.2497 148.343C29.0455 148.239 29.2122 147.943 29.4038 148.043L33.9279 150.393C35.3193 151.114 37.0481 151.047 37.9563 150.947C38.1771 150.926 38.2146 151.255 37.9938 151.28C37.6897 151.313 35.0069 151.334 33.7738 150.693H33.7696Z" fill="#F9CEC0"/>
<path d="M32.534 154.417C31.1801 153.692 29.8303 152.917 28.5264 152.109C28.339 151.993 28.5098 151.705 28.7014 151.822C30.0011 152.626 31.3425 153.396 32.6923 154.117C33.9337 154.784 35.2293 154.988 36.4374 154.717C37.583 154.459 37.8371 154.213 37.9121 154.484C37.9371 154.571 37.8871 154.667 37.7954 154.692C37.2872 154.842 36.8748 154.967 36.5082 155.046C35.1501 155.35 33.7754 155.079 32.534 154.413V154.417Z" fill="#F9CEC0"/>
<path d="M58.7003 133.042C50.781 132.367 42.9951 130.28 35.4591 128.26C35.2258 128.197 35.3341 127.852 35.5507 127.918C50.6144 131.955 67.1945 136.175 81.8208 129.197C82.0291 129.093 82.1832 129.414 81.9749 129.514C74.7972 132.938 66.6529 133.725 58.7003 133.042Z" fill="#6F7FF0"/>
</svg>
