<svg width="190" height="191" viewBox="0 0 190 191" fill="none" xmlns="http://www.w3.org/2000/svg">
<path d="M114.5 68.5C114.5 68.9 119.5 71.6667 122 73C124.833 70.5 130.9 65.2 132.5 64C134.1 62.8 128.833 51.5 126 46L111 56.5C112.167 60.3333 114.5 68.1 114.5 68.5Z" fill="#283156"/>
<path d="M141.067 183.998C140.025 184.972 138.851 185.756 137.588 186.389C134.976 187.701 131.998 188.397 129.09 188.884C120.846 190.267 112.406 190.438 104.112 189.388C99.0459 188.742 93.9511 187.609 89.5062 185.093C86.9483 183.639 84.6821 181.702 82.8949 179.361C81.0037 176.878 80.7079 175.195 80.8579 172.037C81.1828 165.218 84.1572 158.961 86.4609 152.625C103.008 149.888 119.142 150.188 135.81 152.021C138.547 157.949 141.442 164.164 143.146 170.346C144.495 175.249 145.17 180.14 141.059 183.998H141.067Z" fill="#426FC4"/>
<path d="M141.067 183.998C140.025 184.972 138.851 185.756 137.588 186.389C137.843 175.941 130.827 166.634 118.575 164.743C116.755 164.464 112.231 164.172 113.668 161.344C114.918 158.882 120.804 156.878 123.225 155.878C127.778 154.004 132.448 153.17 137.076 154.758C139.392 159.811 141.696 165.051 143.154 170.346C144.504 175.249 145.179 180.14 141.067 183.998Z" fill="#305FAD"/>
<path d="M157.186 167.217C157.186 167.217 155.441 167.717 152.65 164.326C149.859 160.935 154.941 158.894 154.941 158.894L157.432 158.344C157.432 158.344 158.032 165.672 157.182 167.217H157.186Z" fill="#444B68"/>
<path d="M87.1315 82.5135C88.4479 89.1956 89.2394 95.5651 89.6477 102.072C90.385 114.62 89.1811 114.486 90.7433 117.386C93.1886 121.972 97.1087 126.422 102.603 126.917C109.21 127.501 115.318 128.85 122.025 128.288C131.669 127.396 130.431 127.471 130.581 127.434C133.035 126.809 134.489 124.076 135.493 121.785C140.438 110.712 139.68 109.425 141.467 106.213C141.962 105.322 142.391 105.134 142.358 104.038C142.308 102.705 141.862 101.302 141.708 99.9809C141.367 97.244 141.263 94.4862 141.383 91.7492C141.45 90.5869 142.562 79.035 143.608 79.035C143.35 79.0184 143.095 78.9851 142.821 78.9684C142.208 78.9476 141.658 78.9351 141.229 78.9517C138.167 78.9184 135.085 79.0559 132.089 78.4393H132.056C128.24 77.6687 124.578 75.5774 121.979 72.7238C117.63 68.0205 116.417 61.4177 117.563 55.1147C117.263 56.5561 101.633 55.348 99.8165 55.473C100.054 59.4806 100.233 60.0013 100.383 62.3508C100.571 65.4669 100.521 68.5621 99.3374 71.8323C98.2668 74.5109 97.0087 76.848 94.5967 78.6268C92.0764 80.4889 90.6433 80.0807 88.1105 80.6806C86.7399 80.9888 86.8607 81.1763 87.1357 82.5135H87.1315Z" fill="#FFE5D8"/>
<path d="M99.2268 72.0737C99.3726 71.8279 101.385 71.7571 101.73 71.6988C104.367 71.2531 106.925 70.6407 109.454 69.6075C114.853 67.3996 118.415 61.3175 117.369 55.0312C117.657 56.7726 112.824 57.5932 111.579 57.8557C107.796 58.6764 103.93 59.0888 100.081 59.0888C100.185 60.1844 100.302 61.2634 100.372 62.359C100.56 65.475 100.51 68.5703 99.3268 71.8404C99.2935 71.9279 99.2768 71.9946 99.2227 72.0779L99.2268 72.0737Z" fill="#F9CEBC"/>
<path d="M87.7638 23.1542C87.3347 25.3871 87.4721 28.1157 87.4013 30.157C87.0931 38.8386 87.9887 48.0951 93.3668 55.277C96.4954 59.4554 101.424 64.1545 107.022 63.9087C109.814 63.7837 112.313 62.1174 114.625 60.451C120.907 55.9102 124.382 52.3276 125.423 44.4208C125.777 41.7214 126.481 39.0927 126.731 36.3641C127.243 30.6944 126.539 24.908 124.632 19.5424C121.836 11.6689 114.084 10.415 106.602 10.2317C104.023 10.1692 101.399 10.4275 98.8574 10.5941C96.3496 10.7566 94.0375 12.9312 92.3337 14.6975C90.1175 16.9887 88.397 19.909 87.7679 23.1583L87.7638 23.1542Z" fill="#FFE5D8"/>
<path d="M92 30.7851C93.3243 29.6374 96.7146 28.0305 99.681 30.7851C96.7675 30.7851 98.6216 28.931 92 30.7851Z" fill="#444B68"/>
<path d="M117.895 31.0495C116.653 29.8128 113.382 27.975 110.232 30.5175C113.139 30.7193 111.417 28.7413 117.895 31.0495Z" fill="#444B68"/>
<path d="M102.918 38.2017C102.123 38.4665 97.0906 45.6178 103.182 48.0016C101.946 46.6773 100.163 42.8633 102.918 38.2017Z" fill="#444B68"/>
<path d="M111.336 51.1011L99.6819 50.915C99.6819 50.915 100.197 55.4477 105.476 55.1376C110.756 54.8269 111.336 51.1017 111.336 51.1017V51.1011Z" fill="white"/>
<path d="M97.0319 38.7314C96.1542 38.7314 95.4427 37.5455 95.4427 36.0827C95.4427 34.6199 96.1542 33.4341 97.0319 33.4341C97.9096 33.4341 98.6211 34.6199 98.6211 36.0827C98.6211 37.5455 97.9096 38.7314 97.0319 38.7314Z" fill="#444B68"/>
<path d="M114.512 38.7314C113.635 38.7314 112.923 37.5455 112.923 36.0827C112.923 34.6199 113.635 33.4341 114.512 33.4341C115.39 33.4341 116.102 34.6199 116.102 36.0827C116.102 37.5455 115.39 38.7314 114.512 38.7314Z" fill="#444B68"/>
<path d="M94.9307 78.114C94.9307 78.114 94.9141 78.0807 94.9141 78.0474V78.1973L94.9307 78.114Z" fill="#64677A"/>
<path d="M125.357 29.157C126.974 27.7948 129.277 26.3784 131.435 27.1949C134.472 28.3447 133.868 31.819 133.264 34.3685C132.885 35.9765 133.068 37.9053 132.993 39.555C132.956 40.409 132.918 40.8672 132.402 41.5546C131.973 42.1253 131.427 42.6044 130.873 43.0543C130.286 43.5334 129.444 43.7209 128.682 43.5417C126.632 43.0668 124.72 42.6586 124.595 40.5506C124.441 37.9303 124.57 35.135 124.662 32.4981C124.691 31.6732 124.374 30.336 124.937 29.5903C125.049 29.4445 125.191 29.2987 125.362 29.157H125.357Z" fill="#FFE5D8"/>
<path d="M131.138 36.1723C131.138 36.1723 131.125 36.1723 131.121 36.1723C131.017 36.164 130.942 36.0681 130.95 35.9682C130.95 35.9265 130.959 35.8807 130.967 35.8223C131.033 35.3641 131.183 34.2935 130.471 32.0648C130.396 31.819 130.759 31.719 130.829 31.9481C131.483 33.9977 131.446 35.01 131.325 36.0015C131.317 36.1015 131.233 36.1723 131.138 36.1723Z" fill="#F9CEC0"/>
<path d="M129.772 30.7444C129.385 30.357 128.81 30.1737 128.318 30.2695C127.872 30.357 127.398 30.8152 127.568 31.2027C127.672 31.4318 127.323 31.5859 127.223 31.3568C127.123 31.1277 127.135 30.8611 127.264 30.6111C127.756 29.6696 129.176 29.6155 130.039 30.4778C130.455 30.8944 130.668 31.4318 130.83 31.9484C130.859 32.0483 130.805 32.1525 130.709 32.1858C130.322 32.3066 130.505 31.4818 129.772 30.7444Z" fill="#F9CEC0"/>
<path d="M126.693 37.9303C126.722 38.7427 127.164 39.5009 127.763 40.1174C129.792 42.1837 131.713 38.5011 130.754 36.8472C129.626 34.9018 126.618 35.8349 126.693 37.9303Z" fill="#F9CEBC"/>
<path d="M129.514 39.0884C130.693 38.7218 130.86 36.9513 130.947 36.0015L131.139 35.9849L131.326 36.0015C131.226 37.0763 131.047 39.0093 129.627 39.4508C129.377 39.5175 129.285 39.1634 129.514 39.0884Z" fill="#F9CEC0"/>
<path d="M79.9758 123.509C82.0379 114.307 84.604 101.135 85.1164 90.6325C85.1248 90.495 85.2289 90.4075 85.3789 90.395C85.5163 90.4034 85.6205 90.52 85.6163 90.6575C85.0998 101.193 82.5294 114.394 80.4632 123.618C80.3923 123.943 79.9049 123.83 79.9758 123.509Z" fill="#DACFCD"/>
<path d="M81.618 80.4889C72.2407 78.0018 63.4216 88.0165 60.4055 96.794C57.9393 103.963 59.1224 114.061 55.1523 120.523C62.6092 121.897 69.512 123.48 75.2942 128.379C75.9108 128.9 72.1157 142.273 72.9239 142.26C74.1569 142.243 79.3934 128.138 79.8767 127.005C83.001 119.664 85.2131 111.933 86.4379 104.047C87.0586 100.06 87.4252 95.9775 86.767 91.9949C86.1088 88.0124 84.6965 83.1008 81.618 80.4889Z" fill="#E4F0FF"/>
<path d="M141.377 113.095C141.377 113.095 141.373 113.099 141.373 113.103C140.26 116.094 138.719 118.998 137.253 122.047C137.186 122.172 137.132 122.301 137.073 122.426C135.411 125.946 133.212 129.896 132.841 133.853C132.245 140.069 135.27 146.53 137.728 152.016C125.397 159.456 110.391 162.26 96.1898 159.981C93.0238 159.477 89.9119 158.757 86.7667 158.286C82.2926 157.615 83.6548 155.416 84.3255 151.629C85.0754 147.38 86.0377 142.747 85.8877 138.273C85.5919 129.321 80.9262 126.755 78.5975 120.668C77.3102 117.315 76.8603 113.611 77.431 110.058C78.4641 103.617 82.9716 96.8313 82.8924 91.1074C82.8258 86.3083 80.772 83.6588 80.5179 82.5341C80.3929 82.0175 80.4263 81.4135 80.7804 80.9844C81.1886 80.5095 81.8593 80.3803 82.5009 80.297C85.3336 79.8846 88.2789 79.7555 91.0658 79.1222C92.2739 78.864 95.9565 77.2768 97.098 76.0728C97.9312 79.4263 98.606 83.5089 100.156 86.6208C101.272 88.8703 102.905 90.9532 105.155 92.053C109.616 94.2318 115.224 91.8281 118.265 87.9122C121.31 83.9963 121.901 78.539 122.922 73.6816C131.787 79.6888 135.695 77.2893 137.79 78.0266C139.885 78.7765 138.756 81.076 138.148 82.5007C134.882 90.1118 141.31 96.0398 142.639 103.134C143.268 106.534 142.568 109.845 141.368 113.095H141.377Z" fill="#E4F0FF"/>
<path d="M84.3578 151.941C102.404 155.503 119.126 154.674 136.739 149.379C138.364 149.046 140.967 156.049 139.339 156.382C121.259 164.922 101.988 167.451 83.4871 159.869C82.2499 159.731 83.1163 151.808 84.3578 151.945V151.941Z" fill="#273454"/>
<path d="M124.21 89.5993C123.948 91.3907 123.19 93.2528 122.656 94.9941C122.123 96.7354 121.511 98.4601 120.623 100.056C118.994 102.997 117.003 105.65 114.741 108.137C113.412 102.751 110.925 97.5603 107.643 93.0862C107.122 93.8318 106.409 94.7108 105.901 95.4649C103.298 99.3308 100.848 103.184 98.6818 107.317C93.4329 100.047 91.9915 90.8241 93.337 81.7759C93.5162 80.5345 93.6536 79.1806 94.0619 77.9725C95.2408 77.4267 96.4614 76.7477 97.103 76.0728C97.9361 79.4263 98.611 83.5089 100.161 86.6208C101.277 88.8703 102.91 90.9532 105.16 92.053C109.621 94.2318 115.229 91.8281 118.27 87.9122C121.315 83.9963 121.906 78.539 122.927 73.6816C123.531 74.0899 124.135 74.4815 124.76 74.8522C124.972 75.6438 125.01 76.5103 125.014 77.3351C125.047 81.426 124.814 85.5543 124.206 89.5993H124.21Z" fill="#426FC4"/>
<path d="M77.0938 75.968C80.5784 70.7282 82.5385 64.9076 83.3798 58.7327C83.7385 56.1064 84.1314 53.4331 83.636 50.7556C83.6018 50.5677 83.6018 50.367 83.6018 50.1748C83.6488 43.2183 83.0808 36.2747 83.2474 29.3182C83.4396 21.3368 86.51 14.5298 91.5875 8.50431C94.7774 4.71648 98.6678 1.97916 103.498 0.791987C108.776 -0.506212 114.003 -0.228637 119.106 1.77418C120.455 2.30371 121.95 2.15424 123.321 2.80334C127.98 5.00259 130.845 8.88438 133.185 13.206C135.662 17.7839 137.024 22.6777 137.4 27.9346C137.819 33.7936 138.105 39.644 138.276 45.5115C138.472 52.199 138.613 58.9077 139.92 65.5183C140.432 68.119 141.269 70.5446 143.473 72.7694C141.389 72.4492 140.718 71.0228 139.655 70.1303C139.587 68.8321 138.822 67.7603 138.511 66.5389C136.866 60.0351 136.328 53.3691 135.568 46.7329C135.321 44.572 135.116 42.407 134.864 40.0241C134.112 45.2638 134.462 50.32 134.176 55.3462C133.997 58.532 133.894 61.7433 133.745 64.9375C133.681 66.3169 133.523 67.7304 133.373 69.1225C133.104 71.6335 132.353 74.0506 132.062 76.5487C130.956 78.8249 129.807 81.0754 127.519 82.4376C126.942 82.7792 126.387 83.1764 125.494 83.2746C126.357 81.8953 127.531 80.8234 127.724 79.2476C127.762 79.1323 127.805 79.017 127.847 78.8974C127.775 78.9871 127.698 79.0725 127.625 79.1622C127.322 79.474 126.985 79.7601 126.72 80.1017C124.03 83.5778 120.46 84.5002 115.877 83.7529C120.78 81.4511 121.86 77.3815 122.057 72.7823C120.02 74.9986 117.863 76.9843 114.43 77.8683C121.937 70.8648 122.27 62.102 122.027 53.1683L122.04 53.1769C122.176 53.147 122.381 53.1513 122.176 52.9335C122.364 52.4424 122.659 52.0153 122.676 51.4388C122.736 49.3976 122.744 47.3435 122.992 45.3194C123.432 41.745 122.232 39.1828 119.217 37.0562C115.438 34.3914 113.213 30.5182 112.171 25.9788C111.411 22.6692 110.71 19.334 109.544 16.1312C109.762 15.8707 109.506 15.8878 109.369 15.8366C109.139 15.5547 108.912 15.2729 108.682 14.9953C108.135 13.1804 105.906 10.7719 104.578 10.9256C102.063 11.216 99.4151 10.9128 97.1005 12.2922C96.2977 12.7704 95.2557 12.9797 94.9653 14.0772C97.0621 12.6466 99.5304 12.7064 101.896 12.369C102.289 12.3135 102.938 12.1512 102.968 12.7363C103.002 13.364 102.34 13.1804 101.952 13.1889C97.4592 13.253 94.2522 15.6658 91.485 18.8899C91.1348 19.2999 91.1391 19.7739 91.1989 20.265L91.2202 20.2436C91.1818 20.2607 91.1134 20.2735 91.1092 20.2949C91.1006 20.3632 91.1177 20.4315 91.122 20.4998C90.0928 22.3062 89.2943 24.1895 88.7605 26.2136C87.8594 29.6257 87.9192 33.0975 87.9534 36.5736C87.7142 36.7828 87.6929 37.069 87.6459 37.3636C86.9028 42.2105 87.3897 47.0745 87.7655 51.8958C88.2224 57.7419 89.1491 63.5667 88.7904 69.4428C88.517 73.8926 87.3171 78.0562 83.8025 81.1907C83.3413 81.6006 82.7947 81.9849 82.6666 82.6682C81.2488 83.091 79.8054 83.0654 77.982 82.933C81.9193 79.3373 83.5335 74.926 83.8751 69.5709C82.9485 70.835 82.2737 71.8556 81.5008 72.7951C80.3222 74.2171 79.0282 75.5153 77.1792 76.0576L77.0938 75.9722V75.968ZM130.427 18.8856C130.303 18.0316 129.825 16.9682 129.406 15.8836C128.828 14.3889 127.859 13.9861 126.498 14.675C126.28 14.7861 126.054 14.8757 125.849 14.9996C125.195 15.3882 124.025 15.0935 123.842 15.8707C123.697 16.4942 124.303 17.2842 124.555 18.0102C125.793 21.5717 126.161 21.7254 129.632 20.1241C129.807 20.0429 129.991 19.9746 130.166 19.8977C130.486 19.7611 130.572 19.5134 130.427 18.8856ZM116.42 22.2464C116.582 21.3881 117.082 21.307 117.744 21.5205C118.551 21.781 119.388 21.623 120.208 21.6742C120.827 21.7126 121.1 21.5162 120.985 20.8372C120.729 19.2871 120.105 17.8607 119.597 16.396C119.529 16.1953 119.268 15.922 119.102 15.922C117.364 15.922 115.754 15.2046 113.819 14.8074C114.934 17.344 115.536 19.744 116.42 22.2422V22.2464ZM88.0174 20.4102C88.1583 20.3119 88.4103 20.2137 88.5256 20.0301C89.7341 18.0529 90.9896 16.1099 92.6337 14.4487C93.0693 14.0089 92.6337 13.6544 92.3262 13.3555C92.0017 13.0395 91.6344 12.7448 91.2117 13.2017C89.5334 15.0252 88.0857 16.9939 87.3 19.3895C87.0907 20.0301 87.3427 20.2906 88.0174 20.4102Z" fill="#353E66"/>
<path d="M87.9504 36.5693C88.544 39.8191 89.1931 43.0603 89.7141 46.3229C90.7518 52.8481 94.5268 57.4345 99.8776 60.9447C100.159 61.1326 100.45 61.312 100.736 61.4956C101.001 67.709 99.9887 73.6107 96.0685 78.6498C94.2749 80.9558 91.7682 82.318 88.8088 82.9202C90.833 80.6611 92.46 78.2355 92.7845 75.0883C90.5298 79.158 87.327 81.891 82.668 82.6639C82.7961 81.9807 83.3427 81.6006 83.8039 81.1864C87.3184 78.0519 88.5184 73.8883 88.7917 69.4385C89.1547 63.5582 88.2237 57.7377 87.7668 51.8915C87.391 47.0702 86.9042 42.2105 87.6472 37.3594C87.6942 37.0647 87.7113 36.7786 87.9547 36.5693H87.9504ZM93.0493 74.3239L93.1133 74.2257L93.0109 74.2128L93.0493 74.3281V74.3239Z" fill="#283156"/>
<path d="M132.065 76.5447C132.356 74.0465 133.107 71.6295 133.376 69.1185C133.526 67.7263 133.679 66.3128 133.748 64.9335C133.897 61.7392 134 58.5322 134.179 55.3422C134.465 50.3117 134.115 45.2598 134.866 40.02C135.114 42.4029 135.323 44.568 135.571 46.7288C136.331 53.365 136.869 60.0311 138.513 66.5349C138.821 67.7605 139.59 68.8324 139.658 70.1263C139.59 71.7149 139.837 73.3077 139.423 74.892C138.642 77.8941 135.537 80.7638 132.501 81.225C131.565 81.366 131.07 81.2378 131.578 80.1062C132.078 78.9873 132.142 77.766 132.065 76.5447Z" fill="#283156"/>
<path d="M77.1796 76.0493C77.1454 76.0792 77.1112 76.1176 77.0685 76.1347C77.06 76.139 76.9959 76.0749 77.0002 76.0706C77.0258 76.0322 77.06 75.998 77.0899 75.9639L77.1753 76.0493H77.1796Z" fill="#353E66"/>
<path d="M108.682 14.9955C105.688 13.5564 102.665 14.5642 99.731 15.1065C96.6307 15.6788 93.9745 17.3143 91.8564 19.7228C91.6727 19.9321 91.4208 20.0858 91.1987 20.2652C91.1389 19.7741 91.1347 19.3001 91.4848 18.8901C94.252 15.666 97.4591 13.2532 101.952 13.1891C102.34 13.1849 103.006 13.3685 102.968 12.7365C102.934 12.1514 102.285 12.3137 101.896 12.3692C99.5303 12.7066 97.062 12.6468 94.9652 14.0731C95.2556 12.9756 96.2933 12.7664 97.1004 12.2881C99.4192 10.9087 102.067 11.2119 104.578 10.9216C105.906 10.7678 108.135 13.1763 108.682 14.9912V14.9955Z" fill="#283156"/>
<path d="M130.427 18.8858C130.573 19.5093 130.487 19.757 130.167 19.8979C129.988 19.9747 129.808 20.0431 129.633 20.1242C126.161 21.7256 125.794 21.5719 124.556 18.0104C124.304 17.2844 123.697 16.4944 123.842 15.8709C124.022 15.0937 125.192 15.3883 125.85 14.9997C126.059 14.8759 126.285 14.7862 126.499 14.6752C127.862 13.9862 128.832 14.3891 129.407 15.8837C129.825 16.9684 130.304 18.0274 130.427 18.8858Z" fill="#3F4A76"/>
<path d="M116.421 22.2463C115.537 19.7481 114.931 17.3481 113.82 14.8115C115.755 15.2087 117.365 15.9261 119.103 15.9261C119.274 15.9261 119.53 16.1994 119.598 16.4001C120.106 17.8649 120.734 19.2912 120.986 20.8413C121.097 21.5203 120.828 21.7167 120.209 21.6783C119.389 21.6271 118.552 21.7851 117.745 21.5246C117.087 21.3111 116.583 21.3922 116.421 22.2505V22.2463Z" fill="#3F4A76"/>
<path d="M88.0196 20.4101C87.3448 20.2905 87.0929 20.0258 87.3021 19.3895C88.0879 16.9938 89.5355 15.0251 91.2138 13.2017C91.6323 12.7448 92.0038 13.0437 92.3284 13.3554C92.6358 13.6543 93.0714 14.0045 92.6358 14.4486C90.9917 16.1141 89.7405 18.0529 88.5277 20.03C88.4167 20.2137 88.1605 20.3076 88.0196 20.4101Z" fill="#3F4A76"/>
<path d="M109.542 16.1355C109.482 16.0373 109.427 15.939 109.367 15.8408C109.504 15.8921 109.76 15.875 109.542 16.1355Z" fill="#283156"/>
<path d="M127.625 79.1622C127.698 79.0726 127.774 78.9871 127.847 78.8975C127.804 79.0128 127.766 79.1281 127.723 79.2476L127.625 79.1622Z" fill="#181925"/>
<path d="M122.035 53.177C122.052 53.0788 122.095 52.9976 122.172 52.9336C122.377 53.1514 122.172 53.1471 122.035 53.177Z" fill="#181925"/>
<path d="M91.2172 20.2437C91.1916 20.3333 91.1574 20.4187 91.119 20.4999C91.1104 20.4315 91.0934 20.359 91.1062 20.2949C91.1062 20.2735 91.1788 20.2607 91.2172 20.2437Z" fill="#283156"/>
<path d="M93.0502 74.3238L93.0117 74.2085L93.1142 74.2213L93.0502 74.3238Z" fill="#181925"/>
<path d="M183.004 137.015C170.294 150.808 157.226 167.18 157.188 167.213C157.188 162.027 145.486 151.475 144.424 150.921C146.948 148.167 165.561 130.712 164.287 129.263C163.491 128.359 161.396 129.342 160.916 127.85C160.671 127.092 160.679 126.221 160.171 125.609C159.217 124.459 157.317 125.097 155.913 124.572C154.226 123.943 153.685 121.889 153.23 120.148C152.372 116.882 148.636 114.607 146.315 112.262C142.158 108.071 138.467 104.055 135.809 98.7144C133.051 93.1738 128.969 80.772 137.109 77.7893C137.667 77.5852 138.233 77.4227 138.812 77.2977C142.32 76.2438 146.294 76.9561 149.594 78.6475C153.397 80.5929 156.471 83.6881 159.358 86.8375C167.615 95.8358 175.493 105.201 183.674 114.282C189.89 121.177 192.164 127.059 183.004 137.015Z" fill="#E4F0FF"/>
<path d="M156.012 163.677C153.129 166.976 148.601 166.139 144.718 164.951C142.411 166.48 139.994 167.847 137.495 169.046C136.928 169.321 136.328 169.588 135.699 169.6C134.354 169.634 133.562 168.409 134.454 167.222C134.77 166.797 135.22 166.497 135.662 166.201C138.161 164.539 140.498 162.698 142.998 161.035C138.253 161.373 133.579 162.623 129.296 164.689C128.188 165.226 127.022 165.839 125.789 165.73C124.56 165.622 123.339 164.418 123.739 163.248C124.002 162.477 124.81 162.052 125.547 161.71C129.351 159.927 133.304 158.294 137.103 156.516C134.454 156.878 131.917 157.936 129.446 158.961C123.802 161.323 123.493 161.49 122.673 161.598C120.773 161.848 119.748 160.406 120.148 158.861C120.611 157.111 122.435 156.328 123.956 155.724C125.176 155.237 126.514 154.445 127.734 153.958C126.155 154.483 122.452 155.195 121.702 153.666C121.327 152.895 121.827 151.733 122.419 151.358C124.031 150.329 125.756 149.438 127.555 148.788C133.45 146.667 133.625 148.167 135.204 148.938C137.557 150.1 140.907 150.383 144.498 150.85C144.473 150.879 144.448 150.908 144.423 150.933C145.273 151.375 153.021 158.299 156.012 163.685V163.677Z" fill="#FFE5D8"/>
<path d="M78.8113 118.81C78.5072 121.747 77.6032 124.634 77.1408 127.513C76.1451 133.666 75.0662 138.023 73.9789 141.493C72.575 145.959 70.7254 150.458 67.3427 153.695C63.9684 156.936 58.7402 158.627 54.4702 156.715C50.8626 155.103 48.638 151.25 48.0507 147.342C46.5385 137.282 54.3703 123.351 58.2403 113.386C59.765 109.483 61.2772 106.021 65.3764 104.838C72.4584 102.788 79.7694 109.254 78.8113 118.81Z" fill="#E4F0FF"/>
<path d="M77.1374 127.513C76.8749 129.146 76.5833 130.762 76.2626 132.375C72.6091 134.312 68.7682 135.266 64.3149 133.866C60.0324 132.516 56.5456 129.134 54.7543 125.051C54.4918 124.447 54.2502 123.83 54.0586 123.201C55.4833 119.952 56.9497 116.707 58.2411 113.387C59.7658 109.483 61.278 106.021 65.3772 104.838C68.7432 105.484 73.9922 107.784 77.5165 110.871C80.4118 116.857 78.0164 122.047 77.1374 127.509V127.513Z" fill="#426FC4"/>
<path d="M58.4627 157.444C52.7055 157.444 48.7938 152.691 47.9522 147.092C47.3357 143.001 48.2647 138.848 49.2562 135.328C49.3228 135.082 49.6852 135.195 49.6186 135.428C48.6396 138.911 47.7231 143.014 48.3272 147.034C48.9646 151.266 51.3849 154.803 54.6426 156.261C58.4793 157.978 63.6867 156.749 67.3068 153.274C70.8061 149.925 72.5974 145.268 73.8888 141.156C75.1636 137.094 76.1634 132.662 77.0424 127.2C77.5089 124.33 78.4171 121.422 78.717 118.506C78.7462 118.248 79.117 118.302 79.092 118.544C78.7879 121.51 77.8839 124.372 77.4131 127.259C76.53 132.737 75.526 137.186 74.2471 141.264C72.939 145.422 71.1227 150.133 67.5651 153.541C65.2905 155.724 61.9162 157.436 58.4627 157.436V157.444Z" fill="#C9D4F2"/>
<path d="M78.8081 118.81C77.3875 122.426 74.2548 124.638 70.918 125.072C66.5397 125.63 62.9445 122.851 61.1241 119.048C59.9576 116.615 59.8785 113.945 59.0078 111.466C59.8285 109.55 60.8325 107.696 62.428 106.371C65.8315 103.563 71.8636 103.647 75.7004 108.117C77.9999 110.77 79.2538 114.44 78.8039 118.81H78.8081Z" fill="#444B68"/>
<path d="M82.1711 87.9957C82.9626 87.0917 83.7833 86.1627 84.8706 85.6503C85.9579 85.1379 87.3909 85.1587 88.2241 86.021C88.874 86.6917 89.0281 87.7249 88.849 88.6414C88.6115 89.8453 88.3699 90.0952 83.1293 99.3434C80.1174 96.5148 79.4508 91.1075 82.1669 87.9957H82.1711Z" fill="#F9CEBC"/>
<path d="M81.7583 95.7272C83.2413 89.1743 87.7737 78.6139 89.2568 72.061C87.7446 72.2943 86.2199 72.436 84.691 72.5109C83.4538 72.5693 81.3875 72.1277 80.2627 72.5818C79.1588 73.0275 78.2006 74.3481 77.0217 74.8855C75.7386 75.4687 74.3389 75.7895 72.9308 75.8061C72.5059 77.5016 72.5267 79.4762 72.0977 81.1717C75.4303 85.5459 77.0342 92.9153 81.7583 95.7314V95.7272Z" fill="#64677A"/>
<path d="M82.9807 99.9348C85.4177 101.23 86.2759 107.038 82.2725 106.246C79.7605 105.746 78.4441 105.146 76.3528 107.333C73.9116 109.883 73.82 113.786 73.0493 117.24C72.4744 119.843 71.9995 123.234 70.9164 125.072C66.5381 125.63 62.9429 122.851 61.1225 119.048C60.6351 118.035 60.3351 116.973 60.0977 115.911C60.1351 114.74 60.3684 108.971 60.3559 108.746C60.3976 107.167 60.281 105.555 60.5434 104.026C60.8808 102.03 61.4099 100.464 60.8642 98.3976C60.6392 97.5436 60.281 96.7105 60.2351 95.8273C60.131 94.0485 61.2224 92.957 62.0181 91.5198C62.6722 90.3409 62.8388 89.0203 63.5178 87.8205C64.1219 86.7457 64.8676 86.3 64.8884 84.8919C64.905 83.8213 64.3885 82.7924 64.3927 81.7259C64.4051 78.2891 69.6541 76.7769 72.3369 76.8602C75.8612 76.9643 79.1772 78.7557 81.7351 81.1843C82.5891 81.9925 83.4264 83.009 83.3723 84.1879C83.3139 85.3627 81.8142 86.3917 80.9227 85.621C82.2433 86.7624 84.1054 88.1663 84.6428 89.9118C85.0927 91.3823 84.422 93.5319 82.5099 92.7154C84.522 93.5694 86.3883 95.7481 86.58 97.9977C86.7758 100.335 85.0094 101.039 82.989 99.939L82.9807 99.9348Z" fill="#FFE5D8"/>
<path d="M82.3239 99.589C81.5657 98.4059 80.5242 97.4061 79.3161 96.6979C77.2707 95.5023 75.7127 95.3107 65.5438 93.2069C65.3022 93.1569 65.373 92.7862 65.6188 92.8362C75.4461 94.8691 77.3207 95.0899 79.5036 96.3688C80.7659 97.1062 81.849 98.1476 82.6405 99.3807C82.7738 99.589 82.4572 99.7973 82.3197 99.5848L82.3239 99.589Z" fill="#F9CEC0"/>
<path d="M82.3324 92.045C82.3324 92.045 82.3074 92.045 82.2949 92.045C79.8328 91.5785 78.2582 88.8332 75.9128 88.4082C75.0629 88.2541 74.713 88.3458 67.2145 89.0623C66.9812 89.0998 66.9145 88.7124 67.177 88.6874C74.3548 88.0042 75.0338 87.8709 75.9794 88.0375C78.4623 88.4874 80.0036 91.2244 82.3657 91.6743C82.5906 91.7159 82.5573 92.0492 82.3282 92.0492L82.3324 92.045Z" fill="#F9CEC0"/>
<path d="M81.3444 85.3671L75.9163 81.7387C74.2458 80.6222 74.7999 81.0346 67.2263 82.1719C66.9806 82.2136 66.9181 81.8386 67.1639 81.797C74.1583 80.6555 74.075 80.6139 74.6915 80.7264C75.4122 80.8597 75.3706 80.918 81.5527 85.0505C81.761 85.1921 81.5527 85.5046 81.3444 85.3629V85.3671Z" fill="#F9CEC0"/>
<path d="M78.943 114.757C76.4185 116.59 71.8111 115.628 70.9279 112.428C70.3405 110.3 70.9696 108.904 72.2818 99.9058C72.261 100.072 77.2517 101.314 77.6683 101.435C78.9055 101.785 80.2219 102.184 81.0426 103.172C82.1882 104.547 81.9924 106.559 81.7341 108.329C81.3884 110.708 80.8885 113.345 78.9472 114.757H78.943Z" fill="#64677A"/>
<path d="M96.6211 50.3322C97.8708 50.1364 99.1081 49.6115 100.391 49.6823C102.133 49.7781 102.337 51.6278 102.745 53.0608C103.778 56.6643 104.024 60.4927 103.432 64.192C103.232 65.4584 102.845 66.8414 101.758 67.5246C100.562 68.2703 99.0123 67.8829 97.6667 67.4705C97.1043 61.9091 96.871 55.9227 96.6211 50.3363V50.3322Z" fill="#64677A"/>
<path d="M101.024 59.843C101.024 71.699 92.2465 74.4485 92.2465 74.4485C89.9303 74.6401 100.637 73.7486 69.5926 76.3356C69.5093 74.4526 68.3429 48.841 68.5179 47.0205C68.522 46.9622 68.5262 46.9247 68.5387 46.9206C68.9344 46.6789 91.7425 45.8374 91.8924 45.8291C91.8924 45.8291 101.02 47.4288 101.02 59.843H101.024Z" fill="#64677A"/>
<path d="M78.9966 75.5479L69.5943 76.3353C69.3319 70.0657 68.6403 53.2815 68.5195 47.0202C68.5237 46.9619 68.5279 46.9244 68.5404 46.9202C68.7153 46.8119 77.8135 46.3912 78.176 46.3745C83.1167 55.1436 83.7207 65.9207 78.9966 75.5479Z" fill="#E4F0FF"/>
<path d="M72.4575 60.2468C73.9114 83.0298 58.8893 102.526 38.9058 103.801C18.9264 105.075 1.5506 87.6414 0.0967232 64.8625C-1.35299 42.0878 13.6649 22.5875 33.6443 21.3128C53.6279 20.038 71.0036 37.4721 72.4575 60.2468Z" fill="#64677A"/>
<path d="M68.6489 60.4926C69.9486 80.8761 56.5096 98.3226 38.6256 99.4599C20.75 100.601 5.20302 85.0002 3.90327 64.6168C2.60353 44.2374 16.0426 26.7909 33.9182 25.6536C51.798 24.5121 67.345 40.1132 68.6447 60.4884L68.6489 60.4926Z" fill="#E4F0FF"/>
<path d="M66.573 59.7179C66.9146 65.096 65.8315 70.1491 63.7277 74.29C60.6617 80.3055 55.446 84.4005 49.2972 84.7921C38.9201 85.4545 29.8219 75.3023 28.9845 62.1132C28.143 48.9241 35.8749 37.7013 46.2561 37.039C53.1756 36.5974 59.5202 40.959 63.2361 47.8202C65.0941 51.2528 66.2939 55.3145 66.573 59.7137V59.7179Z" fill="#ABBAEB"/>
<path d="M66.5721 59.718C66.9137 65.0961 65.8306 70.1493 63.7268 74.2901L38.2277 71.8781C42.1727 71.6281 45.1305 67.6123 44.8305 62.9173C44.5306 58.2224 41.0896 54.6231 37.1445 54.8731L63.2311 47.8203C65.089 51.253 66.2888 55.3147 66.5679 59.7138L66.5721 59.718Z" fill="#C9D4F2"/>
<path d="M81.6481 106.246C82.0147 105.063 81.3148 103.83 80.4567 103.134C79.3111 102.201 78.2363 101.984 72.3624 100.251C72.1208 100.181 72.2291 99.8182 72.4708 99.889C78.3613 101.626 79.4777 101.851 80.6983 102.843C81.6523 103.622 82.4313 105.009 82.0147 106.359C81.9439 106.596 81.5815 106.488 81.6523 106.246H81.6481Z" fill="#F9CEC0"/>
<path d="M44.8332 62.9213C45.1332 67.6162 42.1754 71.6321 38.2304 71.882C34.2853 72.132 30.8402 68.5285 30.5444 63.8336C30.2444 59.1387 33.2022 55.1311 37.1472 54.877C41.0923 54.6271 44.5333 58.2264 44.8332 62.9213Z" fill="white"/>
<path d="M53.888 123.959C53.8172 123.722 54.1796 123.609 54.2505 123.851C56.8041 132.508 66.5314 136.911 74.7298 133.066C74.9672 132.966 75.113 133.303 74.8922 133.407C66.523 137.332 56.525 132.883 53.8922 123.959H53.888Z" fill="#C9D4F2"/>
<path d="M164.805 158.169C162.273 161.44 159.731 164.585 157.186 167.213C157.186 162.027 145.484 151.475 144.422 150.921C145.401 149.85 148.859 146.522 152.616 142.781C158.469 146.038 163.127 152.483 164.805 158.165V158.169Z" fill="#426FC4"/>
<path d="M164.667 156.941C162.651 151.392 158.751 146.659 153.694 143.614C153.481 143.485 153.673 143.16 153.89 143.289C159.022 146.38 162.975 151.179 165.025 156.811C165.108 157.045 164.758 157.174 164.671 156.941H164.667Z" fill="#C9D4F2"/>
<path d="M106.82 159.036C106.82 163.102 103.525 166.401 99.459 166.401C95.3931 166.401 92.0938 163.102 92.0938 159.036C92.0938 154.97 95.3931 151.675 99.459 151.675C103.525 151.675 106.82 154.97 106.82 159.036Z" fill="#273454"/>
<path d="M104.061 159.036C104.061 161.577 102.004 163.635 99.4624 163.635C96.9212 163.635 94.8633 161.573 94.8633 159.036C94.8633 156.499 96.9254 154.437 99.4624 154.437C101.999 154.437 104.061 156.494 104.061 159.036Z" fill="white"/>
<path d="M111.012 158.515C111.012 159.157 110.491 159.677 109.854 159.677C109.216 159.677 108.691 159.157 108.691 158.515C108.691 157.873 109.212 157.357 109.854 157.357C110.495 157.357 111.012 157.878 111.012 158.515Z" fill="white"/>
<path d="M116.094 158.29C116.094 158.931 115.573 159.452 114.936 159.452C114.298 159.452 113.773 158.931 113.773 158.29C113.773 157.648 114.294 157.132 114.936 157.132C115.577 157.132 116.094 157.653 116.094 158.29Z" fill="white"/>
<path d="M90.1485 157.019C90.1485 157.661 89.6278 158.182 88.9904 158.182C88.353 158.182 87.8281 157.661 87.8281 157.019C87.8281 156.378 88.3489 155.861 88.9904 155.861C89.6319 155.861 90.1485 156.382 90.1485 157.019Z" fill="white"/>
<path d="M98.7273 166.455C95.4362 166.455 93.4783 163.635 93.1409 163.11C90.6205 162.852 84.1343 160.356 83.8552 160.248C83.7594 160.211 83.7094 160.102 83.7469 160.007C83.7844 159.911 83.8885 159.861 83.9885 159.898C84.0551 159.923 90.8705 162.548 93.2658 162.748L93.3616 162.756L93.4116 162.839C93.4283 162.873 95.3363 166.085 98.7273 166.085C98.7606 166.085 98.7939 166.085 98.8272 166.085C102.331 166.018 104.347 164.439 104.364 164.422L104.414 164.381H104.476C104.609 164.377 117.844 164.018 122.798 162.077C123.027 161.985 123.164 162.335 122.935 162.423C118.044 164.339 105.651 164.718 104.547 164.751C104.201 165.01 102.197 166.393 98.8356 166.455C98.7981 166.455 98.7606 166.455 98.7273 166.455Z" fill="#305FAD"/>
<path d="M127.328 154.02C130.524 151.933 134.735 151.458 138.31 152.783C138.547 152.87 138.414 153.225 138.181 153.137C134.71 151.854 130.632 152.316 127.537 154.337C127.328 154.474 127.12 154.158 127.328 154.02Z" fill="#F9CEC0"/>
<path d="M155.927 163.651C152.682 158.911 148.783 154.67 144.329 151.041C144.138 150.887 144.371 150.592 144.567 150.75C149.045 154.399 152.973 158.669 156.239 163.439C156.381 163.643 156.069 163.86 155.927 163.651Z" fill="#F9CEC0"/>
<path d="M144.415 164.705L146.427 163.01C146.627 162.852 146.861 163.139 146.673 163.297L144.661 164.993C144.469 165.155 144.228 164.864 144.415 164.705Z" fill="#F9CEC0"/>
<path d="M121.654 152.574C121.941 151.908 122.533 151.445 123.066 151.071C125.211 149.542 128.348 147.655 131.114 147.355C132.047 147.238 133.143 147.792 134.114 148.271C135.643 149.025 137.58 149.754 139.275 149.833C139.504 149.846 139.529 150.187 139.259 150.212C137.509 150.133 135.505 149.379 133.947 148.613C133.022 148.159 131.972 147.642 131.156 147.734C128.473 148.029 125.395 149.879 123.287 151.383C122.799 151.733 122.254 152.154 122.004 152.733C121.783 153.245 121.879 153.978 122.366 154.253C122.458 154.303 122.487 154.42 122.437 154.512C122.195 154.932 121.112 153.845 121.654 152.587V152.574Z" fill="#F9CEC0"/>
<path d="M60.4102 114.836C60.0894 114.836 60.2602 115.215 60.2977 105.071C60.306 103.347 60.731 101.672 60.7685 99.9891C60.8059 98.252 60.3644 96.5481 60.381 94.7485C60.381 94.4985 60.7601 94.4985 60.7601 94.7485C60.7476 96.5231 61.1892 98.2103 61.1475 99.9975C61.1101 101.705 60.6851 103.388 60.6768 105.071C60.6643 108.229 60.631 110.883 60.6018 114.649C60.6018 114.753 60.5143 114.836 60.4144 114.836H60.4102Z" fill="#F9CEC0"/>
</svg>
