<svg width="144" height="180" viewBox="0 0 144 180" fill="none" xmlns="http://www.w3.org/2000/svg">
<path d="M116.073 135.783C117.706 137.754 119.469 139.62 121.343 141.366C121.922 141.907 124.426 143.765 125.201 143.611C125.542 143.544 125.676 142.899 126.367 142.511C124.609 138.983 121.243 136.096 118.16 133.642C117.465 133.088 115.703 131.517 114.844 132.496C113.94 133.525 115.457 135.038 116.078 135.787L116.073 135.783Z" fill="#4A4B67"/>
<path d="M0.531097 77.528C0.576921 78.8694 1.70586 79.2776 2.5057 80.1066C4.80942 82.5061 6.89651 84.6182 9.99173 86.0346C11.6164 86.772 13.1536 86.9261 15.2407 87.5885C16.8612 88.1342 17.8652 89.5922 18.7067 90.9878C21.981 96.4201 22.2685 97.0908 23.0767 97.7615C24.793 99.1945 26.3885 97.3491 28.034 96.2243C34.816 91.6877 34.1078 92.1501 34.1953 92.0959C33.7162 92.4292 29.9295 88.1967 29.6295 87.7468C29.617 87.7343 29.6087 87.7176 29.5962 87.7134C26.8301 84.2516 25.2554 80.519 24.518 76.1782C24.2431 74.6077 23.3558 73.4579 22.7392 72.054C21.6978 69.692 22.8767 65.7011 21.2479 65.1346C20.5438 64.8804 19.8398 65.5053 19.4274 66.126C18.6734 67.2883 18.3318 68.6214 18.3193 69.9878C13.0411 67.5133 8.53786 63.1974 4.18871 59.419C2.86814 58.2526 1.08515 57.3444 0.201991 58.8191C-0.243755 59.5565 0.127008 60.5146 0.556091 61.2686C2.0308 63.8681 4.2137 65.9719 6.41327 67.9465C5.4093 67.4341 4.00541 68.0007 3.64299 69.0754C3.33471 69.9836 3.55966 71.1042 4.31368 71.55C3.28055 71.275 2.06413 71.7541 1.54339 72.7039C0.947678 73.7912 1.38509 75.3284 2.46821 75.9449C1.45591 75.2826 0.4936 76.6281 0.526927 77.5321L0.531097 77.528Z" fill="#FFE5D8"/>
<path d="M7.75808 79.9693C6.33753 78.5696 4.55038 77.3907 3.00902 76.1617C2.84655 76.0368 2.65908 76.2742 2.81738 76.4033C4.36291 77.6323 6.14589 78.8112 7.54145 80.1859C8.53709 81.1649 8.3913 82.3147 7.7081 82.7438C6.64164 83.402 4.792 82.0397 4.00465 81.0649C3.86718 80.9066 3.64222 81.1024 3.7672 81.2566C4.31292 81.9356 5.01279 82.4938 5.7918 82.8812C8.24965 84.1102 9.48691 81.669 7.75391 79.9693H7.75808Z" fill="#F9CEC0"/>
<path d="M10.8153 79.2526C12.6066 77.0239 7.26597 74.5952 4.81645 71.7249C4.68315 71.5708 4.45403 71.7707 4.58317 71.9249C7.03685 74.8035 12.1358 77.1197 10.5736 79.061C10.1862 79.54 9.47803 79.7775 8.76567 79.665C8.17828 79.5734 7.57841 79.2734 6.9327 78.7485C6.76606 78.6235 6.58693 78.861 6.7369 78.986C7.42427 79.5484 8.07414 79.8691 8.71568 79.9691C9.47803 80.0899 10.3279 79.8483 10.8069 79.2526H10.8153Z" fill="#F9CEC0"/>
<path d="M13.2502 75.8619C13.446 75.3454 13.3585 74.733 12.9836 73.9873C12.0921 72.221 10.7007 71.2712 6.57654 67.6052C6.42241 67.4719 6.22245 67.701 6.37242 67.8343C10.0259 71.0795 11.8172 72.3543 12.7087 74.1248C13.0461 74.7871 13.1253 75.3204 12.9628 75.7536C12.767 76.2702 12.1588 76.6326 11.5256 76.6076C10.8299 76.5868 10.2383 76.1827 9.8634 75.8494C9.71343 75.7161 9.50931 75.9411 9.65928 76.0786C11.1881 77.4408 12.8295 76.9659 13.2461 75.8661L13.2502 75.8619Z" fill="#F9CEC0"/>
<path d="M19.444 79.4027C17.5444 76.8282 17.2695 73.1956 18.765 70.3628C18.8067 70.2878 18.7733 70.1961 18.6983 70.1545C18.6234 70.1128 18.5317 70.1462 18.4942 70.217C16.9487 73.1497 17.232 76.9115 19.1982 79.5776C19.3191 79.7401 19.5648 79.5568 19.444 79.3985V79.4027Z" fill="#F9CEC0"/>
<path d="M128.088 85.7638C125.721 80.9689 119.139 74.7868 113.345 76.6406C108.083 78.3236 108.142 86.2221 108.558 90.5004C108.558 95.0787 110.991 101.698 114.261 104.948C118.173 108.838 121.485 113.042 124.888 117.483C125.172 117.849 110.454 141.924 110.508 144.806C110.57 148.289 111.783 150.097 113.728 152.801C119.248 146.548 124.772 140.291 130.291 134.038C133.891 129.959 139.348 125.414 140.248 119.757C140.885 115.754 139.215 111.784 137.577 108.076C134.357 100.769 131.587 92.8583 128.088 85.7597V85.7638Z" fill="#FFE5D8"/>
<path d="M109.042 99.4905C109.675 101.903 111.575 102.819 113.32 104.489C115.399 106.493 117.415 108.585 119.315 110.801C119.856 111.434 124.739 116.945 124.33 117.504C121.377 121.69 118.832 126.135 117.236 131.03C116.153 129.976 114.141 130.547 114.074 132.222C114.049 132.834 114.237 133.296 114.495 133.73C114.541 133.788 114.811 134.046 114.811 134.092C114.828 133.913 114.707 133.746 114.632 133.563C114.557 133.396 114.557 133.155 114.707 133.051C114.874 132.959 115.07 133.067 115.203 133.184C115.895 133.817 116.994 133.742 117.598 134.584C118.277 135.517 117.823 137.008 118.607 137.837C119.727 138.987 121.556 137.741 122.793 139.616C123.035 139.978 123.231 140.353 123.518 140.657C124.122 141.291 125.255 141.561 125.568 142.465C125.718 142.903 125.551 143.474 125.118 143.64C126.068 143.278 126.805 142.54 127.059 141.545C127.317 140.566 127.392 139.437 126.697 138.591C128.655 138.47 130.492 137.462 131.937 136.137C134.091 134.184 135.499 131.759 142.119 122.311C144.572 118.77 142.389 114.358 140.84 110.334C137.486 101.619 130.296 86.5222 124.031 80.4067C122.102 78.5238 119.752 76.7908 117.207 75.8118C116.378 75.4952 102.097 73.6333 101.223 73.5C97.9316 81.2776 106.859 91.4462 109.042 99.4905Z" fill="#426FC4"/>
<path d="M63.5481 108.509C63.5189 109.88 63.6648 110.651 64.3355 111.9C66.6183 116.166 70.2593 120.311 75.3874 120.77C81.5321 121.311 87.2185 122.565 93.4631 122.04C95.1877 121.886 96.9999 121.753 98.6912 121.382C99.6493 121.174 100.491 121.503 101.432 121.249C102.365 120.999 103.215 120.361 103.853 119.657C104.807 118.603 105.419 117.291 105.998 115.995C110.481 105.952 109.922 104.444 111.555 101.49C112.014 100.661 112.418 100.482 112.38 99.4654C112.339 98.2281 111.922 96.9242 111.772 95.687C111.468 93.1458 111.364 90.5755 111.485 88.0176C111.535 86.9345 112.584 76.1866 113.551 76.1866C110.056 75.9367 106.386 76.3658 102.803 75.6284C98.5829 74.7744 94.5295 72.2916 91.8009 68.2507C89.0473 64.1057 88.3557 58.6651 89.2972 53.916C89.0306 55.2491 74.4501 54.1326 72.7796 54.2535C73.1296 59.8399 74.1585 64.4514 72.338 69.488C71.2883 72.4165 69.5136 75.041 66.7516 76.5616C65.2686 77.3697 63.4898 77.3364 61.8776 77.7113C60.607 78.0071 60.7237 78.1821 60.9694 79.4277C62.9191 89.2549 63.7481 99.3404 63.5398 108.509H63.5481Z" fill="#FFE5D8"/>
<path d="M105.75 101.207C106.883 105.048 108.62 112.021 110.461 115.575C110.428 114.625 110.386 110.363 110.436 109.413C110.591 106.926 110.945 103.54 112.028 101.203C112.111 100.865 112.265 100.561 112.453 100.29L112.469 100.224V100.157C112.453 100.124 112.436 100.107 112.436 100.074C108.966 92.5251 109.524 83.8768 112.773 76.2408C112.032 76.2158 111.619 76.2116 111.282 76.2241C105.554 80.7399 102.3 89.534 105.746 101.207H105.75Z" fill="#F9CEBC"/>
<path d="M72.7798 55.1492C72.8965 57.0613 73.1339 58.9068 73.2547 60.7523C78.6703 65.8513 86.1105 68.6049 93.3633 70.4171C89.3057 66.0096 88.131 59.665 89.2516 54.0161C89.0975 54.7785 84.2942 54.7451 79.8909 54.591C76.879 54.9993 74.0671 55.2867 72.784 55.1492H72.7798Z" fill="#F9CEBC"/>
<path d="M59.5919 23.314C59.3753 25.4219 59.7336 27.9422 59.8335 29.8377C59.9794 32.5496 60.2543 35.2574 60.6626 37.9444C62.1081 47.455 62.7955 51.096 71.1313 56.4366C73.9933 58.2696 77.6675 59.9651 80.9669 59.5277C83.5664 59.1819 85.7618 57.4323 87.7822 55.6951C90.4984 53.3581 93.2103 50.8419 94.8017 47.5467C96.1472 44.7556 96.6055 41.5562 96.5638 38.4068C96.5305 35.7573 96.0556 33.1953 95.739 30.5709C95.5057 28.6171 95.839 26.4717 95.7848 24.4721C95.4557 11.912 88.5987 8.99176 76.122 9.78328C73.7058 9.93741 71.2771 10.3915 68.9151 10.7539C66.5822 11.1122 64.6034 13.3159 63.1579 15.0947C61.2791 17.4026 59.9085 20.2521 59.5919 23.314Z" fill="#FFE5D8"/>
<path d="M61.9819 36.5621C59.7716 35.1486 58.7216 32.8686 58.0534 30.4595C56.2506 23.9427 57.4512 17.8895 60.9832 12.2543C65.3817 5.23209 71.6894 1.21941 79.6125 0.24664C86.0707 -0.543736 92.3013 0.459433 97.6396 4.8065C100.456 7.10163 102.079 10.2859 103.591 13.5272C104.597 15.6818 105.221 17.9769 105.442 20.3632C105.559 21.659 106.62 21.4424 107.318 21.659C110.237 22.571 112.381 24.3721 113.39 27.3626C114.356 30.2239 114.455 33.2144 114.132 36.2125C113.787 39.431 113.387 42.6419 113.02 45.8566C112.748 48.2506 113.225 50.5001 114.283 52.628L114.239 52.6736C112.484 52.0466 111.591 50.5381 110.762 48.9345C108.617 53.4146 110.703 58.1949 115.223 58.7686C113.398 59.8554 111.661 60.3418 109.752 60.1328C109.646 59.6882 109.256 59.6084 108.93 59.4184C107.597 58.6508 106.385 57.7047 105.827 56.1809C104.043 51.2943 103.712 46.4076 105.699 41.4412C106.583 39.2258 107.909 37.2765 108.904 35.1372C110.648 31.3791 109.745 27.621 106.661 25.8655C106.198 25.6033 105.592 24.9801 105.133 25.7325C104.766 26.3328 104.612 27.0434 105.32 27.7008C106.829 29.0992 107.314 30.8775 106.664 32.8724C105.97 34.9966 104.623 36.4975 102.438 37.0561C102.787 35.2968 102.857 33.5412 102.409 31.7857C102.607 29.5931 102.809 27.4044 102.703 25.1967C102.618 23.4639 102.255 21.8604 100.849 20.709C99.1854 19.3449 97.4671 18.0377 95.881 16.5823C91.1374 12.2315 85.5493 10.8331 79.3812 11.3537C79.2013 11.3689 79.0654 11.4449 79.0875 11.6919C79.1903 11.7337 79.3004 11.8173 79.4142 11.8211C84.1211 12.0301 88.2663 13.6754 91.879 16.8369C94.2251 18.8889 96.4868 21.1118 99.5856 21.9782C99.6186 21.9858 99.6223 22.1188 99.648 22.2214C98.9467 22.6508 98.2124 22.4684 97.4671 22.3924C95.7231 22.2214 94.2765 21.203 92.6574 20.6786C92.6317 20.6634 92.606 20.652 92.5803 20.6368C92.606 20.652 92.628 20.6672 92.6537 20.6824C94.6437 23.7223 95.9067 27.0358 96.2041 30.7179C96.1123 31.5311 96.0499 32.3519 95.9251 33.1574C95.624 35.0802 94.8273 36.7027 93.2669 37.8731C93.1677 37.7705 93.1237 37.7439 93.1237 37.7135C93.1163 37.5843 93.109 37.4551 93.12 37.3297C93.3807 33.5146 91.8754 30.5545 89.0263 28.2404C88.1855 27.5564 87.3337 26.8876 86.4893 26.2074C86.3387 26.1086 86.1919 26.0098 86.0413 25.9149L86.1001 25.9491L86.0634 26.006C86.0046 25.7249 85.8174 25.6451 85.5677 25.6565L85.5861 25.6717C84.9399 24.6343 84.2753 23.6083 83.6475 22.5596C81.9219 19.6754 79.9723 16.9889 77.1269 15.1802C76.0181 14.4772 74.8138 13.9376 73.6536 13.322C73.6206 13.7096 73.7197 13.8388 73.8445 13.9224C77.6409 16.5443 80.4863 20.063 82.6415 24.1783C83.2363 25.3145 83.7907 26.2644 85.2152 26.101C86.0523 27.2372 86.5517 28.5558 87.2052 29.8439C82.6709 29.9123 76.4587 27.3246 73.0442 23.9161C71.1019 21.9782 69.4791 19.8084 69.1046 16.9091C69.5489 17.1751 69.6186 17.6691 69.7765 18.1061C69.9674 18.6343 70.0702 19.1853 70.8706 18.9801C71.5425 18.8053 71.8729 18.5165 71.8252 17.7603C71.7701 16.9053 71.7995 16.039 71.8142 15.1802C71.8252 14.5836 71.682 14.177 70.9991 14.1656C70.3089 14.1542 70.3015 13.7514 70.5182 13.2042C70.6577 12.8547 70.7164 12.4671 70.8082 12.0985C70.0739 12.0453 69.4314 12.2239 68.8219 12.7103C66.9788 14.177 65.5763 13.5158 65.2789 11.0801C65.2495 10.8293 65.2936 10.5329 65.0145 10.4037C64.6804 10.2479 64.4638 10.5025 64.2545 10.7039C62.5473 12.3531 61.2439 14.2834 60.4545 16.5709C60.3224 16.9509 60.1755 17.3385 60.6234 17.5931C61.0126 17.8135 61.3944 18.1859 61.8827 17.8173C62.2536 17.5361 62.595 17.2093 62.9842 16.9623C64.2252 16.1758 65.3009 14.7508 67.0449 15.7388C66.9054 15.8946 66.7842 16.077 66.6227 16.2024C62.0847 19.7362 60.829 24.7673 60.8327 30.2543C60.8327 32.3785 61.2219 34.533 61.9929 36.5583L61.9819 36.5621Z" fill="#353E66"/>
<path d="M101.19 39.9212C101.605 38.9675 102.02 38.0099 102.435 37.0561C104.616 36.4975 105.967 35.0004 106.661 32.8725C107.311 30.8813 106.822 29.103 105.317 27.7008C104.609 27.0434 104.763 26.3329 105.13 25.7325C105.589 24.9801 106.191 25.6033 106.657 25.8655C109.741 27.621 110.645 31.3791 108.901 35.1372C107.909 37.2765 106.584 39.2221 105.695 41.4412C103.709 46.4038 104.039 51.2943 105.824 56.1809C106.382 57.7047 107.593 58.6509 108.926 59.4184C109.253 59.6084 109.642 59.6882 109.749 60.1328C108.644 60.0796 107.531 60.1062 106.437 59.9618C102.754 59.483 101.029 56.5647 100.441 53.1448C99.8723 49.8465 100.467 46.6242 101.04 43.4057C101.238 42.2886 101.3 41.1828 101.069 40.0694H101.073C101.176 40.0694 101.289 40.0846 101.19 39.9174V39.9212Z" fill="#283156"/>
<path d="M68.3538 15.3472C63.2724 20.553 61.723 26.9406 62.4647 34.1072C62.5675 35.0914 62.663 36.087 62.461 37.0749C62.3031 36.9875 62.1453 36.9039 61.9874 36.8165C62.0168 36.7899 62.0682 36.7557 62.0645 36.7329C62.0535 36.6683 62.0168 36.6075 61.9911 36.5429L61.9764 36.5619C61.2054 34.5366 60.8162 32.3821 60.8125 30.2617C60.8088 24.7747 62.0682 19.7437 66.6025 16.2098C66.764 16.0844 66.8852 15.902 67.0247 15.7462C67.502 15.7462 67.8067 15.1344 68.3465 15.3472H68.3538Z" fill="#283156"/>
<path d="M61.992 36.543C62.0177 36.6076 62.0544 36.6684 62.0654 36.733C62.0691 36.7558 62.014 36.7862 61.9883 36.8166C61.9883 36.7254 61.9883 36.6342 61.992 36.543Z" fill="#353E66"/>
<path d="M114.282 52.6279C114.308 52.6545 114.337 52.6773 114.363 52.7039C114.319 52.6925 114.278 52.6849 114.234 52.6735L114.278 52.6279H114.282Z" fill="#353E66"/>
<path d="M102.406 31.7854C100.548 28.8633 98.76 28.5593 96.201 30.7214C95.9036 27.0393 94.6406 23.7259 92.6506 20.6859H92.6543C94.2698 21.2065 95.72 22.2249 97.464 22.3959C98.2093 22.4681 98.9436 22.6543 99.6449 22.2249C99.6192 22.1223 99.6192 21.9893 99.5825 21.9817C96.4837 21.1153 94.222 18.8924 91.8759 16.8405C88.2632 13.679 84.118 12.0336 79.4111 11.8246C79.2973 11.8208 79.1872 11.7372 79.0844 11.6954C79.0623 11.4484 79.1982 11.3724 79.3781 11.3572C85.5462 10.8404 91.1343 12.235 95.8779 16.5859C97.464 18.0412 99.1823 19.3484 100.845 20.7125C102.252 21.8639 102.615 23.4675 102.7 25.2002C102.806 27.4079 102.6 29.5967 102.406 31.7892V31.7854Z" fill="#283156"/>
<path d="M68.3539 15.3474C67.8142 15.1347 67.5094 15.7464 67.0321 15.7464C65.2882 14.7585 64.2161 16.1834 62.9714 16.97C62.5823 17.217 62.2408 17.5438 61.87 17.825C61.3817 18.1936 60.9998 17.8212 60.6107 17.6008C60.1627 17.3462 60.3096 16.9586 60.4418 16.5786C61.2311 14.2911 62.5382 12.3607 64.2418 10.7116C64.4511 10.5064 64.6677 10.2556 65.0018 10.4114C65.2808 10.5406 65.2368 10.8332 65.2661 11.0878C65.5635 13.5235 66.9661 14.1847 68.8092 12.7179C69.4186 12.2315 70.0575 12.0529 70.7918 12.1061C70.6963 12.4785 70.6376 12.8623 70.5017 13.2157C70.2851 13.7629 70.2924 14.1695 70.9827 14.1771C71.6656 14.1885 71.8088 14.5951 71.7978 15.1917C71.7831 16.0504 71.7537 16.913 71.8088 17.7718C71.8565 18.5318 71.5297 18.8205 70.8542 18.9915C70.0538 19.1967 69.9473 18.6495 69.7601 18.1176C69.6022 17.6806 69.5361 17.1866 69.0882 16.9206C68.7651 16.3088 69.2314 15.5678 68.7945 14.9713C68.5778 15.0055 68.3906 15.0815 68.3172 15.3208L68.3429 15.3436L68.3539 15.3474ZM67.0138 14.3063C66.9697 14.3785 66.933 14.4317 66.911 14.4887C66.9073 14.5001 66.9697 14.5609 66.9844 14.5533C67.0395 14.5267 67.0872 14.4849 67.1386 14.4507C67.0982 14.4013 67.0578 14.3557 67.0138 14.3025V14.3063Z" fill="#3F4A76"/>
<path d="M85.5843 25.6793C85.0886 25.4817 85.0042 25.6641 85.2098 26.1125C83.7852 26.2759 83.2308 25.3259 82.636 24.1898C80.4809 20.0745 77.6391 16.5596 73.8391 13.9339C73.7143 13.8465 73.6114 13.7173 73.6482 13.3335C74.8084 13.9491 76.0126 14.4887 77.1214 15.1916C79.9668 17.0004 81.9164 19.6831 83.642 22.571C84.2699 23.6198 84.9344 24.6457 85.5806 25.6831L85.5843 25.6793Z" fill="#283156"/>
<path d="M86.0582 26.0137C85.8929 25.8959 85.7277 25.7819 85.5625 25.6641C85.8122 25.6527 86.0031 25.7325 86.0582 26.0137Z" fill="#283156"/>
<path d="M86.487 26.215C86.2814 26.2112 86.1125 26.139 86.0391 25.9224C86.1896 26.0212 86.3401 26.1162 86.487 26.215Z" fill="#283156"/>
<path d="M92.6516 20.6862C92.6259 20.671 92.6038 20.6558 92.5781 20.6406C92.6038 20.6558 92.6295 20.6672 92.6552 20.6824L92.6516 20.6862Z" fill="#283156"/>
<path d="M68.3281 15.3247C68.4016 15.0853 68.5888 15.0093 68.8054 14.9751C68.6475 15.0929 68.4897 15.2107 68.3281 15.3247Z" fill="#283156"/>
<path d="M101.192 39.9214C101.291 40.0886 101.173 40.0734 101.074 40.0734C101.085 40.0012 101.126 39.948 101.192 39.9214Z" fill="#181925"/>
<path d="M67.017 14.3062C67.0611 14.3594 67.1015 14.4049 67.1419 14.4543C67.0905 14.4885 67.0427 14.5341 66.9876 14.5569C66.973 14.5645 66.9105 14.5037 66.9142 14.4923C66.9399 14.4315 66.9766 14.3783 67.017 14.31V14.3062Z" fill="#353E66"/>
<path d="M67.7812 30.5399C68.924 29.5496 71.8494 28.1631 74.4091 30.5399C71.8951 30.5399 73.4949 28.9401 67.7812 30.5399Z" fill="#444B68"/>
<path d="M90.1239 30.7682C89.0525 29.7011 86.2302 28.1153 83.512 30.3091C86.02 30.4833 84.5348 28.7765 90.1239 30.7682Z" fill="#444B68"/>
<path d="M77.2028 36.9395C76.5171 37.168 72.1747 43.3388 77.4313 45.3957C76.3647 44.253 74.8259 40.9619 77.2028 36.9395Z" fill="#444B68"/>
<path d="M84.4648 48.0702L74.4087 47.9097C74.4087 47.9097 74.8532 51.8209 79.4088 51.5533C83.9644 51.2852 84.4648 48.0707 84.4648 48.0707V48.0702Z" fill="white"/>
<path d="M72.1248 37.3966C71.3675 37.3966 70.7535 36.3734 70.7535 35.1112C70.7535 33.8489 71.3675 32.8257 72.1248 32.8257C72.8822 32.8257 73.4961 33.8489 73.4961 35.1112C73.4961 36.3734 72.8822 37.3966 72.1248 37.3966Z" fill="#444B68"/>
<path d="M87.2068 37.3966C86.4495 37.3966 85.8356 36.3734 85.8356 35.1112C85.8356 33.8489 86.4495 32.8257 87.2068 32.8257C87.9642 32.8257 88.5781 33.8489 88.5781 35.1112C88.5781 36.3734 87.9642 37.3966 87.2068 37.3966Z" fill="#444B68"/>
<path d="M98.7311 29.0001C99.7559 28.9876 101.389 29.9083 102.56 30.4832C102.989 30.6956 103.239 31.0789 103.222 31.5038C103.151 33.3659 103.172 35.3697 102.693 37.2027C102.351 38.5233 103.001 40.2146 102.405 41.4727C101.976 42.3767 101.289 43.0265 100.402 43.7181C99.8392 44.1555 99.0477 44.3138 98.3395 44.1388C96.4274 43.6639 94.6402 43.2557 94.5611 41.2894C94.4611 38.8482 94.6361 36.2445 94.7652 33.7908C94.8069 33.0243 94.5361 31.7746 95.0735 31.0872C95.5775 30.4457 97.8104 29.0085 98.7311 29.0001Z" fill="#FFE5D8"/>
<path d="M96.578 38.8816C96.5988 40.1231 97.7569 41.452 98.5901 41.5269C100.027 41.6561 101.11 39.1941 100.411 37.9401C99.3899 36.1113 96.5488 36.932 96.5821 38.8858L96.578 38.8816Z" fill="#F9CEBC"/>
<path d="M99.2929 40.3312C100.693 39.9271 100.801 38.0525 100.959 37.0402C101.034 36.5903 101.201 35.5447 100.551 33.3826C100.405 32.8994 100.218 32.3995 99.8387 32.0037C99.0263 31.1705 97.7099 31.2497 97.26 32.0829C97.135 32.3078 97.1184 32.5494 97.21 32.7619C97.2892 32.9577 97.5933 32.8369 97.5058 32.6369C97.3517 32.2703 97.7974 31.8412 98.239 31.7621C98.7097 31.6746 99.2513 31.8579 99.6095 32.2287C99.9261 32.5536 100.089 32.9618 100.247 33.4742C100.843 35.4572 100.726 36.2904 100.626 37.1194C100.522 38.0442 100.33 39.6939 99.2096 40.0188C98.818 40.1313 98.3723 40.0896 98.039 39.9105C97.8474 39.8105 97.6974 40.0938 97.8849 40.1979C98.1432 40.3354 98.8305 40.4645 99.2971 40.3312H99.2929Z" fill="#F9CEC0"/>
<path d="M19.581 92.5254C25.2507 102.619 34.5197 115.887 43.9137 122.578C45.655 123.815 47.6004 125.031 49.7375 125.006C51.1456 124.986 52.3495 124.602 53.3743 123.961C57.5735 121.324 58.9524 114.213 60.0272 108.96C61.7435 100.94 62.4684 92.7087 62.1809 84.5061C62.0518 80.8402 62.3059 76.2411 57.8401 76.1119C54.2283 76.0078 50.2583 77.3825 48.5419 80.7485C47.113 83.548 47.1422 85.2685 45.2884 102.94C44.4802 102.123 34.328 92.6587 30.3622 88.522C30.3538 88.5095 30.3413 88.5012 30.333 88.4887C29.504 87.6138 29.6081 87.718 29.5956 87.7096C28.8999 86.9515 28.5167 86.4599 28.5833 86.3557C25.9714 89.6218 23.2427 89.051 20.6057 91.4339C19.9184 92.0505 19.7351 92.3754 19.581 92.5295V92.5254Z" fill="#FFE5D8"/>
<path d="M50.2227 77.5C51.4227 76.3 63.3893 74.3333 69.2227 73.5L56.7227 107C53.056 105.833 45.6227 103.5 45.2227 103.5C44.7227 103.5 45.7227 90.5 46.7227 86.5C47.7227 82.5 48.7227 79 50.2227 77.5Z" fill="#426FC4"/>
<path d="M18.9341 98.7865C19.9797 99.2864 21.267 99.5946 22.4001 99.353C27.4741 108.185 34.2769 116.021 42.2962 122.299C45.6913 124.948 48.7657 126.577 52.6858 124.802C56.0143 123.302 57.9764 120.261 59.8594 117.125C57.8973 113.513 57.1058 109.434 55.1436 105.823C54.3063 104.269 53.6439 103.165 52.0317 102.507C48.9157 101.24 47.0327 102.782 43.0294 99.3364C39.6592 96.4494 36.4098 93.0459 33.048 90.1632C34.2102 89.6174 34.6352 87.9136 33.8603 86.8888C33.0896 85.8557 31.3358 85.789 30.4818 86.7513C29.8611 87.4554 29.757 88.4552 29.5862 89.3758C29.407 90.2923 29.0404 91.3046 28.1781 91.6712C27.3658 92.0253 26.4368 91.6712 25.5869 91.3921C24.7413 91.113 23.6915 90.9463 23.0583 91.5754C22.1751 92.4377 22.7583 94.1374 21.8627 94.9872C20.9129 95.8829 19.134 95.0705 18.1717 95.9495C17.3177 96.7285 17.8926 98.2866 18.9382 98.7865H18.9341Z" fill="#426FC4"/>
<path d="M52.3273 105.472C53.0355 108.505 53.452 111.592 53.5354 114.833C53.6187 118.17 53.3354 121.519 52.6897 124.802C56.0182 123.302 57.9803 120.261 59.8633 117.124C57.9012 113.513 57.1097 109.434 55.1475 105.822C54.3102 104.268 53.6478 103.165 52.0357 102.506C51.3691 103.506 52.069 104.435 52.3314 105.472H52.3273Z" fill="#305FAD"/>
<path d="M53.9581 105.589C54.0914 105.856 53.9123 106.827 56.141 111.78C59.1571 118.508 59.7736 120.162 58.1615 132.492C57.774 135.729 58.7239 135.609 61.7608 136.65C62.5898 136.937 63.4479 137.146 64.2894 137.329C73.0419 139.241 82.1068 139.604 90.98 138.412C94.5501 137.929 98.1036 137.192 101.39 135.746C101.828 135.534 107.368 132.597 107.598 132.597C107.898 129.418 107.748 125.744 108.727 122.686C109.776 119.378 111.938 116.179 112.93 112.925C114.567 107.731 113.126 101.444 112.797 95.858C112.451 89.2926 112.797 82.6939 113.867 76.216C111.805 75.6745 109.847 75.1912 107.735 75.1912C106.498 74.9038 105.356 74.9663 104.148 74.7247C102.674 74.4247 101.286 73.4457 99.72 73.8832C96.6581 74.7372 96.9247 79.1904 86.3309 94.2792C84.7396 96.5412 82.7316 100.503 80.8612 99.6406C80.4238 99.4281 80.153 98.9949 79.8989 98.57C72.8044 86.4015 71.9088 80.1486 69.4759 73.6582C68.7094 73.779 67.9262 73.7165 67.143 73.8248C65.9808 74.0415 65.2101 74.6163 64.1603 74.8788C62.3856 75.3454 59.5987 75.4953 58.1365 77.1242C57.095 78.3281 57.6074 79.8945 57.5033 81.3733C57.07 89.3593 52.3709 97.4035 53.9623 105.594L53.9581 105.589Z" fill="#426FC4"/>
<path d="M116.176 169.268C115.027 170.797 112.215 172.022 110.565 172.947C97.7509 180.15 81.8915 181.628 68.0984 176.979C63.0785 175.288 57.0214 173.693 53.5887 169.352C49.098 163.674 50.6227 155.967 51.4225 149.376C52.3723 141.541 54.3803 133.738 58.8252 127.131C63.216 131.468 69.973 132.638 76.1426 132.855C86.8239 133.226 97.7301 131.597 107.861 128.206C108.011 128.151 112.715 145.236 113.181 147.685C114.177 152.972 115.177 158.258 116.143 163.553C116.531 165.661 117.426 167.598 116.172 169.268H116.176Z" fill="#E8DDD9"/>
<path d="M109.699 134.458C106.179 136.637 102.176 138.078 98.1307 139.049C83.8793 142.453 68.3615 140.199 55.6473 132.925C56.5388 130.922 57.5886 128.984 58.83 127.135C63.2209 131.471 69.9779 132.642 76.1475 132.859C86.8287 133.229 97.7349 131.601 107.866 128.21C107.975 128.172 108.225 129.447 108.779 131.28C109.058 132.209 109.37 133.292 109.699 134.462V134.458Z" fill="#DACFCD"/>
<path d="M106.245 154.734C109.194 151.268 111.173 146.877 111.81 142.365C111.844 142.124 111.473 142.057 111.435 142.311C110.806 146.748 108.861 151.072 105.957 154.488C105.795 154.679 106.082 154.921 106.245 154.734Z" fill="#DACFCD"/>
<path d="M112.836 156.687C114.415 156.096 116.31 153.83 115.935 151.901C115.814 151.264 115.465 150.676 115.444 150.03C115.402 148.76 116.768 147.402 116.131 146.223C115.839 145.685 115.135 145.535 114.761 145.048C114.352 144.515 114.406 143.782 114.356 143.111C114.294 142.299 113.911 142.045 113.452 141.474C113.048 140.974 112.603 140.066 112.607 139.428C112.611 138.633 112.965 137.958 112.519 137.187C112.124 136.504 111.311 136.204 110.561 135.954C109.857 135.858 109.037 135.554 108.345 135.367C106.662 134.908 105.046 133.442 104.208 134.113C103.979 134.296 103.883 134.613 103.9 134.908C103.917 135.204 104.042 135.483 104.175 135.746C105.242 137.804 107.391 139.133 109.691 139.22C107.816 140.978 105.712 142.84 103.05 143.186C102.375 143.273 101.613 143.303 101.151 143.803C100.734 144.252 100.726 144.981 101.026 145.519C101.659 146.644 103.075 146.773 104.279 146.835C103.225 146.939 100.834 147.927 101.117 149.343C101.371 150.601 104.121 151.001 105.112 151.026C104.021 151.48 100.822 152.097 102.638 153.992C103.371 154.759 104.625 154.467 105.579 154.63C104.737 155.321 103.646 156.8 105.096 157.533C105.471 157.721 105.896 157.775 106.312 157.808C108.903 158.004 110.707 157.487 112.836 156.687Z" fill="#FFE5D8"/>
<path d="M112.662 137.104C112.25 136.391 111.454 136.079 110.613 135.796C110.104 135.725 109.571 135.562 109.05 135.404C107.98 135.079 107.971 135.137 106.601 134.454C105.776 134.046 104.755 133.459 104.097 133.988C103.843 134.192 103.701 134.542 103.726 134.925C103.743 135.167 104.076 135.112 104.064 134.904C104.047 134.638 104.139 134.383 104.31 134.25C105.018 133.671 106.655 135.092 108.296 135.537C108.988 135.725 109.813 136.029 110.538 136.129C111.287 136.383 112.016 136.666 112.371 137.279C112.483 137.47 112.775 137.304 112.662 137.108V137.104Z" fill="#F9CEC0"/>
<path d="M115.935 152.068C115.935 152.068 115.956 152.068 115.969 152.068C116.06 152.051 116.118 151.963 116.102 151.872C116.052 151.597 115.956 151.334 115.869 151.08C115.364 149.626 115.656 149.526 116.227 148.023C116.389 147.589 116.614 146.769 116.281 146.144C115.956 145.544 115.252 145.415 114.898 144.948C114.598 144.557 114.573 144.036 114.548 143.482C114.494 142.344 114.356 142.29 113.552 141.332L113.502 141.316C113.202 141.224 112.957 140.861 112.89 140.566C112.798 140.166 112.857 139.878 113.065 138.174C113.09 137.954 112.761 137.916 112.727 138.133C112.486 140.078 112.457 140.212 112.557 140.641C112.64 141.016 112.94 141.466 113.348 141.615C113.806 142.174 114.131 142.39 114.186 143.119C114.236 143.828 114.186 144.569 114.623 145.144C115.252 145.965 116.673 145.848 115.906 147.893C115.644 148.585 115.248 149.26 115.273 150.026C115.294 150.71 115.644 151.297 115.769 151.926C115.785 152.005 115.852 152.063 115.935 152.063V152.068Z" fill="#F9CEC0"/>
<path d="M109.287 157.871C110.587 157.683 111.782 157.258 112.89 156.842C113.099 156.763 112.982 156.45 112.774 156.525C110.708 157.3 108.9 157.837 106.325 157.637C105.867 157.604 105.496 157.546 105.171 157.379C104.8 157.192 104.596 156.942 104.563 156.638C104.496 156.034 105.079 155.259 105.688 154.759L105.971 154.526L105.609 154.463C104.655 154.301 103.434 154.576 102.763 153.876C101.509 152.568 102.817 151.993 104.534 151.414C105.334 151.143 105.096 151.205 105.904 150.88L105.121 150.86C104.009 150.826 101.501 150.393 101.284 149.31C101.043 148.106 103.159 147.119 104.296 147.006L104.288 146.669C103.151 146.61 101.772 146.506 101.168 145.436C100.884 144.932 100.926 144.29 101.272 143.919C101.634 143.528 102.234 143.457 102.813 143.39L103.067 143.361C105.713 143.015 107.762 141.266 109.799 139.349C109.958 139.199 109.737 138.949 109.57 139.104C107.571 140.982 105.567 142.695 103.022 143.028C102.126 143.132 101.476 143.203 101.022 143.694C100.58 144.173 100.518 144.977 100.872 145.606C101.339 146.431 102.272 146.802 103.217 146.927C100.164 148.014 99.7763 150.556 104.321 151.135C103.38 151.455 102.151 151.893 101.947 152.713C101.843 153.143 102.03 153.613 102.513 154.113C103.209 154.838 104.263 154.696 105.184 154.759C103.642 156.263 103.884 157.796 106.296 157.979C106.633 158.004 108.283 158.021 109.283 157.875L109.287 157.871Z" fill="#F9CEC0"/>
<path d="M106.034 147.173C107.621 147.023 110.775 145.477 112.337 144.527C112.524 144.415 112.354 144.123 112.162 144.24C110.666 145.152 109.071 145.906 107.421 146.481C106.525 146.794 105.501 147.077 104.638 146.598C104.447 146.485 104.276 146.781 104.472 146.894C104.942 147.156 105.501 147.227 106.034 147.173Z" fill="#F9CEC0"/>
<path d="M109.453 150.693L113.973 148.343C114.177 148.239 114.01 147.943 113.819 148.043L109.295 150.393C107.903 151.114 106.175 151.047 105.266 150.947C105.046 150.926 105.008 151.255 105.229 151.28C105.533 151.313 108.216 151.334 109.449 150.693H109.453Z" fill="#F9CEC0"/>
<path d="M110.693 154.417C112.046 153.692 113.396 152.917 114.7 152.109C114.888 151.993 114.717 151.705 114.525 151.822C113.225 152.626 111.884 153.396 110.534 154.117C109.293 154.784 107.997 154.988 106.789 154.717C105.644 154.459 105.389 154.213 105.314 154.484C105.289 154.571 105.339 154.667 105.431 154.692C105.939 154.842 106.352 154.967 106.718 155.046C108.076 155.35 109.451 155.079 110.693 154.413V154.417Z" fill="#F9CEC0"/>
<path d="M84.5262 133.042C92.4455 132.367 100.231 130.28 107.768 128.26C108.001 128.197 107.892 127.852 107.676 127.918C92.6122 131.955 76.0321 136.175 61.4058 129.197C61.1975 129.093 61.0434 129.414 61.2516 129.514C68.4294 132.938 76.5736 133.725 84.5262 133.042Z" fill="#6F7FF0"/>
</svg>
